<?xml version="1.0" encoding="UTF-8" standalone="no"?>
<!-- Created with Inkscape (http://www.inkscape.org/) -->

<svg
   xmlns:dc="http://purl.org/dc/elements/1.1/"
   xmlns:cc="http://creativecommons.org/ns#"
   xmlns:rdf="http://www.w3.org/1999/02/22-rdf-syntax-ns#"
   xmlns:svg="http://www.w3.org/2000/svg"
   xmlns="http://www.w3.org/2000/svg"
   xmlns:sodipodi="http://sodipodi.sourceforge.net/DTD/sodipodi-0.dtd"
   xmlns:inkscape="http://www.inkscape.org/namespaces/inkscape"
   width="1200"
   height="900"
   viewBox="0 0 1200 900.00001"
   id="svg2"
   version="1.1"
   inkscape:version="0.91 r13725"
   sodipodi:docname="twilio.svg">
  <defs
     id="defs4" />
  <sodipodi:namedview
     id="base"
     pagecolor="#ffffff"
     bordercolor="#666666"
     borderopacity="1.0"
     inkscape:pageopacity="0.0"
     inkscape:pageshadow="2"
     inkscape:zoom="0.39169922"
     inkscape:cx="450.77341"
     inkscape:cy="523.71387"
     inkscape:document-units="px"
     inkscape:current-layer="layer2"
     showgrid="false"
     units="px"
     inkscape:window-width="1280"
     inkscape:window-height="751"
     inkscape:window-x="-5"
     inkscape:window-y="0"
     inkscape:window-maximized="0" />
  <metadata
     id="metadata7">
    <rdf:RDF>
      <cc:Work
         rdf:about="">
        <dc:format>image/svg+xml</dc:format>
        <dc:type
           rdf:resource="http://purl.org/dc/dcmitype/StillImage" />
        <dc:title></dc:title>
      </cc:Work>
    </rdf:RDF>
  </metadata>
  <g
     inkscape:groupmode="layer"
     id="layer2"
     inkscape:label="logo"
     transform="translate(0,-152.36216)">
    <g
       id="g4339"
       transform="matrix(6.6850369,0,0,6.6850369,-440.86686,-2565.0333)">
      <ellipse
         ry="54.189995"
         rx="52.655315"
         cy="473.80374"
         cx="155.70099"
         id="path4298"
         style="opacity:1;fill:none;fill-opacity:1;fill-rule:evenodd;stroke:#e31e26;stroke-width:18.0835247;stroke-linecap:butt;stroke-linejoin:miter;stroke-miterlimit:4;stroke-dasharray:none;stroke-dashoffset:0;stroke-opacity:1" />
      <path
         d="m 140.4082,445.4043 a 13.0365,13.0365 0 0 0 -13.03711,13.03711 13.0365,13.0365 0 0 0 13.03711,13.03711 13.0365,13.0365 0 0 0 13.03516,-13.03711 13.0365,13.0365 0 0 0 -13.03516,-13.03711 z"
         id="path4308"
         style="opacity:1;fill:#e31e26;fill-opacity:1;fill-rule:evenodd;stroke:none;stroke-width:18.43899918;stroke-linecap:butt;stroke-linejoin:miter;stroke-miterlimit:4;stroke-dasharray:none;stroke-dashoffset:0;stroke-opacity:1"
         inkscape:original="M 140.4082 445.4043 A 13.0365 13.0365 0 0 0 127.37109 458.44141 A 13.0365 13.0365 0 0 0 140.4082 471.47852 A 13.0365 13.0365 0 0 0 153.44336 458.44141 A 13.0365 13.0365 0 0 0 140.4082 445.4043 z "
         inkscape:radius="0"
         sodipodi:type="inkscape:offset" />
      <path
         transform="translate(30.638221,0.10268471)"
         d="m 140.4082,445.4043 a 13.0365,13.0365 0 0 0 -13.03711,13.03711 13.0365,13.0365 0 0 0 13.03711,13.03711 13.0365,13.0365 0 0 0 13.03516,-13.03711 13.0365,13.0365 0 0 0 -13.03516,-13.03711 z"
         style="opacity:1;fill:#e31e26;fill-opacity:1;fill-rule:evenodd;stroke:none;stroke-width:18.43899918;stroke-linecap:butt;stroke-linejoin:miter;stroke-miterlimit:4;stroke-dasharray:none;stroke-dashoffset:0;stroke-opacity:1"
         id="path4308-5"
         inkscape:connector-curvature="0" />
      <path
         d="m 140.4082,445.4043 a 13.0365,13.0365 0 0 0 -13.03711,13.03711 13.0365,13.0365 0 0 0 13.03711,13.03711 13.0365,13.0365 0 0 0 13.03516,-13.03711 13.0365,13.0365 0 0 0 -13.03516,-13.03711 z"
         id="path4308-9"
         style="opacity:1;fill:#e31e26;fill-opacity:1;fill-rule:evenodd;stroke:none;stroke-width:18.43899918;stroke-linecap:butt;stroke-linejoin:miter;stroke-miterlimit:4;stroke-dasharray:none;stroke-dashoffset:0;stroke-opacity:1"
         inkscape:original="M 140.4082 445.4043 A 13.0365 13.0365 0 0 0 127.37109 458.44141 A 13.0365 13.0365 0 0 0 140.4082 471.47852 A 13.0365 13.0365 0 0 0 153.44336 458.44141 A 13.0365 13.0365 0 0 0 140.4082 445.4043 z "
         inkscape:radius="0"
         sodipodi:type="inkscape:offset"
         transform="translate(-0.05067144,30.689353)" />
      <path
         d="m 140.4082,445.4043 a 13.0365,13.0365 0 0 0 -13.03711,13.03711 13.0365,13.0365 0 0 0 13.03711,13.03711 13.0365,13.0365 0 0 0 13.03516,-13.03711 13.0365,13.0365 0 0 0 -13.03516,-13.03711 z"
         id="path4308-4"
         style="opacity:1;fill:#e31e26;fill-opacity:1;fill-rule:evenodd;stroke:none;stroke-width:18.43899918;stroke-linecap:butt;stroke-linejoin:miter;stroke-miterlimit:4;stroke-dasharray:none;stroke-dashoffset:0;stroke-opacity:1"
         inkscape:original="M 140.4082 445.4043 A 13.0365 13.0365 0 0 0 127.37109 458.44141 A 13.0365 13.0365 0 0 0 140.4082 471.47852 A 13.0365 13.0365 0 0 0 153.44336 458.44141 A 13.0365 13.0365 0 0 0 140.4082 445.4043 z "
         inkscape:radius="0"
         sodipodi:type="inkscape:offset"
         transform="translate(30.638221,30.689352)" />
    </g>
  </g>
</svg>
