<?xml version="1.0" encoding="UTF-8" standalone="no"?>
<!-- Created with Inkscape (http://www.inkscape.org/) -->

<svg
   xmlns:dc="http://purl.org/dc/elements/1.1/"
   xmlns:cc="http://creativecommons.org/ns#"
   xmlns:rdf="http://www.w3.org/1999/02/22-rdf-syntax-ns#"
   xmlns:svg="http://www.w3.org/2000/svg"
   xmlns="http://www.w3.org/2000/svg"
   xmlns:xlink="http://www.w3.org/1999/xlink"
   xmlns:sodipodi="http://sodipodi.sourceforge.net/DTD/sodipodi-0.dtd"
   xmlns:inkscape="http://www.inkscape.org/namespaces/inkscape"
   width="302.70609mm"
   height="281.65781mm"
   viewBox="0 0 1072.5806 998.0001"
   id="svg2"
   version="1.1"
   inkscape:version="0.91 r13725"
   sodipodi:docname="logo.svg">
  <defs
     id="defs4" />
  <sodipodi:namedview
     id="base"
     pagecolor="#ffffff"
     bordercolor="#666666"
     borderopacity="1.0"
     inkscape:pageopacity="0.0"
     inkscape:pageshadow="2"
     inkscape:zoom="0.93976069"
     inkscape:cx="495.50697"
     inkscape:cy="422.39778"
     inkscape:document-units="px"
     inkscape:current-layer="layer14"
     showgrid="false"
     inkscape:window-width="1680"
     inkscape:window-height="1001"
     inkscape:window-x="0"
     inkscape:window-y="0"
     inkscape:window-maximized="1"
     showguides="false"
     fit-margin-top="0"
     fit-margin-left="0"
     fit-margin-right="0"
     fit-margin-bottom="0" />
  <metadata
     id="metadata7">
    <rdf:RDF>
      <cc:Work
         rdf:about="">
        <dc:format>image/svg+xml</dc:format>
        <dc:type
           rdf:resource="http://purl.org/dc/dcmitype/StillImage" />
        <dc:title />
      </cc:Work>
    </rdf:RDF>
  </metadata>
  <g
     inkscape:groupmode="layer"
     id="layer18"
     inkscape:label="orange circle"
     style="display:inline;opacity:0.87000002"
     sodipodi:insensitive="true"
     transform="translate(-144.32741,-582.06508)">
    <circle
       style="opacity:1;fill:#921717;fill-opacity:1;fill-rule:evenodd;stroke:#000000;stroke-width:2;stroke-linejoin:miter;stroke-miterlimit:4;stroke-dasharray:none;stroke-opacity:1"
       id="path4635"
       cx="683.20905"
       cy="1153.1882"
       r="425.87692" />
  </g>
  <g
     inkscape:groupmode="layer"
     id="layer19"
     inkscape:label="est"
     sodipodi:insensitive="true"
     style="display:inline"
     transform="translate(-144.32741,-582.06508)">
    <text
       xml:space="preserve"
       style="font-style:normal;font-variant:normal;font-weight:normal;font-stretch:normal;font-size:50px;line-height:81.00000024%;font-family:'Droid Sans';-inkscape-font-specification:'Droid Sans';letter-spacing:0px;word-spacing:0px;fill:#000000;fill-opacity:1;stroke:none;stroke-width:1px;stroke-linecap:butt;stroke-linejoin:miter;stroke-opacity:1"
       x="578.33868"
       y="1550.8934"
       id="text4646"
       sodipodi:linespacing="81%"><tspan
         sodipodi:role="line"
         id="tspan4648"
         x="578.33868"
         y="1550.8934"
         style="font-style:normal;font-variant:normal;font-weight:normal;font-stretch:normal;font-family:'Times New Roman';-inkscape-font-specification:'Times New Roman, ';fill:#ffffff">EST. 2015</tspan></text>
  </g>
  <g
     inkscape:groupmode="layer"
     id="g4641"
     inkscape:label="outter white circle"
     style="display:inline;opacity:0.87000002"
     transform="translate(-144.32741,-582.06508)">
    <ellipse
       ry="326.2894"
       rx="326.28937"
       style="opacity:1;fill:#cfcbce;fill-opacity:1;fill-rule:evenodd;stroke:#000000;stroke-width:1.5323174;stroke-linejoin:miter;stroke-miterlimit:4;stroke-dasharray:none;stroke-opacity:1"
       id="ellipse4643"
       cx="683.20905"
       cy="1153.1882" />
  </g>
  <g
     style="display:inline;opacity:0.87000002"
     inkscape:label="inner white circle"
     id="g4637"
     inkscape:groupmode="layer"
     sodipodi:insensitive="true"
     transform="translate(-144.32741,-582.06508)">
    <ellipse
       cy="1153.1882"
       cx="683.20905"
       id="circle4639"
       style="opacity:1;fill:#cac7ca;fill-opacity:1;fill-rule:evenodd;stroke:#000000;stroke-width:1.50212479;stroke-linejoin:miter;stroke-miterlimit:4;stroke-dasharray:none;stroke-opacity:1"
       rx="319.86017"
       ry="319.8602" />
  </g>
  <g
     inkscape:groupmode="layer"
     id="layer13"
     inkscape:label="water white gray"
     style="display:inline"
     sodipodi:insensitive="true"
     transform="translate(-144.32741,-582.06508)">
    <path
       style="fill:#bdbcc1;fill-opacity:1;fill-rule:evenodd;stroke:none;stroke-width:1px;stroke-linecap:butt;stroke-linejoin:miter;stroke-opacity:1"
       d="m 517.15293,1348.7142 430.1438,-11.5871 c 16.55352,-24.2659 13.58619,-30.4448 13.58619,-30.4448 l 4.2564,-77.1473 -447.45434,19.1538 -30.85892,54.8012 z"
       id="path4540"
       inkscape:connector-curvature="0"
       sodipodi:nodetypes="ccccccc" />
  </g>
  <g
     inkscape:groupmode="layer"
     id="layer12"
     inkscape:label="water light gray"
     style="display:inline"
     sodipodi:insensitive="true"
     transform="translate(-144.32741,-582.06508)">
    <path
       style="fill:#a3a9b7;fill-opacity:1;fill-rule:evenodd;stroke:none;stroke-width:1px;stroke-linecap:butt;stroke-linejoin:miter;stroke-opacity:1"
       d="m 408.73822,1318.9728 c 0,0 14.49445,22.9104 19.00905,27.2369 l 187.30293,-3.8801 5.3205,-3.7243 1.59615,-3.7244 38.30762,-2.1282 6.38461,-1.5961 -3.72435,-3.1923 -2.66026,-1.0641 -4.78845,0 0.53205,-4.7885 1.59615,-14.3653 6.91666,2.1282 4.78845,-2.1282 11.70511,0 -20.74997,-13.8333 5.85256,-28.7308 13.83331,0 24.47431,-1.5961 38.30763,2.1282 26.60252,-11.1731 17.02561,10.641 23.41021,-1.0641 36.71147,-11.7051 14.36536,7.9808 9.57691,2.1282 1.59615,-3.7244 0,-4.2564 25.00637,-1.5961 19.15381,2.1282 28.19867,2.1282 5.3205,32.4551 -41.49993,-3.7244 -22.87816,-0.532 -26.07047,0 -7.4487,0 0,2.6602 55.86528,0 15.42946,0.5321 -27.13456,-1.0641 -6.91666,3.1923 -7.98075,3.7243 -27.13457,1.0641 2.1282,4.2564 2.1282,-1.0641 51.07684,-0.532 44.69222,0 -20.74996,10.641 -23.41021,-2.1282 -9.57691,0.532 -11.70511,3.7244 19.68586,-2.1282 15.42946,2.6602 40.54832,-10.7701 -15.0099,-108.9412 -315.50585,-9.0449 -55.86529,76.0832 -3.1923,38.8397 30.32687,14.8974 9.04486,6.3846 -13.30126,5.3205 -0.53205,2.1282 17.02561,1.0641 6.3846,0.5321 -5.3205,4.2564 -9.04486,0 -22.34611,3.7243 -12.23716,0.5321 -14.89741,-1.5962 -16.49356,0 10.10896,-5.3205 -11.17306,-0.532 3.1923,-4.7885 -35.64737,-7.9807 -71.8268,0.532 z"
       id="path4537"
       inkscape:connector-curvature="0"
       sodipodi:nodetypes="cccccccccccccccccccccccccccccccccccccccccccccccccccccccccccccccccccccccccccc" />
  </g>
  <g
     inkscape:groupmode="layer"
     id="layer11"
     inkscape:label="water light blue"
     style="display:inline"
     sodipodi:insensitive="true"
     transform="translate(-144.32741,-582.06508)">
    <path
       id="path4533"
       style="fill:#356ca4;fill-opacity:1;fill-rule:evenodd;stroke:none;stroke-width:1px;stroke-linecap:butt;stroke-linejoin:miter;stroke-opacity:1"
       d="m 874.69076,1244.4324 -19.68586,-1.5962 -45.75633,-3.7243 -26.60252,0.532 2.1282,3.1923 29.26277,0 46.82043,4.2564 15.42946,-0.532 z m -144.18564,-42.564 -4.78845,-1.5962 9.5769,-6.3846 -25.53841,-3.1923 -15.96151,-2.6603 -6.38461,7.9808 1.0641,2.6602 19.68587,1.5962 -11.17306,2.1282 1.59615,3.7244 29.79482,-0.5321 z m -113.85877,50.5447 56.39733,-7.9807 19.15382,-9.5769 20.21791,-2.6603 9.04485,2.1282 6.91666,-0.532 1.59615,2.6602 6.91665,1.5962 -2.1282,4.7884 -16.49356,0.5321 -4.2564,1.0641 1.59615,2.6602 21.81406,-1.0641 83.53191,-1.0641 39.90377,5.3205 69.16655,-0.532 33.51917,-2.1282 0,8.5128 -22.34611,-1.5962 0,6.9167 -1.06411,4.7884 0,3.1923 -31.92302,2.6603 -0.53205,2.1282 27.13457,-0.5321 10.64101,0.5321 -2.1282,2.1282 -13.30126,1.0641 -4.2564,1.0641 1.0641,1.5962 12.23715,0.532 -4.2564,3.7244 -20.21791,0 -14.89741,1.5961 0,1.5962 20.74996,1.5961 0,2.6603 -6.91665,0.532 -3.72435,-0.532 -2.66026,-0.5321 0,1.0641 4.78846,3.7244 -4.25641,2.6602 37.77558,0.5321 -1.59615,3.1923 -6.38461,2.6602 -6.91665,2.1282 -21.28201,0 -0.53206,1.5962 14.36536,1.5961 -4.2564,3.1923 -18.08971,1.5962 0.53205,1.0641 29.79482,0 25.00637,-0.5321 0,3.7244 -9.04486,2.1282 -38.83968,1.5961 0,2.6603 43.62813,-1.5962 2.1282,2.6603 -3.72435,3.7243 -26.07047,0 0,1.5962 11.17306,1.0641 -1.59615,5.3205 13.30126,0 c 0,0 30.55279,-51.4272 39.90378,-82.4678 15.67031,-52.0174 -260.70467,-103.2178 -260.70467,-103.2178 l -88.85241,1.0641 -28.19867,79.8076 z m -203.42581,73.955 c -15.9892,-25.5827 -24.47985,-46.4119 -24.47985,-46.4119 l 0.18811,-18.4982 152.1664,2.1282 59.58964,4.7884 -4.25641,16.4936 -15.96151,0 -2.66025,3.1923 17.55766,1.0641 -6.3846,11.7051 -37.77558,-0.532 3.72436,20.7499 -1.0641,3.1923 -47.35248,2.6603 -3.19231,2.1282 -20.74996,0.532 0,-2.1282 22.87817,-2.6602 7.4487,-5.8526 -60.12169,-0.532 -23.41021,5.3205 z"
       inkscape:connector-curvature="0"
       sodipodi:nodetypes="ccccccccccccccccccccccccccccccccccccccccccccccccccccccccccccccccccccccccccccccccccccccccscccccccccccccccccccccccccc" />
  </g>
  <g
     inkscape:groupmode="layer"
     id="layer10"
     inkscape:label="water blue"
     style="display:inline"
     sodipodi:insensitive="true"
     transform="translate(-144.32741,-582.06508)">
    <path
       id="path4522"
       style="fill:#245590;fill-opacity:1;fill-rule:evenodd;stroke:none;stroke-width:1px;stroke-linecap:butt;stroke-linejoin:miter;stroke-opacity:1"
       d="m 594.30023,1251.8811 -7.4487,1.5961 -4.25641,3.1923 12.76921,0 z m 55.80172,11.5385 -23.70164,-2.2573 -7.52432,1.1287 -1.50487,-10.5341 -24.13499,-9.9848 -5.85255,3.7244 -20.21792,-2.6603 2.66026,29.7948 12.7692,-1.0641 17.02562,0 20.74996,1.5962 34.58327,0.532 -40.43582,-4.7884 3.1923,-3.1923 34.05122,-2.1282 z m -112.11249,37.6216 -23.32542,-0.3762 0,-3.7621 -41.00759,0 -3.38594,-1.5049 -0.37622,-1.8811 -2.63351,0 -1.12865,3.0098 -4.13838,-1.8811 -6.7719,4.8908 9.02919,0 2.2573,-0.7524 -1.12865,3.0097 -4.13838,1.5048 -3.76216,0 0,1.1287 4.5146,3.3859 3.38594,-3.7621 4.89082,2.2573 9.78162,-1.1287 4.89082,-0.7524 27.84001,-1.5049 11.28649,1.8811 13.54379,-0.7524 z m 7.89419,-27.8781 -18.62176,-1.5962 -15.96151,5.3205 0,0.5321 20.74996,2.1282 -4.78845,4.2564 17.55766,-1.0641 4.78845,0.5321 -3.72435,3.7243 -25.00636,0 -8.51281,4.2564 -34.58327,-10.641 -4.25641,-3.7244 2.66026,-3.7243 -15.96151,-5.3205 -10.64101,1.5961 -0.53205,4.2564 -9.04486,2.6603 -10.641,4.2564 -2.66026,-0.532 2.12821,-6.9167 11.7051,-7.4487 -10.10895,-0.5321 -7.44871,2.1282 -10.10895,0 -7.98076,2.6603 -4.78845,-2.6603 -9.04486,0.5321 0.53205,5.3205 4.2564,0 -1.59615,4.7884 -5.3205,2.6603 c 0,0 -14.64565,-35.923 -12.51745,-36.9871 2.12821,-1.0641 14.1136,-3.7244 14.1136,-3.7244 l 8.51281,1.0641 5.85255,-7.0448 14.89741,-9.4487 30.85892,4 25.00637,3.7243 1.0641,7.4487 60.65374,0 16.49356,12.2372 z m 146.31385,-66.5063 -9.04486,5.8526 -5.85255,-1.5962 -19.15382,3.1923 -9.5769,1.5962 -46.82043,-2.1282 -35.64738,-5.8526 -8.5128,-10.109 61.71784,-29.7948 12.90938,-5.8968 11.03288,26.1147 -2.66025,6.9167 37.24353,-1.0641 -1.0641,2.1282 -38.30763,1.5961 0,2.6603 28.19867,0 16.49356,-2.1282 7.4487,6.9167 z"
       inkscape:connector-curvature="0"
       sodipodi:nodetypes="ccccccccccccccccccccccccccccccccccccccccccccccccccccccccccccccccccccccccccccccscccccccccccccccccccccccccccccc" />
  </g>
  <g
     inkscape:groupmode="layer"
     id="layer9"
     inkscape:label="water dark blue"
     style="display:inline"
     sodipodi:insensitive="true"
     transform="translate(-144.32741,-582.06508)">
    <path
       id="path4513"
       style="fill:#0f2459;fill-opacity:1;fill-rule:evenodd;stroke:none;stroke-width:1px;stroke-linecap:butt;stroke-linejoin:miter;stroke-opacity:1"
       d="m 864.04976,1214.6376 27.13456,-4.7885 -56.39733,-35.6474 -42.03198,4.2564 z m 114.92287,53.737 -24.47432,1.5962 -1.59615,-2.1282 -4.2564,-2.6603 -21.28201,-3.1923 30.32687,-1.0641 0.53205,-4.2564 -12.23716,-0.532 -9.04486,2.1282 -8.5128,0 -7.44871,-1.0641 -1.0641,0 0,-2.6603 12.76921,0 7.4487,-2.1282 10.64101,1.0641 6.91666,-0.532 2.1282,-2.1282 -9.04486,0 -5.85255,-1.0641 -5.32051,1.5961 -3.72435,0 -10.10895,-1.5961 0,-2.6603 12.23715,-0.532 5.85256,-2.6603 14.36536,0.5321 13.83331,-6.3846 15.96151,4.7884 c 0,0 -1.59616,19.1538 -9.04486,25.5384 z m -3.1923,10.109 -16.49356,1.5962 0,-2.6603 19.15381,-3.1923 z m -549.07596,45.2243 -1.59615,-3.1923 -12.23715,4.7884 z m 138.33309,15.4294 -5.85255,-3.7243 -70.23065,-1.0641 0,5.3205 40.96788,2.1282 35.64737,2.1282 z m 223.46115,-133.0125 -9.04486,1.5961 -3.1923,1.5962 -3.72435,-1.0641 -21.28202,1.5961 -6.3846,-1.0641 -4.78845,0.5321 -8.51281,3.1923 -6.91665,8.5128 7.98075,2.1282 4.2564,-6.9167 25.53842,-2.6602 4.2564,7.9807 6.91666,0 3.72435,-3.1923 4.78845,-2.1282 -15.42946,-3.1923 8.51281,-1.5961 13.83331,1.0641 3.72435,-1.0641 z m 22.34611,-6.9167 -9.5769,2.1282 7.98075,4.2564 10.64101,8.5128 8.5128,-1.5961 9.04486,2.1282 13.30126,-4.2564 z m -118.64722,-34.0512 -11.70511,6.3846 -19.68586,-5.3205 -14.89741,1.0641 -8.51281,-9.0449 48.41658,3.7244 z m -145.7818,54.8012 22.34612,-5.8526 1.0641,7.9808 29.79482,-5.8526 10.641,5.8526 40.43583,-2.1282 -1.0641,-6.3846 -36.71148,-0.5321 -2.1282,-3.1923 -26.60251,1.0641 0,-2.6602 -1.59616,1.0641 -6.3846,0.532 -1.59615,-3.7243 1.0641,-1.5962 1.0641,-3.7243 -10.10896,-0.5321 -5.3205,-4.2564 -30.32687,12.7692 c 0,0 -38.71378,17.8683 -51.60888,23.4102 l -4.66025,7.9808 64.78194,0.4038 z m 88.32036,-51.6089 2.66025,3.1923 8.51281,-3.7244 1.0641,2.6603 -2.12821,3.7243 1.59616,5.3205 -2.12821,2.6603 0,3.1923 5.32051,2.1282 -0.53205,2.6602 -11.70511,0 -12.23716,0 -9.04485,-1.0641 1.59615,-2.1282 -2.66025,-2.1282 2.66025,-2.1282 0.53205,-9.0448 z m -217.60859,61.1858 0.53205,3.1923 -14.89741,11.173 20.74996,-6.9166 -3.1923,4.7884 -16.49356,7.4487 -5.3205,7.9808 26.07046,-9.0449 16.84304,-27.3281 -16.84304,-0.8705 z"
       inkscape:connector-curvature="0"
       sodipodi:nodetypes="ccccccccccccccccccccccccccccccccccccccccccccccccccccccccccccccccccccccccccccccccccccccccccccccccccccccccccccccccccccccccccccccccccccccccccc" />
  </g>
  <g
     inkscape:groupmode="layer"
     id="layer14"
     inkscape:label="DAM"
     transform="translate(-144.32741,-582.06508)">
    <path
       id="path4551"
       style="fill:#18191b;fill-opacity:1;fill-rule:evenodd;stroke:#ffffff;stroke-width:4;stroke-linecap:butt;stroke-linejoin:miter;stroke-opacity:1;stroke-miterlimit:4;stroke-dasharray:none"
       d="m 675.70393,1260.3939 7.44871,19.6859 -18.08971,0 7.4487,-20.75 z m 56.92939,10.641 c 0,0 -5.3205,-12.7692 -3.1923,-14.8974 2.1282,-2.1282 4.78845,-0.5321 4.78845,-0.5321 l -1.0641,-10.1089 -1.0641,-2.6603 1.59615,-3.1923 0,-23.4102 12.23716,-0.532 0,-2.1282 18.08971,-0.5321 c 0,0 -0.53205,2.1282 0,4.2564 0.53205,2.1282 4.2564,2.6603 4.2564,2.6603 l 10.64101,-2.6603 16.49356,60.6537 2.66025,0 5.32051,-13.3012 17.02561,-46.2884 12.23716,-3.1923 4.78845,-1.5961 18.62176,1.5961 1.59615,11.7051 -1.0641,33.5192 c 0,0 6.91666,-4.2564 4.78845,3.1923 -2.1282,7.4487 -5.3205,17.0256 -5.3205,17.0256 l 2.66025,34.0512 c 0,0 -2.66025,6.9167 -7.4487,7.4487 -4.78846,0.5321 -17.02561,-0.532 -17.02561,-4.2564 0,-3.7243 -2.66025,-55.8653 -2.66025,-55.8653 l -1.59616,0 -21.81406,56.3974 -9.04486,0 c 0,0 -17.55766,3.1923 -20.21791,-3.1923 -2.66025,-6.3846 -15.42946,-49.4807 -15.42946,-49.4807 l -2.66025,0.532 c 0,0 -2.66025,19.6859 -1.0641,23.4103 1.59615,3.7243 2.66025,25.5384 2.66025,25.5384 0,0 -4.2564,7.4487 -7.98075,6.3846 -3.72436,-1.0641 -6.91666,-1.5962 -6.91666,-1.5962 l -2.1282,2.1282 -6.91665,0 z m -65.44219,-54.2691 c 0,0 -7.44871,3.1923 -8.51281,7.9807 -1.0641,4.7885 4.78846,6.9167 4.78846,6.9167 0,0 -5.85256,14.8974 -9.04486,19.6858 -3.1923,4.7885 -7.98075,17.5577 -7.98075,17.5577 l -4.25641,4.2564 0,3.1923 -3.72435,15.9615 -5.85255,22.3461 0.53205,3.7244 c 0,0 5.3205,7.4487 10.641,6.3846 5.32051,-1.0641 13.83331,-2.6603 13.83331,-5.8526 0,-3.1923 0,-15.4294 0,-15.4294 0,0 14.36536,1.5961 15.96151,2.1282 1.59615,0.532 4.78846,2.6602 4.78846,2.6602 l 3.1923,0 0,-4.2564 c 0,0 10.10896,-1.0641 10.10896,1.0641 0,2.1282 4.2564,15.4295 4.2564,15.4295 0,0 10.10895,2.6602 12.23716,1.0641 2.1282,-1.5962 8.5128,-4.7885 7.98075,-7.9808 -0.53205,-3.1923 -1.59615,-10.641 -1.59615,-10.641 0,0 4.78845,-1.5961 5.85255,-4.7884 1.0641,-3.1923 4.25641,-16.4936 1.0641,-17.5577 -3.1923,-1.0641 -13.30125,0 -13.30125,0 l -2.66026,-11.1731 c 0,0 2.66026,-8.5128 0.53205,-8.5128 -2.1282,0 -5.3205,0 -5.3205,0 l -4.78845,-12.2371 0,0 2.1282,-1.0641 -6.91666,-9.5769 -2.66025,-7.4487 c 0,0 8.51281,-3.1923 3.72436,-6.9167 -4.78846,-3.7243 -15.42946,-9.5769 -15.42946,-9.5769 0,0 -8.51281,1.0641 -9.57691,2.6603 z m -96.30111,28.7307 0,14.3653 5.3205,-3.1923 c 0,0 3.1923,5.3205 -3.72435,14.8974 -6.91666,9.577 -1.59615,25.5385 -1.59615,25.5385 0,0 10.10895,0.532 12.76921,-0.5321 2.66025,-1.0641 11.17305,5.3205 10.10895,-25.5384 -1.0641,-30.8589 -7.4487,-26.6025 -7.4487,-26.6025 l -6.38461,2.6602 -1.0641,1.5962 c 0,0 -5.3205,-5.8526 -7.98075,-3.1923 z m -27.13457,-26.0705 0.53205,4.2564 -4.2564,1.5962 -3.72435,3.7243 0,8.5128 0,7.9808 5.85255,0.532 3.72435,4.7885 0,12.2371 1.59615,32.9872 -6.91665,2.6602 -0.53205,1.5962 -2.66025,0 -0.53205,12.2371 1.0641,1.0641 1.0641,5.3205 14.36536,1.5962 0,2.6602 c 0,0 10.10895,1.0641 12.23715,-1.0641 2.12821,-2.1282 6.38461,-0.532 6.38461,-0.532 0,0 5.3205,0.532 9.04485,-0.5321 3.72436,-1.0641 21.81407,-2.6602 21.81407,-2.6602 0,0 16.49356,-24.4743 17.55766,-27.6666 1.0641,-3.1923 1.0641,-24.4744 1.0641,-24.4744 l 1.59615,-7.9807 -3.1923,-3.7244 c 0,0 -3.1923,-10.641 -3.1923,-12.7692 0,-2.1282 -6.91666,-23.9422 -11.17306,-25.5384 -4.2564,-1.5961 -15.42946,-1.0641 -19.15381,0 -3.72436,1.0641 -12.23716,4.7885 -12.23716,4.7885 l -1.59615,-5.3205 -2.1282,-1.5962 -15.42946,1.5962 z"
       inkscape:connector-curvature="0" />
  </g>
  <g
     inkscape:groupmode="layer"
     id="layer15"
     inkscape:label="GROWLERS"
     transform="translate(-144.32741,-582.06508)">
    <path
       id="path4347"
       style="fill:#171516;fill-opacity:1;fill-rule:evenodd;stroke:#ffffff;stroke-width:4;stroke-linecap:butt;stroke-linejoin:miter;stroke-opacity:1;stroke-miterlimit:4;stroke-dasharray:none"
       d="m 378.02177,1385.1597 c 0,0 1.86217,2.3942 1.0641,3.4583 -0.79808,1.0641 -5.05448,2.6603 -6.3846,2.3942 -1.33013,-0.266 -6.91666,5.0545 -6.91666,5.0545 l -27.66662,-1.3301 -6.11858,14.6314 c 0,0 8.51281,-2.1282 7.71473,1.0641 -0.79807,3.1923 -6.3846,11.173 -6.3846,11.173 l 0.53205,29.2628 20.48394,0.5321 -2.1282,-25.5385 c 0,0 -1.86218,-7.1826 2.1282,-6.9166 3.99038,0.266 10.10895,0 10.10895,0 l 5.58653,-1.3301 8.77883,0.532 0.26603,34.8493 -1.59615,3.4583 0.79807,17.5577 c 0,0 -13.83331,4.7885 -18.62176,4.7885 -4.78845,0 -21.28201,0.532 -21.28201,0.532 0,0 -22.08009,4.5225 -23.67624,-2.9263 0,0 -7.18268,-14.0993 -7.71473,-30.8589 -0.53205,-16.7596 0.79807,-20.75 0.79807,-20.75 l -1.86217,-6.3846 0,-8.7788 1.0641,-2.3942 -0.26603,-17.0256 c 0,0 -3.45832,-3.4584 -1.86217,-6.3846 12.19844,-17.0651 3.31756,-16.4806 31.39097,-14.8974 13.30126,0 37.77557,-1.5962 37.77557,-1.5962 0,0 3.45833,-0.266 3.45833,2.1282 0,2.3942 0.53205,15.6955 0.53205,15.6955 z m 19.95189,-15.6955 c 0,0 -4.52243,0.5321 -5.32051,5.8526 -0.79807,5.3205 -5.85255,10.1089 -5.85255,10.1089 0,0 -1.33013,6.3846 -1.33013,10.641 0,4.2564 9.31088,7.1827 9.31088,7.1827 l 2.39423,67.5704 c 0,0 -0.26602,8.7788 7.44871,8.7788 7.71473,0 19.68586,-1.0641 19.68586,-11.173 0,-10.109 -1.0641,-28.9968 -1.0641,-28.9968 l 28.99674,33.5192 c 0,0 5.3205,6.9167 9.31088,4.7885 3.99038,-2.1282 11.97113,-10.375 11.97113,-10.375 0,0 4.52243,-3.1923 -2.39422,-12.2372 -6.91666,-9.0448 -15.69549,-22.3461 -15.69549,-22.3461 0,0 -4.2564,-4.2564 -1.33012,-7.4487 2.92627,-3.1923 12.50318,-17.0256 12.50318,-17.0256 l 2.1282,-2.6603 -1.0641,-1.3301 2.39423,-1.5961 -0.26603,-2.1282 3.99038,-4.5225 c 0,0 0.26603,-4.5224 -1.33013,-4.7884 -1.59615,-0.2661 -2.66025,-4.5225 -2.66025,-4.5225 l 0,-4.2564 c 0,0 2.92628,-3.4583 2.66025,-5.0544 -0.26602,-1.5962 -1.59615,-3.9904 -1.59615,-3.9904 0,0 -2.39422,1.0641 -5.3205,0.532 -2.92628,-0.532 -12.23716,-1.8621 -12.23716,-1.8621 l -17.02561,-1.0641 c 0,0 -4.78845,-2.1282 -5.85255,-1.3302 -1.0641,0.7981 -4.25641,4.2564 -5.85256,4.2564 -1.59615,0 -3.1923,-2.1282 -3.1923,-3.7243 0,-1.5962 0,-3.1923 -4.52243,-2.9263 -4.52242,0.266 -18.88778,2.1282 -18.88778,2.1282 z m 25.80444,28.4647 -0.79808,20.75 c 0,0 16.22754,-10.9071 17.29164,-16.4936 1.0641,-5.5865 2.92628,-11.4391 -16.49356,-4.2564 z m 74.22102,-20.2179 c 0,0 -4.52243,-7.1827 3.72435,-8.2468 8.24678,-1.0641 21.81407,-3.9904 21.81407,-0.266 0,3.7243 1.33012,3.9904 11.43908,3.4583 10.10896,-0.532 14.89741,0.5321 16.22753,-3.4583 1.33013,-3.9904 0.53206,-6.3846 9.31089,-3.9904 8.77883,2.3942 19.68586,2.6603 19.15381,9.8429 -0.53205,7.1827 -1.86218,17.0256 -4.52243,19.6859 -2.66025,2.6603 -5.05448,11.7051 -4.78845,18.3557 0.26602,6.6507 1.0641,6.9167 3.1923,6.9167 2.1282,0 4.78845,4.2564 2.39423,7.9807 -2.39423,3.7244 -3.45833,20.75 -3.45833,20.75 0,0 1.59615,1.0641 5.05448,1.0641 3.45832,0 4.2564,7.4487 3.45832,14.0993 -0.79807,6.6507 -2.66025,12.2372 -5.58652,11.7052 -2.92628,-0.5321 -9.57691,1.5961 -9.57691,1.5961 0,0 -6.91666,1.3301 -9.31088,0.266 -2.39423,-1.0641 -10.37498,-1.5961 -11.43908,-1.3301 -1.0641,0.266 -21.28202,1.8622 -21.28202,1.8622 l -2.92627,0.7981 -10.37499,0 c 0,0 -4.2564,-0.7981 -6.91665,-3.9904 -2.66025,-3.1923 -10.10896,-6.3846 -10.10896,-6.3846 0,0 -2.1282,-1.8622 -2.39422,-5.0545 -0.26603,-3.1923 0,-6.1186 0,-6.1186 0,0 2.1282,0.5321 1.0641,-2.3942 -1.0641,-2.9263 -3.99038,-3.1923 -0.53205,-5.8526 3.45832,-2.6602 8.24678,-3.9903 8.24678,-3.9903 0,0 2.1282,-1.3302 0,-4.7885 -2.1282,-3.4583 -7.71473,-12.7692 -7.71473,-12.7692 0,0 0.26602,-2.6603 2.66025,-2.6603 2.39423,0 3.99038,-1.0641 3.99038,-1.0641 0,0 0.53205,-10.1089 -1.0641,-14.8974 -1.59616,-4.7884 -2.66026,-5.5865 -4.52243,-5.3205 -1.86218,0.2661 -5.32051,-1.8621 -6.91666,-4.2564 -1.59615,-2.3942 -4.2564,-3.7243 -4.2564,-3.7243 0,0 -1.33013,-8.7789 0.53205,-9.843 1.86218,-1.0641 2.1282,-3.9903 2.1282,-3.9903 0,0 5.05448,-2.3943 8.51281,-3.1923 3.45832,-0.7981 4.78845,-0.7981 4.78845,-0.7981 z m 30.85892,19.9519 c 0,0 -6.11858,-1.8622 -6.11858,5.0545 0,6.9166 0.26603,15.1634 1.0641,18.0897 0.79808,2.9262 0.79808,6.9166 0,8.7788 -0.79807,1.8622 0.53205,13.3013 0.53205,13.3013 l 0.26603,7.7147 8.77883,1.0641 c 0,0 3.1923,-2.9263 6.3846,-2.9263 3.1923,0 5.58653,2.1282 5.58653,2.1282 l 1.59615,0 0,-5.8525 c 0,0 -2.1282,-28.7308 -2.1282,-30.3269 0,-1.5962 1.33013,-18.0897 1.33013,-18.0897 z m 91.77868,-30.3269 -19.41983,0 c 0,0 -9.57691,-2.3942 -8.24678,5.3205 1.33012,7.7147 7.71473,34.8493 9.04485,38.5737 1.33013,3.7243 4.78846,10.3749 4.78846,13.8333 0,3.4583 -0.53205,11.4391 0.79807,15.4294 1.33013,3.9904 5.58653,10.375 5.58653,10.375 0,0 -1.0641,3.1923 0,6.6506 1.0641,3.4584 6.91665,17.2917 9.04486,18.3558 2.1282,1.0641 14.63138,1.0641 16.22753,0.266 1.59615,-0.7981 5.85255,-1.8622 11.17306,-17.0256 5.3205,-15.1634 11.17306,-34.5833 11.17306,-34.5833 l 7.4487,32.4551 c 0,0 2.1282,13.0352 6.11858,17.2916 3.99038,4.2564 13.83331,4.2564 13.83331,4.2564 l 8.24678,-1.8621 6.91665,0 c 0,0 10.64101,-22.6122 10.64101,-28.7308 0,-6.1185 0.53205,-28.1986 4.78845,-34.5832 4.25641,-6.3846 8.51281,-13.5673 10.10896,-14.6314 1.59615,-1.0641 -1.86218,-7.9808 -1.86218,-7.9808 l 4.78846,-21.282 c 0,0 -0.26603,-6.3846 -3.19231,-5.8525 -2.92627,0.532 -5.3205,2.3942 -5.3205,2.3942 l -18.35574,-0.266 -6.3846,25.2723 -1.0641,2.9263 0.53205,4.2564 -6.65063,26.3365 -1.86218,0.5321 -12.23715,-51.6089 c 0,0 1.0641,-6.9167 -1.33013,-7.4487 -2.39423,-0.5321 -23.41021,0 -23.41021,0 0,0 -4.78846,0.532 -5.05448,4.2564 -0.26603,3.7243 -8.77883,41.4999 -8.77883,41.4999 l -1.33013,2.3942 c 0,0 -6.91665,-0.532 -9.31088,-11.9711 -2.39423,-11.4391 -7.44871,-34.8493 -7.44871,-34.8493 z m 125.29786,4.5224 c 0,0 -1.86218,-4.2564 3.1923,-6.1185 5.05448,-1.8622 15.69549,-4.7885 18.35574,-3.4584 2.66025,1.3302 5.58653,4.2564 5.05448,9.843 -0.53205,5.5865 0.26602,42.0319 0.26602,42.0319 l -1.86217,5.0545 -1.0641,2.6603 2.66025,2.6602 1.33012,20.484 c 0,0 -1.86217,5.5865 2.92628,5.0544 4.78845,-0.532 7.71473,-3.7243 7.71473,-3.7243 0,0 -0.53205,0.266 3.72435,0.7981 4.25641,0.532 11.70511,-0.5321 11.70511,-0.5321 l 3.99038,-2.3942 c 0,0 2.92627,-1.0641 3.45832,3.4583 0.53206,4.5224 -0.26602,20.75 -0.26602,20.75 0,0 -0.26603,4.2564 -4.78845,4.5224 -4.52243,0.266 -17.29164,0 -17.29164,0 l -2.1282,1.0641 -3.45833,2.3942 -11.97113,0 -7.18268,1.3302 -6.3846,-1.5962 -2.66026,-3.4583 c 0,0 -7.71473,-5.0545 -7.4487,-7.9808 0.26602,-2.9263 2.92628,-3.4583 2.92628,-6.3846 0,-2.9263 -0.79808,-86.4582 -0.79808,-86.4582 z m 140.99334,-2.3942 c 0,0 4.78845,-1.5961 4.78845,4.7885 0,6.3846 -0.79807,12.2371 -0.79807,12.2371 l 0.53205,3.4583 0,1.0641 c 0,0 -6.65063,0.2661 -8.24678,-0.266 -1.59615,-0.532 2.92628,7.9808 -1.86218,6.3846 -4.78845,-1.5961 -17.55766,-6.3846 -17.55766,-6.3846 0,0 -2.39423,-0.7981 -7.4487,0 -5.05448,0.7981 -6.11858,3.7244 -6.11858,3.7244 0,0 2.39422,5.8525 1.33012,6.6506 -1.0641,0.7981 -0.79807,5.8526 -0.79807,5.8526 0,0 17.82368,1.3301 20.21791,1.3301 2.39423,0 4.78845,1.0641 4.78845,1.0641 l 13.56729,0.266 -6.91666,21.016 -26.86854,0.266 -6.11858,0 -0.79807,5.3205 1.0641,3.1923 -3.45833,5.8526 2.39423,4.7884 c 0,0 6.3846,2.6603 11.97113,0.2661 5.58653,-2.3943 10.10896,-6.1186 12.23716,-5.3205 2.1282,0.798 6.3846,1.0641 3.1923,3.9903 -3.1923,2.9263 6.91665,1.5962 9.04485,1.0641 2.12821,-0.532 5.58653,7.1827 4.78846,9.3109 -0.79808,2.1282 6.3846,6.3846 1.59615,9.3109 -4.78845,2.9263 -36.71147,11.7051 -48.41658,7.7147 -11.70511,-3.9903 -19.15381,-8.5128 -19.15381,-8.5128 l -4.25641,-6.9166 -1.86217,-1.8622 c 0,0 0,-6.3846 1.86217,-6.9167 1.86218,-0.532 2.66025,-2.6602 2.66025,-2.6602 l 0,-2.9263 3.99038,-4.7884 c 0,0 -1.0641,-22.6122 -2.1282,-23.6763 -1.0641,-1.0641 0.79808,-2.6602 1.59615,-3.9904 0.79808,-1.3301 1.0641,-22.6121 1.0641,-22.6121 0,0 -6.3846,-2.9263 -6.3846,-9.3109 0,-6.3846 3.1923,-12.5032 7.4487,-14.8974 4.25641,-2.3942 4.25641,-2.3942 4.25641,-2.3942 l 1.86217,-2.9263 c 0,0 8.24678,0.7981 14.89741,1.0641 6.65063,0.266 7.18268,3.9904 7.18268,3.9904 0,0 6.65063,0 8.51281,-1.5962 1.86217,-1.5961 4.52242,0 4.78845,2.1282 0.26603,2.1282 17.55766,1.8622 17.55766,1.8622 z m 49.48068,-6.6506 0.79808,5.8525 6.11858,0 2.92627,-3.1923 28.19867,2.1282 1.59615,1.3302 11.43909,0.266 c 0,0 -3.19231,13.8333 -2.66026,15.6955 0.53205,1.8621 6.38461,4.5224 2.66026,9.8429 -3.72436,5.3205 -17.29164,26.6025 -18.88779,27.6666 -1.59615,1.0641 21.01599,34.5833 21.01599,34.5833 0,0 3.99037,5.0545 -1.33013,9.5769 -5.3205,4.5224 -10.90703,12.5032 -17.55766,5.3205 -6.65063,-7.1827 -28.99674,-35.1153 -28.99674,-35.1153 l -0.53205,-1.8622 -2.92628,1.8622 1.0641,30.0608 c 0,0 -0.26603,6.9167 -7.18268,7.9808 -6.91665,1.0641 -17.29164,4.7884 -17.82369,-6.1186 -0.53205,-10.907 -0.53205,-37.7756 -0.53205,-37.7756 l -1.59615,-32.455 -3.1923,-1.5962 -6.91665,-3.7244 1.33012,-3.1923 -1.0641,-10.3749 6.11858,-6.3846 0,-3.9904 1.33013,-0.7981 0.53205,-2.6602 c 0,0 11.17305,-3.9904 15.42946,-3.7244 4.2564,0.266 10.641,0.7981 10.641,0.7981 z m 97.3652,1.8622 -2.3942,-4.7885 -11.1731,1.3301 -2.6602,1.0641 -7.7147,2.1282 0,0 -2.3943,-0.798 -2.6602,1.8621 1.5961,11.4391 c 0,0 -4.5224,-0.7981 -4.5224,5.8526 0,6.6506 0.7981,11.9711 0.7981,11.9711 0,0 1.3301,3.1923 5.8525,4.7885 9.311,4.2564 12.5032,12.7692 12.5032,12.7692 l 26.3365,35.1153 c 0,0 -7.1827,3.9904 -19.1538,1.3301 -11.9711,-2.6602 -23.9423,-8.7788 -24.7404,-2.1282 -0.798,6.6506 -1.3301,13.5673 -1.3301,13.5673 0,0 0.266,5.8525 2.3942,6.6506 2.1282,0.7981 18.8878,7.7148 29.5288,7.9808 10.641,0.266 22.6122,-3.9904 30.5929,-7.4487 7.9808,-3.4584 11.4391,-6.6507 11.4391,-6.6507 l -0.7981,-2.6602 5.5866,-9.8429 c 0,0 -5.5866,-7.9808 -7.1827,-10.109 -2.3093,-10.415 -11.6687,-7.5911 -15.9615,-17.2916 l -17.5577,-26.0705 c 0,0 -2.6602,-3.4583 2.9263,-3.7244 5.5865,-0.266 7.7147,0.7981 12.5032,2.3943 4.7884,1.5961 17.2916,1.5961 17.2916,1.5961 l 5.0545,1.3302 c 0,0 -0.266,-12.7693 1.3301,-21.5481 1.5962,-8.7788 -19.9519,-7.1827 -19.9519,-7.1827 0,0 -1.5961,-3.1923 -7.4487,-2.9262 -5.8525,0.266 -13.8333,2.6602 -18.0897,0 z m -92.84277,48.9486 -1.0641,-9.0449 1.33013,-2.6602 -2.12821,-8.5128 c 0,0 10.37499,-4.7885 13.30126,-3.7244 2.92628,1.0641 9.84293,3.4583 3.45833,9.843 -6.3846,6.3846 -14.89741,14.0993 -14.89741,14.0993 z" />
    <path
       style="fill:#171516;fill-opacity:1;fill-rule:evenodd;stroke:#000000;stroke-width:1px;stroke-linecap:butt;stroke-linejoin:miter;stroke-opacity:1"
       d="m 245.80726,1493.964 0,9.5769 884.26764,-5.3205 0,-9.5769 z"
       id="path4345" />
    <path
       style="fill:#171516;fill-opacity:1;fill-rule:evenodd;stroke:#000000;stroke-width:1px;stroke-linecap:butt;stroke-linejoin:miter;stroke-opacity:1"
       d="m 242.61496,1346.054 0,9.5769 886.39584,-8.5128 0,-12.7692 z"
       id="path4581" />
  </g>
  <g
     inkscape:groupmode="layer"
     id="layer16"
     inkscape:label="BH"
     sodipodi:insensitive="true"
     transform="translate(-144.32741,-582.06508)">
    <path
       id="path4616"
       style="fill:#171516;fill-opacity:1;fill-rule:evenodd;stroke:#000000;stroke-width:1px;stroke-linecap:butt;stroke-linejoin:miter;stroke-opacity:1"
       d="m 1175.5652,962.97775 c 0,0 4.7885,6.11858 -2.1282,7.4487 -6.9166,1.33013 -25.5384,8.24678 -25.5384,8.24678 0,0 -5.0545,5.32051 -7.4487,5.32051 -2.3942,0 -6.6506,-0.79808 -15.6955,3.1923 -9.0448,3.99038 -13.5673,6.11858 -13.5673,6.11858 0,0 -2.6602,-0.79808 -4.5224,2.39422 -1.8622,3.19231 -4.2564,16.22756 0,20.48396 4.2564,4.2564 8.2468,6.6506 14.6314,3.9904 6.3846,-2.6603 9.8429,-7.7148 16.4936,-8.5128 6.6506,-0.7981 15.6954,-8.7789 19.4198,-8.7789 3.7243,0 10.907,1.0641 10.907,1.0641 0,0 2.9263,-5.58651 7.9808,-5.58651 5.0545,0 14.0993,1.06411 12.7692,6.38461 -1.3301,5.3205 1.0641,13.0352 1.0641,13.0352 l 2.6602,4.7885 c 0,0 -1.0641,3.9904 0,3.9904 1.0641,0 21.016,-1.8622 21.016,-1.8622 0,0 5.0545,-0.7981 1.5962,-9.0449 -3.4583,-8.2467 -5.3205,-15.96148 -5.3205,-18.35571 0,-2.39422 -3.1923,-6.3846 -1.8622,-8.5128 1.3301,-2.1282 3.1923,-11.17306 0.7981,-15.42946 -2.3942,-4.2564 -3.1923,-9.84293 -6.6507,-10.90703 -3.4583,-1.0641 -6.1185,-2.1282 -8.5128,-9.57691 -2.3942,-7.4487 -6.6506,-18.35574 -9.8429,-18.35574 -3.1923,0 -5.8525,1.86218 -6.6506,2.92628 -0.7981,1.0641 -3.1923,0.26603 -5.8526,1.33013 -2.6602,1.0641 -4.5224,6.91665 -1.8622,11.97113 2.6603,5.05448 6.6507,13.30126 6.1186,12.23716 z m -45.4903,-138.33309 c 0,0 4.2564,-5.05448 7.7148,2.1282 3.4583,7.18268 9.3108,16.49356 9.3108,16.49356 0,0 5.5866,2.39423 -7.9807,8.51281 -13.5673,6.11857 -23.1442,13.30125 -23.9423,15.69548 -0.7981,2.39423 -17.2916,9.31088 -17.2916,9.31088 0,0 -4.7885,5.05448 -5.5865,8.51281 -0.7981,3.45832 -10.9071,9.04485 -10.9071,9.04485 l 11.1731,19.15382 c 0,0 1.5961,6.65062 6.3846,2.92627 4.7884,-3.72435 15.1634,-10.10895 19.4198,-12.23716 4.2564,-2.1282 9.3109,-7.98075 9.3109,-7.98075 l 31.923,-20.48394 c 0,0 4.5224,-5.3205 6.3846,-0.26602 1.8622,5.05447 13.3013,21.81406 13.3013,21.81406 0,0 2.9263,1.59615 -4.5224,6.3846 -7.4487,4.78846 -28.7308,15.42946 -30.5929,15.42946 -1.8622,0 -9.5769,8.77883 -9.5769,8.77883 l -6.1186,7.44871 c 0,0 -3.9904,-1.0641 -7.9808,0.26602 -3.9904,1.33013 -29.5288,18.35574 -29.5288,18.35574 0,0 -3.7243,3.1923 -13.5673,-13.30126 -9.8429,-16.49356 -12.5031,-19.95189 -12.5031,-19.95189 l -3.9904,-12.50318 c 0,0 -14.0994,-7.71473 -12.5032,-14.36536 1.5962,-6.65063 7.4487,-15.96151 10.907,-18.62176 3.4584,-2.66025 17.5577,-14.36536 21.282,-20.21791 3.7244,-5.85256 9.577,-4.78846 9.577,-4.78846 0,0 4.7884,-3.99037 5.8525,-8.5128 1.0641,-4.52243 5.5865,-9.84293 7.9808,-9.57691 2.3942,0.26603 7.4487,1.86218 13.3012,-0.79807 5.8526,-2.66025 12.7692,-6.65063 12.7692,-6.65063 z m -77.1473,-90.71459 c 0,0 2.6603,-5.58652 6.6507,-0.79807 3.9903,4.78845 13.3012,15.96151 13.3012,15.96151 0,0 4.2564,2.39423 0.266,6.11858 -3.9903,3.72435 -9.3108,9.04485 -9.3108,9.04485 0,0 -7.9808,3.19231 -11.1731,6.11858 -3.1923,2.92628 -8.2468,8.51281 -8.2468,8.51281 0,0 -3.1923,3.1923 0.5321,4.78845 3.7243,1.59615 5.5865,2.39423 6.1186,5.05448 0.532,2.66025 9.3108,11.43908 9.3108,11.43908 0,0 9.5769,-2.1282 12.7692,-7.98075 3.1923,-5.85256 14.8975,-22.34612 16.4936,-22.34612 1.5962,0 16.7596,13.03524 16.7596,13.03524 0,0 4.7884,4.52242 1.3301,8.5128 -3.4583,3.99038 -19.4198,20.48394 -19.4198,20.48394 0,0 -5.0545,4.52243 0,4.52243 5.0545,0 6.6506,6.11858 2.1282,6.3846 -4.5225,0.26603 -19.6859,9.31088 -21.8141,11.43908 -2.1282,2.12821 -22.8782,23.67624 -22.8782,23.67624 0,0 -2.6602,2.92628 -5.5865,3.45833 -2.9263,0.53205 -2.1282,4.2564 -2.1282,4.2564 0,0 -5.8525,2.66026 -10.375,-1.86217 -4.5224,-4.52243 -9.8429,-9.84293 -8.2467,-15.16344 1.5961,-5.3205 20.7499,-23.14419 20.7499,-23.14419 0,0 5.5865,-5.3205 -2.9263,-13.03523 -8.5128,-7.71473 -13.8333,-14.36536 -21.0159,-5.3205 -7.1827,9.04485 -14.0994,18.88778 -19.15386,18.08971 -5.05448,-0.79808 -13.56728,-7.71473 -15.42946,-11.97113 -1.86217,-4.25641 17.82369,-25.2724 22.87812,-31.657 5.0545,-6.3846 48.4166,-47.61851 48.4166,-47.61851 z m -136.20486,-37.77557 1.86218,-6.65063 c 0,0 1.0641,-0.79807 4.52242,-5.05448 3.45833,-4.2564 6.11858,-8.24678 6.11858,-8.24678 l 11.97114,2.66025 c 0,0 8.24678,6.11858 0,9.57691 -8.24678,3.45833 -24.47432,7.71473 -24.47432,7.71473 z m -11.43908,21.01599 c 0,0 2.92627,-9.84293 3.99038,-4.2564 1.0641,5.58652 7.18268,41.2339 7.18268,41.2339 0,0 0.79807,9.5769 3.99037,11.17305 3.1923,1.59616 11.70511,2.12821 15.69549,-0.26602 3.99038,-2.39423 5.05448,-4.78845 3.99038,-15.69549 -1.06411,-10.90703 -2.92628,-27.93264 -2.92628,-27.93264 l 0.53205,-2.92628 c 0,0 16.49356,-6.65062 21.81406,-10.37498 5.32051,-3.72435 14.89741,-9.04485 14.89741,-9.04485 l 0,-9.84293 6.65063,-7.71473 c 0,0 1.0641,-1.86218 -5.05448,-6.38461 -6.11858,-4.52243 -21.54804,-15.96151 -23.41021,-15.42946 -1.86218,0.53205 2.39422,-5.05448 -3.99038,-5.58653 -6.3846,-0.53205 -12.23716,-1.33012 -10.90703,-3.99037 1.33012,-2.66026 3.45833,-5.58653 -2.66025,-7.98076 -6.11858,-2.39423 -16.49356,-6.3846 -16.49356,-6.3846 0,0 -5.32051,-2.1282 -5.05448,2.66025 0.26602,4.78845 -7.98076,4.2564 -7.98076,4.2564 0,0 -6.11858,1.59615 -6.3846,9.57691 -0.26603,7.98075 2.39423,7.71473 2.39423,10.90703 0,3.1923 -26.86855,55.06721 -26.86855,55.06721 0,0 -7.4487,12.76921 -4.78845,16.75959 2.66025,3.99037 7.71473,8.5128 7.71473,8.5128 l 3.99038,-0.26602 c 0,0 7.18268,2.39422 9.04485,1.0641 1.86218,-1.33013 14.63139,-27.13457 14.63139,-27.13457 z m -192.86825,-31.657 c 0,0 3.99038,10.37499 5.58653,11.70511 1.59615,1.33013 8.77883,4.78845 14.09933,1.59615 5.3205,-3.1923 10.10896,-7.18268 9.57691,-9.04485 -0.53205,-1.86218 -0.79808,-3.45833 -0.79808,-3.45833 l 6.91666,-7.18268 1.0641,-4.2564 0,-2.92628 8.24678,-15.16344 c 0,0 1.0641,-4.2564 1.0641,-5.58652 0,-1.33013 9.84293,-4.25641 11.17306,-9.57691 1.33012,-5.3205 0.79807,-14.09933 1.59615,-16.49356 0.79807,-2.39423 12.50318,-25.00637 12.50318,-25.00637 0,0 3.1923,-3.72435 -3.1923,-6.91665 -6.38461,-3.1923 -14.63139,-6.38461 -14.63139,-6.38461 0,0 -5.58653,-6.3846 -9.5769,9.57691 -3.99038,15.96151 -10.64101,21.81407 -10.64101,21.81407 l -3.72435,8.5128 -0.26603,3.72435 -9.31088,18.35574 c 0,0 -0.79807,5.05448 -3.72435,-3.99038 -2.92628,-9.04485 -5.05448,-14.36536 -5.05448,-14.36536 0,0 -3.72435,-3.1923 -3.72435,-7.98075 0,-4.78846 0.53205,-13.83331 0.53205,-13.83331 0,0 -6.91666,-15.16344 -6.91666,-17.82369 0,-2.66025 0.53205,-6.65063 -3.45832,-6.65063 -3.99038,0 -16.75959,-0.26602 -18.88779,-1.33012 -2.1282,-1.0641 -5.85255,1.59615 -5.85255,1.59615 0,0 -2.39423,2.66025 -1.86218,6.65063 0.53205,3.99038 2.66025,4.52243 3.72435,7.71473 1.0641,3.1923 2.39423,6.3846 1.0641,8.24678 -1.33012,1.86217 1.59615,7.71473 1.59615,7.71473 0,0 -3.72435,3.99038 -3.72435,5.85255 0,1.86218 -2.1282,3.45833 2.1282,7.98076 4.25641,4.52242 11.17306,15.69548 13.03524,23.14419 1.86217,7.4487 11.43908,33.78519 11.43908,33.78519 z m -110.9325,-28.19866 6.38461,-22.08009 2.66025,-0.53205 0,2.39422 9.84293,17.29164 c 0,0 1.86218,3.45833 -6.11858,3.72435 -7.98075,0.26603 -12.76921,-0.79807 -12.76921,-0.79807 z m -30.06084,38.57365 c 0,0 -0.26603,8.77883 5.3205,10.37498 5.58653,1.59615 20.21791,2.39422 20.21791,-5.32051 0,-7.71473 -1.33012,-17.55766 1.86218,-17.55766 3.1923,0 14.89741,2.92628 18.35574,2.92628 3.45832,0 8.24678,-6.11858 6.11858,-6.11858 -2.1282,0 9.31088,0 9.31088,0 0,0 3.1923,17.55766 9.04485,17.02561 5.85256,-0.53205 16.75959,-5.85255 16.49356,-10.10896 -0.26602,-4.2564 -2.66025,-11.97113 -2.66025,-11.97113 l 5.58653,-4.2564 c 0,0 0.26603,-3.72435 0,-10.90703 -0.26602,-7.18268 -0.53205,-10.37498 -6.3846,-9.04486 -5.85256,1.33013 -7.71473,2.1282 -7.71473,2.1282 0,0 -3.99038,-8.24678 -4.52243,-15.16343 -0.53205,-6.91666 -3.45833,-6.11858 -4.52243,-5.05448 -1.0641,1.0641 -1.86218,1.33013 -1.86218,1.33013 0,0 -2.39422,-7.98076 -3.72435,-8.77884 -1.33012,-0.79807 -1.86217,-2.92627 -1.86217,-2.92627 l 0.53205,-2.66025 c 0,0 -7.44871,-12.50319 -9.04486,-13.30126 -1.59615,-0.79808 -1.0641,-4.78846 0.53205,-6.38461 1.59615,-1.59615 2.66025,-6.91665 0.26603,-7.4487 -2.39423,-0.53205 -10.64101,-3.72435 -10.64101,-3.72435 l -2.66025,-0.26603 -2.39423,-3.1923 c 0,0 -4.78845,-0.53205 -9.31088,2.92628 -4.52243,3.45832 -13.30126,9.5769 -10.37498,13.56728 2.92628,3.99038 8.24678,5.58653 5.3205,10.90703 -2.92628,5.32051 -12.50318,34.05122 -12.50318,36.44545 0,2.39423 -4.2564,0.26603 -4.52243,2.39423 -0.26602,2.1282 -4.2564,44.16018 -4.2564,44.16018 z m 299.94152,-51.25057 c 0,0 3.91644,2.3684 6.43108,2.15434 2.51465,-0.21405 8.37498,-4.76547 8.81901,-10.45993 0.44403,-5.69456 4.66539,-8.67116 -6.27244,-11.2017 -10.93786,-2.53062 -15.83519,-6.50407 -15.45536,-8.98484 0.37986,-2.48075 -10.86648,-1.69235 -10.86648,-1.69235 0,0 -3.95034,-1.77449 -2.76617,-3.73273 1.18422,-1.95817 -3.39391,-3.17271 -10.55798,-5.01135 -7.16409,-1.83863 -8.17888,-2.84983 -14.11413,-1.16267 -5.93528,1.68717 -10.96455,2.11526 -13.54338,5.54307 -2.57879,3.42781 -4.80446,9.02064 -2.59832,12.12561 2.20615,3.10497 4.47999,5.02212 0.61538,12.18979 -3.86461,7.16769 -5.63566,13.14392 -5.63566,13.14392 l -3.5972,0.3906 -4.98988,22.7139 -1.07175,6.25452 -7.12306,1.61942 -0.0981,3.80765 -7.46899,3.5063 5.12573,14.59203 0.1088,2.27033 c 0,0 26.01694,16.02216 46.45335,17.06883 20.43638,1.04667 22.49629,0.44919 22.49629,0.44919 0,0 0.0945,-5.83357 0.0498,-11.31768 -0.0447,-5.48406 -2.38991,-8.23945 -7.73485,-8.54436 -5.34496,-0.30491 -6.81813,-3.72548 -6.81813,-3.72548 0,0 9.2578,0.6473 5.13092,-2.20973 -4.12681,-2.85723 -15.33218,1.38944 -17.98952,-0.073 -2.65722,-1.46262 -11.07339,-0.15501 -10.45279,-4.76701 0.62066,-4.61198 2.22566,-5.59289 4.41748,-10.59186 2.19176,-4.99902 3.02638,-7.09637 3.02638,-7.09637 0,0 18.83494,4.0536 26.31469,6.62521 7.47976,2.57165 7.47976,2.57165 7.47976,2.57165 l 14.39752,-16.33817 c 0,0 -1.53731,-0.20691 -11.5692,-3.99656 -10.03186,-3.78971 -23.90883,-9.10959 -23.90883,-9.10959 0,0 -5.732,-1.87616 -4.5478,-3.83433 1.18424,-1.95823 4.27836,-10.24232 4.27836,-10.24232 0,0 -0.63494,-3.49195 4.92047,-2.69841 5.55539,0.79355 12.85857,2.28267 14.92564,5.73717 2.067,3.45452 5.60361,8.3036 8.92261,8.61215 3.31899,0.30848 6.6718,0.0231 5.26646,-4.58528 z M 528.43862,633.00404 c 0,0 4.54713,-0.5211 6.40589,-2.22823 1.85875,-1.70713 3.71223,-8.89206 0.58124,-13.66922 -3.13103,-4.77718 -1.61127,-9.71379 -11.81303,-5.02727 -10.20184,4.68652 -16.50658,4.53749 -17.72312,2.34238 -1.21649,-2.19515 -9.63274,5.30609 -9.63274,5.30609 0,0 -4.21076,1.01174 -4.4713,-1.26183 -0.26055,-2.27355 -4.62553,-0.43487 -11.41832,2.49139 -6.79279,2.92626 -8.21405,2.74673 -11.87843,7.71124 -3.66437,4.96453 -7.38187,8.37876 -7.32611,12.66793 0.0558,4.28917 1.71497,10.07545 5.35927,11.18303 3.64432,1.10758 6.61585,1.23397 7.9413,9.26851 1.32545,8.03456 3.57894,13.84612 3.57894,13.84612 l -2.60732,2.50882 9.94209,21.02322 2.97678,5.60414 -4.6456,5.63725 2.25089,3.07266 -3.76544,7.34178 12.97902,8.41102 1.47446,1.72981 c 0,0 30.38319,-3.23296 47.19303,-14.90224 16.80983,-11.66925 18.07427,-13.40165 18.07427,-13.40165 0,0 -3.49264,-4.67344 -6.88162,-8.98528 -3.38898,-4.31183 -6.92959,-5.05779 -11.34511,-2.03046 -4.41552,3.02734 -7.67291,1.22176 -7.67291,1.22176 0,0 7.72084,-5.14926 2.7084,-4.8861 -5.01247,0.26293 -11.2815,10.47541 -14.27835,10.94335 -2.99685,0.46797 -8.85632,6.64899 -11.18566,2.62036 -2.32931,-4.02862 -1.6592,-5.78627 -2.98199,-11.08193 -1.32284,-5.29568 -1.94504,-7.46553 -1.94504,-7.46553 0,0 17.38151,-8.31076 24.8723,-10.85011 7.4908,-2.53932 7.4908,-2.53932 7.4908,-2.53932 l 1.4004,-21.73164 c 0,0 -1.34285,0.77645 -11.5978,3.91271 -10.25498,3.13622 -24.488,7.41317 -24.488,7.41317 0,0 -5.6826,2.02083 -5.94314,-0.2527 -0.26054,-2.27359 -2.8783,-10.72031 -2.8783,-10.72031 0,0 -2.63781,-2.37465 2.24304,-5.14405 4.88086,-2.76939 11.56993,-6.05726 15.31794,-4.58805 3.74801,1.46928 9.51162,3.14326 12.32635,1.35771 2.81471,-1.78554 5.29304,-4.06171 1.36291,-6.84853 z m -110.24705,99.86193 6.91665,11.17306 c 0,0 -1.33012,4.2564 8.51281,-2.92628 9.84293,-7.18268 19.15381,-11.7051 11.70511,-10.90703 -7.44871,0.79808 -12.23716,3.45833 -12.23716,3.45833 0,0 -9.84293,-6.91665 -14.89741,-0.79808 z m 0.79807,-47.6185 c 0,0 -11.43908,26.33649 -13.8333,23.41021 -2.39423,-2.92627 -6.38461,-11.43908 -6.38461,-11.43908 l 18.08971,-12.23716 z m -21.54803,-16.22754 3.99037,-3.72435 24.20829,-11.97113 1.86218,0.79807 4.78845,-2.66025 c 0,0 4.25641,-1.33012 5.32051,3.1923 1.0641,4.52243 9.5769,16.75959 8.77883,19.41984 -0.79808,2.66025 -1.86218,17.29164 -5.58653,20.74996 -3.72435,3.45833 -5.3205,5.85256 -5.05448,8.51281 0.26603,2.66025 22.08009,-1.86218 22.08009,-1.86218 0,0 6.11858,-2.92627 9.84293,11.70511 3.72435,14.63139 10.90703,25.53842 0.53205,31.39097 -10.37498,5.85256 -27.40059,21.01599 -27.40059,21.01599 0,0 -15.16344,16.22754 -17.29164,16.22754 -2.1282,0 -6.3846,2.39422 -8.77883,2.92627 -2.39422,0.53205 -7.71473,-1.86217 -7.71473,-1.86217 l -1.0641,-4.52243 -2.39423,-1.33013 c 0,0 -3.1923,-6.11858 -2.1282,-8.77883 1.0641,-2.66025 6.65063,-4.2564 4.52243,-7.71473 -2.1282,-3.45833 -15.42946,-23.41021 -18.35574,-24.47431 -2.92627,-1.0641 -6.65062,-3.99038 -5.05447,-6.38461 1.59615,-2.39422 4.78845,-2.92627 4.78845,-2.92627 0,0 -7.18268,-13.03524 -9.04486,-13.03524 -1.86217,0 -7.71473,1.33013 -7.71473,1.33013 0,0 -2.92627,-2.1282 -4.78845,-5.85256 -1.86218,-3.72435 -5.3205,-6.65063 -5.3205,-6.65063 0,0 -0.79808,-6.11857 1.86217,-7.18268 2.66026,-1.0641 4.25641,-4.52242 1.59615,-5.85255 -2.66025,-1.33012 -2.1282,-3.99038 1.33013,-6.3846 3.45833,-2.39423 17.82369,-11.70511 18.88779,-9.84293 1.0641,1.86217 5.58653,0.53205 7.4487,-2.39423 1.86218,-2.92628 5.85256,-1.86218 5.85256,-1.86218 z m -95.76907,106.94212 c 0,0 3.72436,-2.66025 4.52243,-5.05448 0.79808,-2.39422 -1.0641,-9.5769 -6.11858,-12.23715 -5.05448,-2.66026 -6.11858,-7.71473 -12.7692,1.33012 -6.65063,9.04486 -12.23716,11.97113 -14.36536,10.64101 -2.12821,-1.33013 -5.85256,9.31088 -5.85256,9.31088 0,0 -3.1923,2.92628 -4.52243,1.0641 -1.33012,-1.86218 -4.2564,1.86218 -8.77883,7.71473 -4.52242,5.85255 -5.85255,6.3846 -6.65063,12.50318 -0.79807,6.11858 -2.39422,10.90704 -0.26602,14.63139 2.1282,3.72435 6.3846,7.98075 10.10896,7.18268 3.72435,-0.79808 6.3846,-2.1282 11.43908,4.2564 5.05448,6.3846 9.84293,10.37498 9.84293,10.37498 l -1.0641,3.45833 18.88779,13.56728 5.3205,3.45833 -1.33013,7.18268 3.45833,1.59615 0.26603,8.24678 15.42946,1.0641 2.1282,0.79808 c 0,0 25.00636,-17.55766 34.05122,-35.9134 9.04485,-18.35574 9.31088,-20.48394 9.31088,-20.48394 0,0 -5.3205,-2.39423 -10.37498,-4.52243 -5.05448,-2.1282 -8.51281,-1.0641 -10.90703,3.72436 -2.39423,4.78845 -6.11858,4.78845 -6.11858,4.78845 0,0 4.2564,-8.24678 0,-5.58653 -4.25641,2.66025 -4.78846,14.63138 -7.18268,16.49356 -2.39423,1.86218 -4.52243,10.10896 -8.51281,7.71473 -3.99038,-2.39423 -4.2564,-4.2564 -7.98075,-8.24678 -3.72436,-3.99038 -5.32051,-5.58653 -5.32051,-5.58653 0,0 11.17306,-15.69548 16.49356,-21.54804 5.32051,-5.85255 5.32051,-5.85255 5.32051,-5.85255 l -9.31088,-19.68586 c 0,0 -0.79808,1.33012 -8.24678,9.04485 -7.44871,7.71473 -17.82369,18.35574 -17.82369,18.35574 0,0 -3.99038,4.52243 -5.3205,2.66025 -1.33013,-1.86218 -7.71473,-7.98075 -7.71473,-7.98075 0,0 -3.45833,-0.79808 -0.53205,-5.58653 2.92627,-4.78846 7.18268,-10.90704 11.17305,-11.43909 3.99038,-0.53205 9.84293,-1.86217 11.43909,-4.78845 1.59615,-2.92628 2.66025,-6.11858 -2.12821,-6.65063 z m -70.49667,128.75618 c 0,0 -0.53205,6.91666 -7.71473,0.53205 -7.18268,-6.3846 -23.67624,-20.48393 -23.67624,-20.48393 0,0 -2.92627,-5.05448 -8.24678,1.86217 -5.3205,6.91666 -10.37498,19.15382 -10.37498,19.15382 0,0 -2.66025,2.66025 1.33013,5.58652 3.99038,2.92628 79.54152,50.81081 86.45818,51.60889 6.91665,0.79807 12.76921,-9.57691 12.76921,-9.57691 0,0 3.45832,-12.76921 -3.45833,-16.75958 -6.91666,-3.99038 -21.28201,-12.23716 -21.28201,-12.23716 0,0 -5.85256,-2.66025 -1.59616,-11.43909 4.25641,-8.77883 10.10896,-16.22753 13.03524,-14.63138 2.92627,1.59615 18.88779,9.84293 20.21791,11.70511 1.33013,1.86217 15.42946,4.78845 17.29164,-0.26603 1.86217,-5.05448 7.4487,-14.09933 1.86217,-18.62176 -5.58653,-4.52243 -12.50318,-9.04485 -16.75958,-12.23716 -4.25641,-3.1923 -25.53842,-15.69548 -25.53842,-15.69548 0,0 -12.23716,-15.96151 -14.36536,-16.75959 -2.1282,-0.79807 -3.45833,7.18268 -3.45833,7.18268 0,0 -25.27239,-15.69548 -29.26276,-15.69548 -3.99038,0 -10.37499,19.95188 -10.10896,21.54804 0.26602,1.59615 -3.45833,5.3205 6.65063,9.5769 10.10895,4.2564 24.47431,12.23716 24.47431,12.23716 0,0 4.52243,3.1923 1.0641,7.18268 -3.45832,3.99038 -6.91665,9.04486 -6.91665,9.04486 l -2.66025,1.0641 z m -37.50955,82.99986 c 0,0 3.45833,-1.0641 5.58653,-0.26603 2.1282,0.79808 4.52243,5.58653 6.91666,5.85256 2.39422,0.26602 7.18268,1.59615 7.18268,1.59615 l 2.1282,1.0641 5.05448,0 c 0,0 3.99037,3.1923 10.37498,4.78843 6.3846,1.5962 20.21791,1.5962 22.61214,9.0449 2.39422,7.4487 1.33012,18.6217 -2.92628,21.016 -4.2564,2.3942 -15.96151,2.6602 -21.81406,0.266 -5.85256,-2.3942 -18.88779,-9.8429 -18.88779,-9.8429 0,0 -16.22754,-4.7885 -23.94227,-6.9167 -7.71473,-2.1282 -9.31087,-3.7243 -11.7051,-3.7243 -3.21406,2.9757 -0.52909,6.7522 -2.17684,10.0696 -3.0203,6.0806 -2.47736,7.652 -5.27187,13.8726 0,0 -3.1923,4.7885 -7.18268,2.3942 -3.99037,-2.3942 -8.5128,-1.0641 -8.5128,-1.0641 0,0 -7.44871,-1.3301 -6.11858,-10.907 1.33012,-9.5769 4.78845,-23.4102 4.78845,-23.4102 0,0 -4.78845,-1.59615 -3.1923,-9.31088 1.59615,-7.71473 4.78845,-10.90704 4.78845,-10.90704 l 0,-3.72435 7.44871,-3.99038 c 0,0 1.33012,-2.1282 5.85255,-14.89741 4.52243,-12.7692 6.38461,-17.29163 9.84293,-16.22753 3.45833,1.0641 14.63139,8.24678 14.63139,8.24678 0,0 3.72435,1.59615 2.1282,7.98075 -1.59615,6.38461 -4.52243,13.03524 -4.52243,13.03524 0,0 -5.3205,2.1282 -3.45833,6.65063 1.86218,4.52243 3.45833,6.3846 3.45833,6.3846 0,0 3.45833,0.53205 5.05448,1.86218 1.59615,1.33012 1.86217,1.0641 1.86217,1.0641 z"
       inkscape:connector-curvature="0" />
  </g>
  <g
     inkscape:groupmode="layer"
     id="layer17"
     inkscape:label="corvallis or"
     sodipodi:insensitive="true"
     transform="translate(-144.32741,-582.06508)">
    <text
       xml:space="preserve"
       style="font-style:normal;font-variant:normal;font-weight:normal;font-stretch:normal;font-size:93.75px;line-height:81.00000024%;font-family:'Times New Roman';-inkscape-font-specification:'Times New Roman, ';letter-spacing:0px;word-spacing:0px;fill:#000000;fill-opacity:1;stroke:none;stroke-width:1px;stroke-linecap:butt;stroke-linejoin:miter;stroke-opacity:1"
       id="text4620"
       sodipodi:linespacing="81%"
       x="1.5048656"
       y="-45.145969"
       transform="matrix(1.0249273,0.09961986,-0.10410832,0.9807392,102.07904,-92.64696)"><textPath
         xlink:href="#path4629"
         id="textPath4631"
         style="font-size:90px">CORVALLIS OREGON</textPath></text>
    <circle
       style="opacity:0.19200003;fill:none;fill-opacity:1;fill-rule:evenodd;stroke:none;stroke-width:2;stroke-linejoin:miter;stroke-miterlimit:4;stroke-dasharray:none;stroke-opacity:1"
       id="path4629"
       cx="-805.45532"
       cy="-1093.6912"
       r="325.80341"
       transform="matrix(-0.99452189,-0.10452847,0.10452847,-0.99452189,0,0)" />
  </g>
  <g
     inkscape:groupmode="layer"
     id="layer8"
     inkscape:label="black dam"
     sodipodi:insensitive="true"
     transform="translate(-144.32741,-582.06508)">
    <path
       style="fill:#191a1d;fill-opacity:1;fill-rule:evenodd;stroke:none;stroke-width:1px;stroke-linecap:butt;stroke-linejoin:miter;stroke-opacity:1"
       d="m 648.03732,943.82393 -17.55766,2.12821 -42.56403,22.87816 -23.41022,17.02561 -30.32687,28.19869 -23.41021,18.0897 -14.36536,9.0448 0.53205,13.3013 -22.34611,25.5384 -25.53842,19.1538 -26.60252,34.0513 -17.55766,11.173 -5.3205,3.1923 -1.0641,3.1923 -23.18984,10.6032 -10.86139,17.5955 c 0,0 0.74136,17.8896 6.38461,43.0961 l 5.82028,24.6624 11.73738,-3.3804 c 0,0 10.64101,1.0641 14.36536,-4.7885 3.72435,-5.8525 26.60252,-16.4935 26.60252,-16.4935 l 7.4487,0 -2.66025,6.3846 -12.23716,7.9807 1.59615,4.2564 0,2.6603 0,3.1923 1.0641,3.1923 24.47432,-5.8526 c 0,0 2.66025,5.3205 5.3205,5.3205 2.66025,0 5.85256,-2.1282 5.85256,-2.1282 0,0 -5.85256,-3.1923 -3.72436,-4.2564 2.12821,-1.0641 8.51281,-3.7243 8.51281,-3.7243 0,0 3.1923,-5.3205 5.85255,-5.3205 2.66025,0 1.59615,5.3205 1.59615,5.3205 l 14.89741,-4.7885 5.85256,-4.7884 c 0,0 2.66025,-6.3846 6.3846,-3.1923 3.72435,3.1923 11.70511,-1.5962 11.70511,-1.5962 0,0 7.98075,2.1282 9.04485,0 1.06411,-2.1282 3.19231,-3.7243 7.44871,-11.7051 4.2564,-7.9807 9.04486,-0.532 9.04486,-0.532 0,0 1.0641,6.9166 4.2564,4.2564 3.1923,-2.6603 18.62176,-17.5577 15.42946,-18.0898 -3.1923,-0.532 5.3205,3.1924 5.3205,3.1924 l 4.78845,-2.6603 c 0,0 8.51281,-5.3205 12.76921,-10.641 4.25641,-5.3205 8.51281,-1.5962 8.51281,-1.5962 l -1.59615,4.7885 c 0,0 15.42946,-6.9167 15.42946,-9.0449 0,-2.1282 9.5769,-4.7884 13.83331,-9.5769 4.2564,-4.7884 2.1282,3.7244 2.1282,3.7244 l 13.30126,-9.5769 2.66025,1.0641 10.10895,-9.0449 1.59616,6.3846 27.13456,-5.3205 6.38461,4.2564 7.4487,1.0641 34.05122,-3.7243 22.34612,0.532 c 0,0 54.26913,25.0064 68.10244,39.3718 13.83331,14.3653 20.21791,3.7243 20.21791,3.7243 l 18.08972,9.5769 17.55766,1.0641 -2.1282,-9.0448 3.72435,-2.6603 c 0,0 -16.49356,-12.7692 -29.26277,-14.3654 -12.76921,-1.5961 -32.45507,-6.3846 -32.45507,-6.3846 l -5.3205,-5.3205 17.02561,4.7885 4.78845,-4.7885 11.70511,4.2564 4.78845,0 29.79482,15.4295 10.10896,10.109 51.60888,19.6858 25.53842,10.641 13.30125,5.3205 2.12821,4.2564 7.4487,-4.2564 8.9213,6.7341 c 0,0 22.38392,-78.4318 9.16841,-86.0096 -8.70862,-4.9935 -13.83331,-8.5128 -13.83331,-8.5128 l -8.5128,-7.9807 -5.85256,-7.4487 -7.4487,-11.7051 -11.17306,-6.9167 -15.42946,-13.8333 -12.76921,-19.6859 -53.73708,-48.4166 -14.89741,-19.6858 -32.98712,-22.34613 -46.28838,-37.77557 -29.79482,-10.64101 -16.49356,-7.98076 z"
       id="path4480"
       inkscape:connector-curvature="0"
       sodipodi:nodetypes="cccccccccccccccccccscccccccccscscscccscsscccccsccssccccccccccscccccsccccccccccccccscccccccccccccc" />
  </g>
  <g
     inkscape:groupmode="layer"
     id="layer3"
     inkscape:label="gray dam"
     transform="translate(-144.32741,-582.06508)">
    <path
       style="fill:#a79fa4;fill-opacity:1;fill-rule:evenodd;stroke:none;stroke-width:1px;stroke-linecap:butt;stroke-linejoin:miter;stroke-opacity:1"
       d="m 569.59164,1009.4735 -15.04866,0.7525 -13.54379,6.3956 13.92001,0.3763 z"
       id="path4282"
       inkscape:connector-curvature="0" />
    <path
       style="fill:#a79fa4;fill-opacity:1;fill-rule:evenodd;stroke:none;stroke-width:1px;stroke-linecap:butt;stroke-linejoin:miter;stroke-opacity:1"
       d="m 496.60565,1067.0346 -1.12864,4.5146 -3.76217,-4.8908 z"
       id="path4300"
       inkscape:connector-curvature="0" />
    <path
       id="path4344"
       style="fill:#a79fa4;fill-opacity:1;fill-rule:evenodd;stroke:#a79fa4;stroke-width:1px;stroke-linecap:butt;stroke-linejoin:miter;stroke-opacity:1"
       d="m 755.44254,1015.8692 -12.03892,-1.8811 -6.01947,-3.3859 -17.30595,-0.7524 -0.37622,5.267 4.5146,0 1.88108,1.5048 6.7719,0 3.00973,1.5049 10.53406,0 2.63351,1.5049 z m -6.01946,-45.52217 -24.45407,-2.2573 -15.42487,4.89081 -25.58272,1.50487 0,2.63351 25.2065,0 7.52433,-2.63351 18.05839,-1.50487 12.79136,0 z m 37.99786,34.98817 -11.2865,-6.01951 -27.08758,-7.90054 -3.00973,1.88108 14.29622,6.01946 11.66271,4.51461 2.2573,0.7524 7.90055,1.8811 4.51459,2.2573 2.63352,-3.0097 z m -208.42389,169.6736 -12.41514,7.9005 -1.12865,0 -15.42488,8.653 1.12865,-6.0195 25.95894,-12.7913 z m -129.79466,11.2864 -3.76217,4.8909 -16.92973,10.534 11.6627,-13.92 8.65298,-2.6335 z m 79.75788,-136.9427 -11.2865,7.5243 -4.89081,1.8811 -0.37622,3.0097 -3.76216,1.5049 -7.52433,6.7719 1.50487,4.5146 32.35461,-23.3254 z m 234.75903,103.8357 -6.77189,1.5049 -9.40541,-2.2573 -3.76217,3.0097 -3.38594,-1.5049 -1.88109,1.8811 -6.01946,0 -14.29622,3.7622 0.75243,3.7621 9.78163,0 12.79135,0 1.12865,-3.3859 6.39568,-3.386 7.52433,1.5049 5.64325,-1.8811 3.38594,1.1287 1.88109,-3.0097 z m -63.95679,-39.8789 -0.37621,3.7621 6.01946,-1.1286 10.53406,-7.1481 -2.2573,-2.2573 z m -58.68976,-4.5146 0,3.3859 17.68218,-3.0097 c 0,0 0,-4.8908 -17.68218,-0.3762 z m -31.60217,-3.7622 c 0,0 -11.66271,-0.7524 -14.29623,-1.5049 -2.63351,-0.7524 -9.78162,-0.7524 -9.78162,-0.7524 0,0 0,4.5146 -3.38595,5.6432 -3.38595,1.1287 7.14811,-1.1286 7.90054,1.5049 0.75244,2.6335 18.81082,-2.6335 18.81082,-2.6335 z m -72.98599,-9.7816 -10.15784,7.1481 0,4.5146 4.5146,0 2.63351,-6.7719 4.5146,-2.2573 2.2573,-4.1384 z m 22.57299,-13.5438 -5.64325,-1.8811 -9.02919,11.2865 5.64324,-1.1287 z m 61.69949,-77.5006 -18.05839,3.7622 -1.12865,3.3859 z m 51.16543,-9.40541 2.2573,4.13839 -12.41514,7.90052 -3.76217,-1.8811 z m 46.27462,-5.26702 -8.65298,-1.88109 -1.50487,-1.12865 -3.76216,3.76217 -2.63351,-3.76217 -4.5146,2.2573 -2.63352,-4.51459 -4.89081,-1.50487 -5.64325,3.00973 c 0,0 -10.15784,-1.12865 -11.6627,-1.88108 -1.50487,-0.75243 -20.31569,3.00973 -20.31569,3.00973 l 0,3.76216 16.55352,-3.76216 c 0,0 42.51246,8.65298 49.66057,2.63352 z m 126.40871,114.74603 -25.58272,-13.92 -3.38594,-1.1287 -14.67244,-9.0292 -6.01947,1.1287 1.88109,4.8908 7.14811,4.5146 4.89081,-1.5049 6.01946,4.8908 3.00973,4.1384 24.45407,8.2768 3.76217,-1.5049 z m 136.56655,52.294 -1.12864,-8.6529 -12.03893,3.7621 -11.66271,-4.1383 -6.77189,0.3762 -13.16758,-3.7622 -3.00973,0.7524 -0.75243,3.7622 13.54379,0.7524 7.14811,5.2671 z m -247.92661,-123.0227 -16.55352,1.1286 -33.10704,12.039 3.76216,4.1383 16.92974,1.5049 -2.2573,-4.8908 8.27676,4.1384 14.29623,4.1384 1.50486,5.6432 -1.12865,3.7622 2.63352,4.1383 10.53406,-0.3762 10.15784,8.2768 3.00973,-4.8908 7.14811,1.5048 -6.77189,-7.1481 -16.92974,-6.0194 -0.75243,-3.0098 16.1773,6.0195 19.93947,5.6432 -10.53406,-8.6529 -5.64324,0 -7.52433,-4.1384 -15.04866,-3.7622 -1.88108,-2.2573 -5.26703,-1.1286 -4.13838,-1.5049 -14.29622,-1.8811 9.02919,-6.0194 4.5146,1.881 4.51459,-3.3859 4.13838,-0.3762 z m -152.74386,60.947 c 0,0 11.66271,-7.1481 12.79136,-18.0583 1.12865,-10.9103 25.2065,-0.7525 25.2065,-0.7525 l 10.53406,0.3762 7.14811,-3.7621 -1.50486,4.8908 -54.55138,23.3254 z M 720.83063,941.75458 c 0,0 5.64325,-6.39568 16.17731,1.50487 10.53406,7.90054 30.47353,-4.5146 30.47353,-4.5146 0,0 -7.52433,9.40541 -12.79136,10.91028 -5.26703,1.50486 9.40541,7.52432 28.96866,3.00973 19.56325,-4.5146 5.26703,3.38595 5.26703,3.38595 l 7.14811,0.75243 c 0,0 2.2573,6.39568 -1.50486,6.39568 l -8.27676,0 c 0,0 10.91027,5.64324 17.68217,5.26703 6.77189,-0.37622 -5.26703,5.26703 -5.26703,5.26703 0,0 8.65298,4.51459 21.44433,5.64324 12.79136,1.12865 -2.63351,8.65298 -2.63351,8.65298 0,0 42.51245,19.5633 33.48326,19.187 -9.0292,-0.3762 -18.81082,3.0098 0,10.5341 18.81082,7.5243 27.08758,27.84 27.08758,27.84 0,0 30.84974,13.92 33.48326,16.1773 2.63351,2.2573 -4.13838,9.0292 -4.13838,9.0292 0,0 12.79136,13.1676 18.81082,18.4346 6.01946,5.267 -13.54379,-1.8811 -13.54379,-1.8811 l -10.53406,-7.5243 -12.41514,-7.9005 -10.91028,-5.2671 c 0,0 -3.76216,-6.7719 3.00973,-3.0097 6.7719,3.7622 14.29623,3.7622 14.29623,3.7622 l -8.27676,-8.2768 -9.78163,-3.7622 -1.12865,-2.2573 c 0,0 -16.92974,1.8811 -19.56325,-1.1286 -2.63352,-3.0097 -25.58272,-11.2865 -25.58272,-11.2865 l -0.75243,-4.8908 31.60218,12.7913 15.80109,1.5049 -6.7719,-5.267 c 0,0 -7.90054,-1.8811 -11.66271,-5.2671 -3.76216,-3.3859 6.7719,-0.7524 6.7719,-0.7524 l -8.27676,-8.2767 -6.01947,-7.1482 -13.54379,-10.534 -7.14811,-0.3762 -23.32542,-19.9395 -44.39353,-31.22597 -1.88108,-2.25729 -22.57299,-5.26703 c 0,0 1.12865,-7.90055 -4.13838,-7.90055 -5.26703,0 -13.92001,2.2573 -13.92001,2.2573 z m -144.09088,34.61191 c 0,0 -6.39568,2.63352 -25.58272,5.64325 -19.18703,3.00973 6.7719,22.94916 -12.03892,21.06816 -18.81082,-1.8811 -21.82055,1.1286 -24.07785,3.0097 -2.2573,1.8811 -1.12865,9.0292 -1.12865,9.0292 0,0 -22.19677,7.9005 -18.81082,11.2865 3.38595,3.3859 20.6919,-4.1384 20.6919,-4.1384 l 0.75243,2.6335 c 0,0 -22.19676,10.5341 -24.45406,13.1676 -2.2573,2.6335 -6.39568,0 -6.39568,0 0,0 -6.7719,8.653 -4.89081,10.9103 1.88108,2.2573 7.14811,0 10.91027,0 3.76217,0 1.88108,3.0097 1.88108,3.0097 0,0 -12.41514,4.5146 -14.67244,4.8908 -2.25729,0.3762 -4.89081,10.5341 -3.76216,12.0389 1.12865,1.5049 -12.79136,1.8811 -16.55352,1.8811 -3.76217,0 -2.2573,12.0389 -2.2573,12.0389 0,0 -9.02919,3.386 -4.89081,10.5341 4.13838,7.1481 -9.78163,-0.3762 -9.78163,-0.3762 l -4.89081,5.267 c 0,0 2.63351,1.8811 0.37621,3.7622 -2.2573,1.8811 -4.13838,2.6335 -4.13838,2.6335 l 0,3.7621 -1.88108,1.1287 -2.63351,-1.5049 c 0,0 -4.89082,0.3762 -19.93947,9.7817 -15.04866,9.4054 12.79135,2.6335 12.79135,2.6335 0,0 13.54379,-20.6919 39.87894,-16.9298 26.33515,3.7622 14.67244,-4.5146 14.67244,-4.5146 0,0 -21.82055,1.5049 -22.9492,-1.5048 -1.12865,-3.0098 1.50487,-1.8811 10.15784,-3.0098 8.65298,-1.1286 20.31569,-14.6724 20.31569,-14.6724 l -7.14811,-2.6335 c 0,0 8.27676,-7.1481 13.92001,-10.9103 5.64324,-3.7622 -1.12865,-8.2767 3.76216,-6.7719 4.89081,1.5049 12.03892,0 12.03892,0 l 0,-1.8811 4.89082,0.7525 -0.37622,-5.6433 4.5146,0.3762 2.63351,-9.7816 -10.15784,0.7524 c 0,0 -5.64325,-6.7719 -3.00973,-7.9005 2.63351,-1.1286 31.22596,-5.267 31.22596,-8.653 0,-3.3859 -5.26703,-0.3762 -10.53406,-0.7524 -5.26703,-0.3762 -13.16757,-1.1287 16.17731,-10.9103 29.34488,-9.7816 4.13838,-4.5146 0.75243,-3.3859 -3.38595,1.1286 0.75243,-7.1481 21.82055,-18.81085 21.06812,-11.66271 12.79136,-17.30596 12.79136,-17.30596 z m 68.73099,-38.12066 -45.17106,13.07583 -5.34921,4.75485 -22.58553,8.91535 -3.56614,-0.59436 c 0,0 -2.97178,4.75485 -15.45326,4.16049 -12.48147,-0.59435 -8.32098,7.13228 -8.32098,7.13228 0,0 4.75485,-3.56614 7.72663,-2.97178 2.97178,0.59435 9.5097,1.78306 23.17989,-1.78307 13.67019,-3.56614 1.27881,5.44721 1.27881,5.44721 L 617.536,957.85958 c 0,0 0,-6.53792 4.75485,-4.75485 4.75485,1.78307 2.37743,-4.16049 2.37743,-4.16049 l 7.72663,-1.18871 -2.37743,4.16049 c 0,0 16.64197,1.78307 16.64197,-5.3492 0,-7.13228 -1.18871,-8.32099 -1.18871,-8.32099 z m 286.79351,172.80617 -12.41514,-6.7719 c 0,0 -6.77189,0.3762 -5.64325,3.3859 1.12865,3.0097 10.53406,6.3957 10.53406,6.3957 l 0.75244,1.1286 1.50486,-1.881 5.64325,2.6335 z"
       inkscape:connector-curvature="0"
       sodipodi:nodetypes="cccccccccccccccccccccccccccccccccccccccccccccccccccccccccccccccccccccccccccccccccccccccscccccccccccccccccccccccccccccccccsccccccccccccccccccccccccccccccccccccccccccccccccccccccccccccccscccccccscssccscscsccscscsccccsccccscccccscccccccccscccsssccccscsscscscsccsccccscscccccsccccccccsssscsccccccscssccscccscccsccccc" />
  </g>
  <g
     inkscape:groupmode="layer"
     id="layer7"
     inkscape:label="white dam"
     sodipodi:insensitive="true"
     transform="translate(-144.32741,-582.06508)">
    <path
       id="path4476"
       style="fill:#c1c1bc;fill-opacity:1;fill-rule:evenodd;stroke:none;stroke-width:1px;stroke-linecap:butt;stroke-linejoin:miter;stroke-opacity:1"
       d="m 726.09766,1060.639 -14.29622,0 -11.28649,-7.5244 2.25729,-5.267 24.83029,10.5341 z m 12.03893,38.374 13.54379,0.7525 -6.01947,-3.7622 -9.78162,-0.7524 -7.52433,5.267 z m -148.22927,13.5438 c 0,0 -7.52433,3.7622 -14.29622,3.0098 -6.7719,-0.7525 -6.7719,7.5243 -6.7719,7.5243 l -9.78162,-6.0195 c 0,0 6.77189,-2.2573 7.52433,-11.2865 0.75243,-9.0292 16.55352,-2.2573 16.55352,-2.2573 l -1.50487,6.0195 z m 28.59245,-38.374 6.01946,-3.7622 c 0,0 1.50487,-3.7622 -12.03892,-1.5049 -13.54379,2.2573 -25.58272,6.0195 -25.58272,6.0195 l -14.29622,16.5535 0.75243,0.7524 c 0,0 9.02919,3.7622 15.04866,-6.0194 6.01946,-9.7816 9.78162,-13.5438 30.09731,-12.0389 z m 85.77734,-92.54928 -13.54379,-1.50487 -4.5146,4.5146 10.53406,-0.75243 z"
       inkscape:connector-curvature="0" />
  </g>
  <g
     inkscape:groupmode="layer"
     id="layer5"
     inkscape:label="dark gray"
     sodipodi:insensitive="true"
     transform="translate(-144.32741,-582.06508)">
    <path
       id="path4432"
       style="fill:#2b2f3b;fill-opacity:1;fill-rule:evenodd;stroke:#2b2f3b;stroke-width:1px;stroke-linecap:butt;stroke-linejoin:miter;stroke-opacity:1"
       d="m 589.53111,1174.6325 -2.2573,-1.5048 -2.63352,1.8811 -3.00973,1.1286 1.88108,2.6335 4.13838,-0.3762 z m 67.34273,-111.7362 -7.90054,5.267 -1.12865,0 -3.00973,-1.1287 -0.37622,-3.3859 5.26703,-3.7622 c 0,0 7.14811,-3.0097 7.14811,3.0098 z m 22.57299,34.9881 -0.37622,3.3859 -6.39568,0 0,-2.6335 z m 66.21408,-20.6919 -0.75243,2.6335 -9.78162,-1.5049 -8.27677,-6.3956 2.63352,-0.7525 7.14811,2.2573 4.5146,-0.3762 z m 21.44434,3.7622 -6.7719,-1.1287 -6.01946,0 -0.75243,2.6335 13.16757,1.5049 0.37622,-1.5049 z m -53.04651,-20.692 -9.78163,-4.1383 -0.75243,-3.7622 -17.68217,-1.1286 -10.53406,0.7524 1.50486,2.2573 4.5146,0.3762 -2.2573,4.5146 9.40541,0 z m -38.37408,-30.4735 -11.66271,-1.5048 2.63352,4.1383 4.89081,0 z m 10.53406,-7.5243 -9.02919,1.1286 3.76216,3.0098 5.26703,0 z m 26.33515,-25.95894 -3.38595,-1.50487 -4.13838,0.37622 1.12865,3.38595 6.39568,0 z m -12.03892,3.76214 -6.39568,-0.75241 -3.38595,6.39571 7.90054,0.7524 z m 197.51361,84.6487 -17.68217,-10.9103 -3.76217,0 -0.37621,4.5146 7.90054,1.1287 -0.75243,1.8811 5.26703,2.2573 3.38595,3.3859 z m -105.34059,9.4054 -12.03893,-2.2573 -5.64325,-3.0097 -17.68217,-0.7524 -5.64324,2.6335 -16.92974,-1.1287 -3.00973,-1.8811 -6.39568,1.8811 2.63351,3.0098 31.60218,0.7524 22.57299,3.0097 11.6627,0.3762 c 0,0 0.37622,-2.6335 -1.12864,-2.6335 z m -39.50273,20.3157 -4.89081,-3.0097 -3.76216,2.2573 5.64324,3.0097 z m -22.57298,-5.6432 -8.27676,-0.3763 -9.0292,7.9006 7.90055,3.3859 10.15784,-8.6529 z m -1.12865,14.2962 -4.5146,2.2573 -11.66271,0 -7.90054,2.2573 0,3.7621 13.16757,-2.6335 12.03893,-1.5048 z m -16.55352,18.4346 -11.66271,-3.0097 -2.2573,3.3859 10.53406,3.386 z m 10.91027,-5.6433 -10.15784,-1.881 2.63352,4.1383 6.77189,0 2.63352,-2.6335 z m 39.12651,-14.2962 -21.82055,-3.0097 -2.2573,-4.8908 -3.00973,0 -6.01946,5.6432 5.26703,2.6335 1.50486,4.5146 20.31569,-2.2573 z m 27.4638,19.5633 -29.7211,-11.2865 -3.00973,1.1286 8.65298,6.3957 15.80109,4.1384 z m 18.4346,-11.2865 -1.12865,-6.3957 -19.18703,-9.4054 -2.63352,2.6335 z m 16.55352,15.4249 -8.65297,-6.0195 -1.88109,1.1286 9.0292,8.653 z m 10.53406,-24.4541 15.04866,13.5438 -4.5146,2.6335 z m 97.81627,6.7719 c 0,0 -4.5146,-2.2573 -6.39568,-0.7524 -1.88108,1.5048 -2.63352,-4.8909 -2.63352,-4.8909 l -4.89081,0 -2.63351,3.7622 -12.79136,-7.1481 -0.75243,2.2573 -7.52433,-8.653 -3.00973,0.7524 -9.0292,-10.534 -8.27676,-0.7524 7.90055,7.1481 9.78162,10.534 6.7719,2.6335 7.90054,1.8811 12.03893,7.9006 1.50486,-3.0098 7.52433,4.1384 z m 20.31568,42.5124 -13.16757,-8.6529 -9.02919,0 0,2.6335 7.52432,3.7621 3.76217,-0.7524 8.65297,6.7719 z m 41.00759,28.9687 -8.65298,-4.8908 -5.26703,1.5049 -6.77189,-3.0098 -69.60004,-17.3059 -18.05838,-6.0195 -0.37622,3.0097 -4.5146,-2.6335 -1.12865,1.1287 -4.51459,-1.1287 -4.89082,1.1287 -6.01946,-5.6433 0,2.2573 -15.42487,-4.5146 -11.66271,3.0098 1.50487,2.6335 10.53406,-0.7525 4.89081,4.5146 7.14811,3.0098 1.88108,-2.6335 17.68217,3.0097 7.90055,1.1286 3.76216,3.7622 7.90055,-1.8811 22.19676,5.6433 4.5146,4.1383 1.88108,-2.2573 20.69191,7.9006 11.6627,0.7524 15.80109,6.0195 10.91028,0 1.12865,1.8811 4.5146,-0.7525 z m -227.61092,-218.20551 -13.92001,1.12865 -6.7719,5.26703 12.03893,-2.63352 3.76216,-0.37621 3.76217,1.50486 z m -43.64111,20.69191 -10.91027,0 -8.27676,-0.3762 -0.75244,0 -4.51459,5.6432 0.75243,3.386 10.15784,-2.2573 3.38595,-2.2573 4.89081,0.3762 z m -100.07356,26.3351 -18.4346,14.2963 -48.90814,16.9297 1.12865,2.6335 49.28435,-14.2962 18.43461,-18.8108 z m 47.40327,133.1806 5.26703,-2.6335 -2.63352,-2.2573 -9.78163,-0.3762 c 0,0 -4.13838,3.386 -15.04865,1.5049 -10.91028,-1.8811 -18.43461,0.7524 -18.43461,0.7524 l -11.6627,2.6335 3.38594,2.6335 8.27676,-3.0097 4.13839,2.6335 10.15784,-4.1384 0.75243,4.5146 z m -197.1374,-22.5729 7.90054,-2.2573 20.69191,-5.6433 16.92974,-1.1286 1.88108,4.5146 -20.6919,4.1383 -9.40541,1.8811 -2.63352,-0.7524 -16.17731,2.6335 z m 48.1557,34.9881 -4.5146,-4.1384 -28.59244,16.9297 5.26703,2.6336 18.81082,-10.1579 4.13838,-4.5146 z m 40.25516,-25.9589 -3.38595,12.0389 -22.57299,24.454 -7.14811,1.1287 24.83028,-32.7308 z"
       inkscape:connector-curvature="0" />
  </g>
  <g
     inkscape:groupmode="layer"
     id="layer4"
     inkscape:label="dam dark brown"
     sodipodi:insensitive="true"
     transform="translate(-144.32741,-582.06508)">
    <path
       id="path4335"
       style="fill:#633726;fill-opacity:1;fill-rule:evenodd;stroke:none;stroke-width:1px;stroke-linecap:butt;stroke-linejoin:miter;stroke-opacity:1"
       d="m 899.90964,1061.3914 -6.01946,-4.5146 -1.88108,-5.267 -10.53406,-0.7525 -3.38595,-5.267 -6.7719,-6.0195 -14.72199,-3.9845 c 0,0 -1.83949,4.413 15.02388,10.2414 6.67984,5.22 3.32719,3.3531 3.32719,3.3531 3.42564,0.3847 -15.29178,-2.0856 -15.29178,-2.0856 l -3.00974,4.8907 c 1.97514,3.6682 19.56325,1.8811 19.56325,1.8811 l 1.12865,1.9752 12.88542,7.619 4.42054,3.5735 z m -82.39139,-73.73842 -15.80109,-7.52433 7.14811,14.79136 23.32542,19.93949 6.01946,-2.7525 -0.75243,-3.0097 -7.52433,-8.2767 0.75243,-7.14815 -9.40541,-3.38595 z m -15.42487,83.14382 c 0,0 -12.41515,-1.1286 -15.04866,-3.3859 -2.63352,-2.2573 -7.14811,2.2573 -7.14811,2.2573 l 4.89081,3.7621 6.39568,-2.6335 5.64325,4.5146 z m 45.52218,108.3503 -6.01946,-5.267 -3.76217,1.5049 c 0,0 -1.50486,-9.0292 -4.13838,-9.7817 -2.63351,-0.7524 -5.26703,-1.881 -5.26703,-1.881 0,0 -6.77189,-9.7817 -8.65297,-7.1482 -1.88109,2.6336 6.01946,8.653 6.01946,8.653 l 0,4.8908 7.52433,3.386 -0.75244,3.3859 6.01947,3.0098 4.13838,5.267 3.38595,-0.3762 z m -86.15356,-71.1049 -25.58271,-9.4054 -4.89081,-1.1286 -4.89082,2.2573 -18.05839,-6.7719 -9.78162,0.3762 -6.7719,1.8811 -1.12865,2.2573 3.76217,2.2573 15.42487,-2.6335 18.81082,6.0194 1.50487,-1.1286 10.53406,4.8908 4.13838,-1.1287 1.50486,-0.3762 1.12865,3.0097 8.27676,0.3763 3.76217,3.0097 z m -90.29193,-51.9178 -1.50487,-2.2573 -9.78163,2.6335 -2.25729,4.5146 0,3.0097 6.01946,3.0097 4.89081,-2.2573 -0.37621,-2.6335 -1.88109,-0.7524 -0.75243,-3.7622 z m 264.10391,53.7989 -3.76216,-3.0097 0,-6.0195 -3.00973,3.0098 -8.27676,-4.8909 c 0,0 4.89081,-7.5243 6.39568,-7.1481 1.50486,0.3762 14.29622,12.039 14.29622,12.039 -5.28629,6.3352 -5.64325,6.0194 -5.64325,6.0194 z m -217.45308,-38.3741 -1.12865,-3.7621 -12.41514,-2.6335 -13.16757,11.2865 6.01946,1.1286 0,2.6335 -5.26703,3.386 5.26703,3.3859 4.89081,-2.6335 4.5146,3.0097 3.38595,-2.2573 -1.88109,-3.3859 7.14812,3.0097 0.75243,-4.1384 -6.39568,-2.2573 c 0,0 -1.12865,-10.9102 3.76216,-7.9005 4.89082,3.0097 3.00974,5.267 3.00974,5.267 l 6.77189,1.8811 z m -165.53522,-29.7211 -7.52433,-1.5048 -1.12864,3.0097 -10.15785,0.7524 -4.13838,5.2671 4.5146,2.6335 11.28649,-5.6433 6.01946,-1.1286 2.63352,-3.7622 z m -59.06597,20.6919 -6.7719,-1.881 -11.66271,10.534 -5.64324,1.1287 -11.28649,17.6821 0,1.5049 5.64324,0 4.13838,-5.6432 3.38595,0 6.77189,-7.5244 0,-1.881 14.7665,-11.2865 z m -104.21195,92.5493 c 0,0 -25.92692,6.9604 -25.95893,8.4649 -0.18811,8.8411 0.56432,16.3653 0.56432,16.3653 l 5.07893,-4.8907 18.4346,-8.653 4.13838,0 c 0,0 10.91028,-3.7622 12.79136,-4.5146 1.88108,-0.7525 8.65298,-6.7719 8.65298,-6.7719 l 12.03892,-3.0097 -0.37622,-1.8811 19.93947,-2.2573 0.75244,-1.5049 9.02919,0 1.88108,-1.5049 11.66271,-0.3762 5.64325,-2.2573 2.63351,-4.1384 -6.01946,-0.7524 -2.2573,2.6335 c 0,0 -15.80109,1.8811 -18.4346,1.5049 -2.63352,-0.3762 -13.54379,1.5049 -13.54379,1.5049 l -4.5146,-1.1287 -5.26703,1.8811 -0.75243,2.2573 -3.38595,0 -8.27676,3.3859 0,1.5049 -3.38595,1.8811 -5.64324,1.1286 -20.31569,10.1579 c 0,0 -9.02919,-0.3762 4.89081,-9.0292 z m 70.72869,-50.7892 -15.04866,3.0097 c 0,0 10.91028,0.3762 10.53406,2.2573 -0.37622,1.8811 -42.51245,33.8595 -42.51245,33.8595 l -7.14812,0.3762 4.5146,-5.267 -6.39568,-4.5146 9.78163,-0.7525 c 0,0 3.38595,-5.267 4.89081,-6.0194 1.50487,-0.7525 11.59893,-1.608 4.13838,-7.9006 -2.45289,-2.0689 20.16114,-20.2303 37.24543,-15.0486 z m 46.65083,-60.9471 -4.89081,0 c 0,0 -6.39568,10.1579 0,10.9103 6.39568,0.7524 9.40541,-1.1287 9.40541,-1.1287 l 4.89081,0.8465 3.00973,-11.3806 z m 439.42076,181.7125 3.76217,9.7817 c 0,0 -10.53406,10.1578 -0.75244,12.4151 9.78163,2.2573 10.91028,-1.8811 10.91028,-1.8811 l 6.39568,-1.8811 -5.26703,-3.3859 1.12865,-6.3957 -6.01946,-3.7622 c 0,0 -11.66271,-11.2864 -10.15785,-4.8908 z m -27.84001,-3.3859 -2.63352,-2.6335 -0.37621,-1.5049 -4.5146,-0.3762 -3.38595,-4.1384 -1.88108,-0.3762 -2.2573,-2.6335 -8.27676,0.7524 c 0,0 -3.38595,-1.1286 -4.89081,-1.1286 -1.50487,0 -7.14811,-4.5146 -8.27676,-1.8811 -1.12865,2.6335 4.51459,1.5048 5.64324,3.3859 1.12865,1.8811 -1.12865,7.1481 -1.12865,7.1481 0,0 6.7719,8.653 9.40541,8.653 2.63352,0 15.04866,2.2573 17.68218,0.3762 2.63351,-1.881 9.40541,16.1773 25.95893,9.7817 16.55352,-6.3957 4.89081,-4.5146 4.89081,-4.5146 0,0 -9.02919,-16.1773 -25.95893,-10.9103 z"
       inkscape:connector-curvature="0"
       sodipodi:nodetypes="cccccccccccccccccccccccccccsccccccccccccccccccccccccccccccccccccccccccccccccccccccscccccccccccccccccscccccccccccccccccccccccccccscccccccccccccccccscccccccccccccsccccccscccsccccccsccccccccccccccssscscscc" />
  </g>
  <g
     inkscape:groupmode="layer"
     id="layer6"
     inkscape:label="dam dark blue"
     sodipodi:insensitive="true"
     transform="translate(-144.32741,-582.06508)">
    <path
       style="fill:#272942;fill-opacity:1;fill-rule:evenodd;stroke:none;stroke-width:1px;stroke-linecap:butt;stroke-linejoin:miter;stroke-opacity:1"
       d="m 431.89643,1160.7125 -6.77189,6.7719 -17.30596,9.0292 -27.08758,14.2962 -15.04865,4.5146 0,-12.0389 29.34488,-12.7913 0.75243,4.5146 -21.82055,9.7816 0,2.2573 27.08758,-12.0389 21.06812,-12.7914 z"
       id="path4437"
       inkscape:connector-curvature="0" />
    <path
       style="fill:#272942;fill-opacity:1;fill-rule:evenodd;stroke:none;stroke-width:1px;stroke-linecap:butt;stroke-linejoin:miter;stroke-opacity:1"
       d="m 486.0716,1159.9601 -25.58272,3.7622 -36.11678,13.5438 -2.25729,2.2572 32.35461,-6.7718 z"
       id="path4439"
       inkscape:connector-curvature="0" />
    <path
       style="fill:#272942;fill-opacity:1;fill-rule:evenodd;stroke:none;stroke-width:1px;stroke-linecap:butt;stroke-linejoin:miter;stroke-opacity:1"
       d="m 574.85867,1086.9741 -3.00973,6.7719 7.90054,0.7524 0.37622,6.7719 -14.67244,5.2671 -2.63352,-2.6335 1.12865,-2.6336 -4.13838,1.8811 -0.75243,3.7622 -6.7719,0 0.37622,-4.1384 4.5146,-1.1286 1.88108,-7.9006 9.02919,-6.0195 z"
       id="path4441"
       inkscape:connector-curvature="0" />
    <path
       style="fill:#272942;fill-opacity:1;fill-rule:evenodd;stroke:none;stroke-width:1px;stroke-linecap:butt;stroke-linejoin:miter;stroke-opacity:1"
       d="m 607.21328,1062.1438 -0.75243,4.1384 -1.12865,1.1287 4.89081,2.6335 2.63351,0.7524 c 0,0 10.91028,-7.9005 13.16758,1.5049 2.2573,9.4054 -4.5146,1.5048 -4.5146,1.5048 l 14.67244,-4.8908 9.40541,4.8908 7.52433,0 10.15784,4.5146 16.55352,0 2.2573,4.1384 9.40541,-1.8811 1.50487,1.5049 5.64324,-1.5049 -1.88108,-4.5146 -7.90054,1.1287 -4.89082,-2.2573 -0.37621,-1.1287 -1.88108,1.1287 -18.05839,-3.7622 -2.2573,-2.2573 -2.63351,1.5049 -9.78163,-1.5049 -3.76217,-1.5048 5.64325,-9.0292 -2.2573,-3.7622 -12.79136,2.2573 0,-2.6335 7.52433,-0.7524 0,-2.6336 -8.65297,-0.7524 -7.90055,4.1384 -8.65298,0 -10.15784,0 -18.4346,8.2767 c 0,0 0.75243,3.0098 7.14811,1.1287 6.39568,-1.8811 10.53406,-1.5049 10.53406,-1.5049 z"
       id="path4443"
       inkscape:connector-curvature="0" />
    <path
       style="fill:#272942;fill-opacity:1;fill-rule:evenodd;stroke:none;stroke-width:1px;stroke-linecap:butt;stroke-linejoin:miter;stroke-opacity:1"
       d="m 630.91491,1120.8336 -0.75243,5.267 -6.7719,-0.3762 -18.81082,4.5146 0.37622,-2.6335 11.66271,-3.386 2.63351,-3.3859 z"
       id="path4445"
       inkscape:connector-curvature="0" />
    <path
       style="fill:#272942;fill-opacity:1;fill-rule:evenodd;stroke:none;stroke-width:1px;stroke-linecap:butt;stroke-linejoin:miter;stroke-opacity:1"
       d="m 578.24461,993.67245 1.12865,3.38594 -7.14811,7.90051 -5.26703,-3.0097 z"
       id="path4447"
       inkscape:connector-curvature="0" />
    <path
       style="fill:#272942;fill-opacity:1;fill-rule:evenodd;stroke:none;stroke-width:1px;stroke-linecap:butt;stroke-linejoin:miter;stroke-opacity:1"
       d="m 584.64029,1026.0271 -1.50486,5.267 -8.65298,0 -11.66271,8.653 5.64325,-7.1481 7.14811,-4.5146 4.13838,-2.2573 z"
       id="path4449"
       inkscape:connector-curvature="0" />
    <path
       style="fill:#272942;fill-opacity:1;fill-rule:evenodd;stroke:none;stroke-width:1px;stroke-linecap:butt;stroke-linejoin:miter;stroke-opacity:1"
       d="m 689.22845,1010.6022 -16.55352,4.8908 -5.26703,3.3859 -2.2573,-2.6335 0,2.6335 1.88109,1.8811 7.14811,-3.0097 15.04865,-3.386 z"
       id="path4451"
       inkscape:connector-curvature="0" />
    <path
       style="fill:#272942;fill-opacity:1;fill-rule:evenodd;stroke:none;stroke-width:1px;stroke-linecap:butt;stroke-linejoin:miter;stroke-opacity:1"
       d="m 877.71287,1062.52 -18.05838,-4.1383 -34.2357,0.3762 -3.38594,-1.1287 -23.70164,-3.3859 8.27676,-6.3957 7.90055,1.1287 3.76216,-5.6433 -9.40541,-4.8908 -7.14811,8.653 -12.03893,1.8811 -7.14811,4.5146 -12.79136,-4.5146 -12.03892,0.3762 0,3.0097 10.91028,3.7622 9.78162,-1.1287 39.50272,7.5243 24.83029,1.5049 19.56325,1.1287 10.53406,2.6335 7.14811,-1.1287 z"
       id="path4453"
       inkscape:connector-curvature="0" />
    <path
       style="fill:#272942;fill-opacity:1;fill-rule:evenodd;stroke:none;stroke-width:1px;stroke-linecap:butt;stroke-linejoin:miter;stroke-opacity:1"
       d="m 934.14533,1144.5352 -21.44433,-6.7719 -7.90055,-0.3762 -4.13838,-3.3859 -10.53406,4.8908 11.66271,-0.7525 15.80109,5.6433 10.15784,2.6335 6.01947,1.1287 z"
       id="path4455"
       inkscape:connector-curvature="0" />
    <path
       style="fill:#272942;fill-opacity:1;fill-rule:evenodd;stroke:none;stroke-width:1px;stroke-linecap:butt;stroke-linejoin:miter;stroke-opacity:1"
       d="m 645.96357,1138.1395 -6.01946,5.6433 1.50486,2.6335 19.56325,-13.1676 -3.00973,-2.6335 z"
       id="path4457"
       inkscape:connector-curvature="0" />
    <path
       style="fill:#272942;fill-opacity:1;fill-rule:evenodd;stroke:none;stroke-width:1px;stroke-linecap:butt;stroke-linejoin:miter;stroke-opacity:1"
       d="m 617.74734,1147.545 -9.78163,0 0,-1.8811 -7.14811,3.7621 0.37622,4.8909 9.78162,-4.1384 5.64325,0 z"
       id="path4459"
       inkscape:connector-curvature="0" />
    <path
       style="fill:#272942;fill-opacity:1;fill-rule:evenodd;stroke:none;stroke-width:1px;stroke-linecap:butt;stroke-linejoin:miter;stroke-opacity:1"
       d="m 449.5786,1206.6109 -13.16757,4.1384 -9.02919,3.386 -5.64325,3.0097 0.37622,3.0097 13.92,-2.6335 1.12865,-3.7622 z"
       id="path4461"
       inkscape:connector-curvature="0" />
    <path
       style="fill:#272942;fill-opacity:1;fill-rule:evenodd;stroke:none;stroke-width:1px;stroke-linecap:butt;stroke-linejoin:miter;stroke-opacity:1"
       d="m 648.9733,1075.3114 -13.16758,5.6433 -6.01946,0.7524 -1.12865,3.3859 -5.26703,1.5049 -13.54379,10.9103 4.13838,1.8811 15.80109,-11.2865 1.12865,-3.0098 4.5146,1.1287 12.03892,-6.7719 z"
       id="path4463"
       inkscape:connector-curvature="0" />
    <path
       style="fill:#272942;fill-opacity:1;fill-rule:evenodd;stroke:none;stroke-width:1px;stroke-linecap:butt;stroke-linejoin:miter;stroke-opacity:1"
       d="m 405.18507,1214.5115 -18.05839,10.534 4.5146,2.6335 15.04865,-11.2864 z"
       id="path4465"
       inkscape:connector-curvature="0" />
  </g>
  <g
     inkscape:groupmode="layer"
     id="layer2"
     inkscape:label="beaver"
     sodipodi:insensitive="true"
     transform="translate(-144.32741,-582.06508)">
    <path
       style="fill:#191a1d;fill-opacity:1;fill-rule:evenodd;stroke:none;stroke-width:1px;stroke-linecap:butt;stroke-linejoin:miter;stroke-opacity:1"
       d="m 756.91211,869.75348 c -8.70054,-30.26106 -27.32255,-39.09496 -58.20785,-15.55011 0,0 -32.1509,4.20273 -43.49828,18.70216 -11.34738,14.49943 -9.66628,30.46981 -9.66628,30.46981 0,0 2.52164,16.60079 1.05068,42.86787 11.76765,0 75.43905,1.26082 75.43905,1.26082 l -1.26082,-23.32516 c 0,0 1.89122,-18.28189 16.60079,-15.97039 15.51235,2.43765 24.58599,5.67369 29.20899,11.13724 7.35478,6.51424 1.5722,27.96059 8.19533,18.49202 1.05068,-7.35478 -1.26082,-13.65887 -1.26082,-13.65887 0,0 16.79161,23.83356 15.33997,8.82573 -0.94779,-9.79882 -29.62926,-27.31776 -29.62926,-27.31776 0,0 4.5886,-13.17689 -18.28189,-15.12983 -4.99436,-0.42647 2.10137,-6.93451 2.10137,-6.93451 l 10.9271,-1.89123 -5.04328,6.72437 2.52164,1.26082 c 5.49405,-13.16436 12.43247,-16.1423 5.46356,-19.96298 z"
       id="path4221"
       inkscape:connector-curvature="0"
       sodipodi:nodetypes="ccsccccscccscsccccc" />
  </g>
</svg>
