<?xml version="1.0" encoding="UTF-8" standalone="no"?>
<!-- Created with Inkscape (http://www.inkscape.org/) -->

<svg
   xmlns:dc="http://purl.org/dc/elements/1.1/"
   xmlns:cc="http://creativecommons.org/ns#"
   xmlns:rdf="http://www.w3.org/1999/02/22-rdf-syntax-ns#"
   xmlns:svg="http://www.w3.org/2000/svg"
   xmlns="http://www.w3.org/2000/svg"
   xmlns:xlink="http://www.w3.org/1999/xlink"
   xmlns:sodipodi="http://sodipodi.sourceforge.net/DTD/sodipodi-0.dtd"
   xmlns:inkscape="http://www.inkscape.org/namespaces/inkscape"
   width="187.45518mm"
   height="101.79025mm"
   viewBox="0 0 664.21129 360.67412"
   id="svg2"
   version="1.1"
   inkscape:version="0.91 r13725"
   sodipodi:docname="logo.svg">
  <defs
     id="defs4">
    <linearGradient
       inkscape:collect="always"
       id="linearGradient4295">
      <stop
         style="stop-color:#002780;stop-opacity:1;"
         offset="0"
         id="stop4297" />
      <stop
         style="stop-color:#acc8ff;stop-opacity:0"
         offset="1"
         id="stop4299" />
    </linearGradient>
    <radialGradient
       inkscape:collect="always"
       xlink:href="#linearGradient4295"
       id="radialGradient4293"
       cx="306.53729"
       cy="307.52057"
       fx="306.53729"
       fy="307.52057"
       r="327.76086"
       gradientTransform="matrix(0.85257306,0.25791366,-0.13392948,0.44272444,92.551379,109.00973)"
       gradientUnits="userSpaceOnUse" />
    <radialGradient
       inkscape:collect="always"
       xlink:href="#linearGradient4295"
       id="radialGradient4232"
       gradientUnits="userSpaceOnUse"
       gradientTransform="matrix(0.85257306,0.25791366,-0.13392948,0.44272444,92.551379,109.00973)"
       cx="306.53729"
       cy="307.52057"
       fx="306.53729"
       fy="307.52057"
       r="327.76086" />
  </defs>
  <sodipodi:namedview
     id="base"
     pagecolor="#ffffff"
     bordercolor="#666666"
     borderopacity="1.0"
     inkscape:pageopacity="0.0"
     inkscape:pageshadow="2"
     inkscape:zoom="4.1146338"
     inkscape:cx="294.56723"
     inkscape:cy="146.49359"
     inkscape:document-units="px"
     inkscape:current-layer="g4236"
     showgrid="false"
     inkscape:window-width="1680"
     inkscape:window-height="1001"
     inkscape:window-x="0"
     inkscape:window-y="0"
     inkscape:window-maximized="1"
     fit-margin-top="0"
     fit-margin-left="0"
     fit-margin-right="0"
     fit-margin-bottom="0" />
  <metadata
     id="metadata7">
    <rdf:RDF>
      <cc:Work
         rdf:about="">
        <dc:format>image/svg+xml</dc:format>
        <dc:type
           rdf:resource="http://purl.org/dc/dcmitype/StillImage" />
        <dc:title />
      </cc:Work>
    </rdf:RDF>
  </metadata>
  <g
     inkscape:groupmode="layer"
     id="g4236"
     inkscape:label="brown copy"
     style="display:inline"
     sodipodi:insensitive="true"
     transform="translate(-26.749361,-157.52535)">
    <path
       inkscape:connector-curvature="0"
       id="path4238"
       d="m 617.41364,161.83859 c -23.5585,0.35186 -44.68549,17.90281 -51.29687,40.21289 -5.06429,15.83067 -7.1273,32.4472 -8.38867,48.96289 -4.42849,4.14572 -10.87828,7.08074 -13.58399,12.67969 -1.18948,6.12543 13.1469,-1.68379 12.3158,3.97986 -5.60198,37.21032 -12.06813,74.34254 -17.14783,111.60022 -0.66839,4.29955 4.47911,7.59051 7.73047,4.34961 8.00708,-7.73255 12.14539,-18.78203 15.07422,-29.32422 5.68184,-29.24618 8.15735,-59.13639 13.15039,-88.38672 10.18708,-0.81324 20.88626,2.98951 30.85937,-0.34961 4.05039,-2.11697 3.86419,-7.36312 5.5625,-11.02148 -0.94249,-4.96584 -7.88696,-3.04325 -11.4783,-3.63276 -7.2784,-0.5845 -15.16378,1.09415 -22.08615,-0.85553 0.87847,-11.08795 4.81968,-21.89382 5.89173,-33.05139 2.52524,-14.25544 1.01001,-31.72529 12.98522,-42.03454 5.66593,-4.00287 14.34457,-3.17621 19.6543,0.77734 2.07925,4.03177 8.31653,6.43235 11.14063,1.83594 2.13518,-3.64577 4.65633,-8.92753 2.84765,-12.64649 -3.61903,-2.93813 -8.79462,-3.04278 -13.23047,-3.0957 z m -392.3164,0.55078 c -23.63477,0.97753 -48.07256,12.23279 -60.88477,32.69922 -13.82362,23.73587 -27.78727,47.39204 -41.66406,71.09766 -5.89896,1.19757 -12.85205,0.30846 -18.04492,3.69336 -1.89249,4.58502 4.92241,4.51777 7.81759,4.88364 6.17535,-1.29223 3.74692,4.17365 0.28202,5.75893 -23.621302,-5.68641 -51.893416,-1.92674 -68.572267,17.2168 -7.603947,8.4935 -16.620128,18.09692 -16.78125,30.17383 0.613741,9.19599 11.299599,12.2481 18.990234,12.37109 23.399614,0.81818 43.359319,-14.92213 58.437763,-31.24823 3.26301,-3.57773 6.36943,-7.30334 9.23606,-11.20685 35.40263,4.18308 70.7923,9.60753 106.46485,10.66993 10.53497,0.54265 18.32393,-9.07399 19.47265,-18.83985 0.60673,-3.09648 0.59257,-6.26318 0.61914,-9.40429 -7.08509,6.79437 -17.95726,4.65992 -26.80468,5.53906 -29.31161,0.0629 -58.54838,-2.38746 -87.72266,-5.02539 2.47658,-3.42757 4.08114,-8.25109 9.11719,-7.43946 34.2556,-4.99433 68.80893,-14.19909 98.17187,-33.0996 16.01708,-10.40709 30.56532,-27.25489 29.67969,-47.46094 0.34656,-13.1462 -9.09628,-25.31524 -21.8457,-28.41602 -5.16571,-1.53981 -10.59207,-2.07787 -15.96875,-1.96289 z m 237.29492,2.64844 c -12.85541,1.46099 -24.29769,8.64453 -37.34375,8.71289 -8.56428,2.05946 -11.67934,11.5261 -18.88867,15.65625 -22.48664,19.28352 -45.55559,40.5602 -56.37702,68.85535 -5.85037,14.64447 -4.0242,33.42326 8.76178,43.87902 18.41754,15.15071 45.57864,15.0145 66.68555,5.8711 6.81527,-3.35381 14.50149,-7.25068 18.67383,-13.54297 0.0256,-5.21997 -6.53602,-2.57111 -9.11328,-1.10352 -11.75488,5.62571 -25.68476,8.77117 -38.34571,3.82618 -11.86645,-2.80918 -23.50676,-11.42455 -24.88476,-24.33399 -3.01712,-26.89717 11.67867,-52.72022 31.18065,-70.20944 3.13439,-2.41522 7.10229,-6.90723 10.19044,-7.51712 9.39774,18.52106 36.29121,13.14394 50.36328,3.37305 3.45221,-2.44471 0.37391,-7.07967 -3.32031,-6.31055 -1.43147,-1.33845 7.55763,-6.36932 9.6417,-8.95566 3.70179,-5.2059 3.80379,-16.45294 -4.22373,-17.98965 -0.98532,-0.20097 -1.99666,-0.25315 -3,-0.21094 z m -14.47266,11.32031 c 4.5913,-0.44681 9.13259,4.83896 5.01563,8.52344 -2.69931,2.63528 -6.27233,7.16153 -9.94532,6.92187 -4.72748,-1.94496 -9.26494,-8.65221 -3.87109,-12.50195 2.42977,-2.0178 5.65101,-3.07464 8.80078,-2.94336 z m -236.01758,3.92578 c 13.03422,0.13704 26.90415,10.69072 27.34961,24.33399 -0.73989,15.60886 -13.79149,26.88023 -25.68554,35.15039 -23.35842,15.38806 -51.30191,22.95137 -78.81055,25.72461 13.35547,-27.33091 29.04259,-54.69862 52.57097,-74.55844 7.04896,-5.56023 15.3584,-10.4247 24.57551,-10.65055 z m 463.89844,11.64649 c -8.51362,0.42085 -10.28043,10.84137 -10.16208,17.63476 0.46682,6.12833 0.40527,14.57553 6.41989,18.06641 5.77789,0.19902 8.37456,-6.92593 10.59571,-11.24414 2.6983,-7.01933 5.95386,-17.66882 -1.28321,-23.08203 -1.65974,-1.03562 -3.65312,-1.30823 -5.57031,-1.375 z m -29.36523,53.54492 c -15.2319,0.94147 -30.57929,10.85439 -35.9375,25.42969 -4.18813,11.54795 4.88792,26.21089 17.77929,25.35742 9.55906,-0.43429 19.6092,-4.29042 26.03711,-11.53125 2.23622,-3.57921 -2.83326,-5.32709 -5.4375,-3.66406 -11.81091,4.38324 -24.70665,-10.44558 -19.4375,-21.47657 2.97296,-3.29112 8.96956,-1.06013 12.36328,0.57032 -1.51712,5.37032 -10.10346,6.86267 -10.03125,12.79687 2.88716,4.94145 8.24845,-0.61275 11.36323,-2.63187 5.99323,-5.0661 14.46274,-9.27964 16.93365,-17.24118 -0.49709,-5.60637 -8.93432,-7.78895 -13.63281,-7.60937 z m -359.91407,0.43555 c -10.19395,-0.74493 -19.62904,4.30358 -26.36132,11.67578 -6.53868,5.48244 -13.50339,13.35676 -10.95508,22.60351 2.72456,13.3025 19.57243,21.66025 31.35399,14.02751 4.88858,-3.29881 11.96083,-5.28544 14.54835,-10.9904 -0.15329,-4.86769 -6.33822,-1.60886 -9.21875,-2.42383 -9.01087,0.32248 -17.70896,-6.95666 -16.39453,-16.56054 -0.72255,-4.98295 1.46329,-7.4134 6.6195,-5.72947 2.75678,-0.95332 6.59981,0.6979 4.40394,3.6865 -2.08184,3.94146 -10.03844,5.76485 -8.22852,11.22266 2.99162,4.79413 7.26971,-2.83273 10.68589,-4.21622 4.86613,-4.84983 12.65995,-7.32605 15.90396,-13.51621 3.02371,-8.04386 -6.38414,-10.40548 -12.35743,-9.77929 z m 219.22657,1.99218 c -9.91141,1.1856 -16.678,9.89585 -24.85809,14.77749 -9.88272,7.90027 -20.91709,14.65846 -29.64387,23.86705 -3.85835,3.89617 -1.7812,10.63316 3.5,11.91406 7.12698,3.07047 14.84813,1.65089 21.68532,-1.44488 11.91774,-3.88261 22.35318,-10.92572 32.64281,-17.81294 5.17898,-0.0841 7.47044,6.58199 10.70827,9.8018 2.39761,6.60548 10.53216,5.63028 14.92259,1.97555 4.64851,-2.73566 10.07071,-10.36041 4.6289,-14.94922 -10.7334,-7.78695 -16.19473,-21.92 -28.6914,-27.40234 -1.56728,-0.5451 -3.23579,-0.8004 -4.89453,-0.72657 z m -10.84961,18.62891 c 4.85216,-0.98151 10.28651,4.18367 6.57422,8.75977 -5.56092,6.43349 -16.31605,10.73669 -24.14649,6.20703 -3.40924,-3.19514 1.83327,-7.19246 3.90625,-9.80078 3.60701,-3.49775 8.64684,-5.39029 13.66602,-5.16602 z M 87.31013,293.10422 c 5.057904,0.13368 12.04239,0.50321 15.96289,2.60937 -12.124309,16.66668 -30.376381,33.0158 -52.412109,31.41016 -6.323341,-0.12826 -10.872906,-7.66427 -7.144531,-13.13282 8.81755,-14.47022 27.463891,-20.57203 43.59375,-20.88671 z m 161.0664,45.40625 c -7.40607,2.61357 -16.62598,3.32923 -22.1875,9.38281 -1.81328,2.82864 1.69288,4.67906 3.23633,5.97656 0.82207,17.1212 -3.97867,33.79236 -6.70088,50.60262 -2.56564,15.79997 -7.45122,31.30287 -8.79326,47.26066 -0.66451,4.7194 4.46289,8.34939 8.5332,5.64063 5.39653,-2.73773 9.60069,-7.27843 13.66993,-11.64844 -2.45576,-7.34274 0.67606,-15.48619 1.20542,-23.03299 4.04388,-27.45556 10.9907,-54.51818 13.55825,-82.19162 0.23714,-2.93689 0.46385,-2.99641 -2.52149,-1.99023 z m 237.00391,1.05273 c -7.52415,1.50464 -16.18341,1.29648 -22.62695,5.88086 -2.71701,3.08194 3.25987,4.61446 0.7539,7.76562 -5.86006,29.04826 -13.07458,58.00742 -20.10547,86.87696 5.91136,6.32456 10.57828,16.13783 19.90821,17.77148 9.62492,-0.43178 16.29112,-9.03856 24.04687,-13.68164 5.18801,-4.49101 12.37333,-7.26632 16.52149,-12.46875 3.5807,-7.22098 -0.27611,-16.2345 -7.77344,-18.92187 -4.87917,-1.7706 -11.221,-4.8318 -15.37109,-0.19532 -3.25822,3.08498 -9.82946,5.86001 -9.0879,11.17969 3.0136,3.13141 8.77436,2.28512 12.20118,5.41406 4.93266,2.20808 3.12299,8.2592 -0.74024,10.61133 -5.69551,5.40124 -15.54283,0.44359 -17.05859,-6.41797 7.39836,-31.3939 14.79734,-62.78765 22.19531,-94.18164 -0.95443,0.1224 -1.90885,0.24479 -2.86328,0.36719 z m 140.51562,-0.20312 c -7.88861,1.06418 -16.38253,2.78889 -22.85937,7.62304 -2.25374,2.46243 0.71397,4.50575 2.58008,5.68555 2.47552,10.39952 -2.04277,21.09086 -3.51448,31.41604 -5.22626,24.38436 -9.42169,49.03533 -11.18865,73.93161 9.34387,0.23444 16.48975,-7.01295 22.81055,-12.95898 -3.75771,-1.87928 -0.88389,-7.27456 -1.24188,-10.66605 3.90358,-31.91746 10.07268,-63.49801 15.91375,-95.11911 -0.83333,0.0293 -1.66666,0.0586 -2.5,0.0879 z m -225.02929,1.95117 c -6.52477,1.42843 -11.53186,6.61738 -17.82585,8.89465 -22.54111,11.5684 -45.91474,21.58184 -68.43196,33.09363 -8.9922,6.38839 -19.99395,15.3061 -18.7793,27.5957 2.35913,11.25114 14.54112,15.90553 22.89566,22.03218 11.66204,7.14557 23.97431,13.23356 36.72153,18.18852 -4.59251,19.77944 -13.13672,41.52113 -32.04297,51.60547 -9.72452,4.43852 -22.62841,5.91666 -31.87305,-0.32617 -7.87543,-7.80835 -2.86221,-20.01484 1.38086,-28.38672 4.02531,-4.18367 -3.09975,-2.72976 -5.70117,-3.19531 -7.0013,-0.30052 -14.37048,2.23883 -17.8781,8.72422 -6.73173,7.93249 -9.38899,21.16557 -0.94807,28.92226 12.59718,11.31483 31.51178,10.61109 46.89257,6.45118 26.19117,-7.24737 46.92863,-28.54321 56.58399,-53.56836 3.93765,-0.67862 11.6516,-1.02323 11.05469,-6.67188 -1.32519,-3.52051 -5.40257,-4.83896 -8.50977,-6.32617 9.76564,-34.49642 20.22261,-68.87119 29.60742,-103.43359 0.11867,-1.82221 -1.22108,-3.6318 -3.14648,-3.59961 z m -247.15625,14.70507 c -8.51432,0.42095 -10.28091,10.84267 -10.16274,17.63672 0.46819,6.12827 0.40643,14.57345 6.42055,18.06446 5.77804,0.19913 8.37306,-6.92675 10.5957,-11.24414 2.69834,-7.01925 5.95337,-17.66849 -1.2832,-23.08204 -1.6598,-1.03632 -3.65272,-1.30808 -5.57031,-1.375 z m 204.43945,86.10743 c -13.5194,-6.59353 -28.7736,-12.30806 -38.36523,-24.47266 -5.4917,-7.21833 1.24416,-15.36798 7.26175,-19.47698 16.40474,-11.79852 35.23777,-19.17075 53.41793,-27.81208 -7.43815,23.92057 -14.8763,47.84114 -22.31445,71.76172 z M 83.37263,381.16086 c -6.774652,1.92704 -11.072253,8.7331 -14.443359,14.52343 -3.175348,4.91081 -2.477893,13.03199 3.939453,14.76758 14.903312,4.78236 30.550936,9.31244 43.341796,18.49805 4.08213,2.22461 3.5376,7.46898 -0.68946,9.15625 -6.094,4.13557 -14.55517,3.80094 -21.410149,1.76953 -4.102944,-2.48104 0.933632,-7.71701 2.230472,-10.52539 2.199367,-2.51918 4.592427,-8.53984 -0.34375,-9.49219 -5.131097,-0.0712 -11.158634,1.08073 -15.0456,4.18059 -5.286111,7.9523 -12.707458,17.10794 -10.411434,27.28816 3.285819,8.25615 14.043815,7.4221 21.191406,5.95899 16.143515,-3.90774 32.525925,-11.47165 43.009765,-24.76954 5.32243,-6.03519 4.16633,-17.67407 -4.74287,-19.53034 -15.11747,-7.13349 -31.45878,-13.10138 -44.09502,-24.35247 -1.600041,-1.62795 3.05487,-6.53605 -2.53125,-7.47265 z m 115.28125,27.15429 c -10.19392,-0.7447 -19.62909,4.30347 -26.36133,11.67578 -6.53806,5.48225 -13.50278,13.35529 -10.95508,22.60157 2.72279,13.30471 19.57209,21.66112 31.3555,14.03058 4.88777,-3.29782 11.93999,-5.2843 14.54489,-10.9759 -0.12264,-4.86751 -6.33654,-1.61968 -9.18164,-2.43945 -9.02011,0.32242 -17.76954,-6.94476 -16.42969,-16.57812 -1.04974,-5.74628 2.41287,-7.04497 7.61859,-5.66909 4.30808,-1.73343 5.1642,3.28472 2.18219,5.10854 -2.38981,2.7814 -9.85914,5.86503 -6.46875,10.48047 3.79352,3.04434 7.85026,-4.67873 11.74391,-6.14534 4.63996,-5.09752 14.80941,-7.30818 14.83422,-15.41326 -0.37849,-6.27166 -8.1723,-6.84373 -12.88281,-6.67578 z m 229.57617,0.57617 c -10.19186,-0.74396 -19.62676,4.30227 -26.35742,11.67383 -6.54309,5.48222 -13.50695,13.36023 -10.95703,22.60938 2.72757,13.30188 19.57312,21.65375 31.35549,14.02472 4.88388,-3.30143 11.96179,-5.28526 14.54294,-10.98957 -0.15624,-4.87096 -6.34592,-1.6063 -9.21679,-2.42578 -8.558,0.27101 -17.15355,-6.25789 -16.38672,-15.46093 -0.60474,-4.98693 0.68418,-9.03851 6.61168,-6.82903 2.75113,-0.94597 6.60961,0.69564 4.40199,3.69035 -2.0365,3.90974 -10.50006,6.02082 -8.05859,11.49805 3.16161,4.2548 7.08856,-3.20148 10.51792,-4.49551 4.86467,-4.85053 12.66246,-7.32535 15.90395,-13.51621 3.02809,-8.04334 -6.38612,-10.40659 -12.35742,-9.7793 z m 121.99219,1.43946 c -9.91123,1.18656 -16.6793,9.89375 -24.85809,14.77749 -9.8847,7.89895 -20.91553,14.66041 -29.64582,23.86704 -3.85588,3.89747 -1.77903,10.63288 3.50195,11.91406 7.12688,3.0703 14.84837,1.65159 21.68532,-1.44488 11.92582,-3.86471 22.3349,-10.94356 32.635,-17.81098 4.87543,-0.26994 7.09487,6.05631 10.1178,8.99856 1.77555,4.89271 7.25227,7.1678 11.80602,4.79441 5.52289,-2.35199 12.98824,-8.65417 9.79493,-15.35156 -8.63801,-7.30836 -15.06368,-16.93422 -23.25586,-24.76172 -3.23447,-2.87705 -7.31202,-5.2246 -11.78125,-4.98242 z m -10.84961,18.6289 c 4.86741,-1.01623 10.30039,4.22457 6.55859,8.77735 -5.55682,6.42856 -16.33063,10.71309 -24.13867,6.17969 -3.51011,-3.21791 1.89959,-7.20566 3.94922,-9.82422 3.60751,-3.48576 8.62422,-5.34993 13.63086,-5.13282 z"
       style="opacity:0.98000004;fill:#4e2c15;fill-opacity:1;fill-rule:evenodd;stroke:#000000;stroke-width:1px;stroke-linecap:butt;stroke-linejoin:miter;stroke-opacity:1" />
  </g>
  <g
     style="display:inline"
     inkscape:label="brown"
     id="g4317"
     inkscape:groupmode="layer"
     sodipodi:insensitive="true"
     transform="translate(-26.749361,-157.52535)">
    <path
       style="fill:#ba7733;fill-opacity:1;fill-rule:evenodd;stroke:url(#radialGradient4232);stroke-width:1px;stroke-linecap:butt;stroke-linejoin:miter;stroke-opacity:1"
       d="m 622.10156,158.02539 c -23.5585,0.35186 -44.68549,17.90281 -51.29687,40.21289 -5.06429,15.83067 -7.1273,32.4472 -8.38867,48.96289 -4.42849,4.14572 -10.87828,7.08074 -13.58399,12.67969 -1.18948,6.12543 13.1469,-1.68379 12.3158,3.97986 -5.60198,37.21032 -12.06813,74.34254 -17.14783,111.60022 -0.66839,4.29955 4.47911,7.59051 7.73047,4.34961 8.00708,-7.73255 12.14539,-18.78203 15.07422,-29.32422 5.68184,-29.24618 8.15735,-59.13639 13.15039,-88.38672 10.18708,-0.81324 20.88626,2.98951 30.85937,-0.34961 4.05039,-2.11697 3.86419,-7.36312 5.5625,-11.02148 -0.94249,-4.96584 -7.88696,-3.04325 -11.4783,-3.63276 -7.2784,-0.5845 -15.16378,1.09415 -22.08615,-0.85553 0.87847,-11.08795 4.81968,-21.89382 5.89173,-33.05139 2.52524,-14.25544 1.01001,-31.72529 12.98522,-42.03454 5.66593,-4.00287 14.34457,-3.17621 19.6543,0.77734 2.07925,4.03177 8.31653,6.43235 11.14063,1.83594 2.13518,-3.64577 4.65633,-8.92753 2.84765,-12.64649 -3.61903,-2.93813 -8.79462,-3.04278 -13.23047,-3.0957 z m -392.3164,0.55078 c -23.63477,0.97753 -48.07256,12.23279 -60.88477,32.69922 -13.82362,23.73587 -27.78727,47.39204 -41.66406,71.09766 -5.89896,1.19757 -12.85205,0.30846 -18.04492,3.69336 -1.89249,4.58502 4.92241,4.51777 7.81759,4.88364 6.17535,-1.29223 3.74692,4.17365 0.28202,5.75893 -23.621305,-5.68641 -51.893419,-1.92674 -68.57227,17.2168 -7.603947,8.4935 -16.620128,18.09692 -16.78125,30.17383 0.613741,9.19599 11.299599,12.2481 18.990234,12.37109 23.399614,0.81818 43.359319,-14.92213 58.437766,-31.24823 3.26301,-3.57773 6.36943,-7.30334 9.23606,-11.20685 35.40263,4.18308 70.7923,9.60753 106.46485,10.66993 10.53497,0.54265 18.32393,-9.07399 19.47265,-18.83985 0.60673,-3.09648 0.59257,-6.26318 0.61914,-9.40429 -7.08509,6.79437 -17.95726,4.65992 -26.80468,5.53906 -29.31161,0.0629 -58.54838,-2.38746 -87.72266,-5.02539 2.47658,-3.42757 4.08114,-8.25109 9.11719,-7.43946 34.2556,-4.99433 68.80893,-14.19909 98.17187,-33.0996 16.01708,-10.40709 30.56532,-27.25489 29.67969,-47.46094 0.34656,-13.1462 -9.09628,-25.31524 -21.8457,-28.41602 -5.16571,-1.53981 -10.59207,-2.07787 -15.96875,-1.96289 z m 237.29492,2.64844 c -12.85541,1.46099 -24.29769,8.64453 -37.34375,8.71289 -8.56428,2.05946 -11.67934,11.5261 -18.88867,15.65625 -22.48664,19.28352 -45.55559,40.5602 -56.37702,68.85535 -5.85037,14.64447 -4.0242,33.42326 8.76178,43.87902 18.41754,15.15071 45.57864,15.0145 66.68555,5.8711 6.81527,-3.35381 14.50149,-7.25068 18.67383,-13.54297 0.0256,-5.21997 -6.53602,-2.57111 -9.11328,-1.10352 -11.75488,5.62571 -25.68476,8.77117 -38.34571,3.82618 -11.86645,-2.80918 -23.50676,-11.42455 -24.88476,-24.33399 -3.01712,-26.89717 11.67867,-52.72022 31.18065,-70.20944 3.13439,-2.41522 7.10229,-6.90723 10.19044,-7.51712 9.39774,18.52106 36.29121,13.14394 50.36328,3.37305 3.45221,-2.44471 0.37391,-7.07967 -3.32031,-6.31055 -1.43147,-1.33845 7.55763,-6.36932 9.6417,-8.95566 3.70179,-5.2059 3.80379,-16.45294 -4.22373,-17.98965 -0.98532,-0.20097 -1.99666,-0.25315 -3,-0.21094 z m -14.47266,11.32031 c 4.5913,-0.44681 9.13259,4.83896 5.01563,8.52344 -2.69931,2.63528 -6.27233,7.16153 -9.94532,6.92187 -4.72748,-1.94496 -9.26494,-8.65221 -3.87109,-12.50195 2.42977,-2.0178 5.65101,-3.07464 8.80078,-2.94336 z m -236.01758,3.92578 c 13.03422,0.13704 26.90415,10.69072 27.34961,24.33399 -0.73989,15.60886 -13.79149,26.88023 -25.68554,35.15039 -23.35842,15.38806 -51.30191,22.95137 -78.81055,25.72461 13.35547,-27.33091 29.04259,-54.69862 52.57097,-74.55844 7.04896,-5.56023 15.3584,-10.4247 24.57551,-10.65055 z m 463.89844,11.64649 c -8.51362,0.42085 -10.28043,10.84137 -10.16208,17.63476 0.46682,6.12833 0.40527,14.57553 6.41989,18.06641 5.77789,0.19902 8.37456,-6.92593 10.59571,-11.24414 2.6983,-7.01933 5.95386,-17.66882 -1.28321,-23.08203 -1.65974,-1.03562 -3.65312,-1.30823 -5.57031,-1.375 z m -29.36523,53.54492 c -15.2319,0.94147 -30.57929,10.85439 -35.9375,25.42969 -4.18813,11.54795 4.88792,26.21089 17.77929,25.35742 9.55906,-0.43429 19.6092,-4.29042 26.03711,-11.53125 2.23622,-3.57921 -2.83326,-5.32709 -5.4375,-3.66406 -11.81091,4.38324 -24.70665,-10.44558 -19.4375,-21.47657 2.97296,-3.29112 8.96956,-1.06013 12.36328,0.57032 -1.51712,5.37032 -10.10346,6.86267 -10.03125,12.79687 2.88716,4.94145 8.24845,-0.61275 11.36323,-2.63187 5.99323,-5.0661 14.46274,-9.27964 16.93365,-17.24118 -0.49709,-5.60637 -8.93432,-7.78895 -13.63281,-7.60937 z m -359.91407,0.43555 c -10.19395,-0.74493 -19.62904,4.30358 -26.36132,11.67578 -6.53868,5.48244 -13.50339,13.35676 -10.95508,22.60351 2.72456,13.3025 19.57243,21.66025 31.35399,14.02751 4.88858,-3.29881 11.96083,-5.28544 14.54835,-10.9904 -0.15329,-4.86769 -6.33822,-1.60886 -9.21875,-2.42383 -9.01087,0.32248 -17.70896,-6.95666 -16.39453,-16.56054 -0.72255,-4.98295 1.46329,-7.4134 6.6195,-5.72947 2.75678,-0.95332 6.59981,0.6979 4.40394,3.6865 -2.08184,3.94146 -10.03844,5.76485 -8.22852,11.22266 2.99162,4.79413 7.26971,-2.83273 10.68589,-4.21622 4.86613,-4.84983 12.65995,-7.32605 15.90396,-13.51621 3.02371,-8.04386 -6.38414,-10.40548 -12.35743,-9.77929 z m 219.22657,1.99218 c -9.91141,1.1856 -16.678,9.89585 -24.85809,14.77749 -9.88272,7.90027 -20.91709,14.65846 -29.64387,23.86705 -3.85835,3.89617 -1.7812,10.63316 3.5,11.91406 7.12698,3.07047 14.84813,1.65089 21.68532,-1.44488 11.91774,-3.88261 22.35318,-10.92572 32.64281,-17.81294 5.17898,-0.0841 7.47044,6.58199 10.70827,9.8018 2.39761,6.60548 10.53216,5.63028 14.92259,1.97555 4.64851,-2.73566 10.07071,-10.36041 4.6289,-14.94922 -10.7334,-7.78695 -16.19473,-21.92 -28.6914,-27.40234 -1.56728,-0.5451 -3.23579,-0.8004 -4.89453,-0.72657 z m -10.84961,18.62891 c 4.85216,-0.98151 10.28651,4.18367 6.57422,8.75977 -5.56092,6.43349 -16.31605,10.73669 -24.14649,6.20703 -3.40924,-3.19514 1.83327,-7.19246 3.90625,-9.80078 3.60701,-3.49775 8.64684,-5.39029 13.66602,-5.16602 z M 91.998047,289.29102 c 5.057904,0.13368 12.042393,0.50321 15.962893,2.60937 -12.124312,16.66668 -30.376384,33.0158 -52.412112,31.41016 -6.323341,-0.12826 -10.872906,-7.66427 -7.144531,-13.13282 8.81755,-14.47022 27.463891,-20.57203 43.59375,-20.88671 z m 161.066403,45.40625 c -7.40607,2.61357 -16.62598,3.32923 -22.1875,9.38281 -1.81328,2.82864 1.69288,4.67906 3.23633,5.97656 0.82207,17.1212 -3.97867,33.79236 -6.70088,50.60262 -2.56564,15.79997 -7.45122,31.30287 -8.79326,47.26066 -0.66451,4.7194 4.46289,8.34939 8.5332,5.64063 5.39653,-2.73773 9.60069,-7.27843 13.66993,-11.64844 -2.45576,-7.34274 0.67606,-15.48619 1.20542,-23.03299 4.04388,-27.45556 10.9907,-54.51818 13.55825,-82.19162 0.23714,-2.93689 0.46385,-2.99641 -2.52149,-1.99023 z M 490.06836,335.75 c -7.52415,1.50464 -16.18341,1.29648 -22.62695,5.88086 -2.71701,3.08194 3.25987,4.61446 0.7539,7.76562 -5.86006,29.04826 -13.07458,58.00742 -20.10547,86.87696 5.91136,6.32456 10.57828,16.13783 19.90821,17.77148 9.62492,-0.43178 16.29112,-9.03856 24.04687,-13.68164 5.18801,-4.49101 12.37333,-7.26632 16.52149,-12.46875 3.5807,-7.22098 -0.27611,-16.2345 -7.77344,-18.92187 -4.87917,-1.7706 -11.221,-4.8318 -15.37109,-0.19532 -3.25822,3.08498 -9.82946,5.86001 -9.0879,11.17969 3.0136,3.13141 8.77436,2.28512 12.20118,5.41406 4.93266,2.20808 3.12299,8.2592 -0.74024,10.61133 -5.69551,5.40124 -15.54283,0.44359 -17.05859,-6.41797 7.39836,-31.3939 14.79734,-62.78765 22.19531,-94.18164 -0.95443,0.1224 -1.90885,0.24479 -2.86328,0.36719 z m 140.51562,-0.20312 c -7.88861,1.06418 -16.38253,2.78889 -22.85937,7.62304 -2.25374,2.46243 0.71397,4.50575 2.58008,5.68555 2.47552,10.39952 -2.04277,21.09086 -3.51448,31.41604 -5.22626,24.38436 -9.42169,49.03533 -11.18865,73.93161 9.34387,0.23444 16.48975,-7.01295 22.81055,-12.95898 -3.75771,-1.87928 -0.88389,-7.27456 -1.24188,-10.66605 3.90358,-31.91746 10.07268,-63.49801 15.91375,-95.11911 -0.83333,0.0293 -1.66666,0.0586 -2.5,0.0879 z m -225.02929,1.95117 c -6.52477,1.42843 -11.53186,6.61738 -17.82585,8.89465 -22.54111,11.5684 -45.91474,21.58184 -68.43196,33.09363 -8.9922,6.38839 -19.99395,15.3061 -18.7793,27.5957 2.35913,11.25114 14.54112,15.90553 22.89566,22.03218 11.66204,7.14557 23.97431,13.23356 36.72153,18.18852 -4.59251,19.77944 -13.13672,41.52113 -32.04297,51.60547 -9.72452,4.43852 -22.62841,5.91666 -31.87305,-0.32617 -7.87543,-7.80835 -2.86221,-20.01484 1.38086,-28.38672 4.02531,-4.18367 -3.09975,-2.72976 -5.70117,-3.19531 -7.0013,-0.30052 -14.37048,2.23883 -17.8781,8.72422 -6.73173,7.93249 -9.38899,21.16557 -0.94807,28.92226 12.59718,11.31483 31.51178,10.61109 46.89257,6.45118 26.19117,-7.24737 46.92863,-28.54321 56.58399,-53.56836 3.93765,-0.67862 11.6516,-1.02323 11.05469,-6.67188 -1.32519,-3.52051 -5.40257,-4.83896 -8.50977,-6.32617 9.76564,-34.49642 20.22261,-68.87119 29.60742,-103.43359 0.11867,-1.82221 -1.22108,-3.6318 -3.14648,-3.59961 z m -247.15625,14.70507 c -8.51432,0.42095 -10.28091,10.84267 -10.16274,17.63672 0.46819,6.12827 0.40643,14.57345 6.42055,18.06446 5.77804,0.19913 8.37306,-6.92675 10.5957,-11.24414 2.69834,-7.01925 5.95337,-17.66849 -1.2832,-23.08204 -1.6598,-1.03632 -3.65272,-1.30808 -5.57031,-1.375 z m 204.43945,86.10743 c -13.5194,-6.59353 -28.7736,-12.30806 -38.36523,-24.47266 -5.4917,-7.21833 1.24416,-15.36798 7.26175,-19.47698 16.40474,-11.79852 35.23777,-19.17075 53.41793,-27.81208 -7.43815,23.92057 -14.8763,47.84114 -22.31445,71.76172 z M 88.060547,377.34766 c -6.774652,1.92704 -11.072253,8.7331 -14.443359,14.52343 -3.175348,4.91081 -2.477893,13.03199 3.939453,14.76758 14.903312,4.78236 30.550939,9.31244 43.341799,18.49805 4.08213,2.22461 3.5376,7.46898 -0.68946,9.15625 -6.094,4.13557 -14.55517,3.80094 -21.410152,1.76953 -4.102944,-2.48104 0.933632,-7.71701 2.230472,-10.52539 2.19937,-2.51918 4.59243,-8.53984 -0.34375,-9.49219 -5.131097,-0.0712 -11.158634,1.08073 -15.0456,4.18059 -5.286111,7.9523 -12.707458,17.10794 -10.411434,27.28816 3.285819,8.25615 14.043815,7.4221 21.191406,5.95899 16.143518,-3.90774 32.525928,-11.47165 43.009768,-24.76954 5.32243,-6.03519 4.16633,-17.67407 -4.74287,-19.53034 -15.11747,-7.13349 -31.45878,-13.10138 -44.095023,-24.35247 -1.600041,-1.62795 3.05487,-6.53605 -2.53125,-7.47265 z M 203.3418,404.50195 c -10.19392,-0.7447 -19.62909,4.30347 -26.36133,11.67578 -6.53806,5.48225 -13.50278,13.35529 -10.95508,22.60157 2.72279,13.30471 19.57209,21.66112 31.3555,14.03058 4.88777,-3.29782 11.93999,-5.2843 14.54489,-10.9759 -0.12264,-4.86751 -6.33654,-1.61968 -9.18164,-2.43945 -9.02011,0.32242 -17.76954,-6.94476 -16.42969,-16.57812 -1.04974,-5.74628 2.41287,-7.04497 7.61859,-5.66909 4.30808,-1.73343 5.1642,3.28472 2.18219,5.10854 -2.38981,2.7814 -9.85914,5.86503 -6.46875,10.48047 3.79352,3.04434 7.85026,-4.67873 11.74391,-6.14534 4.63996,-5.09752 14.80941,-7.30818 14.83422,-15.41326 -0.37849,-6.27166 -8.1723,-6.84373 -12.88281,-6.67578 z m 229.57617,0.57617 c -10.19186,-0.74396 -19.62676,4.30227 -26.35742,11.67383 -6.54309,5.48222 -13.50695,13.36023 -10.95703,22.60938 2.72757,13.30188 19.57312,21.65375 31.35549,14.02472 4.88388,-3.30143 11.96179,-5.28526 14.54294,-10.98957 -0.15624,-4.87096 -6.34592,-1.6063 -9.21679,-2.42578 -8.558,0.27101 -17.15355,-6.25789 -16.38672,-15.46093 -0.60474,-4.98693 0.68418,-9.03851 6.61168,-6.82903 2.75113,-0.94597 6.60961,0.69564 4.40199,3.69035 -2.0365,3.90974 -10.50006,6.02082 -8.05859,11.49805 3.16161,4.2548 7.08856,-3.20148 10.51792,-4.49551 4.86467,-4.85053 12.66246,-7.32535 15.90395,-13.51621 3.02809,-8.04334 -6.38612,-10.40659 -12.35742,-9.7793 z m 121.99219,1.43946 c -9.91123,1.18656 -16.6793,9.89375 -24.85809,14.77749 -9.8847,7.89895 -20.91553,14.66041 -29.64582,23.86704 -3.85588,3.89747 -1.77903,10.63288 3.50195,11.91406 7.12688,3.0703 14.84837,1.65159 21.68532,-1.44488 11.92582,-3.86471 22.3349,-10.94356 32.635,-17.81098 4.87543,-0.26994 7.09487,6.05631 10.1178,8.99856 1.77555,4.89271 7.25227,7.1678 11.80602,4.79441 5.52289,-2.35199 12.98824,-8.65417 9.79493,-15.35156 -8.63801,-7.30836 -15.06368,-16.93422 -23.25586,-24.76172 -3.23447,-2.87705 -7.31202,-5.2246 -11.78125,-4.98242 z m -10.84961,18.6289 c 4.86741,-1.01623 10.30039,4.22457 6.55859,8.77735 -5.55682,6.42856 -16.33063,10.71309 -24.13867,6.17969 -3.51011,-3.21791 1.89959,-7.20566 3.94922,-9.82422 3.60751,-3.48576 8.62422,-5.34993 13.63086,-5.13282 z"
       id="path4319"
       inkscape:connector-curvature="0" />
  </g>
  <g
     inkscape:groupmode="layer"
     id="layer2"
     inkscape:label="blue letters"
     style="display:inline"
     sodipodi:insensitive="true"
     transform="translate(-26.749361,-157.52535)">
    <path
       id="path4230"
       style="fill:#439ba6;fill-opacity:1;fill-rule:evenodd;stroke:url(#radialGradient4293);stroke-width:1px;stroke-linecap:butt;stroke-linejoin:miter;stroke-opacity:1"
       d="m 630.65171,337.5442 c -5.55113,0.0192 -27.01528,6.4871 -20.48871,8.63 9.94457,4.41982 -7.41134,41.83524 -12.38363,105.92249 6.90595,0 17.40301,-10.49705 17.40301,-10.49705 -4.14357,-1.65743 15.46933,-104.05544 15.46933,-104.05544 z m -140.32898,0.18989 -21.54658,91.43483 c -1.10495,4.14357 11.35516,18.09652 21.82282,6.90596 11.46023,-12.25168 -12.15448,-16.57429 -12.15448,-16.57429 -2.65269,-2.06319 11.32576,-11.32577 11.32576,-11.32577 0,0 24.30896,1.65744 16.57429,19.88915 -39.29538,25.52773 -34.86389,34.58585 -56.07634,7.73467 0,0 17.12676,-69.05954 20.71786,-90.60612 -10.49705,-3.86733 19.33667,-7.45843 19.33667,-7.45843 z M 376.665,445.7382 406.07009,343.81133 c 0,0 3.31486,-8.0109 -5.24852,-2.2099 -8.56339,5.801 -78.1754,38.12086 -78.1754,38.12086 0,0 -35.1307,20.61621 -12.9832,37.56839 24.43632,18.70409 52.76149,28.72877 52.76149,28.72877 0,0 -9.60332,57.37553 -49.17039,58.56248 -38.50098,1.15498 -17.403,-35.35847 -17.403,-35.35847 -11.3229,-1.1932 -16.02182,2.76238 -16.02182,2.76238 -43.09315,45.02682 62.96183,66.67213 95.30217,-16.29805 22.92776,-2.48614 1.53358,-9.94959 1.53358,-9.94959 z M 235.07867,347.67867 c 0,0 -12.98319,-2.76238 18.50796,-11.04953 -0.27624,17.40301 -19.06043,98.61702 -15.1931,104.9705 0,0 -21.82282,24.5852 -17.12677,-0.27624 4.69605,-24.86143 19.61291,-89.7774 13.81191,-93.64473 z m 315.18773,76.51797 c 0,0 -17.67924,-6.62971 -27.34758,13.25944 3.05161,15.94226 42.86125,-0.46983 27.34758,-13.25944 z m 22.5518,25.30922 c 5.52476,4.97229 22.47502,-9.2874 13.35917,-13.98345 -15.97669,-14.29995 -23.35754,-35.10642 -39.50206,-23.75648 -22.94468,16.1306 -40.05454,30.10996 -40.05454,30.10996 -13.29656,10.40708 -3.04762,14.99353 8.64064,15.03583 50.27751,-14.71143 37.0037,-35.46769 57.55679,-7.40586 z m -133.59953,-7.90622 c 0,0 -31.23844,5.7957 -24.33249,-26.24793 l 13.00673,0.55778 c 7.16272,7.88166 -11.40996,12.96245 -6.90596,16.29805 l 21.54658,-16.29805 c 0,0 6.07724,-8.83962 -8.28714,-8.83962 -14.36439,0 -17.95548,2.48615 -32.31987,17.12677 -13.99619,14.26535 5.52477,37.29215 23.20401,27.90005 17.67924,-9.3921 14.08814,-10.49705 14.08814,-10.49705 z m -229.57722,-0.57607 c 0,0 -31.23844,5.7957 -24.33249,-26.24793 l 13.00673,0.55778 c 7.16272,7.88166 -11.40996,12.96245 -6.90596,16.29805 l 21.54658,-16.29805 c 0,0 6.07724,-8.83962 -8.28714,-8.83962 -14.36439,0 -17.95548,2.48615 -32.31987,17.12677 -13.99619,14.26535 5.52477,37.29215 23.20401,27.90005 17.67924,-9.3921 14.08814,-10.49705 14.08814,-10.49705 z m -54.11936,-54.94779 c 6.43027,-0.88481 18.30788,-30.69714 4.14357,-31.76739 -13.25944,-2.2099 -10.49705,30.3862 -4.14357,31.76739 z m -67.678356,-2.20991 c 0,0 -1.381196,6.90595 49.722866,28.72876 23.89075,23.64781 -97.334379,71.89623 -49.722866,8.01091 38.762196,-12.56645 -21.595719,23.46561 28.176296,18.23172 19.21602,-8.79158 11.87824,-17.95548 -35.08225,-33.42482 -22.114453,-3.31312 14.585126,-38.30786 6.905954,-21.54657 z M 677.6122,221.99031 c 6.43027,-0.88481 18.30788,-30.69714 4.14357,-31.76739 -13.25944,-2.2099 -10.49705,30.3862 -4.14357,31.76739 z m -41.98821,30.10996 c -11.97637,5.34838 -0.25012,32.95622 18.50796,27.07134 14.08815,-4.41981 -19.33667,22.09905 -33.42482,6.07724 -19.2681,-23.96315 28.78462,-52.9611 41.9882,-37.01591 1.65743,5.52476 -22.37529,20.99409 -22.37529,20.99409 -10.70924,-0.34958 26.7951,-16.0218 -4.69605,-17.12676 z m -57.45753,8.03493 c 18.78419,-0.55247 33.14858,4.39578 34.25353,-3.89136 0.9918,-7.4385 10.54333,-7.21323 -24.03272,-7.18219 -14.68225,0.0132 -4.69605,-3.03862 0,-49.72287 1.36149,-13.53485 6.60669,-42.02765 33.70106,-29.83372 9.18147,13.9979 12.15447,-6.62971 12.15447,-6.62971 -4.47122,-5.50219 -41.52727,-6.27129 -58.28625,27.90005 -9.57166,19.5165 -11.602,57.45754 -11.602,57.45754 0,0 -13.53567,10.22081 -13.53567,11.87824 l 12.98319,-0.27624 -17.67924,112.98141 c -1.24307,9.80645 6.05384,10.44008 16.19446,-14.4905 5.12118,-12.59034 6.18083,-34.51775 15.84917,-98.19065 z m -72.3744,1.6334 c 0,0 -17.67924,-6.62971 -27.34758,13.25944 3.05161,15.94226 42.86125,-0.46983 27.34758,-13.25944 z m 22.5518,25.30922 c 5.52476,4.97229 22.47502,-9.2874 13.35917,-13.98345 -15.97669,-14.29995 -23.35754,-35.10642 -39.50206,-23.75648 -22.94468,16.1306 -40.05454,30.10996 -40.05454,30.10996 -13.29656,10.40708 -3.04762,14.99353 8.64064,15.03583 50.27751,-14.71143 37.0037,-35.46769 57.55679,-7.40586 z M 446.548,290.7452 c 1.41806,-5.89974 -18.41374,11.02812 -39.07998,6.325 -18.29772,-4.1641 -38.11726,-11.78263 -32.88908,-44.96993 6.5563,-41.61794 43.92187,-64.36349 43.92187,-64.36349 8.48701,31.86005 73.97015,-2.54031 38.67334,3.31486 l 16.29805,-13.53567 c 0,0 6.17368,-17.42501 -9.66834,-13.81191 -15.74557,3.5911 -19.28341,7.47037 -32.31986,8.01091 -6.76625,0.28055 -12.98319,10.22081 -12.98319,10.22081 C 278.63811,293.71667 400.22103,335.63284 446.548,290.7452 Z M 297.50849,278.61913 c 0,0 -31.23844,5.7957 -24.33249,-26.24793 l 13.00673,0.55778 c 7.16272,7.88166 -11.40996,12.96245 -6.90596,16.29805 l 21.54658,-16.29805 c 0,0 6.07724,-8.83962 -8.28714,-8.83962 -14.36439,0 -17.95548,2.48615 -32.31987,17.12677 -13.99619,14.26535 5.52477,37.29215 23.20401,27.90005 17.67924,-9.3921 14.08814,-10.49705 14.08814,-10.49705 z M 136.18541,263.97851 c 17.13457,-37.99215 59.51792,-106.72796 94.73568,-85.54307 42.3052,25.44826 -9.65433,78.63712 -94.73568,85.54307 z m -7.73467,0.27624 41.15949,-70.16449 c 20.81958,-39.11807 102.35548,-50.68398 95.60945,1.92251 -6.56847,47.89865 -96.20654,68.74692 -130.96794,72.10931 l -7.18219,10.49705 c 0,0 105.56501,10.69222 116.02002,1.93367 0,0 1e-5,21.27034 -17.12676,22.09905 -19.59193,0.948 -108.28536,-10.77329 -108.28536,-10.77329 0,0 -32.728822,47.38385 -70.164487,42.26444 -32.319864,-4.41981 3.038619,-39.22582 3.038619,-39.22582 0,0 20.717862,-27.34757 68.507058,-15.74557 l 6.07724,-9.66834 c 0,0 -34.529765,-1.38119 3.31486,-5.24852 z m 235.63115,176.79241 24.30896,-78.17539 c -67.24363,30.67963 -100.41219,44.98378 -24.30896,78.17539 z M 111.32398,290.49737 c 0,0 -24.585199,39.50205 -58.286254,34.52977 -26.023034,-10.94209 16.551385,-48.89901 58.286254,-34.52977 z m 337.28678,-99.72198 c 0,0 19.81478,-10.85914 9.94458,-18.2317 -9.91256,-7.40421 -31.76739,7.18218 -9.94458,18.2317 z"
       inkscape:connector-curvature="0" />
  </g>
</svg>
