<?xml version="1.0" encoding="UTF-8" standalone="no"?>
<!-- Created with Inkscape (http://www.inkscape.org/) -->

<svg
   xmlns:dc="http://purl.org/dc/elements/1.1/"
   xmlns:cc="http://creativecommons.org/ns#"
   xmlns:rdf="http://www.w3.org/1999/02/22-rdf-syntax-ns#"
   xmlns:svg="http://www.w3.org/2000/svg"
   xmlns="http://www.w3.org/2000/svg"
   xmlns:sodipodi="http://sodipodi.sourceforge.net/DTD/sodipodi-0.dtd"
   xmlns:inkscape="http://www.inkscape.org/namespaces/inkscape"
   width="888.20044mm"
   height="417.22632mm"
   viewBox="0 0 3147.1669 1478.361"
   id="svg2"
   version="1.1"
   inkscape:version="0.91 r13725"
   sodipodi:docname="logo.svg">
  <defs
     id="defs4" />
  <sodipodi:namedview
     id="base"
     pagecolor="#ffffff"
     bordercolor="#666666"
     borderopacity="1.0"
     inkscape:pageopacity="0.0"
     inkscape:pageshadow="2"
     inkscape:zoom="0.31972957"
     inkscape:cx="1962.1974"
     inkscape:cy="300.02463"
     inkscape:document-units="px"
     inkscape:current-layer="layer3"
     showgrid="false"
     inkscape:window-width="1680"
     inkscape:window-height="1001"
     inkscape:window-x="0"
     inkscape:window-y="0"
     inkscape:window-maximized="1"
     fit-margin-top="0"
     fit-margin-left="0"
     fit-margin-right="0"
     fit-margin-bottom="0" />
  <metadata
     id="metadata7">
    <rdf:RDF>
      <cc:Work
         rdf:about="">
        <dc:format>image/svg+xml</dc:format>
        <dc:type
           rdf:resource="http://purl.org/dc/dcmitype/StillImage" />
        <dc:title></dc:title>
      </cc:Work>
    </rdf:RDF>
  </metadata>
  <g
     inkscape:groupmode="layer"
     id="layer3"
     inkscape:label="logo 1"
     sodipodi:insensitive="true"
     transform="translate(11.119033,11.219455)">
    <g
       transform="translate(976.00619,37.994039)"
       style="display:inline;fill:#00ffff;fill-opacity:1"
       id="g4425">
      <g
         style="display:inline;fill:#00ffff;fill-opacity:1"
         id="g4449">
        <g
           style="fill:#00ffff;fill-opacity:1"
           id="g4451" />
        <g
           style="fill:#00ffff;fill-opacity:1"
           id="g4453">
          <path
             sodipodi:type="inkscape:offset"
             inkscape:radius="9.2161579"
             inkscape:original="M 1493.3496 -39.480469 C 1484.7117 -37.3408 1482.7387 -25.711928 1485.6973 -18.431641 C 1492.4413 -1.9984074 1511.2285 3.8376318 1526.2168 9.8378906 C 1544.7722 17.440378 1563.8005 29.61089 1570.4609 49.658203 C 1578.8803 75.289865 1576.0802 102.72683 1576.623 129.26562 C 1576.8074 201.4433 1578.463 273.61432 1578.2715 345.79688 C 1578.1437 370.95234 1578.5752 396.16154 1577.9668 421.28516 C 1574.5352 441.62153 1557.9747 457.29587 1540.1035 465.7207 C 1535.7331 468.3613 1530.238 467.94016 1525.9082 470.32227 C 1520.6288 475.27739 1514.67 481.88308 1515.1777 489.60547 C 1517.246 496.1444 1525.7477 493.78936 1530.582 492.27734 C 1577.5808 478.96571 1626.795 489.59432 1672.5215 502.6582 C 1709.3544 512.87318 1744.9017 528.04564 1782.6836 534.61719 C 1797.6672 536.10565 1813.1398 537.56975 1827.9863 534.30664 C 1836.9563 532.69048 1844.8422 524.65266 1843.5977 515.15039 C 1842.7443 510.39541 1842.6695 504.03657 1838.3945 501.0332 C 1825.2357 496.78424 1811.0056 497.5588 1797.4902 495.01758 C 1770.4785 490.91474 1741.4817 484.188 1722.5547 462.92773 C 1709.8128 449.03317 1707.6963 429.51339 1707.0684 411.55469 C 1702.6718 329.28441 1703.3897 246.69807 1704.9492 164.29883 C 1705.9614 141.9311 1705.2934 119.33482 1708.7539 97.214844 C 1715.5313 59.002185 1718.9784 18.8933 1737.8184 -15.646484 C 1741.0421 -21.426135 1745.2882 -26.352067 1749.5918 -31.287109 C 1710.6728 -19.762088 1669.9623 -15.516794 1629.5527 -14.242188 C 1583.5558 -13.483066 1536.0174 -18.223546 1494.5117 -39.425781 C 1494.1288 -39.497621 1493.7375 -39.513319 1493.3496 -39.480469 z M 873.59375 -27.646484 C 873.21631 -27.643604 872.82316 -27.52475 872.41602 -27.265625 C 845.64471 -8.0096569 816.08794 9.484215 783.17773 15.242188 C 762.9022 17.704479 742.19243 17.489895 721.94336 13.951172 C 716.50286 18.82538 721.3693 26.956878 724.22656 31.947266 C 729.44918 41.310473 739.45833 47.987265 741.06445 59.099609 C 744.66238 75.332162 746.80815 92.216177 744.62695 108.75 C 730.57593 110.56189 715.24588 106.11026 701.89453 112.72852 C 687.3706 121.62255 681.11183 139.48933 679.79492 155.73438 C 679.27748 159.23658 679.438 162.54151 684.07422 161.26953 C 702.70716 162.58813 721.88858 162.61733 739.63672 169.20312 C 745.77268 171.44763 743.54953 179.29914 744.70117 184.29102 C 747.53375 244.5514 745.8401 305.17577 745.45508 365.52539 C 743.34563 377.73531 738.9553 392.04429 727.29883 398.32617 C 724.02741 400.76262 716.86009 396.26407 716.25586 402.16992 C 717.47059 412.5422 724.57639 421.1389 730.23633 429.54688 C 770.3342 482.70819 836.08308 514.67483 902.50781 515.11523 C 950.77017 515.3954 1001.5537 504.64009 1039.707 473.51172 C 1070.4445 448.66107 1091.5446 408.66952 1086.0059 368.51758 C 1083.6398 350.24187 1073.4113 332.39839 1056.4766 324.08398 C 1026.8726 306.29043 989.56268 303.64456 957.20312 315.12891 C 931.42089 324.23511 906.89461 339.2808 889.90039 360.98828 C 888.90651 363.29139 883.79918 368.10269 888.27344 368.54492 C 909.87144 374.04544 933.79404 369.06213 953.75 380.875 C 972.15875 391.85177 982.18281 416.96547 974.14648 437.22266 C 964.80165 458.44303 939.81815 468.06201 917.875 466.46484 C 894.81286 465.43641 873.59958 449.38378 866.4707 427.4043 C 858.71191 405.44878 862.05689 382.06415 860.61914 359.21484 C 859.61113 305.83689 858.6538 252.33738 858.76367 199.01758 C 892.06102 205.58637 927.04788 209.8673 960.48828 201.90625 C 976.79652 198.12533 991.87652 188.13148 999.7168 173.05859 C 1012.3596 151.26064 1008.8009 123.74148 997.41797 102.21094 C 994.19065 97.177475 992.18682 89.255029 985.63672 87.6875 C 978.8941 88.348403 976.28151 96.486706 971.48242 100.2207 C 951.04821 122.09548 919.52055 127.77454 891.11328 128.49219 C 879.4315 128.78609 867.7535 128.23397 856.16992 127.1543 C 858.5844 90.521331 860.8548 53.303985 870.54297 17.742188 C 874.41448 5.7378742 882.63908 -6.3525996 878.96289 -19.542969 C 878.12782 -22.035853 876.23585 -27.66665 873.59375 -27.646484 z M -504.80859 -18.509766 C -518.83858 -18.071954 -531.96703 -10.865608 -540.53125 0.15234375 C -553.46279 14.859075 -560.93558 33.298991 -572.15039 49.136719 C -576.02362 49.216479 -580.40944 45.41182 -584.47656 44.011719 C -617.29509 27.280355 -653.32151 16.85815 -690.14648 14.640625 C -720.50236 12.799975 -751.19613 13.440158 -781.26367 18.208984 C -839.00042 29.293055 -888.7091 66.624275 -924.5293 112.10547 C -953.3378 149.14517 -975.4782 193.63125 -977.0918 241.28906 C -979.8072 303.65276 -965.20735 367.43143 -932.36133 420.79297 C -904.65649 466.15064 -860.71907 501.28915 -810.10742 517.67969 C -763.92352 532.83436 -714.06979 535.3003 -666.125 528.57422 C -625.11793 522.71218 -586.15594 504.60348 -555.15625 477.14258 C -529.70287 455.01762 -504.15865 428.99833 -496.16992 395.11719 C -493.33746 382.45774 -493.83453 368.86986 -498.77539 356.78516 C -506.14943 352.25374 -515.74743 354.94429 -521.05664 361.4043 C -535.15442 377.66212 -543.17579 398.06603 -556.32617 414.95117 C -574.36285 440.57656 -601.67228 460.30889 -632.78516 465.80273 C -668.57915 472.47848 -705.5248 465.81188 -739.74023 454.4043 C -779.8907 439.65462 -808.30159 403.51516 -823.07031 364.37109 C -844.39331 307.83587 -845.88744 244.85769 -832.39062 186.1543 C -823.19217 148.95634 -807.49511 111.02444 -777.43359 86.001953 C -754.69698 67.055746 -723.51221 63.102946 -695.13672 65.855469 C -654.11783 70.379578 -613.8762 87.163536 -583.34375 115.17578 C -564.20063 134.36636 -548.94112 157.05641 -537.35547 181.46875 C -534.22886 188.68527 -526.0951 191.61677 -518.70117 190.4043 C -511.89544 190.10192 -502.50017 189.08377 -500.75391 180.98242 C -498.257 166.76611 -502.57757 152.3668 -503.47656 138.17383 C -510.56672 87.171621 -503.77266 35.553096 -493.74219 -14.703125 C -496.31244 -18.002552 -500.91718 -18.561113 -504.80859 -18.509766 z M 1993.4219 81.880859 C 1950.2723 82.919751 1905.6208 86.284903 1866.0254 104.94727 C 1839.9453 117.03481 1818.2597 139.72154 1810.832 167.88477 C 1805.3148 188.65291 1804.3132 210.98236 1809.1895 231.96875 C 1815.9851 258.67741 1839.0148 277.25801 1862.8926 288.64453 C 1909.5892 310.75281 1961.0363 319.56054 2009.5352 336.69531 C 2024.2576 340.8773 2039.0518 348.04402 2047.4551 361.43359 C 2059.0421 377.80133 2060.3885 403.25183 2044.6953 417.49023 C 2031.1689 428.81628 2013.0285 433.51469 1996.1055 435.68359 C 1973.0658 438.13314 1947.0389 432.44445 1932.5586 412.80078 C 1924.8174 401.95393 1920.8831 388.10776 1922.0391 374.84766 C 1926.5125 361.23324 1940.8158 354.4043 1952.6367 348.25781 C 1961.0986 344.20804 1969.7121 341.14775 1978.7012 338.38281 C 1942.8202 330.04272 1904.6907 326.67799 1868.6113 335.7168 C 1844.1167 341.79999 1820.0463 358.13685 1812.4141 383.2168 C 1806.3608 402.54674 1815.3902 423.35149 1829.627 436.63477 C 1854.8289 460.46227 1889.3823 470.84719 1922.707 477.20312 C 1973.2195 486.2638 2027.8889 485.97525 2074.7363 462.69727 C 2113.914 443.75631 2144.5363 405.56398 2149.4434 361.72266 C 2153.9686 327.3923 2140.8666 290.33506 2112.6406 269.38281 C 2074.5339 238.63321 2025.9088 226.33103 1979.002 216.29102 C 1956.7472 210.74061 1932.5559 207.30461 1913.7812 193.08789 C 1900.1562 182.81018 1897.9307 163.14369 1903.2988 148.09961 C 1911.2597 135.23166 1927.3286 130.84533 1941.1191 127.38867 C 1966.4317 122.46618 1994.3873 122.72952 2016.9023 136.61719 C 2029.3319 145.04806 2038.7491 159.3522 2039.2109 174.5957 C 2038.7418 193.06486 2021.673 205.39759 2006.2441 212.31641 C 2002.4598 213.99857 1998.5279 215.31815 1994.6895 216.86914 C 2027.2698 221.87229 2061.1841 222.38679 2093.2637 214.02148 C 2114.4987 208.44557 2136.2367 195.39834 2143.1387 173.33008 C 2149.7212 155.31259 2141.5057 135.3593 2128.1484 122.75 C 2103.9426 99.504842 2070.2437 89.591749 2037.8047 84.724609 C 2023.1114 82.644096 2008.2579 81.783594 1993.4219 81.880859 z M 1292.6465 98.919922 C 1291.1595 98.913622 1289.6725 98.93219 1288.1855 98.9375 C 1247.8733 99.567799 1205.4519 103.36836 1170.0898 124.46094 C 1153.971 134.4507 1139.5332 148.58123 1132.2051 166.29688 C 1126.6008 188.74201 1129.8681 213.25737 1139.9414 233.99219 C 1149.4322 253.9151 1169.5504 268.04726 1191.5801 269.93359 C 1219.1845 272.76566 1250.1065 265.89711 1268.5703 243.77344 C 1280.9955 229.04132 1287.5767 209.76353 1288.0801 190.5957 C 1270.0205 192.9803 1251.0103 195.89872 1233.4688 189.89844 C 1224.245 186.85685 1224.8261 174.85416 1228.6973 167.90039 C 1237.6071 154.48675 1255.1845 151.59781 1269.8516 149.09766 C 1286.5807 147.58512 1303.9076 144.42191 1320.0918 150.08789 C 1335.5974 155.58445 1343.1735 172.3663 1344.4824 187.66992 C 1345.4134 200.08744 1347.8797 215.7173 1337.5078 225.50781 C 1322.3979 239.46815 1301.3324 243.7222 1282.5098 250.45898 C 1244.0697 262.60937 1205.504 276.30184 1171.3047 297.99805 C 1149.6394 313.91806 1125.91 331.72229 1118.3789 358.94141 C 1111.2378 385.04646 1116.4531 412.76678 1124.2031 438.11523 C 1133.3933 466.54879 1155.549 490.69903 1183.957 500.58594 C 1223.239 514.64369 1266.9604 507.57703 1304.6836 492.00977 C 1325.7812 483.39335 1345.1872 470.98099 1362.8672 456.78516 C 1368.8567 458.49273 1370.572 466.12569 1374.2051 470.56055 C 1379.877 480.51584 1388.0045 489.89064 1399.6074 492.70312 C 1427.0716 502.80336 1460.3735 504.71654 1485.3887 487.32812 C 1509.0413 469.41336 1527.5216 441.14019 1526.5352 410.60742 C 1526.5752 407.44387 1526.0245 403.55865 1522.1738 405.55273 C 1511.0248 412.36974 1505.0248 425.8842 1492.4551 430.88086 C 1485.256 434.23554 1476.0454 430.09385 1474.0859 422.30664 C 1463.8139 396.57076 1464.1983 368.13032 1464.8086 340.89453 C 1468.6717 286.62857 1462.5301 232.28492 1455.9531 178.47461 C 1447.8036 153.69118 1426.73 135.47169 1404.7676 122.76172 C 1370.8822 103.39473 1331.1068 98.208518 1292.6465 98.919922 z M 213.91602 104.63477 C 187.72411 105.4045 160.22741 116.0202 144.29492 137.57812 C 127.70852 160.76089 129.5805 192.21855 139.45703 217.70703 C 140.53221 222.65093 144.86673 215.59828 147.7832 214.97266 C 165.98565 203.45001 190.74044 196.43062 210.62891 207.90625 C 230.54153 219.83658 240.07184 243.0243 245.41797 264.61133 C 251.92883 290.81183 244.79133 319.62366 226.80664 339.74219 C 212.89326 355.87225 194.6767 367.97303 175.12109 376.19141 C 143.53111 315.77676 111.01808 255.43412 85.009766 192.51562 C 81.216632 181.27557 75.104839 170.31368 74.421875 158.30273 C 75.092563 150.68245 80.064619 142.56598 75.400391 135.20117 C 73.051212 130.44486 69.372936 125.63993 63.570312 125.51562 C 38.680037 123.27912 13.675139 127.1555 -11.185547 127.93359 C -39.427436 129.3118 -68.191219 130.6642 -95.892578 124.60938 C -100.25974 123.5657 -104.21765 127.972 -102.20508 132.11523 C -99.736041 137.80991 -96.440737 144.45082 -89.716797 145.46289 C -60.898407 156.41088 -37.360732 179.5184 -24.375 207.38477 C 7.4507406 270.65174 34.23571 336.26173 61.613281 401.5293 C 61.870652 404.7471 67.547825 409.44915 63.425781 411.49023 C 45.223825 422.27928 23.894693 425.94874 4.6054688 434.36133 C -23.119474 445.14251 -50.295167 463.30103 -62.255859 491.63086 C -72.045802 515.22715 -75.020495 544.46852 -60.761719 566.95312 C -45.631168 590.36292 -16.772313 599.98499 9.7558594 602.22656 C 31.403467 604.51916 52.945315 600.52962 74.011719 595.95508 C 130.25357 586.68421 187.99574 587.71152 244.08594 596.84766 C 257.84425 599.19763 271.66598 602.48374 284.54102 607.93555 C 289.78296 606.2955 289.95737 599.13443 291.39844 594.69141 C 297.80253 559.87695 288.93948 520.14845 261.49805 496.2207 C 244.55617 480.6473 221.02666 474.13666 198.35742 475.5918 C 155.82003 478.08195 116.15443 495.83376 77.695312 512.7793 C 59.647172 520.54194 42.258285 530.00012 23.798828 536.71484 C 11.406534 540.67328 -4.3976605 533.20966 -5.7734375 519.4375 C -7.362861 502.05579 7.1528446 488.62805 20.503906 480.0293 C 46.945814 463.24484 78.176492 457.65562 108.25391 451.375 C 164.85542 436.88421 219.7192 412.81038 265.97461 376.74805 C 303.26948 347.63148 334.15313 307.11604 342.45312 259.66602 C 346.03084 237.4522 346.95623 213.95563 339.87891 192.32031 C 326.48602 155.23205 294.39 126.80575 258.14648 112.69922 C 244.06031 107.3636 229.01072 104.33368 213.91602 104.63477 z M 534.11914 106.76562 C 490.97053 107.80357 446.3192 111.16943 406.72461 129.83203 C 380.64309 141.91813 358.95842 164.60704 351.5293 192.76953 C 346.01386 213.53862 345.01095 235.86856 349.88672 256.85547 C 356.68324 283.56157 379.71135 302.14407 403.58984 313.52734 C 450.28526 335.63846 501.73397 344.44398 550.23242 361.58008 C 564.95597 365.75651 579.74997 372.92914 588.15234 386.31836 C 599.65453 402.51648 601.15858 428.1218 585.39258 442.375 C 572.20139 453.42585 554.72918 458.11657 538.19141 460.41406 C 515.50173 463.13649 489.64061 458.06855 474.58594 439.41797 C 465.89745 428.35354 461.55937 413.70886 462.73633 399.73242 C 467.12053 386.36375 480.93334 379.63027 492.43359 373.57617 C 501.22753 369.30565 510.07316 366.12084 519.44727 363.27539 C 483.54999 354.93464 445.40406 351.5562 409.30859 360.60156 C 384.81336 366.68442 360.74521 383.02209 353.11133 408.10156 C 347.05948 427.43157 356.08734 448.23788 370.32617 461.51953 C 395.52688 485.3484 430.08219 495.73141 463.40625 502.08789 C 513.91841 511.14845 568.58646 510.85841 615.43359 487.58203 C 654.61062 468.64074 685.23346 430.45039 690.14062 386.60938 C 694.66669 352.27848 681.56544 315.21946 653.33789 294.26758 C 615.23181 263.51516 566.60562 251.21688 519.69922 241.17578 C 496.96451 235.46932 472.29278 232.1217 453.48633 217.13086 C 440.59538 206.56953 438.64182 187.26059 444.27344 172.46289 C 452.95806 159.44766 469.71034 155.07575 484.25195 151.77539 C 509.2452 147.4306 536.66296 147.97763 558.54102 162.13477 C 570.84855 170.93209 580.32295 185.82806 579.8418 201.11914 C 578.17212 219.62096 560.66898 231.35023 544.92773 238.06836 C 542.33161 239.52351 531.89045 241.73392 538.34961 242.22656 C 570.82866 246.78112 604.63815 247.16079 636.42188 238.18945 C 657.28428 232.32729 678.20702 218.65077 684.30664 196.71484 C 690.19553 178.54614 681.33466 159.04144 667.88672 146.69336 C 643.13092 123.66201 609.13861 113.95863 576.38867 109.31836 C 562.38451 107.44825 548.24447 106.67276 534.11914 106.76562 z M -178.61719 117.03906 C -220.29605 117.55165 -260.55223 137.34718 -287.94922 168.48047 C -294.03767 175.0855 -299.71072 182.25701 -306.94336 187.66992 C -301.31208 166.54721 -288.45597 147.26429 -285.9668 125.17383 C -284.87572 119.47049 -293.36922 124.33518 -296.80664 123.55273 C -352.41573 129.32496 -408.70685 133.38273 -464.4082 126.49414 C -471.23435 126.48414 -478.04497 124.61539 -484.79102 124.94922 C -491.6796 127.19777 -494.49484 135.36819 -495.41992 141.89062 C -493.9735 147.99946 -486.00887 148.51551 -481.28711 151.00195 C -463.60805 155.15614 -443.74359 155.70245 -429.6582 168.84375 C -415.39871 181.48932 -414.54894 202.00946 -412.67969 219.62891 C -405.74161 296.24085 -407.10586 373.59628 -409.09766 450.51758 C -410.07635 459.56145 -408.29086 469.18306 -411.19727 477.86328 C -417.38931 490.4014 -430.40014 497.59795 -443.58789 500.06055 C -452.21767 503.41731 -455.5899 513.40425 -456.41602 521.89844 C -390.37184 508.36684 -322.03088 505.88671 -255.24805 515.53906 C -250.10152 516.40892 -242.96374 512.4491 -245.40039 506.47266 C -250.41699 496.48146 -262.53475 493.14475 -272.5332 490.42188 C -281.30134 489.86487 -288.83456 484.08303 -292.09766 475.9082 C -301.91188 452.44936 -301.334 426.462 -302.16602 401.42383 C -302.64297 354.84593 -299.10685 308.16183 -303.33984 261.67773 C -304.47284 235.22102 -291.89243 208.38707 -270.85938 192.06641 C -257.15312 181.45897 -240.98698 172.52986 -223.52148 170.70117 C -214.6262 169.80648 -211.93201 179.65749 -211.57617 186.57422 C -210.24837 203.45839 -208.94349 222.75074 -195.48828 234.90625 C -183.1434 246.10327 -165.72869 249.94159 -149.54883 250.39648 C -127.52354 246.97193 -103.43099 237.3807 -93.296875 216.04102 C -82.80582 193.3744 -90.644517 166.62622 -104.33398 147.11523 C -113.25081 134.0739 -126.41008 123.32743 -142.33398 120.64258 C -154.20225 117.86899 -166.44133 116.76903 -178.61719 117.03906 z M 1349.3555 269.07812 C 1351.696 303.13628 1352.2809 337.47006 1351.4961 371.67383 C 1350.022 398.62572 1337.7503 427.76875 1313.6426 441.94727 C 1291.2125 456.08813 1259.2901 453.60115 1240.6484 434.07031 C 1223.1439 416.16428 1214.3339 389.14647 1221.873 364.59766 C 1227.5387 345.82726 1238.5278 328.61113 1252.9453 315.27344 C 1277.4528 296.37639 1306.1037 283.57243 1334.8184 272.77148 C 1339.4399 271.42219 1345.0608 268.90229 1349.3555 269.07812 z M 184.84961 813.3457 C 170.81994 813.78423 157.69027 820.98872 149.12695 832.00781 C 136.18849 846.70958 128.73328 865.16214 117.50781 880.99219 C 113.63458 881.07199 109.24875 877.26729 105.18164 875.86719 C 72.363015 859.13587 36.336745 848.71373 -0.48828125 846.49609 C -30.844261 844.65607 -61.537909 845.29515 -91.605469 850.06445 C -149.34215 861.14865 -199.05129 898.47953 -234.87109 943.96094 C -263.67943 981.00016 -285.82189 1025.4865 -287.43555 1073.1445 C -290.15182 1135.5083 -275.54881 1199.2869 -242.70312 1252.6484 C -214.99848 1298.0065 -171.06128 1333.1448 -120.44922 1349.5352 C -74.265229 1364.6908 -24.411462 1367.1553 23.533203 1360.4297 C 64.540404 1354.5675 103.50249 1336.4589 134.50195 1308.998 C 159.9556 1286.8731 185.49934 1260.8538 193.48828 1226.9727 C 196.32061 1214.3133 195.82345 1200.7253 190.88281 1188.6406 C 183.50865 1184.1097 173.91081 1186.7995 168.60156 1193.2598 C 154.5041 1209.5178 146.48179 1229.9213 133.33203 1246.8066 C 114.96792 1272.8826 87.275032 1292.6375 55.482422 1297.9219 C 19.829715 1304.159 -16.873327 1297.4747 -50.835938 1285.9766 C -91.618127 1270.7015 -119.9882 1233.3408 -134.41992 1193.5938 C -155.1503 1136.4446 -156.14884 1073.1571 -141.81055 1014.2676 C -132.11677 977.31169 -115.98052 939.76968 -85.097656 915.76758 C -60.756479 897.25586 -28.557035 894.62902 0.74609375 898.43555 C 40.625071 904.29441 79.724579 921.24698 108.82617 949.51367 C 126.76241 968.29837 141.22801 989.92616 152.30273 1013.3242 C 155.4293 1020.5405 163.56322 1023.4726 170.95703 1022.2598 C 177.76275 1021.9581 187.15804 1020.9389 188.9043 1012.8379 C 191.40114 998.62155 187.08069 984.22228 186.18164 970.0293 C 179.09141 919.02715 185.88537 867.40851 195.91602 817.15234 C 193.34517 813.85375 188.74115 813.29393 184.84961 813.3457 z M 897.42969 869.3457 L 897.42969 869.34766 C 854.70395 870.4112 811.54836 879.46658 773.4668 899.27539 C 748.64942 911.94881 730.31967 933.7153 712.98828 954.92188 C 706.53461 964.18962 698.06286 973.2478 695.96484 984.67969 C 696.45466 990.45718 703.97549 991.64539 707.2793 995.56641 C 721.94848 1006.8987 726.80515 1026.3087 725.99609 1044.0781 C 726.77916 1080.5677 728.01074 1117.1857 728.41797 1153.6016 C 716.01258 1160.5974 701.2422 1162.2965 687.65039 1165.7051 C 678.10687 1167.7229 668.51683 1169.5169 658.9082 1171.1953 C 665.15874 1174.157 663.46437 1182.2694 665.32422 1187.832 C 667.74915 1201.1887 677.15219 1213.9097 689.99414 1218.7754 C 695.67683 1219.9505 701.46012 1217.9237 707.26562 1218.7754 L 731.91602 1218.7754 C 730.03461 1245.9383 732.85038 1273.1646 731.74609 1300.3203 C 730.18073 1321.0014 722.96194 1342.4228 707.31445 1356.5625 C 706.35549 1361.5359 701.77018 1369.0368 703.01953 1372.4707 C 733.67646 1373.9037 764.91801 1374.3948 794.9375 1379.7617 C 816.01622 1385.481 836.28953 1395.619 852.62891 1410.2129 C 855.20075 1412.7167 857.68939 1415.6748 857.94336 1419.4277 C 863.96735 1417.1677 869.99193 1414.9092 876.01562 1412.6484 C 862.58818 1359.0403 849.74622 1305.0275 844.42188 1249.9766 C 843.86535 1235.9498 841.58353 1220.7608 847.65234 1207.5586 C 851.23809 1202.2131 858.99731 1202.9262 864.54688 1201.3711 C 900.84648 1197.0884 935.05156 1215.5417 964.83984 1234.877 C 970.1654 1237.4463 974.70354 1243.0669 980.79883 1243.5898 C 986.45348 1240.5729 987.61741 1233.1493 989.73828 1227.6035 C 996.32094 1203.5722 996.87672 1176.4213 985.22461 1153.8379 C 973.93313 1133.4657 950.01877 1124.9668 928.08984 1122.5996 C 911.15358 1121.2283 894.25353 1125.0312 877.47266 1126.8711 C 866.74058 1128.3952 856.02772 1130.0447 845.32812 1131.7812 C 844.14072 1090.3052 842.05701 1048.8378 841.99023 1007.3438 C 843.82442 986.69407 848.82786 966.40489 854.56445 946.51367 C 864.65271 926.67173 887.08138 913.71019 909.51953 916.45117 C 926.68111 917.57074 945.13036 926.11169 950.67383 943.61328 C 956.29084 960.90752 953.17142 979.74891 947.06836 996.46289 C 939.73066 1007.4746 925.56298 1010.4064 913.76367 1013.459 C 898.25957 1016.7525 882.39627 1018.1884 866.5625 1018.4316 C 881.10627 1044.2072 908.90381 1058.733 935.85547 1068.2773 C 958.62828 1075.7329 982.81985 1080.5472 1006.8555 1078.7539 C 1033.6932 1075.9344 1056.093 1055.3803 1065.2148 1030.5781 C 1074.476 1006.1386 1073.8683 977.81042 1063.0371 953.98633 C 1048.5086 925.74562 1020.3569 907.71981 992.66992 894.08984 C 969.72012 883.50477 945.66877 874.42797 920.61523 870.49609 C 912.92726 869.55895 905.17007 869.27639 897.42969 869.3457 z M 1296.6973 954.27734 C 1237.3555 954.97419 1177.1934 972.3006 1129.2812 1007.9355 C 1105.9408 1025.4346 1086.2688 1048.7194 1076.7969 1076.6309 C 1056.2985 1132.14 1056.3902 1194.5218 1074.0547 1250.7637 C 1086.6566 1289.8148 1110.0886 1328.2074 1147.5859 1347.4961 C 1166.094 1357.3573 1187.4834 1358.5658 1207.8105 1361.8418 C 1275.3963 1370.4647 1347.0435 1364.2267 1407.8301 1331.4863 C 1440.8984 1313.6823 1470.3193 1288.6534 1492.6426 1258.4805 C 1496.2511 1248.9897 1503.1034 1239.5634 1502.1621 1228.9941 C 1500.2172 1222.0562 1491.3093 1224.0325 1486.2617 1225.7617 C 1461.3597 1235.0298 1437.8088 1247.9809 1412.3848 1255.7305 C 1371.2439 1268.8228 1326.9712 1275.5719 1284.1641 1268.7227 C 1259.7535 1264.8146 1235.778 1253.5949 1220.1094 1233.7891 C 1203.5914 1214.1273 1191.1483 1188.5843 1193.0039 1162.7793 C 1193.2798 1159.0293 1194.8097 1153.8811 1199.7109 1155.2539 C 1271.7689 1154.0379 1344.0348 1156.0101 1416.168 1156.4355 C 1456.2661 1157.5387 1496.3229 1155.4554 1536.377 1153.877 C 1541.072 1151.5712 1545.5907 1144.6642 1540.7031 1140.3301 C 1532.2658 1133.7664 1520.0787 1134.3733 1512.9883 1125.6426 C 1501.9107 1114.1521 1501.2663 1097.5184 1495.6641 1083.2773 C 1480.9544 1039.8578 1450.0528 1001.8748 1409.3359 980.42188 C 1374.9761 961.84829 1335.5354 954.07326 1296.6973 954.27734 z M 424.24219 957.4375 C 423.08788 957.4385 421.9336 957.45118 420.7793 957.45508 C 380.4679 958.08576 338.04584 961.88556 302.68555 982.97852 C 286.56637 992.96791 272.12758 1007.0987 264.80078 1024.8145 C 259.20936 1047.1836 262.45001 1071.6081 272.43164 1092.2988 C 281.75892 1111.9976 301.43433 1126.17 323.18359 1128.334 C 351.07237 1131.4563 382.46826 1124.6719 401.16211 1102.293 C 413.59541 1087.5629 420.16278 1068.2813 420.68164 1049.1133 C 402.92855 1051.5096 384.34379 1054.2081 367 1048.8008 C 359.22089 1047.0324 357.55092 1038.272 359.25781 1031.6152 C 363.0429 1017.7453 378.29621 1012.8096 390.71289 1009.7598 C 408.11235 1006.2827 426.27516 1004.3698 443.77539 1006.2305 C 458.63639 1007.8595 471.09996 1019.6268 474.58984 1033.8418 C 477.86025 1046.3014 479.00553 1059.4353 476.91797 1072.3203 C 472.30484 1088.2202 455.11991 1094.6415 441.19727 1100.1699 C 402.42945 1113.5668 362.54254 1124.5398 326.09766 1143.8105 C 306.28269 1153.3261 288.68781 1166.8799 272.83789 1182.0039 C 256.29146 1197.6024 246.95918 1220.1088 247.5918 1242.8379 C 248.36477 1268.9572 253.52124 1295.791 266.97266 1318.5059 C 282.79645 1345.657 312.73482 1362.2576 343.52539 1365.5488 C 389.84891 1370.7741 436.70765 1355.4864 475.21289 1330.2344 C 482.51319 1325.8602 488.76496 1319.6228 495.88281 1315.2578 C 502.70921 1318.7883 504.7462 1327.3842 509.41406 1333.1855 C 514.74965 1342.0212 522.98181 1349.0386 533.14453 1351.5566 C 560.66596 1361.4758 594.04857 1363.0642 618.79297 1345.2656 C 642.26089 1327.0806 660.62501 1298.5984 659.05664 1268.0098 C 659.19512 1264.9717 658.03509 1262.4121 654.76953 1264.0703 C 643.62595 1270.8914 637.6053 1284.3927 625.05078 1289.3984 C 617.82169 1292.7825 608.66443 1288.58 606.67773 1280.8203 C 596.39657 1255.0123 596.80993 1226.7584 597.4043 1199.4121 C 601.26372 1145.2216 595.13938 1090.9533 588.57617 1037.2168 C 581.04989 1013.5105 561.26078 995.84295 540.63281 983.17383 C 505.81152 962.13448 464.25842 956.60632 424.24219 957.4375 z M 1283.2969 1001.1309 C 1307.156 1001.9225 1330.862 1013.0659 1346.8477 1030.5488 C 1362.4174 1051.116 1367.4019 1077.4482 1371.7051 1102.2539 C 1374.2605 1108.4937 1371.418 1110.1918 1365.4844 1109.1172 C 1311.8177 1109.2711 1257.9517 1110.5374 1204.4336 1107.6289 C 1201.3505 1108.3269 1199.2027 1106.4295 1199.584 1103.3418 C 1200.2693 1083.6034 1209.1075 1065.1404 1218.4453 1048.1426 C 1230.0833 1028.8298 1245.8078 1009.1146 1268.4609 1002.8281 C 1273.3997 1001.5897 1278.2963 1001.0876 1283.2969 1001.1309 z M 481.95117 1127.5957 C 484.31078 1161.2705 484.79047 1195.534 484.1582 1229.1738 C 482.80213 1256.2537 471.18411 1284.9809 447.3418 1299.7852 C 425.51913 1314.0964 394.24333 1312.7024 375.04492 1294.334 C 355.79426 1275.9832 346.34445 1247.1294 354.97266 1221.373 C 360.85361 1203.3942 371.54535 1186.6399 385.57031 1173.7676 C 409.65258 1155.1857 437.73088 1142.5688 465.9668 1131.8047 C 471.0499 1130.2503 477.1543 1127.516 481.95117 1127.5957 z "
             style="fill:#ececec;fill-opacity:1;fill-rule:evenodd;stroke:#000000;stroke-width:1px;stroke-linecap:butt;stroke-linejoin:miter;stroke-opacity:1"
             id="path4480"
             d="m 1492.5723,-48.664062 a 9.2170795,9.2170795 0 0 0 -1.4395,0.238281 c -7.9424,1.96738 -12.9547,8.676926 -14.7988,14.9375 -1.8441,6.260574 -1.5665,12.639672 0.8262,18.527343 a 9.2170795,9.2170795 0 0 0 0.012,0.02734 c 8.7283,21.2684229 31.1432,27.537426 45.5801,33.3125 17.3921,7.130825 33.6017,18.06729 38.9589,34.173828 7.6148,23.199276 5.1387,49.590796 5.6973,76.900386 0.1868,72.24795 1.8374,144.34756 1.6465,216.31836 -0.1267,24.99636 0.2792,49.85093 -0.293,74.43555 -2.9376,16.10414 -16.869,29.76757 -32.5879,37.17774 a 9.2170795,9.2170795 0 0 0 -0.8359,0.44726 c -1.0726,0.64804 -6.2559,0.22534 -13.8731,4.41602 a 9.2170795,9.2170795 0 0 0 -1.3515,0.91797 c 9.9883,-15.57034 16.2481,-33.55333 15.6308,-52.83204 0.058,-2.09941 0.3485,-4.61946 -1.8535,-8.62695 -1.1617,-2.11433 -3.8899,-4.85705 -7.3828,-5.64258 -3.4928,-0.78552 -6.4447,0.20295 -8.5723,1.30469 a 9.2170795,9.2170795 0 0 0 -0.5703,0.32031 c -7.2592,4.43862 -12.0174,10.31061 -16.3027,14.97071 -4.2853,4.66009 -7.9096,8.02559 -12.0117,9.65625 a 9.2170795,9.2170795 0 0 0 -0.4883,0.21093 c -1.8388,0.85688 -5.0586,-0.55941 -5.5391,-2.46875 a 9.2170795,9.2170795 0 0 0 -0.3789,-1.16797 c -9.3686,-23.47265 -9.2308,-50.56747 -8.623,-77.7246 3.8872,-55.26092 -2.3513,-110.06663 -8.9199,-163.8086 a 9.2170795,9.2170795 0 0 0 -0.3926,-1.76172 c -9.2036,-27.98885 -32.2692,-47.46825 -55.3242,-60.81054 a 9.2170795,9.2170795 0 0 0 -0.045,-0.0254 C 1373.3723,94.202734 1331.8824,88.976184 1292.4766,89.705078 l 0.2089,-0.002 c -1.5897,-0.0067 -3.1009,0.01246 -4.5332,0.01758 a 9.2170795,9.2170795 0 0 0 -0.1113,0.002 c -40.7902,0.637773 -84.9431,4.318056 -122.6719,26.822264 a 9.2170795,9.2170795 0 0 0 -0.1347,0.082 c -17.332,10.74163 -33.2442,26.07939 -41.5449,46.14649 a 9.2170795,9.2170795 0 0 0 -0.4258,1.29101 c -6.1869,24.77818 -2.593,51.32586 8.3711,73.91602 10.3564,21.71717 31.3461,37.06801 55.1308,40.51367 -6.9077,3.66341 -13.7419,7.49972 -20.3984,11.72266 a 9.2170795,9.2170795 0 0 0 -0.5195,0.35547 c -21.7199,15.96008 -47.7692,34.89316 -56.3516,65.91211 a 9.2170795,9.2170795 0 0 0 -0.01,0.0254 c -7.8805,28.80822 -2.0608,58.2613 5.9004,84.30078 a 9.2170795,9.2170795 0 0 0 0.043,0.13867 c 10.0528,31.10227 34.0872,57.40487 65.4863,68.33594 0,9.6e-4 0.01,0.003 0.01,0.004 42.2152,15.07851 88.1352,7.38362 127.2403,-8.74804 19.6232,-8.01428 37.583,-19.16557 54.1093,-31.75586 1.0618,1.98398 2.3153,4.58352 4.7989,7.61523 l -0.8789,-1.27734 c 6.3145,11.08329 16.0361,22.85219 31.2382,26.53711 l -1.0097,-0.30664 c 29.3754,10.80312 65.7996,13.3002 94.2226,-6.45704 a 9.2170795,9.2170795 0 0 0 0.3047,-0.2207 c 5.9656,-4.51837 11.6047,-9.70426 16.7989,-15.35742 -1.2688,3.23342 -2.0392,6.82081 -1.7715,10.89258 a 9.2170795,9.2170795 0 0 0 0.4101,2.17383 c 1.1126,3.51732 3.7344,6.82333 6.7617,8.58007 3.0274,1.75675 6.0352,2.17737 8.5684,2.21094 5.0663,0.0672 9.0282,-1.29302 11.6133,-2.10156 l -0.2402,0.0703 c 44.1381,-12.50139 91.5798,-2.57177 136.8964,10.375 a 9.2170795,9.2170795 0 0 0 0.068,0.0195 c 36.0397,9.99501 71.865,25.3435 111.0449,32.15821 a 9.2170795,9.2170795 0 0 0 0.6699,0.0918 c 14.9526,1.48538 31.3376,3.16629 47.9903,-0.45117 13.2309,-2.45475 24.9478,-14.30361 22.9726,-29.38477 a 9.2170795,9.2170795 0 0 0 -0.068,-0.43164 c -0.3088,-1.72048 -0.5331,-4.77194 -1.4649,-8.38671 -0.9317,-3.61478 -2.8895,-8.39667 -7.5097,-11.64258 a 9.2170795,9.2170795 0 0 0 -2.4668,-1.22852 c -15.3194,-4.94659 -30.0066,-4.04144 -42.0332,-6.30273 a 9.2170795,9.2170795 0 0 0 -0.3184,-0.0547 c -26.5012,-4.0253 -52.977,-10.61771 -69.4375,-29.10742 a 9.2170795,9.2170795 0 0 0 -0.09,-0.0996 c -10.1795,-11.10034 -12.4576,-27.99781 -13.0684,-45.4668 a 9.2170795,9.2170795 0 0 0 -0.01,-0.16992 c -4.3762,-81.88869 -3.6657,-164.25359 -2.1074,-246.58984 1.0177,-22.74455 0.4227,-44.91525 3.6953,-65.833988 6.8526,-38.696479 10.448,-77.564928 28.0293,-109.826172 2.6309,-4.706635 6.3775,-9.145402 10.6484,-14.042969 a 9.2170795,9.2170795 0 0 0 -9.5625,-14.892578 c -37.8086,11.196205 -77.7035,15.402719 -117.6387,16.666016 -45.2384,0.741366 -91.187,-4.026819 -130.6308,-24.175781 a 9.2170795,9.2170795 0 0 0 -2.4942,-0.851563 c -1.2622,-0.236819 -2.4854,-0.277347 -3.6386,-0.179687 z m -619.04886,11.800781 c -2.26319,0.01727 -4.45921,0.805576 -6.05664,1.822265 a 9.2170795,9.2170795 0 0 0 -0.43164,0.292969 C 840.7881,-15.869162 812.43312,0.70384996 781.80469,6.1171875 762.42227,8.4476693 742.70485,8.2241617 723.5293,4.8730469 a 9.2170795,9.2170795 0 0 0 -7.73633,2.2148437 c -5.63453,5.0480394 -6.08,13.2397854 -4.70899,18.2500004 1.35764,4.961334 3.70774,8.686499 5.09375,11.099609 0.001,0.0022 0.003,0.0036 0.004,0.0059 3.37683,6.051657 7.59347,10.361941 10.60156,14.152344 3.0092,3.791791 4.70744,6.690028 5.16016,9.822266 a 9.2170795,9.2170795 0 0 0 0.12305,0.675781 c 2.87679,12.979034 4.54575,26.038825 3.96289,38.646484 -10.72028,-0.292205 -24.28699,-2.180341 -38.22852,4.730466 a 9.2170795,9.2170795 0 0 0 -0.71875,0.39844 c -13.05033,7.99164 -20.17683,21.01537 -23.74219,34.39258 -26.80199,-24.4801 -62.34888,-34.34883 -95.6582,-39.06836 a 9.2170795,9.2170795 0 0 0 -0.0723,-0.01 c -14.4796,-1.933596 -29.04773,-2.730105 -43.55079,-2.634762 a 9.2170795,9.2170795 0 0 0 -0.16015,0.0039 c -43.46384,1.045533 -89.4553,4.323016 -131.07227,23.929686 -25.57267,11.85717 -47.24618,33.12278 -57.28906,60.16406 -15.84609,-36.31908 -48.06765,-63.53149 -84.04688,-77.53515 a 9.2170795,9.2170795 0 0 0 -0.0801,-0.0312 c -15.03883,-5.696474 -31.22837,-8.988269 -47.67774,-8.660158 a 9.2170795,9.2170795 0 0 0 -0.0879,0.002 C 185.15492,96.25913 154.96816,107.6287 136.88281,132.09961 a 9.2170795,9.2170795 0 0 0 -0.084,0.11523 c -19.06214,26.64311 -16.59357,61.27619 -5.95117,88.77344 0.34802,1.17154 0.84319,2.43221 2.00781,3.86328 1.60693,1.97458 4.90082,3.70287 7.57617,3.81055 5.35071,0.21535 6.84524,-1.94458 8.13477,-2.94141 1.28952,-0.99683 2.14011,-1.79966 2.62109,-2.1875 0.0326,-0.0263 -0.13011,0.051 -0.0996,0.0312 a 9.2170795,9.2170795 0 0 0 1.625,-0.80468 c 16.41921,-10.39382 37.63986,-15.85825 53.24609,-6.90039 16.46389,9.90681 25.41894,30.39487 30.51368,50.96679 a 9.2170795,9.2170795 0 0 0 0.002,0.008 c 5.74931,23.13595 -0.66068,49.00331 -16.53906,66.76563 a 9.2170795,9.2170795 0 0 0 -0.10743,0.12305 c -11.00324,12.75627 -25.19779,22.7822 -40.66601,30.32031 -30.2999,-57.82826 -60.9872,-115.4222 -85.634766,-175.04883 -4.037793,-11.78151 -9.055615,-21.63248 -9.785156,-30.51562 0.288022,-2.16642 1.345799,-5.49747 2.222656,-10.09766 0.927041,-4.86347 1.146083,-11.81185 -2.734375,-18.01367 -1.432081,-2.78617 -3.261177,-5.77359 -6.158203,-8.48047 -3.153129,-2.94618 -7.902967,-5.47022 -13.304688,-5.58594 l 0.626953,0.0352 c -26.383645,-2.37069 -51.771933,1.63252 -75.86914,2.38672 a 9.2170795,9.2170795 0 0 0 -0.160157,0.006 c -28.230773,1.37766 -56.167557,2.58645 -82.289062,-3.12305 l 0.173828,0.041 c -5.647578,-1.34967 -11.2916,0.83134 -14.67188,4.75196 -1.28855,1.49453 -2.14397,3.41425 -2.72656,5.44531 -8.28885,-7.04028 -18.20439,-12.34487 -29.60351,-14.27734 -12.51638,-2.87532 -25.31411,-4.0163 -37.97852,-3.74219 l -0.008,0 c -38.72574,0.47836 -75.92739,16.44009 -104.0957,42.32422 2.63031,-7.37263 4.936,-15.01805 5.93554,-23.39844 0.30473,-1.65208 0.47892,-3.65432 -0.31445,-6.09766 -0.81603,-2.51311 -3.08724,-5.09233 -5.28906,-6.22461 -4.40366,-2.26455 -6.86837,-1.30717 -8.71094,-0.99804 -1.84257,0.30913 -3.24686,0.69237 -4.13477,0.87304 -0.57029,0.11605 -0.68968,0.0738 -0.38672,0.0996 a 9.2170795,9.2170795 0 0 0 -2.02343,-0.0156 c -55.41499,5.75208 -111.0063,9.70259 -165.51953,2.96094 a 9.2170795,9.2170795 0 0 0 -1.11719,-0.0703 c -5.15311,-0.008 -12.10391,-1.96608 -20.85156,-1.5332 a 9.2170795,9.2170795 0 0 0 -2.4043,0.44336 c -3.38466,1.10481 -6.11243,3.03269 -8.33203,5.26562 -3.74427,-44.439172 2.36275,-89.686259 11.27734,-134.351558 a 9.2170795,9.2170795 0 0 0 -1.76758,-7.46875 c -5.53983,-7.111472 -13.58803,-7.421668 -18.45703,-7.357421 a 9.2170795,9.2170795 0 0 0 -0.16601,0.0039 c -16.95701,0.529151 -32.45557,9.09182 -42.62696,22.1171874 -12.30276,14.1091002 -19.68295,29.9571766 -28.18554,43.4804686 -1.48204,-0.839582 -3.19323,-1.762443 -5.56836,-2.580078 l 1.18554,0.503906 C -614.16012,18.53382 -651.3948,7.7418974 -689.58789,5.4414062 l -0.004,0 c -30.85812,-1.8708906 -62.21664,-1.234619 -93.11523,3.6660157 a 9.2170795,9.2170795 0 0 0 -0.29492,0.050781 C -843.53957,20.779973 -894.90175,59.59103 -931.76953,106.40234 a 9.2170795,9.2170795 0 0 0 -0.0352,0.0449 c -29.59098,38.04575 -52.77928,84.19096 -54.49414,134.48828 -2.78041,64.05594 12.17275,129.58589 46.08985,184.6875 28.85532,47.22699 74.45527,83.71273 127.22851,100.8125 0.003,0.001 0.007,9.2e-4 0.01,0.002 47.76663,15.67213 99.00805,18.15447 148.12695,11.26367 a 9.2170795,9.2170795 0 0 0 0.0234,-0.004 c 42.8246,-6.12186 83.4021,-24.9832 115.76367,-53.64649 25.83377,-22.4604 53.10941,-49.71701 61.85742,-86.81836 a 9.2170795,9.2170795 0 0 0 0.0234,-0.10351 c 3.18943,-14.25493 2.70638,-29.70777 -3.06836,-43.83203 a 9.2170795,9.2170795 0 0 0 -3.70703,-4.36329 c -11.78195,-7.24012 -26.20643,-3.09014 -34.18555,6.57813 -15.38412,17.80124 -23.43787,38.33967 -35.46094,53.77734 a 9.2170795,9.2170795 0 0 0 -0.26562,0.35742 c -16.79816,23.86578 -42.2244,42.08276 -70.52539,47.08008 a 9.2170795,9.2170795 0 0 0 -0.0859,0.0156 c -33.52858,6.25324 -68.88602,0.0554 -102.1875,-11.0293 -36.84491,-13.57919 -63.74581,-47.384 -77.78516,-84.59375 l 0,-0.002 c -20.56709,-54.53225 -22.09913,-115.69571 -8.97461,-172.83203 8.96505,-36.21559 24.15163,-72.11482 51.88477,-95.199222 a 9.2170795,9.2170795 0 0 0 0.004,-0.0039 c 20.02495,-16.686611 48.58552,-20.655157 75.45703,-18.05664 39.10973,4.327721 77.46714,20.382667 106.34375,46.808589 18.24059,18.32273 32.88995,40.06874 44.05078,63.58594 l -0.13086,-0.28711 c 5.0826,11.73113 17.80358,16.13623 28.60352,14.36524 l -1.08399,0.11328 c 3.67322,-0.1632 8.54935,-0.39708 13.75,-2.38281 5.20065,-1.98574 11.22508,-7.00367 12.79883,-14.30469 a 9.2170795,9.2170795 0 0 0 0.0684,-0.34766 c 1.6107,-9.17065 0.94959,-17.7571 -0.11328,-25.76562 2.83478,1.10966 5.63882,2.04648 6.20703,2.3457 a 9.2170795,9.2170795 0 0 0 2.1875,0.81836 c 19.00046,4.46469 36.43091,5.32763 47.44922,15.60742 a 9.2170795,9.2170795 0 0 0 0.17187,0.15625 c 10.67601,9.46768 12.00717,26.73697 13.91992,44.78125 6.87206,75.92994 5.53294,152.90916 3.54297,229.75977 l 0.0508,-0.75391 c -1.15139,10.63976 0.0952,19.2276 -1.58203,24.89844 -4.69747,8.81994 -14.6286,14.55974 -25.4375,16.57812 a 9.2170795,9.2170795 0 0 0 -1.65039,0.46875 c -6.81481,2.65079 -11.46118,7.99863 -14.21093,13.40039 -2.74976,5.40177 -3.9529,11.03152 -4.44922,16.13477 a 9.2170795,9.2170795 0 0 0 11.02343,9.92187 c 65.0364,-13.32511 132.31938,-15.76062 198,-6.26757 l -0.21679,-0.0332 c 5.5295,0.93459 10.50046,-0.35691 14.91211,-3.74023 4.41165,-3.38332 7.67863,-11.3322 5.0039,-17.89258 a 9.2170795,9.2170795 0 0 0 -0.29687,-0.65625 c -7.31789,-14.57451 -22.92857,-18.08021 -32.94727,-20.80859 a 9.2170795,9.2170795 0 0 0 -1.83789,-0.30469 c -5.07435,-0.32236 -9.58258,-3.70375 -11.58984,-8.73242 a 9.2170795,9.2170795 0 0 0 -0.0566,-0.14063 c -8.81256,-21.06456 -8.51764,-45.75091 -9.35547,-71.09179 -0.46582,-45.89142 3.08309,-92.66744 -1.18164,-140.00196 -0.98736,-23.26516 10.35287,-47.49427 28.91406,-61.90234 l 0.004,-0.004 c 0.002,-0.001 0.004,-0.002 0.006,-0.004 12.90973,-9.98921 27.68918,-17.9144 42.64648,-19.48047 l -0.0371,0.004 c 0.0723,-0.007 0.0567,-0.0306 0.10547,-0.043 0.006,0.10645 0.0103,0.21385 0.13867,0.43946 0.67123,1.17945 1.44804,4.28861 1.57617,6.7793 a 9.2170795,9.2170795 0 0 0 0.0156,0.25 c 1.32169,16.80655 2.26414,39.23488 19.0957,54.44335 0.001,9.7e-4 8.8e-4,0.003 0.002,0.004 14.76179,13.38074 34.41277,17.37479 51.85743,17.86524 a 9.2170795,9.2170795 0 0 0 1.67578,-0.10547 c 23.59847,-3.66916 51.056979,-14.02379 63.160154,-39.50977 a 9.2170795,9.2170795 0 0 0 0.03906,-0.082 c 9.840397,-21.26083 5.943848,-44.45266 -3.5625,-63.8457 24.31446,10.65563 44.457087,30.9395 55.767578,55.21093 a 9.2170795,9.2170795 0 0 0 0.121094,0.24805 c 31.4842928,62.5882 58.111604,127.73034 85.398438,192.79492 0.137485,0.75091 0.240148,1.58862 0.425781,2.17578 -15.315823,7.54318 -33.825473,11.38016 -52.2128908,19.38672 -29.0022362,11.32484 -58.4326872,30.62097 -71.7500002,62.16407 a 9.2170795,9.2170795 0 0 0 -0.02148,0.0527 c -10.569511,25.47525 -14.28199,57.76296 2.222656,83.78906 a 9.2170795,9.2170795 0 0 0 0.04297,0.0664 c 17.381795,26.8929 49.219352,37.04277 77.3652342,39.4414 23.2355618,2.44595 45.6098838,-1.77968 66.7324218,-6.35937 55.094757,-9.07109 111.800397,-8.08121 166.966797,0.90039 13.35296,2.28201 26.47435,5.44102 38.38477,10.48438 a 9.2170795,9.2170795 0 0 0 6.3457,0.30859 c 6.24136,-1.95274 9.51748,-7.59968 10.81445,-11.36328 1.29697,-3.7636 1.75076,-6.88894 2.05664,-7.83203 a 9.2170795,9.2170795 0 0 0 0.29883,-1.17578 c 6.89408,-37.47821 -2.37925,-80.36173 -32.78906,-106.97266 -19.12028,-17.54194 -45.0905,-24.58047 -69.89063,-22.99219 -44.71149,2.62591 -85.33532,21.00085 -123.728512,37.91797 -0.0019,8.2e-4 -0.0039,0.001 -0.0059,0.002 -18.479305,7.94849 -35.643819,17.24201 -53.148437,23.63867 -3.505057,1.08645 -8.139654,0.57045 -11.6074222,-1.32031 C 5.8090184,524.73323 3.7726401,522.1152 3.4042969,518.55859 2.873806,512.6323 4.933954,507.41205 9.0566406,502.07227 13.182692,496.72812 19.359535,491.73444 25.46875,487.79688 49.915677,472.28771 79.892688,466.7123 110.13867,460.39648 a 9.2170795,9.2170795 0 0 0 0.40039,-0.0937 c 57.59117,-14.74415 113.6278,-39.2749 161.10156,-76.28711 a 9.2170795,9.2170795 0 0 0 0.006,-0.004 c 34.63382,-27.03905 64.24819,-63.80296 76.36133,-107.44727 11.38496,20.92848 31.50576,35.69473 51.61524,45.28125 a 9.2170795,9.2170795 0 0 0 0.0234,0.0117 c 21.94874,10.39312 44.64447,17.83276 67.33985,24.48828 -19.97323,-0.99107 -40.14321,0.36094 -59.91797,5.31641 -26.85372,6.67397 -53.87035,24.57515 -62.75977,53.72266 -7.3693,23.59911 3.39954,47.62533 19.70508,62.84961 27.28345,25.78701 63.68737,36.4249 97.66602,42.90624 a 9.2170795,9.2170795 0 0 0 0.0996,0.0195 c 51.66101,9.26663 108.32789,9.20758 157.6914,-15.29493 41.80659,-20.22284 74.45846,-60.7099 79.81055,-108.11523 4.90501,-37.37222 -9.10928,-77.48536 -40.26367,-100.73242 -18.14815,-14.62396 -38.3886,-25.04825 -59.42578,-33.15235 13.21369,-1.01583 26.38697,-3.15254 39.32226,-6.80273 l 0.0117,-0.004 c 22.85203,-6.4241 46.83692,-21.59104 54.19141,-47.69336 3.06649,-9.59506 2.75595,-19.18456 0.33398,-28.17773 14.7326,0.90917 28.94225,1.84487 41.45117,6.16406 0.0948,1.60243 -0.20837,4.56126 0.81836,9.01172 l -0.22461,-1.63867 c 2.79607,59.48359 1.14726,119.62338 0.75,179.78711 -1.94084,10.81616 -5.9038,21.22928 -12.81836,25.35547 -0.49488,-0.033 -1.02844,-0.0844 -2.32031,-0.13086 -1.70614,-0.0614 -4.35451,-0.28127 -7.79101,1.61914 -3.43651,1.9004 -5.87764,6.44741 -6.22852,9.87695 a 9.2170795,9.2170795 0 0 0 0.0137,2.00977 c 1.62928,13.91201 10.20064,23.59335 15.49024,31.45117 a 9.2170795,9.2170795 0 0 0 0.28711,0.40234 c 41.94489,55.61007 110.22731,88.7766 179.56836,89.23633 a 9.2170795,9.2170795 0 0 0 0.008,0 c 49.65621,0.28826 102.59942,-10.67084 143.04692,-43.6543 0,-0.003 0.01,-0.007 0.01,-0.01 32.8807,-26.58858 55.696,-69.28596 49.625,-113.38281 -2.7015,-20.75871 -14.2211,-41.30739 -34.3301,-51.31836 -32.1186,-19.12667 -71.94807,-21.85169 -106.68551,-9.52344 -27.05269,9.5571 -53.10833,25.39822 -71.47851,48.86328 a 9.2170795,9.2170795 0 0 0 -1.20313,2.0293 c 0.42676,-0.98892 0.13818,-0.29597 -0.38476,0.44922 -0.52294,0.74518 -1.28424,1.7489 -2.11328,3.27148 -0.82904,1.52259 -2.59599,3.73326 -1.39063,8.64258 0.60268,2.45466 2.58772,5.06154 4.59766,6.3125 2.00994,1.25096 3.76016,1.56091 5.21875,1.70508 l -1.36914,-0.24024 c 24.45966,6.22932 46.84588,1.74352 63.04492,11.32422 14.30464,8.54024 22.56572,29.49178 16.58008,44.86133 -7.38347,16.50717 -28.3743,24.97272 -47.07813,23.61133 a 9.2170795,9.2170795 0 0 0 -0.25976,-0.0156 c -19.04948,-0.84949 -37.16902,-14.56887 -43.04883,-32.69726 a 9.2170795,9.2170795 0 0 0 -0.0762,-0.22657 c -6.79653,-19.23255 -3.82499,-41.56049 -5.34375,-65.69726 l 0.0176,0.4043 c -0.93897,-49.72241 -1.75402,-99.48386 -1.7832,-149.07227 30.57847,5.43744 62.81379,8.45868 94.5586,0.9043 0.004,-0.001 0.009,-9.2e-4 0.0137,-0.002 18.47592,-4.29735 35.82212,-15.60871 45.14455,-33.35156 14.5986,-25.32868 10.3013,-55.96716 -2.2012,-79.615233 a 9.2170795,9.2170795 0 0 0 -0.3906,-0.667969 c -0.8956,-1.396816 -2.2587,-4.681119 -4.5488,-8.410156 -2.29022,-3.729037 -6.35968,-8.549356 -12.84575,-10.101563 a 9.2170795,9.2170795 0 0 0 -3.04297,-0.208984 c -6.91144,0.677451 -11.46759,5.278864 -14.06445,8.480469 -2.59686,3.201605 -4.37346,5.579175 -4.85156,5.951172 a 9.2170795,9.2170795 0 0 0 -1.07422,0.982422 C 946.99874,112.93029 918.2331,118.5883 890.88086,119.2793 882.61797,119.48718 874.31152,119.14393 866,118.58789 c 2.23573,-33.478606 4.85219,-66.756568 13.36719,-98.148437 3.29763,-10.090518 13.47467,-24.5095162 8.47265,-42.457031 a 9.2170795,9.2170795 0 0 0 -0.13867,-0.453125 c -0.41956,-1.252491 -1.17761,-3.687057 -2.59765,-6.373047 -0.71002,-1.342995 -1.5533,-2.80339 -3.14454,-4.400391 -1.59123,-1.597 -4.49336,-3.649229 -8.43554,-3.61914 z M 1993.3613,72.664062 a 9.2170795,9.2170795 0 0 0 -0.1621,0.0039 c -43.4646,1.046476 -89.4545,4.323272 -131.0722,23.929687 -28.2924,13.120464 -51.9645,37.684974 -60.2071,68.935544 -1e-4,6.1e-4 2e-4,0.001 0,0.002 -5.863,22.08004 -6.9711,45.8643 -1.707,68.51953 a 9.2170795,9.2170795 0 0 0 0.045,0.1875 c 7.7706,30.54083 33.3523,50.64852 58.668,62.7207 a 9.2170795,9.2170795 0 0 0 0.023,0.0117 c 21.9515,10.39283 44.6499,17.83223 67.3477,24.48828 -19.976,-0.99142 -40.1493,0.35992 -59.9258,5.31445 -26.8527,6.67426 -53.872,24.57372 -62.7598,53.72266 -7.3727,23.60433 3.4052,47.63275 19.7129,62.85742 27.2832,25.77872 63.6803,36.41829 97.6563,42.89844 a 9.2170795,9.2170795 0 0 0 0.1,0.0195 c 51.6612,9.26673 108.3293,9.20939 157.6933,-15.29492 41.8076,-20.22262 74.4586,-60.71166 79.8106,-108.11719 4.9041,-37.3717 -9.1112,-77.48319 -40.2637,-100.73047 -18.1657,-14.63654 -38.4274,-25.06823 -59.4863,-33.17578 12.3408,-0.95611 24.6436,-2.8591 36.7558,-6.01758 a 9.2170795,9.2170795 0 0 0 0.014,-0.004 c 23.0891,-6.06276 47.9308,-20.44026 56.2422,-46.63672 8.0507,-22.32562 -1.8891,-45.61294 -17.3418,-60.21875 -26.3413,-25.279949 -62.0144,-35.469782 -95.332,-40.468752 a 9.2170795,9.2170795 0 0 0 -0.074,-0.01172 C 2023.9,73.447676 2008.594,72.564197 1993.3613,72.664062 Z m -23.2265,61.062498 c 14.9994,0.0922 29.5093,3.14085 41.7617,10.64649 10.0414,6.88767 17.6042,18.74206 18.0703,30.21484 -0.2279,6.34531 -3.1048,11.64012 -8.1465,16.68359 -5.1024,5.10422 -12.337,9.489 -19.3418,12.63086 -0,9.4e-4 -0,0.003 -0.01,0.004 -3.2487,1.44207 -7.0648,2.73236 -11.2364,4.41797 a 9.2170795,9.2170795 0 0 0 -1.7422,0.9414 c -2.744,-0.60332 -5.5354,-1.33206 -8.2617,-1.91601 l -0.098,-0.0234 c -0.067,-0.0143 -0.1362,-0.0325 -0.2032,-0.0469 -22.8066,-5.66978 -45.3508,-9.24542 -61.5859,-21.53907 a 9.2170795,9.2170795 0 0 0 -0.014,-0.01 c -9.2313,-6.96346 -11.4198,-21.75667 -7.6425,-33.5 5.7508,-8.37835 18.2582,-12.52091 31.4199,-15.83203 8.9288,-1.72327 18.0626,-2.72695 27.0254,-2.67188 z m -2080.79496,2.05469 c 0.0449,0.10347 0.11445,0.2366 0.16016,0.3418 0.003,0.006 0.003,0.0132 0.006,0.0195 l -0.16602,-0.36133 z m 13.871098,6.04102 0.0625,0.0918 c -0.0091,-0.0133 -0.02017,-0.0257 -0.0293,-0.0391 -0.01175,-0.0168 -0.02145,-0.036 -0.0332,-0.0527 z M 1295.3906,156.20703 c 7.767,-0.25602 15.0256,0.26336 21.6406,2.57617 10.8161,3.84786 17.168,16.81507 18.2676,29.67188 l -0.01,-0.0957 c 0.4893,6.52632 1.2108,13.06628 0.7578,18.43945 -0.4515,5.35463 -1.7249,9.01547 -4.8418,11.97461 -12.088,11.13964 -30.3886,15.60512 -49.1602,22.11718 9.6819,-14.94022 14.7836,-32.51648 15.2442,-50.05273 a 9.2170795,9.2170795 0 0 0 -10.42,-9.37891 c -18.1949,2.40248 -35.6755,4.76291 -50.4218,-0.28125 a 9.2170795,9.2170795 0 0 0 -0.096,-0.0312 c -1.1331,-0.37363 -0.807,-0.0567 -1.0352,-1.9082 -0.2185,-1.773 0.4553,-4.83408 1.332,-6.57031 6.243,-8.93557 20.0681,-11.96901 34.4942,-14.43555 8.4822,-0.77673 16.6136,-1.77387 24.2441,-2.02539 z m -782.71872,2.44141 c 14.70715,0.31764 28.83709,3.51461 40.6914,11.13086 9.94251,7.19412 17.46392,19.59432 17.25195,30.75 -0.65086,6.44177 -3.8869,11.77348 -9.22461,16.73047 -5.40606,5.02047 -12.85616,9.24897 -20.08007,12.33203 a 9.2170795,9.2170795 0 0 0 -0.88867,0.4375 c 0.78128,-0.43792 -0.34076,0.1199 -1.47266,0.50195 -1.1319,0.38205 -2.51209,0.81305 -3.93555,1.3457 -0.71173,0.26633 -1.41618,0.53081 -2.38281,1.03711 -0.55032,0.28825 -1.43196,0.32613 -2.45898,1.23047 -2.73293,-0.60086 -5.51325,-1.32652 -8.22852,-1.9082 -23.40876,-5.87565 -46.39832,-9.35006 -62.65234,-22.27149 -8.68218,-7.15217 -10.65623,-21.66602 -6.73047,-33.14453 6.39006,-8.66139 19.68642,-12.85142 33.50586,-16 8.82852,-1.52201 17.81854,-2.36165 26.60547,-2.17187 z m 762.97462,91.02929 -0.031,0.0371 c 0.01,-0.007 0.011,-0.0159 0.018,-0.0234 0,-0.005 0.01,-0.009 0.014,-0.0137 z m -738.57619,1.67579 c 0.18087,0.0254 0.36786,0.0315 0.54883,0.0566 0.009,6.5e-4 0.0206,0.005 0.0293,0.006 l -0.57813,-0.0625 z m 653.56839,27.74804 c 0.035,0.004 0.071,0.002 0.1054,0.006 0.017,0.001 0.032,0.006 0.049,0.008 l -0.1543,-0.0137 z m 150.1347,1.54688 c 1.734,30.0824 2.1997,60.36605 1.5118,90.58594 -1.3581,24.51016 -12.8035,50.70634 -33.3145,62.76953 a 9.2170795,9.2170795 0 0 0 -0.2422,0.14648 c -18.6807,11.77708 -46.1308,9.56883 -61.414,-6.44336 a 9.2170795,9.2170795 0 0 0 -0.076,-0.0801 c -15.3456,-15.6976 -22.9452,-39.51563 -16.5547,-60.32422 a 9.2170795,9.2170795 0 0 0 0.012,-0.041 c 5.1319,-17.002 15.1692,-32.77487 28.2793,-44.98242 23.1933,-17.78457 50.7105,-30.18702 78.8145,-40.77149 1.4544,-0.42585 1.6532,-0.46546 2.9843,-0.85937 z m 647.0938,58.59375 c 6.2582,1.94783 12.4657,3.97616 18.5976,6.14258 a 9.2170795,9.2170795 0 0 0 0.5528,0.17578 c 13.6212,3.86919 26.0294,10.25293 32.6308,20.77148 a 9.2170795,9.2170795 0 0 0 0.2852,0.42578 c 9.1537,12.93042 10.0029,33.39624 -1.3516,43.8125 -11.3456,9.40019 -27.583,13.89903 -43.5429,15.95508 -20.7711,2.1859 -43.1646,-3.12656 -55.0137,-19.13867 -6.2014,-8.71817 -9.4335,-20.04659 -8.7949,-30.61914 3.388,-8.37401 13.9626,-14.24429 25.4922,-20.24219 7.8632,-3.75447 15.9824,-6.65641 24.6875,-9.33398 a 9.2170795,9.2170795 0 0 0 6.457,-7.94922 z M 528.61328,364.14258 c 6.24168,1.94327 12.43296,3.96601 18.54883,6.12695 a 9.2170795,9.2170795 0 0 0 0.55469,0.17774 c 13.61769,3.86274 26.0278,10.25063 32.6289,20.76953 a 9.2170795,9.2170795 0 0 0 0.29297,0.4375 c 4.53364,6.38455 7.26993,15.12468 7.14453,23.27929 -0.12469,8.10885 -2.81406,15.32809 -8.48632,20.50977 -11.0746,9.1902 -26.67649,13.64899 -42.28907,15.82617 -20.48015,2.43656 -42.8908,-2.38393 -55.20898,-17.59765 -6.91514,-8.83403 -10.51379,-20.82695 -9.86133,-32.04688 3.31999,-8.19655 13.42894,-13.90686 24.59961,-19.79102 8.20411,-3.97764 16.52913,-6.9905 25.58789,-9.74023 a 9.2170795,9.2170795 0 0 0 6.48828,-7.95117 z M 55.855469,411.01172 c 0.01451,0.0225 0.0889,0.10988 0.09961,0.13086 0.09258,0.18125 -1.74e-4,0.18406 -0.09961,-0.13086 z M 184.72656,804.13086 a 9.2170795,9.2170795 0 0 0 -0.16406,0.004 c -16.95185,0.52987 -32.44784,9.0884 -42.61914,22.11132 -12.31731,14.11235 -19.68826,29.97126 -28.19141,43.48829 -1.48236,-0.83982 -3.19417,-1.76405 -5.57031,-2.58204 l 1.18555,0.50391 C 75.497429,850.38905 38.262161,839.59723 0.06835937,837.29688 l -0.0019531,0 C -30.792088,835.4265 -62.149262,836.06162 -93.048828,840.96289 a 9.2170795,9.2170795 0 0 0 -0.294922,0.0508 c -60.53749,11.6219 -111.90014,50.43252 -148.76758,97.24414 a 9.2170795,9.2170795 0 0 0 -0.0351,0.0449 c -29.59073,38.04515 -52.78117,84.19057 -54.4961,134.48827 -2.78132,64.0565 12.17519,129.5862 46.0918,184.6875 28.85512,47.2275 74.45487,83.7129 127.22851,100.8125 0.003,10e-4 0.007,9e-4 0.01,0 47.766966,15.6731 99.008411,18.1539 148.126953,11.2636 a 9.2170795,9.2170795 0 0 0 0.02344,-0 c 42.824686,-6.122 83.402299,-24.9831 115.763669,-53.6465 25.83412,-22.4604 53.10921,-49.7171 61.85742,-86.8183 a 9.2170795,9.2170795 0 0 0 0.0234,-0.1035 c 3.18929,-14.2549 2.70609,-29.7079 -3.06836,-43.8321 a 9.2170795,9.2170795 0 0 0 -3.70703,-4.3632 c -11.77644,-7.2358 -26.19436,-3.0933 -34.17578,6.5664 -15.39014,17.8038 -23.44531,38.3475 -35.4707,53.789 a 9.2170795,9.2170795 0 0 0 -0.26367,0.3555 c -17.11436,24.3014 -42.844478,42.5129 -71.826177,47.3301 a 9.2170795,9.2170795 0 0 0 -0.07617,0.014 c -33.434536,5.849 -68.569043,-0.3773 -101.597656,-11.5391 -37.420897,-14.061 -64.323195,-49.0421 -78.052735,-86.8535 -20.01265,-55.1706 -21.05344,-116.6454 -7.11133,-173.9492 9.44438,-35.95921 25.00771,-71.34791 53.392581,-93.42778 21.529277,-16.34704 51.070428,-19.11364 78.93359338,-15.50977 38.13148362,5.61209 75.37941162,21.8546 102.81835562,48.44727 17.14898,17.98964 31.03409,38.73143 41.69532,61.25588 l -0.12696,-0.2793 c 5.0826,11.7309 17.80291,16.1368 28.60352,14.3652 l -1.08399,0.1133 c 3.67412,-0.1629 8.54932,-0.3969 13.75,-2.3828 5.20068,-1.986 11.22504,-7.0038 12.79883,-14.3047 a 9.2170795,9.2170795 0 0 0 0.0684,-0.3477 c 2.99359,-17.04466 -1.79737,-32.25798 -2.60351,-44.98433 a 9.2170795,9.2170795 0 0 0 -0.0684,-0.6875 c -6.8629,-49.36687 -0.30733,-99.95111 9.64257,-149.80274 a 9.2170795,9.2170795 0 0 0 -1.76757,-7.4707 c -5.53963,-7.10775 -13.58714,-7.42028 -18.45899,-7.35547 z m 712.6211,56 a 9.2170795,9.2170795 0 0 0 -0.15039,0.008 l 0.004,-0.004 c -43.84944,1.09151 -88.35103,10.36258 -127.92578,30.93359 -0.005,0.003 -0.0104,0.005 -0.0156,0.008 -26.97866,13.78225 -46.02075,36.73849 -63.40821,58.01367 a 9.2170795,9.2170795 0 0 0 -0.42578,0.56446 c -5.90156,8.47489 -15.78828,18.44713 -18.52539,33.36132 a 9.2170795,9.2170795 0 0 0 -0.11914,2.44336 c 0.57584,6.79206 5.74566,11.15306 8.8125,13.11914 3.06684,1.96608 4.90964,3.24968 4.63672,2.92578 a 9.2170795,9.2170795 0 0 0 1.41406,1.3555 c 11.41891,8.8214 15.8635,25.0081 15.14453,40.7988 a 9.2170795,9.2170795 0 0 0 -0.008,0.6172 c 0.74154,34.5545 1.83929,69.1116 2.30469,103.4258 -9.49938,4.02 -21.13354,5.9471 -33.3418,8.9863 -9.40266,1.988 -18.88589,3.764 -28.42187,5.4297 a 9.2170795,9.2170795 0 0 0 -2.65625,17.2558 c -0.0518,0.057 -0.10492,0.1174 0.043,0.8926 0.37084,1.9438 0.25096,5.631 1.875,10.4883 l -0.32812,-1.2754 c 2.98921,16.4648 14.04765,31.6927 30.47266,37.916 a 9.2170795,9.2170795 0 0 0 1.39843,0.4063 c 8.95496,1.8517 14.94256,-0.3256 17.80078,0.094 a 9.2170795,9.2170795 0 0 0 1.33789,0.098 l 15.12696,0 c -0.83614,24.6633 1.07364,48.6559 0.14648,71.7949 -1.46643,18.9785 -8.1838,37.9909 -21.40429,49.9375 a 9.2170795,9.2170795 0 0 0 -2.86915,5.0938 c -0.12553,0.651 -1.30075,3.7312 -2.54296,7.0058 -1.24222,3.2746 -3.9637,6.6495 -1.36328,13.7969 a 9.2170795,9.2170795 0 0 0 8.23046,6.0566 c 30.69704,1.4349 61.3886,1.9766 90.28711,7.0938 19.64606,5.3829 38.4335,14.8342 53.40625,28.1426 1.99233,1.968 2.46273,3.1054 2.46485,3.1367 a 9.2170795,9.2170795 0 0 0 12.43164,8.0058 c 6.02255,-2.2594 12.04832,-4.5176 18.07422,-6.7793 a 9.2170795,9.2170795 0 0 0 5.70117,-10.8691 c -13.39171,-53.4655 -26.07992,-106.9644 -31.33594,-161.1035 -0.57271,-14.0674 -1.96679,-26.933 1.96289,-36.6992 0.0117,-0.027 -0.0406,-0.1604 1.7793,-0.5645 1.85467,-0.4118 4.8199,-0.6791 8.34961,-1.5215 32.5427,-3.8038 64.80463,13.0652 94.11133,32.0879 a 9.2170795,9.2170795 0 0 0 1.01367,0.5703 c 1.2167,0.587 3.42551,2.2852 6.41406,4.375 2.98855,2.0899 7.10632,4.7336 12.76172,5.2188 a 9.2170795,9.2170795 0 0 0 5.125,-1.0508 c 5.3655,-2.8626 8.24955,-7.6577 9.91797,-11.5234 1.66841,-3.8658 2.51973,-7.286 3.29101,-9.3028 a 9.2170795,9.2170795 0 0 0 0.28125,-0.8554 c 7.01505,-25.6098 7.87415,-55.0633 -5.21289,-80.4278 a 9.2170795,9.2170795 0 0 0 -0.1289,-0.2402 c -13.43934,-24.2474 -40.64872,-33.3905 -64.20704,-35.9336 a 9.2170795,9.2170795 0 0 0 -0.24414,-0.023 c -18.79398,-1.5218 -36.28562,2.5319 -52.36523,4.2949 a 9.2170795,9.2170795 0 0 0 -0.29102,0.037 c -7.34769,1.0435 -14.6647,2.2109 -21.98632,3.3574 -1.20353,-37.93 -2.90359,-75.6988 -2.97852,-113.2871 1.74411,-19.2431 6.41219,-38.50041 11.91797,-57.69726 8.47769,-16.03691 27.26057,-26.71969 45.27148,-24.51953 a 9.2170795,9.2170795 0 0 0 0.51758,0.0488 c 14.55137,0.94929 28.94205,8.03512 32.96875,20.74804 a 9.2170795,9.2170795 0 0 0 0.0195,0.0645 c 4.58019,14.10197 2.25111,30.40383 -3.1289,45.63476 -4.96,6.4776 -15.48832,9.3751 -27.07813,12.375 -14.74089,3.1191 -29.95905,4.5108 -45.27929,4.7461 a 9.2170795,9.2170795 0 0 0 -7.88672,13.7441 c 16.28537,28.8622 46.39848,44.1431 74.24414,54.0039 a 9.2170795,9.2170795 0 0 0 0.20898,0.07 c 23.49207,7.691 48.83908,12.8286 74.55272,10.9101 a 9.2170795,9.2170795 0 0 0 0.2774,-0.025 c 30.9173,-3.2481 55.774,-26.291 66.0254,-54.1094 10.1317,-26.7633 9.4957,-57.43783 -2.4161,-83.63862 a 9.2170795,9.2170795 0 0 0 -0.1953,-0.40235 c -16.0142,-31.12862 -46.1374,-49.98854 -74.49217,-63.94726 a 9.2170795,9.2170795 0 0 0 -0.21093,-0.10157 c -23.354,-10.77149 -48.17713,-20.20144 -74.48438,-24.33008 a 9.2170795,9.2170795 0 0 0 -0.31445,-0.043 c -8.20625,-1.00032 -16.36304,-1.28861 -24.38281,-1.2168 z m 399.30074,84.92969 a 9.2170795,9.2170795 0 0 0 -0.059,0.002 c -61.0622,0.71705 -123.0798,18.49257 -172.8086,55.4785 a 9.2170795,9.2170795 0 0 0 -0.029,0.021 c -24.4789,18.3526 -45.4398,42.9717 -55.6641,73.0625 -21.2098,57.5748 -21.0521,121.871 -2.8262,179.9004 a 9.2170795,9.2170795 0 0 0 0.022,0.068 c 13.077,40.5232 37.527,81.1951 78.0137,102.0566 20.8205,11.0776 43.3849,12.1222 63.0469,15.291 a 9.2170795,9.2170795 0 0 0 0.3007,0.043 c 68.9496,8.7969 142.537,2.5584 205.5547,-31.3828 l 0,-0 c 34.2327,-18.4314 64.6734,-44.311 87.8496,-75.6367 a 9.2170795,9.2170795 0 0 0 1.207,-2.207 c 2.9515,-7.7629 11.4188,-18.5921 10.084,-33.5801 a 9.2170795,9.2170795 0 0 0 -0.3047,-1.6699 c -1.0105,-3.6046 -3.4971,-7.0179 -6.4863,-8.9395 -2.9892,-1.9215 -6.07,-2.509 -8.709,-2.6426 -5.2781,-0.2672 -9.4885,1.0647 -12.5664,2.1192 a 9.2170795,9.2170795 0 0 0 -0.2285,0.082 c -25.7522,9.5845 -49.1466,22.4116 -73.3496,29.7891 a 9.2170795,9.2170795 0 0 0 -0.1075,0.035 c -40.1924,12.7905 -83.0732,19.2172 -123.9687,12.6738 -22.622,-3.6217 -44.4021,-14.0063 -58.2832,-31.5527 a 9.2170795,9.2170795 0 0 0 -0.1719,-0.209 c -15.2244,-18.122 -26.188,-41.2816 -24.9726,-63.4101 71.0203,-1.1311 142.4345,0.7796 213.9199,1.2011 l -0.1992,-0 c 40.5856,1.1167 80.8493,-0.9871 120.8261,-2.5625 a 9.2170795,9.2170795 0 0 0 3.6993,-0.9375 c 4.5656,-2.2423 7.9961,-5.6406 10.1523,-10.6269 2.1562,-4.9863 1.5436,-13.373 -3.7734,-18.0879 a 9.2170795,9.2170795 0 0 0 -0.4571,-0.377 c -6.0247,-4.6868 -12.3065,-6.3095 -16.9531,-7.9492 -4.6465,-1.6397 -7.4153,-2.997 -9.2656,-5.2754 a 9.2170795,9.2170795 0 0 0 -0.5196,-0.5859 c -8.0852,-8.3866 -8.9796,-22.9411 -15.3203,-39.1563 -15.4699,-45.4731 -47.7373,-85.18177 -90.625,-107.79488 -35.999,-19.44919 -76.9433,-27.44501 -117.0293,-27.23437 z m -872.41402,3.16015 c -1.21648,0.001 -2.37877,0.0138 -3.48633,0.0176 a 9.2170795,9.2170795 0 0 0 -0.11328,0.002 c -40.78922,0.63816 -84.9427,4.31935 -122.66993,26.82422 a 9.2170795,9.2170795 0 0 0 -0.13476,0.0801 c -17.33243,10.74126 -33.24533,26.08047 -41.54492,46.14847 a 9.2170795,9.2170795 0 0 0 -0.42578,1.2871 c -6.17416,24.7004 -2.60683,51.151 8.25585,73.6875 10.31997,21.7724 31.3043,37.3185 55.2168,40.7422 -19.78052,9.9602 -37.25486,23.4442 -52.83008,38.3027 -18.49805,17.4466 -28.83031,42.3702 -28.12304,67.7813 a 9.2170795,9.2170795 0 0 0 0,0.017 c 0.80301,27.1344 6.11549,55.5041 20.65039,80.0625 17.54655,30.0825 50.08934,47.9573 83.48828,51.5352 48.9077,5.5093 97.63639,-10.5265 137.53711,-36.6387 5.94764,-3.5788 10.62077,-7.3798 14.96679,-10.7461 0.17437,0.2781 0.30268,0.3947 0.48829,0.711 1.57595,2.6849 3.33844,6.5036 6.40625,10.4511 6.40364,10.3253 16.32708,18.8728 29.01171,22.0157 l -0.9082,-0.2754 c 29.4626,10.6188 66.00908,12.7662 94.1543,-7.4786 a 9.2170795,9.2170795 0 0 0 0.26367,-0.1972 c 25.31081,-19.613 45.594,-50.4587 43.82227,-85.0137 l 0.004,0.8926 c 0.1279,-2.806 0.28935,-6.1341 -3.00976,-10.0703 -1.64956,-1.9681 -4.65138,-3.698 -7.53711,-3.9746 -2.88574,-0.2767 -5.25291,0.5211 -7.11914,1.4687 a 9.2170795,9.2170795 0 0 0 -0.63868,0.3555 c -7.25073,4.4382 -12.01214,10.3054 -16.30078,14.9648 -4.28863,4.6595 -7.92128,8.0293 -12.02148,9.6641 a 9.2170795,9.2170795 0 0 0 -0.49414,0.2129 c -1.86911,0.875 -5.03985,-0.5734 -5.53711,-2.5156 a 9.2170795,9.2170795 0 0 0 -0.36524,-1.125 c -9.39139,-23.5745 -9.2141,-50.4816 -8.62109,-77.7754 1.6e-4,-0.01 -1.6e-4,-0.014 0,-0.022 3.87327,-55.1609 -2.3424,-109.8679 -8.89453,-163.5137 a 9.2170795,9.2170795 0 0 0 -0.36523,-1.6719 c -8.53654,-26.8884 -30.25827,-45.8142 -51.90235,-59.10739 a 9.2170795,9.2170795 0 0 0 -0.0586,-0.0351 c -36.98732,-22.34809 -80.35075,-27.91405 -121.34766,-27.0625 l 0.1836,-0.002 z m 858.88082,62.1328 c 21.0103,0.7333 42.4026,10.7445 56.6172,26.1055 12.9358,17.2943 18.0324,40.2299 22.1563,63.459 -51.1486,0.1905 -102.1882,1.1986 -152.6563,-1.334 1.785,-15.4307 8.9722,-30.8315 17.1895,-45.8086 11.1443,-18.4634 25.5697,-35.7543 44.4043,-41.0293 4.04,-1.0015 8.0393,-1.4221 12.289,-1.3926 z m -852.62692,4.375 c 4.14749,0.024 8.2492,0.2362 12.2832,0.6641 6.4e-4,0 0.001,-10e-5 0.002,0 10.63639,1.1668 20.30612,10.2227 22.86523,20.6465 a 9.2170795,9.2170795 0 0 0 0.0371,0.1425 c 2.94394,11.2158 3.91535,22.8267 2.21094,34.0118 -1.61204,5.0812 -5.02304,8.7559 -10.34766,12.205 -5.44136,3.5248 -12.59129,6.3625 -19.56836,9.1328 -7.64394,2.6394 -15.5216,5.2585 -23.28515,7.8106 9.65631,-14.9275 14.73523,-32.477 15.20898,-49.9785 a 9.2170795,9.2170795 0 0 0 -10.44531,-9.3828 c -17.81707,2.4049 -34.98101,4.6126 -49.70703,0.022 a 9.2170795,9.2170795 0 0 0 -0.69922,-0.1875 c -0.82082,-0.1866 -0.43362,0.1122 -0.80664,-0.9161 -0.36918,-1.0176 -0.47338,-3.2572 -0.0566,-4.9375 1.14966,-4.1197 3.70108,-6.7816 8.15429,-9.3359 4.44032,-2.5469 10.51991,-4.4126 16.4043,-5.8652 12.55123,-2.4974 25.34951,-4.104 37.75,-4.0313 z M 322.10742,1135.502 c -0.0291,0.014 -0.0549,0.033 -0.084,0.047 -0.0773,0.041 -0.15707,0.074 -0.23438,0.1153 l 0.31836,-0.1621 z m 0.0508,1.9902 c 0.0237,0 0.0486,0 0.0723,0 0.0139,0 0.0271,0.01 0.041,0.01 l -0.11328,-0.012 z m 151.21485,1.664 c 1.72552,29.7514 2.12696,59.9025 1.57226,89.6348 -1.25956,24.755 -12.04324,50.4838 -32.46484,63.1641 a 9.2170795,9.2170795 0 0 0 -0.19336,0.123 c -18.21647,11.9463 -45.11697,10.6707 -60.87109,-4.4023 a 9.2170795,9.2170795 0 0 0 -0.0117,-0.012 c -16.84865,-16.0611 -25.01927,-41.4945 -17.69336,-63.3633 a 9.2170795,9.2170795 0 0 0 0.0215,-0.062 c 5.34813,-16.3499 15.15571,-31.7215 27.85156,-43.4512 22.8014,-17.5001 49.78847,-29.7302 77.46094,-40.2891 1.54837,-0.4753 2.88054,-0.8894 4.32813,-1.3418 z" />
        </g>
        <g
           style="fill:#00ffff;fill-opacity:1"
           transform="translate(-867.40495,858.5176)"
           id="g4457" />
      </g>
    </g>
  </g>
  <g
     inkscape:groupmode="layer"
     id="layer2"
     inkscape:label="logo"
     style="display:inline"
     transform="translate(987.12522,49.213494)"
     sodipodi:insensitive="true">
    <g
       id="g4385"
       style="fill:#9b201e;fill-opacity:1">
      <path
         sodipodi:nodetypes="ccssscscsssccsscc"
         inkscape:connector-curvature="0"
         id="path4327"
         d="m -458.58705,128.96696 -22.21837,-1.77747 c 0,0 -6.63393,-3.51027 -11.1315,8.94126 -2.7005,7.47631 -2.98092,7.33574 9.77608,12.44229 14.46964,5.79211 61.75088,0.94662 68.89925,49.71522 13.37876,91.27446 5.33241,275.50772 5.33241,275.50772 0,5.02744 -9.78971,23.03681 -32.88318,27.55078 -11.48114,2.24416 -13.2232,18.03499 -13.2232,18.03499 73.84056,-15.08233 146.94765,-13.69619 195.42305,-6.16722 19.55108,3.03658 15.32992,-15.52633 -19.0054,-21.80559 -41.52955,-7.59494 -20.05391,-147.88738 -27.21806,-221.13318 -6.08996,-62.26334 42.55144,-92.53622 73.65715,-100.53483 47.10313,-11.239 -12.01311,72.11069 80.31724,78.84633 97.735567,-15.35461 56.001116,-107.73403 19.53525,-122.49289 -19.58194,-7.92543 -96.4391,-22.75054 -156.54202,45.2977 -47.38999,53.65473 -0.39588,-22.04578 -0.0817,-46.86878 0,0 -105.39736,13.53741 -170.63704,4.44367 z"
         style="display:inline;fill:#9b201e;fill-opacity:1;fill-rule:evenodd;stroke:#000000;stroke-width:1px;stroke-linecap:butt;stroke-linejoin:miter;stroke-opacity:1" />
      <path
         sodipodi:nodetypes="csssssssscscsssscsc"
         inkscape:connector-curvature="0"
         id="path4329"
         d="m 141.3088,216.95169 c 0,0 -34.36712,-79.66512 45.32546,-105.75942 C 253.69139,89.235286 335.8655,150.11635 342.16282,211.61928 358.57035,371.86375 156.54714,440.91386 93.43262,452.52951 -47.544571,478.47508 -13.822683,556.05157 30.451119,536.52801 96.24827,507.51323 189.84589,455.58879 245.76669,487.49513 308.43478,523.25122 290.39057,609.1424 284.02694,605.84931 256.8073,591.76354 145.0324,577.6349 58.340681,597.02512 3.7811027,609.22839 -75.460781,593.92764 -68.019776,522.17427 -58.684483,432.15435 45.54877,432.06246 67.543829,410.69583 c 0,0 -75.5673021,-185.08427 -100.427009,-222.18365 -24.561104,-36.65376 -60.84674,-46.51917 -60.84674,-46.51917 0,0 -16.41602,-19.02016 1.301522,-14.80352 48.885784,11.63443 153.253585,-7.48394 161.749696,2.66621 14.007399,16.73438 -1.224514,18.95507 4.390567,37.16831 4.681652,15.18554 12.568344,35.26419 26.715145,65.9249 26.21496,56.81633 73.76497,145.75247 73.76497,145.75247 0,0 106.3702,-38.31464 66.6551,-135.08766 -32.36111,-78.85368 -99.53828,-26.66203 -99.53828,-26.66203 z"
         style="display:inline;fill:#9b201e;fill-opacity:1;fill-rule:evenodd;stroke:#000000;stroke-width:1px;stroke-linecap:butt;stroke-linejoin:miter;stroke-opacity:1" />
      <path
         sodipodi:nodetypes="cscscssscscssscsscssc"
         inkscape:connector-curvature="0"
         id="path4333"
         d="m 854.07395,128.96696 c 0,0 4.11455,-92.893622 18.66342,-122.6453732 10.90858,-22.3075278 0.88874,-31.9944458 0.88874,-31.9944458 0,0 -51.05313,39.445663 -95.44424,43.547996 -32.26477,2.981697 -55.64064,-1.77747 -55.64064,-1.77747 0,0 -6.91273,5.269248 14.91134,29.759528 8.86911,9.952633 11.80336,53.556237 9.08449,63.557605 -1.56183,5.7452 -34.40035,-4.38051 -47.99167,7.99861 -17.34655,15.79943 -16.88596,41.77053 -16.88596,41.77053 0,0 57.56891,1.59007 63.10016,11.55355 5.75259,10.36218 2.6662,189.30047 2.6662,189.30047 1.88529,9.42645 -8.80255,44.95293 -27.55077,40.88179 -14.26441,-3.09749 64.89319,139.72698 236.06144,107.49222 134.52744,-25.33448 152.78644,-148.29551 105.19414,-179.13009 -80.1762,-51.94541 -162.2333,15.97871 -172.28818,37.34534 21.99506,6.91273 67.71851,-5.00779 85.42634,34.98411 32.64474,73.72596 -112.37333,104.97112 -114.81774,-3.13448 -3.14938,-139.28328 -2.71087,-201.96606 -2.71087,-201.96606 0,0 97.60832,23.49372 131.83002,-11.7877 12.74143,-13.13594 28.46493,-41.83497 5.46639,-84.69775 -20.51215,-38.228775 0.80577,42.76709 -139.96261,28.94162 z"
         style="display:inline;fill:#9b201e;fill-opacity:1;fill-rule:evenodd;stroke:#000000;stroke-width:1px;stroke-linecap:butt;stroke-linejoin:miter;stroke-opacity:1" />
      <path
         sodipodi:nodetypes="cssscssssssc"
         inkscape:connector-curvature="0"
         id="path4339"
         d="m 1743.6973,-27.450328 c -28.777,8.777907 -165.5453,34.2244798 -248.8457,-9.77608 -6.212,-3.281259 -23.6872,24.13042 22.5048,41.3839003 72.6458,27.1343517 59.6901,57.9234047 61.4044,164.5792177 2.132,132.64567 1.4093,244.62532 1.4093,244.62532 2.5137,29.53622 -31.7876,55.64451 -51.5466,57.76775 -3.8414,0.41279 -24.3254,26.92891 0.4389,19.5075 91.8402,-27.52281 208.0351,41.33766 265.3112,43.07205 17.7483,0.53744 58.3231,5.06552 44.4183,-29.69637 -3.7706,-9.42645 -124.9163,4.21467 -132.4215,-75.54244 -7.5859,-80.61454 -4.4437,-311.05711 0,-329.720535 4.4437,-18.663427 10.3082,-95.0965722 37.3269,-126.200313 z"
         style="display:inline;fill:#9b201e;fill-opacity:1;fill-rule:evenodd;stroke:#000000;stroke-width:1px;stroke-linecap:butt;stroke-linejoin:miter;stroke-opacity:1" />
      <path
         sodipodi:nodetypes="csscscsscsccsccsccscscsssssc"
         inkscape:connector-curvature="0"
         id="path4345"
         d="m 870.07117,1020.3678 c 0,0 71.9875,-0.8888 79.98611,-25.77334 7.99861,-24.88457 14.21976,-70.21004 -32.88318,-79.09738 -47.10293,-8.88735 -64.87762,31.10571 -64.87762,31.10571 0,0 -12.44229,43.54799 -12.44229,64.87761 0,21.3296 3.55494,122.6454 3.55494,122.6454 0,0 69.3213,-11.5536 82.65232,-9.7761 13.33102,1.7775 49.68957,5.8668 61.32268,39.1043 12.44229,35.5494 -1.77746,77.3199 -7.10987,78.2087 -5.33241,0.8887 -71.60994,-58.4859 -129.75525,-39.1043 -29.32825,9.776 23.1071,208.8526 23.1071,208.8526 l -14.21976,5.3324 c -1.77747,-10.6648 -41.77052,-35.5494 -69.3213,-39.9931 -27.55077,-4.4436 -85.31852,-6.2211 -85.31852,-6.2211 l 4.44368,-13.331 c 0,0 26.66203,-19.5522 24.88457,-72.8763 -1.77747,-53.324 0,-67.5438 0,-67.5438 l -38.21559,0 c -7.99861,3.5549 -25.77331,-12.4423 -28.43951,-28.4395 -2.6662,-15.9972 -3.55494,-15.9972 -3.55494,-15.9972 0,0 66.6551,-11.5536 66.6551,-18.6635 0,-7.1098 -2.6662,-114.6468 -2.6662,-114.6468 0,-38.2155 -24.88458,-47.99158 -29.32825,-52.43526 -4.44367,-4.44367 16.96884,-35.80596 47.99167,-65.76635 43.40529,-41.91879 143.46259,-56.78493 185.74553,-46.2142 56.87902,14.21975 120.71491,46.75635 133.31021,91.53966 15.9972,56.87895 -16.886,111.98055 -68.43258,111.09185 -51.54661,-0.8888 -108.42563,-24.8846 -127.08905,-56.879 z"
         style="display:inline;fill:#9b201e;fill-opacity:1;fill-rule:evenodd;stroke:#000000;stroke-width:1px;stroke-linecap:butt;stroke-linejoin:miter;stroke-opacity:1" />
      <path
         id="path4349"
         style="display:inline;fill:#9b201e;fill-opacity:1;fill-rule:evenodd;stroke:#000000;stroke-width:1px;stroke-linecap:butt;stroke-linejoin:miter;stroke-opacity:1"
         d="m 1374.8724,1111.0187 c 0,0 -5.6003,-55.5123 -25.7733,-80.8749 -15.1911,-19.0991 -60.704,-43.13974 -94.2059,-23.9958 -43.5479,24.8845 -66.0676,101.536 -54.2128,103.0932 27.2872,3.5844 174.192,1.7775 174.192,1.7775 z m 160.861,40.8818 c 0,0 11.5535,-7.1099 0,-12.4423 -11.5536,-5.3324 -23.9958,-3.5549 -34.6607,-30.2169 -50.0185,-218.02777 -346.1312,-172.3742 -413.2616,-52.4354 -52.1579,100.6982 -19.4447,266.6307 78.2087,295.9486 106.709,22.5791 238.196,16.5907 324.3881,-94.2059 11.5536,-24.8845 17.7747,-39.1043 -7.9986,-29.3282 -25.7733,9.7761 -72.8763,38.2156 -145.7525,43.548 -41.1182,3.0087 -82.646,-3.1617 -108.4256,-27.5507 -41.533,-39.2928 -41.7705,-88.8735 -32.8832,-91.5398 8.8874,-2.6662 247.0682,1.7775 271.0641,0.8888 23.9958,-0.8888 69.3213,-2.6662 69.3213,-2.6662 z"
         inkscape:connector-curvature="0" />
      <path
         sodipodi:nodetypes="csssssscsssssc"
         inkscape:connector-curvature="0"
         id="path4331"
         d="m 543.01684,240.94752 c 0,0 121.38623,17.97508 139.53133,-45.32546 12.56167,-43.82234 -50.62656,-89.69615 -155.7442,-86.72787 -109.68404,3.09723 -184.34343,33.30906 -177.53127,132.05333 5.62176,81.48905 119.01019,87.65877 214.14037,123.22914 37.80097,14.13426 50.45689,67.32355 13.65448,86.44907 -46.71307,24.2759 -114.37545,15.30729 -116.70303,-47.03978 -0.8829,-23.6497 51.50194,-39.99306 51.50194,-39.99306 0,0 -115.45368,-27.83005 -151.7318,33.42229 -23.92509,40.39537 13.69622,92.41207 123.33696,106.10905 C 681.02651,527.80398 730.11963,362.20898 656.4329,299.41452 564.79175,221.31963 423.61459,261.58369 440.81236,176.06989 c 5.76853,-28.68332 99.96072,-44.44781 129.75525,-5.3324 36.75392,48.25197 -27.55077,70.21003 -27.55077,70.21003 z"
         style="display:inline;fill:#9b201e;fill-opacity:1;fill-rule:evenodd;stroke:#000000;stroke-width:1px;stroke-linecap:butt;stroke-linejoin:miter;stroke-opacity:1" />
      <path
         style="display:inline;fill:#9b201e;fill-opacity:1;fill-rule:evenodd;stroke:#000000;stroke-width:1px;stroke-linecap:butt;stroke-linejoin:miter;stroke-opacity:1"
         d="m 2002.319,216.06295 c 0,0 121.3862,17.97508 139.5313,-45.32546 12.5617,-43.82234 -50.6265,-89.696152 -155.7442,-86.727872 -109.684,3.09723 -184.3434,33.309062 -177.5313,132.053332 5.6218,81.48905 119.0102,87.65877 214.1404,123.22914 37.801,14.13426 50.4569,67.32355 13.6545,86.44907 -46.7131,24.2759 -114.3755,15.30729 -116.703,-47.03978 -0.8829,-23.6497 51.5019,-39.99306 51.5019,-39.99306 0,0 -115.4537,-27.83005 -151.7318,33.42229 -23.9251,40.39537 13.6962,92.41207 123.337,106.10905 197.5549,24.67975 246.648,-140.91525 172.9612,-203.70971 -91.6411,-78.09489 -232.8183,-37.83083 -215.6205,-123.34463 5.7685,-28.68332 99.9607,-44.44781 129.7553,-5.3324 36.7539,48.25197 -27.5508,70.21003 -27.5508,70.21003 z"
         id="path4256"
         inkscape:connector-curvature="0"
         sodipodi:nodetypes="csssssscsssssc" />
      <path
         sodipodi:nodetypes="cssssscssssssc"
         inkscape:connector-curvature="0"
         id="path4325"
         d="m -495.9139,-14.119309 c 0,0 -16.78097,76.298735 -11.55355,133.310189 4.7073,51.33891 11.488,66.1408 -4.44368,68.43256 -33.69581,4.84712 -12.32523,-8.73337 -63.10015,-66.65509 -34.28612,-39.112046 -115.72881,-72.236548 -176.85818,-51.546607 -115.5355,39.104327 -134.74382,345.064087 21.32962,390.154487 193.74183,55.973 186.63427,-122.64538 230.18227,-101.31575 6.66551,16.88596 11.16314,54.18442 -41.98034,104.58056 -38.21393,36.2384 -86.42532,70.70581 -186.42446,66.94522 -230.59533,-8.67181 -261.5464,-238.94876 -241.73581,-322.61065 19.01267,-80.29222 104.21167,-180.148011 206.18643,-189.300473 109.04406,-9.7869476 151.73533,15.017005 191.07794,33.771914 6.13102,2.922703 25.7733,-55.1015445 53.32407,-64.877625 19.26407,-6.835639 23.99584,-0.888735 23.99584,-0.888735 z"
         style="display:inline;fill:#9b201e;fill-opacity:1;fill-rule:evenodd;stroke:#000000;stroke-width:1px;stroke-linecap:butt;stroke-linejoin:miter;stroke-opacity:1" />
      <path
         style="display:inline;fill:#9b201e;fill-opacity:1;fill-rule:evenodd;stroke:#000000;stroke-width:1px;stroke-linecap:butt;stroke-linejoin:miter;stroke-opacity:1"
         d="m 193.74413,817.73626 c 0,0 -16.78097,76.29873 -11.55355,133.31018 4.7073,51.33896 11.488,66.14076 -4.44368,68.43256 -33.69581,4.8471 -12.32523,-8.7334 -63.10015,-66.65509 -34.286118,-39.11204 -115.7288075,-72.23654 -176.858178,-51.5466 -115.535502,39.10432 -134.743822,345.06409 21.32962,390.15449 193.741828,55.973 186.634268,-122.6454 230.182268,-101.3158 6.66551,16.886 11.16314,54.1845 -41.98034,104.5806 -38.21393,36.2384 -86.425318,70.7058 -186.424458,66.9452 -230.595332,-8.6718 -261.546402,-238.9487 -241.735812,-322.6106 19.01267,-80.29225 104.21167,-180.14804 206.186432,-189.3005 109.04406,-9.78695 151.73533,15.01701 191.077938,33.77192 6.13102,2.9227 25.7733,-55.10155 53.32407,-64.87763 19.26407,-6.83564 23.99584,-0.88873 23.99584,-0.88873 z"
         id="path4259"
         inkscape:connector-curvature="0"
         sodipodi:nodetypes="cssssscssssssc" />
      <path
         id="path4276"
         transform="translate(-867.40495,858.5176)"
         style="display:inline;fill:#9b201e;fill-opacity:1;fill-rule:evenodd;stroke:#000000;stroke-width:1px;stroke-linecap:butt;stroke-linejoin:miter;stroke-opacity:1"
         d="m 1285.999,192.95585 c 0,0 -57.6409,9.61052 -61.3227,-9.77608 -5.5034,-28.97861 32.7306,-37.61331 75.5424,-38.21559 47.7725,-0.67206 46.9252,43.33973 47.1029,60.43396 0.476,45.79374 -78.7784,37.12653 -172.4145,92.42839 -42.7333,31.42151 -70.1898,53.23757 -52.4353,127.17838 26.6733,111.08427 162.5622,94.60514 237.6603,31.06104 10.0973,-8.54383 15.9786,26.61738 35.46,32.90168 23.8803,10.05489 66.5024,17.96728 95.7045,-8.9505 39.5989,-36.50128 32.8832,-72.87624 32.8832,-72.87624 -8.1696,0 -27.1194,39.23064 -47.8576,22.89146 0,0 -18.2769,-18.94224 -12.8367,-102.06284 3.5483,-54.21325 -9.5157,-149.23341 -9.5157,-149.23341 -8.1696,-27.65093 -52.2644,-74.69837 -140.2861,-77.47239 -66.6279,-2.099796 -146.5329,3.83365 -177.8809,61.47517 -9.7125,17.85895 -8.5644,104.93326 64.8776,105.75941 84.419,0.94963 85.3186,-75.54244 85.3186,-75.54244 z m 65.0932,73.54933 c -15.0823,0.62843 -87.3444,31.84646 -105.975,53.53972 -34.448,40.11079 -36.0228,78.06713 -10.2521,110.50806 35.5539,44.75627 119.0099,22.98302 119.0012,-69.23199 -0.01,-74.12796 -2.7741,-94.81579 -2.7741,-94.81579 z"
         inkscape:connector-curvature="0" />
      <g
         id="g4295"
         style="display:inline;fill:#9b201e;fill-opacity:1">
        <g
           id="g4282"
           style="fill:#9b201e;fill-opacity:1" />
        <g
           id="g4265"
           style="fill:#9b201e;fill-opacity:1">
          <path
             id="path4337"
             style="fill:#9b201e;fill-opacity:1;fill-rule:evenodd;stroke:#000000;stroke-width:1px;stroke-linecap:butt;stroke-linejoin:miter;stroke-opacity:1"
             d="m 1351.0922,266.50518 c -15.0823,0.62843 -87.3444,31.84646 -105.975,53.53972 -34.448,40.11079 -36.0228,78.06713 -10.2521,110.50806 35.5539,44.75627 119.0099,22.98302 119.0012,-69.23199 -0.01,-74.12796 -2.7741,-94.81579 -2.7741,-94.81579 z m -65.0932,-73.54933 c 0,0 -57.6409,9.61052 -61.3227,-9.77608 -5.5034,-28.97861 32.7306,-37.61331 75.5424,-38.21559 47.7725,-0.67206 46.9252,43.33973 47.1029,60.43396 0.476,45.79374 -78.7784,37.12653 -172.4145,92.42839 -42.7333,31.42151 -70.1898,53.23757 -52.4353,127.17838 26.6733,111.08427 162.5622,94.60514 237.6603,31.06104 10.0973,-8.54383 15.9786,26.61738 35.46,32.90168 23.8803,10.05489 66.5024,17.96728 95.7045,-8.9505 39.5989,-36.50128 32.8832,-72.87624 32.8832,-72.87624 -8.1696,0 -27.1194,39.23064 -47.8576,22.89146 0,0 -18.2769,-18.94224 -12.8367,-102.06284 3.5483,-54.21325 -9.5157,-149.23341 -9.5157,-149.23341 -8.1696,-27.65093 -52.2644,-74.69837 -140.2861,-77.47239 -66.6279,-2.099796 -146.5329,3.83365 -177.8809,61.47517 -9.7125,17.85895 -8.5644,104.93326 64.8776,105.75941 84.419,0.94963 85.3186,-75.54244 85.3186,-75.54244 z"
             inkscape:connector-curvature="0" />
        </g>
        <g
           id="g4272"
           transform="translate(-867.40495,858.5176)"
           style="fill:#9b201e;fill-opacity:1" />
      </g>
    </g>
  </g>
</svg>
