<?xml version="1.0" encoding="UTF-8" standalone="no"?>
<!-- Created with Inkscape (http://www.inkscape.org/) -->

<svg
   xmlns:dc="http://purl.org/dc/elements/1.1/"
   xmlns:cc="http://creativecommons.org/ns#"
   xmlns:rdf="http://www.w3.org/1999/02/22-rdf-syntax-ns#"
   xmlns:svg="http://www.w3.org/2000/svg"
   xmlns="http://www.w3.org/2000/svg"
   xmlns:sodipodi="http://sodipodi.sourceforge.net/DTD/sodipodi-0.dtd"
   xmlns:inkscape="http://www.inkscape.org/namespaces/inkscape"
   width="104.53918mm"
   height="27.218479mm"
   viewBox="0 0 370.41443 96.44343"
   id="svg4309"
   version="1.1"
   inkscape:version="0.91 r13725"
   sodipodi:docname="logo.svg">
  <defs
     id="defs4311">
    <inkscape:path-effect
       bendpath3-nodetypes="cc"
       bendpath1-nodetypes="cc"
       bendpath4="m 205.44917,333.13898 0,36.69433"
       bendpath3="m 205.44917,369.83331 c 92.48711,-7.01336 183.03219,-6.7441 271.85064,0"
       bendpath2="m 477.29981,333.13898 0,36.69433"
       bendpath1="m 205.44917,333.13898 c 89.32179,3.44183 179.77907,3.8904 271.85064,0"
       xx="true"
       yy="true"
       is_visible="true"
       id="path-effect6750"
       effect="envelope" />
    <inkscape:path-effect
       effect="envelope"
       id="path-effect6612"
       is_visible="true"
       yy="true"
       xx="true"
       bendpath1="m 205.44917,333.13898 c 89.32179,3.44183 179.77907,3.8904 271.85064,0"
       bendpath2="m 477.29981,333.13898 0,36.69433"
       bendpath3="m 205.44917,369.83331 c 92.48711,-7.01336 183.03219,-6.7441 271.85064,0"
       bendpath4="m 205.44917,333.13898 0,36.69433"
       bendpath1-nodetypes="cc"
       bendpath3-nodetypes="cc" />
    <inkscape:path-effect
       effect="bend_path"
       id="path-effect6610"
       is_visible="true"
       bendpath="m 205.44917,351.48614 271.85064,0"
       prop_scale="1"
       scale_y_rel="false"
       vertical="false" />
    <inkscape:path-effect
       effect="bend_path"
       id="path-effect6608"
       is_visible="true"
       bendpath="m 205.44917,351.48614 271.85064,0"
       prop_scale="1"
       scale_y_rel="false"
       vertical="false" />
    <inkscape:path-effect
       effect="envelope"
       id="path-effect6606"
       is_visible="true"
       yy="true"
       xx="true"
       bendpath1="m 205.44917,333.13898 271.85064,0"
       bendpath2="m 477.29981,333.13898 0,36.69433"
       bendpath3="m 205.44917,369.83331 271.85064,0"
       bendpath4="m 205.44917,333.13898 0,36.69433" />
    <inkscape:path-effect
       effect="envelope"
       id="path-effect5057"
       is_visible="true"
       yy="true"
       xx="true"
       bendpath1="m 210.67862,341.60659 c 91.87907,6.31097 182.33936,5.52804 271.85064,0"
       bendpath2="m 483.41799,346.939 0,36.69433"
       bendpath3="m 211.56735,383.63333 271.85064,0"
       bendpath4="m 211.56735,346.939 0,36.69433"
       bendpath1-nodetypes="cc" />
    <inkscape:path-effect
       effect="bend_path"
       id="path-effect5055"
       is_visible="true"
       bendpath="m 211.56735,365.28616 271.85064,0"
       prop_scale="1"
       scale_y_rel="false"
       vertical="false" />
    <inkscape:path-effect
       effect="envelope"
       id="path-effect5053"
       is_visible="true"
       yy="true"
       xx="true"
       bendpath1="m 211.56735,346.939 271.85064,0"
       bendpath2="m 483.41799,346.939 0,36.69433"
       bendpath3="m 211.56735,383.63333 271.85064,0"
       bendpath4="m 211.56735,346.939 0,36.69433"
       bendpath1-nodetypes="cc" />
    <filter
       inkscape:collect="always"
       style="color-interpolation-filters:sRGB"
       id="filter4943"
       x="-0.0034291409"
       width="1.0068583"
       y="-0.023972128"
       height="1.0479443">
      <feGaussianBlur
         inkscape:collect="always"
         stdDeviation="0.43459119"
         id="feGaussianBlur4945" />
    </filter>
  </defs>
  <sodipodi:namedview
     id="base"
     pagecolor="#ffffff"
     bordercolor="#666666"
     borderopacity="1.0"
     inkscape:pageopacity="0.0"
     inkscape:pageshadow="2"
     inkscape:zoom="2.9072853"
     inkscape:cx="195.43716"
     inkscape:cy="67.929022"
     inkscape:document-units="px"
     inkscape:current-layer="layer6"
     showgrid="false"
     inkscape:window-width="1680"
     inkscape:window-height="1001"
     inkscape:window-x="0"
     inkscape:window-y="0"
     inkscape:window-maximized="1"
     fit-margin-top="0"
     fit-margin-left="0"
     fit-margin-right="0"
     fit-margin-bottom="0" />
  <metadata
     id="metadata4314">
    <rdf:RDF>
      <cc:Work
         rdf:about="">
        <dc:format>image/svg+xml</dc:format>
        <dc:type
           rdf:resource="http://purl.org/dc/dcmitype/StillImage" />
        <dc:title />
      </cc:Work>
    </rdf:RDF>
  </metadata>
  <g
     inkscape:groupmode="layer"
     id="layer8"
     inkscape:label="oraange"
     transform="translate(-156.58569,-325.52803)"
     sodipodi:insensitive="true">
    <path
       style="fill:#fd6b30;fill-opacity:1;fill-rule:evenodd;stroke:#fd6b30;stroke-width:1px;stroke-linecap:butt;stroke-linejoin:miter;stroke-opacity:1;filter:url(#filter4943)"
       d="m 156.88159,420.84984 369.96877,0 0,-32.11127 C 424.28568,378.56542 270.1053,371.59598 156.53757,390.24585 Z"
       id="path4925"
       inkscape:connector-curvature="0"
       sodipodi:nodetypes="ccccc"
       transform="matrix(0.99983237,0,0,1.0496577,0.05642713,-19.76584)" />
  </g>
  <g
     inkscape:groupmode="layer"
     id="layer6"
     inkscape:label="logo back"
     transform="translate(-156.58569,-325.52803)">
    <g
       style="font-style:normal;font-variant:normal;font-weight:normal;font-stretch:normal;font-size:51.70339966px;line-height:257.99999237%;font-family:'Droid Sans';-inkscape-font-specification:'Droid Sans';letter-spacing:0px;word-spacing:0px;display:inline;fill:#ffffff;fill-opacity:1;stroke:none;stroke-width:0.73400003;stroke-linecap:butt;stroke-linejoin:miter;stroke-miterlimit:4;stroke-dasharray:none;stroke-opacity:1"
       id="g6688"
       transform="matrix(1.0824068,0,0,1.0824068,-21.695801,-34.219828)">
      <path
         d="m 238.23316,419.07569 0.75737,-1.94393 q 2.24688,0.98459 4.92294,0.98459 3.2567,0 5.93276,-2.17114 1.56524,-1.23705 2.62556,-2.77704 1.08557,-1.53999 2.29737,-4.1908 l 0.20197,-0.40394 q -2.09541,-1.33802 -3.10524,-3.63539 -0.98458,-2.32262 -0.98458,-5.75604 0,-2.37311 0.73212,-5.09966 0.73213,-2.75179 2.01967,-5.12489 1.08557,-2.12065 2.34786,-3.3072 1.26229,-1.2118 2.3731,-1.2118 1.51475,0 2.32262,1.8177 0.80786,1.81769 0.80786,5.17539 0,2.54982 -0.58065,5.6803 -0.55541,3.10523 -1.59049,6.23571 -1.03507,3.13048 -2.17113,5.22588 0.73212,0.27771 1.53999,0.27771 0.80786,0 1.69147,-0.27771 l -0.22721,0.68164 q -0.6564,0.20197 -1.61574,0.20197 -0.98458,0 -1.81769,-0.20197 -2.04491,3.48392 -4.44326,5.75604 -2.37311,2.24688 -5.20064,3.33245 -2.80228,1.08557 -6.15997,1.08557 -1.61574,0 -2.67606,-0.35344 z m 17.11665,-11.31012 q 0.95934,-2.17114 1.86819,-5.70555 0.95934,-3.61015 1.61573,-7.39702 0.65639,-3.81212 0.65639,-5.83178 0,-1.71672 -0.40393,-2.65081 -0.40393,-0.9341 -1.2118,-0.9341 -1.1613,0 -2.3731,2.29737 -1.18655,2.27212 -1.96917,5.85703 -0.75738,3.5849 -0.75738,6.99308 0,5.57933 2.57507,7.37178 z"
         style="font-style:normal;font-variant:normal;font-weight:normal;font-stretch:normal;font-family:'Savoye LET';-inkscape-font-specification:'Savoye LET';fill:#ffffff;stroke:none;stroke-width:0.73400003;stroke-linejoin:miter;stroke-miterlimit:4;stroke-dasharray:none"
         id="path6690"
         inkscape:connector-curvature="0" />
      <path
         d="m 261.53503,418.72225 2.67606,-13.98618 2.39835,-1.03508 -2.17114,9.26521 q 2.0954,-4.41801 4.16556,-6.71538 2.07015,-2.29737 3.96359,-2.29737 0.93409,0 1.51475,0.63115 0.58065,0.6059 0.58065,1.64097 0,0.58066 -0.2777,1.64098 l -0.25246,1.06032 -0.75738,3.07999 -0.25245,0.98459 q -0.37869,1.51475 -0.37869,2.32261 0,0.80787 0.2777,1.31278 0.27771,0.47967 0.73213,0.47967 0.78262,0 2.49934,-1.86818 l 0.40393,0.35344 -0.25246,0.2777 q -1.43901,1.69147 -2.12065,2.29737 -0.68163,0.58065 -1.26229,0.58065 -0.78262,0 -1.33802,-0.78262 -0.53017,-0.80786 -0.53017,-1.99442 0,-0.80786 0.30295,-2.39835 l 0.98459,-5.35211 q 0.20197,-1.26229 0.20197,-1.7672 0,-0.53017 -0.27771,-0.80787 -0.2777,-0.2777 -0.75737,-0.2777 -1.74196,0 -4.29179,3.73638 -1.23704,1.79245 -2.04491,3.55965 -0.80786,1.74196 -1.8177,4.8472 l -0.22721,0.68163 -1.69147,0.53017 z"
         style="font-style:normal;font-variant:normal;font-weight:normal;font-stretch:normal;font-family:'Savoye LET';-inkscape-font-specification:'Savoye LET';fill:#ffffff;stroke:none;stroke-width:0.73400003;stroke-linejoin:miter;stroke-miterlimit:4;stroke-dasharray:none"
         id="path6692"
         inkscape:connector-curvature="0" />
      <path
         d="m 296.37424,382.89845 -6.69014,29.10841 q -0.53016,2.32262 -0.53016,3.23147 0,0.80786 0.2777,1.31278 0.30295,0.50491 0.80787,0.50491 0.65639,0 1.59049,-0.98458 l 0.73212,-0.73213 q 0.0253,-0.0253 0.0505,-0.0505 0.0252,-0.0252 0.0757,-0.0505 l 0.37869,0.35344 -0.20197,0.22721 q -0.95934,1.06032 -0.98458,1.08557 l -0.83311,0.83311 q -0.63115,0.63114 -0.9341,0.78262 -0.2777,0.17672 -0.63114,0.17672 -0.83312,0 -1.38852,-0.85836 -0.55541,-0.85835 -0.55541,-1.96917 0,-0.65639 0.35344,-2.39835 l 0.2777,-1.43901 q -0.65639,1.59048 -2.07015,3.45867 -2.54983,3.28196 -4.94818,3.28196 -1.43901,0 -2.27212,-1.03508 -0.83311,-1.06032 -0.83311,-2.85278 0,-2.49933 1.31278,-5.04916 1.31278,-2.57507 3.33245,-4.24129 2.04491,-1.66622 4.06457,-1.66622 1.4895,0 2.77704,0.8836 l 4.11506,-20.62582 2.72655,-1.28754 z m -7.06882,23.17565 q -0.22722,-0.68164 -0.9341,-1.08557 -0.70688,-0.42918 -1.51475,-0.42918 -1.18655,0 -2.44884,1.06033 -1.23704,1.06032 -2.34786,3.00425 -0.80787,1.43901 -1.33803,3.15572 -0.50491,1.69147 -0.50491,3.07999 0,1.2118 0.50491,1.94392 0.53016,0.73213 1.43901,0.73213 1.06033,0 2.27213,-1.08557 1.23704,-1.08557 2.47408,-3.13048 0.83312,-1.38851 1.31279,-2.87802 0.58065,-1.91868 0.83311,-3.07998 l 0.25246,-1.28754 z"
         style="font-style:normal;font-variant:normal;font-weight:normal;font-stretch:normal;font-family:'Savoye LET';-inkscape-font-specification:'Savoye LET';fill:#ffffff;stroke:none;stroke-width:0.73400003;stroke-linejoin:miter;stroke-miterlimit:4;stroke-dasharray:none"
         id="path6694"
         inkscape:connector-curvature="0" />
      <path
         d="m 300.28734,393.80464 q 0.65639,0 1.06032,0.40393 0.40394,0.40394 0.40394,1.06033 0,0.63114 -0.42918,1.06032 -0.42918,0.42918 -1.03508,0.42918 -0.58065,0 -1.03508,-0.45443 -0.45442,-0.45442 -0.45442,-1.03507 0,-0.6059 0.42918,-1.03508 0.42917,-0.42918 1.06032,-0.42918 z m -0.73213,9.89635 -2.22163,8.30587 q -0.55541,2.04491 -0.55541,3.28196 0,0.80786 0.27771,1.31278 0.2777,0.50491 0.73212,0.50491 0.78262,0 2.49934,-1.86818 l 0.40393,0.35344 -0.25246,0.2777 q -1.43901,1.69147 -2.12064,2.29737 -0.68164,0.58065 -1.26229,0.58065 -0.78262,0 -1.33803,-0.78262 -0.53016,-0.80786 -0.53016,-1.99442 0,-0.75737 0.30295,-2.39835 l 1.59048,-8.83603 2.47409,-1.03508 z"
         style="font-style:normal;font-variant:normal;font-weight:normal;font-stretch:normal;font-family:'Savoye LET';-inkscape-font-specification:'Savoye LET';fill:#ffffff;stroke:none;stroke-width:0.73400003;stroke-linejoin:miter;stroke-miterlimit:4;stroke-dasharray:none"
         id="path6696"
         inkscape:connector-curvature="0" />
      <path
         d="m 316.21744,403.54952 -2.37311,9.23996 q -0.37868,1.51475 -0.37868,2.37311 0,0.75737 0.32819,1.31278 0.3282,0.55541 0.80787,0.55541 0.73212,0 2.42359,-1.79245 l 0.35344,0.35344 -0.2777,0.32819 q -1.33803,1.54 -2.07016,2.17114 -0.70688,0.6059 -1.23704,0.6059 -0.80787,0 -1.41376,-0.83311 -0.58066,-0.85836 -0.58066,-1.96917 0,-0.80787 0.6059,-3.66065 l 0.20197,-0.95934 q -0.9341,2.17114 -2.49934,4.16556 -2.62556,3.33245 -5.02391,3.33245 -1.43901,0 -2.27212,-1.03508 -0.83311,-1.03508 -0.83311,-2.77704 0,-2.3731 1.33802,-4.97342 1.36328,-2.60032 3.35769,-4.26654 2.01967,-1.69147 3.9131,-1.69147 1.99442,0 2.97901,1.46426 l 0.2777,-0.95934 2.37311,-0.98459 z m -2.90327,3.23146 q -0.30295,-0.95934 -1.03508,-1.4895 -0.70688,-0.55541 -1.64097,-0.55541 -1.11082,0 -2.34786,1.03508 -1.23705,1.00983 -2.27213,2.82753 -0.80786,1.43901 -1.36327,3.18097 -0.53016,1.74196 -0.53016,2.87802 0,1.28754 0.47967,2.01967 0.50492,0.73212 1.41376,0.73212 1.16131,0 2.4236,-1.08557 1.26229,-1.08556 2.49933,-3.10523 0.75738,-1.16131 1.18656,-2.32261 0.42918,-1.16131 0.95934,-3.23147 l 0.22721,-0.8836 z"
         style="font-style:normal;font-variant:normal;font-weight:normal;font-stretch:normal;font-family:'Savoye LET';-inkscape-font-specification:'Savoye LET';fill:#ffffff;stroke:none;stroke-width:0.73400003;stroke-linejoin:miter;stroke-miterlimit:4;stroke-dasharray:none"
         id="path6698"
         inkscape:connector-curvature="0" />
      <path
         d="m 319.09546,418.72225 2.67605,-13.98618 2.39835,-1.03508 -2.17114,9.26521 q 2.09541,-4.41801 4.16556,-6.71538 2.07016,-2.29737 3.96359,-2.29737 0.9341,0 1.51475,0.63115 0.58065,0.6059 0.58065,1.64097 0,0.58066 -0.2777,1.64098 l -0.25246,1.06032 -0.75737,3.07999 -0.25246,0.98459 q -0.37869,1.51475 -0.37869,2.32261 0,0.80787 0.27771,1.31278 0.2777,0.47967 0.73212,0.47967 0.78262,0 2.49934,-1.86818 l 0.40393,0.35344 -0.25246,0.2777 q -1.43901,1.69147 -2.12064,2.29737 -0.68164,0.58065 -1.26229,0.58065 -0.78262,0 -1.33803,-0.78262 -0.53016,-0.80786 -0.53016,-1.99442 0,-0.80786 0.30295,-2.39835 l 0.98458,-5.35211 q 0.20197,-1.26229 0.20197,-1.7672 0,-0.53017 -0.2777,-0.80787 -0.27771,-0.2777 -0.75738,-0.2777 -1.74196,0 -4.29178,3.73638 -1.23705,1.79245 -2.04491,3.55965 -0.80787,1.74196 -1.8177,4.8472 l -0.22721,0.68163 -1.69147,0.53017 z"
         style="font-style:normal;font-variant:normal;font-weight:normal;font-stretch:normal;font-family:'Savoye LET';-inkscape-font-specification:'Savoye LET';fill:#ffffff;stroke:none;stroke-width:0.73400003;stroke-linejoin:miter;stroke-miterlimit:4;stroke-dasharray:none"
         id="path6700"
         inkscape:connector-curvature="0" />
      <path
         d="m 359.84218,398.60134 -0.70688,-1.91868 q 2.34786,-0.68163 4.44326,-2.0954 2.0954,-1.41376 3.28195,-3.13048 1.2118,-1.71671 1.2118,-3.38294 0,-1.23704 -0.80787,-1.94392 -0.78262,-0.70689 -2.12064,-0.70689 -1.59049,0 -3.48392,0.83312 -1.89344,0.83311 -3.76163,2.32261 -1.84294,1.4895 -3.53441,3.5849 -1.84294,2.29737 -3.07999,4.79671 -1.23704,2.49933 -1.86819,5.09965 -0.63114,2.57507 -0.63114,5.35211 0,4.72096 2.17114,7.498 2.17114,2.75179 5.93276,2.75179 2.4236,0 4.69572,-1.08557 2.29737,-1.08557 5.25113,-3.63539 l 0.40393,-0.3282 0.30295,0.55541 q -3.00425,2.979 -6.03375,4.46851 -3.02949,1.4895 -6.10948,1.4895 -2.77704,0 -4.94818,-1.31278 -2.14589,-1.33803 -3.33244,-3.71114 -1.16131,-2.39835 -1.16131,-5.60456 0,-2.32262 0.68164,-4.8472 0.68163,-2.52458 2.01966,-5.09965 1.36327,-2.60032 3.20622,-5.02391 1.94392,-2.57508 4.31703,-4.59474 2.3731,-2.04491 4.74621,-3.15572 2.39835,-1.11082 4.29178,-1.11082 1.79246,0 2.85278,1.03508 1.08557,1.00983 1.08557,2.75179 0,1.94393 -1.28754,4.06457 -1.28753,2.09541 -3.43342,3.76163 -2.1459,1.64098 -4.59474,2.32261 z"
         style="font-style:normal;font-variant:normal;font-weight:normal;font-stretch:normal;font-family:'Savoye LET';-inkscape-font-specification:'Savoye LET';fill:#ffffff;stroke:none;stroke-width:0.73400003;stroke-linejoin:miter;stroke-miterlimit:4;stroke-dasharray:none"
         id="path6702"
         inkscape:connector-curvature="0" />
      <path
         d="m 374.66146,403.70099 -2.44884,9.77013 q -0.3282,1.31278 -0.3282,2.22163 0,0.8836 0.55541,1.41376 0.55541,0.53017 1.43901,0.53017 2.14589,0 4.46851,-3.50917 l 0.10098,-0.15147 q 0.0505,-0.25246 0.0757,-0.40394 l 1.59048,-8.83603 2.47409,-1.03508 -2.22163,8.30587 q -0.55541,2.04491 -0.55541,3.28196 0,0.80786 0.27771,1.31278 0.2777,0.50491 0.73213,0.50491 0.78262,0 2.49933,-1.86818 l 0.40393,0.35344 -0.25245,0.2777 q -1.43901,1.69147 -2.12065,2.29737 -0.68164,0.58065 -1.26229,0.58065 -0.78262,0 -1.33803,-0.78262 -0.53016,-0.80786 -0.53016,-1.99442 0,-0.37868 0.0253,-0.70688 -2.62557,3.48392 -5.20064,3.48392 -1.28754,0 -2.07016,-0.73213 -0.75737,-0.75737 -0.75737,-1.99442 0,-0.95934 0.2777,-2.34785 l 1.71672,-8.93702 2.44884,-1.03508 z"
         style="font-style:normal;font-variant:normal;font-weight:normal;font-stretch:normal;font-family:'Savoye LET';-inkscape-font-specification:'Savoye LET';fill:#ffffff;stroke:none;stroke-width:0.73400003;stroke-linejoin:miter;stroke-miterlimit:4;stroke-dasharray:none"
         id="path6704"
         inkscape:connector-curvature="0" />
      <path
         d="m 390.86927,393.80464 q 0.6564,0 1.06033,0.40393 0.40393,0.40394 0.40393,1.06033 0,0.63114 -0.42918,1.06032 -0.42918,0.42918 -1.03508,0.42918 -0.58065,0 -1.03507,-0.45443 -0.45443,-0.45442 -0.45443,-1.03507 0,-0.6059 0.42918,-1.03508 0.42918,-0.42918 1.06032,-0.42918 z m -0.73212,9.89635 -2.22163,8.30587 q -0.55541,2.04491 -0.55541,3.28196 0,0.80786 0.2777,1.31278 0.27771,0.50491 0.73213,0.50491 0.78262,0 2.49933,-1.86818 l 0.40394,0.35344 -0.25246,0.2777 q -1.43901,1.69147 -2.12065,2.29737 -0.68163,0.58065 -1.26229,0.58065 -0.78262,0 -1.33803,-0.78262 -0.53016,-0.80786 -0.53016,-1.99442 0,-0.75737 0.30295,-2.39835 l 1.59049,-8.83603 2.47409,-1.03508 z"
         style="font-style:normal;font-variant:normal;font-weight:normal;font-stretch:normal;font-family:'Savoye LET';-inkscape-font-specification:'Savoye LET';fill:#ffffff;stroke:none;stroke-width:0.73400003;stroke-linejoin:miter;stroke-miterlimit:4;stroke-dasharray:none"
         id="path6706"
         inkscape:connector-curvature="0" />
      <path
         d="m 391.17221,416.85406 1.41377,-1.66623 q 1.11082,2.62557 3.53441,2.62557 1.26229,0 2.14589,-0.80787 0.90885,-0.83311 0.90885,-1.91868 0,-0.78262 -0.42917,-1.33803 -0.42918,-0.5554 -2.04491,-1.86819 -1.48951,-1.21179 -2.01967,-1.89343 -0.50491,-0.70688 -0.50491,-1.61573 0,-1.18656 0.68163,-2.19639 0.70688,-1.00983 1.86819,-1.61573 1.16131,-0.63114 2.44884,-0.63114 1.13606,0 1.89344,0.58065 0.78262,0.55541 0.78262,1.43901 0,1.16131 -0.98459,1.59049 -0.15147,-1.18656 -0.90885,-1.84295 -0.73212,-0.68163 -1.89343,-0.68163 -1.03508,0 -1.8177,0.68163 -0.75737,0.65639 -0.75737,1.51475 0,1.06032 1.31278,2.0954 l 1.46425,1.18655 q 2.1459,1.69147 2.1459,3.45868 0,1.31278 -0.75738,2.47409 -0.73212,1.13606 -2.01966,1.8177 -1.26229,0.68163 -2.67605,0.68163 -2.24688,0 -3.78688,-2.07015 z"
         style="font-style:normal;font-variant:normal;font-weight:normal;font-stretch:normal;font-family:'Savoye LET';-inkscape-font-specification:'Savoye LET';fill:#ffffff;stroke:none;stroke-width:0.73400003;stroke-linejoin:miter;stroke-miterlimit:4;stroke-dasharray:none"
         id="path6708"
         inkscape:connector-curvature="0" />
      <path
         d="m 409.34919,393.80464 q 0.65639,0 1.06033,0.40393 0.40393,0.40394 0.40393,1.06033 0,0.63114 -0.42918,1.06032 -0.42918,0.42918 -1.03508,0.42918 -0.58065,0 -1.03507,-0.45443 -0.45443,-0.45442 -0.45443,-1.03507 0,-0.6059 0.42918,-1.03508 0.42918,-0.42918 1.06032,-0.42918 z m -0.73212,9.89635 -2.22163,8.30587 q -0.55541,2.04491 -0.55541,3.28196 0,0.80786 0.2777,1.31278 0.27771,0.50491 0.73213,0.50491 0.78262,0 2.49933,-1.86818 l 0.40394,0.35344 -0.25246,0.2777 q -1.43901,1.69147 -2.12065,2.29737 -0.68164,0.58065 -1.26229,0.58065 -0.78262,0 -1.33803,-0.78262 -0.53016,-0.80786 -0.53016,-1.99442 0,-0.75737 0.30295,-2.39835 l 1.59049,-8.83603 2.47409,-1.03508 z"
         style="font-style:normal;font-variant:normal;font-weight:normal;font-stretch:normal;font-family:'Savoye LET';-inkscape-font-specification:'Savoye LET';fill:#ffffff;stroke:none;stroke-width:0.73400003;stroke-linejoin:miter;stroke-miterlimit:4;stroke-dasharray:none"
         id="path6710"
         inkscape:connector-curvature="0" />
      <path
         d="m 411.29313,418.72225 2.67605,-13.98618 2.39835,-1.03508 -2.17114,9.26521 q 2.09541,-4.41801 4.16556,-6.71538 2.07016,-2.29737 3.96359,-2.29737 0.9341,0 1.51475,0.63115 0.58065,0.6059 0.58065,1.64097 0,0.58066 -0.2777,1.64098 l -0.25246,1.06032 -0.75737,3.07999 -0.25246,0.98459 q -0.37869,1.51475 -0.37869,2.32261 0,0.80787 0.27771,1.31278 0.2777,0.47967 0.73212,0.47967 0.78262,0 2.49934,-1.86818 l 0.40393,0.35344 -0.25246,0.2777 q -1.43901,1.69147 -2.12064,2.29737 -0.68164,0.58065 -1.26229,0.58065 -0.78262,0 -1.33803,-0.78262 -0.53016,-0.80786 -0.53016,-1.99442 0,-0.80786 0.30295,-2.39835 l 0.98458,-5.35211 q 0.20197,-1.26229 0.20197,-1.7672 0,-0.53017 -0.2777,-0.80787 -0.27771,-0.2777 -0.75738,-0.2777 -1.74196,0 -4.29178,3.73638 -1.23705,1.79245 -2.04491,3.55965 -0.80787,1.74196 -1.8177,4.8472 l -0.22721,0.68163 -1.69147,0.53017 z"
         style="font-style:normal;font-variant:normal;font-weight:normal;font-stretch:normal;font-family:'Savoye LET';-inkscape-font-specification:'Savoye LET';fill:#ffffff;stroke:none;stroke-width:0.73400003;stroke-linejoin:miter;stroke-miterlimit:4;stroke-dasharray:none"
         id="path6712"
         inkscape:connector-curvature="0" />
      <path
         d="m 438.12942,414.55669 0.45442,0.37869 q -1.56524,2.07015 -3.05474,3.00425 -1.4895,0.90884 -3.20622,0.90884 -2.04491,0 -3.28195,-1.36327 -1.23705,-1.36327 -1.23705,-3.61015 0,-2.27212 1.18656,-4.59473 1.21179,-2.34786 3.00425,-3.86261 1.81769,-1.54 3.5849,-1.54 1.03508,0 1.69147,0.6059 0.68163,0.6059 0.68163,1.56524 0,1.94393 -2.12064,3.88786 -2.12065,1.94392 -5.78129,3.3072 -0.0253,0.20196 -0.0253,0.45442 0,1.74196 0.95934,2.85278 0.95934,1.08557 2.47409,1.08557 1.18655,0 2.29737,-0.73213 1.11082,-0.75738 2.37311,-2.34786 z m -8.07866,-1.91868 q 2.72655,-1.2118 4.1908,-2.7013 0.98459,-1.00984 1.59049,-2.17114 0.6059,-1.16131 0.6059,-2.0954 0,-1.18656 -1.08557,-1.18656 -1.64098,0 -3.33245,2.60032 -1.66622,2.57507 -1.96917,5.55408 z"
         style="font-style:normal;font-variant:normal;font-weight:normal;font-stretch:normal;font-family:'Savoye LET';-inkscape-font-specification:'Savoye LET';fill:#ffffff;stroke:none;stroke-width:0.73400003;stroke-linejoin:miter;stroke-miterlimit:4;stroke-dasharray:none"
         id="path6714"
         inkscape:connector-curvature="0" />
    </g>
    <g
       transform="translate(2.0000008,-3.21768e-6)"
       inkscape:path-effect="#path-effect6750"
       id="g6730"
       style="font-style:normal;font-variant:normal;font-weight:normal;font-stretch:normal;font-size:50px;line-height:257.99999237%;font-family:'Droid Sans';-inkscape-font-specification:'Droid Sans';letter-spacing:0px;word-spacing:0px;display:inline;fill:#000000;fill-opacity:1;stroke:none;stroke-width:1px;stroke-linecap:butt;stroke-linejoin:miter;stroke-opacity:1">
      <path
         inkscape:connector-curvature="0"
         inkscape:original-d="m 226.00581,369.34503 -20.55664,0 0,-35.69336 20.55664,0 0,6.20117 -12.98828,0 0,7.83692 12.08496,0 0,6.20117 -12.08496,0 0,9.2041 12.98828,0 0,6.25 z"
         id="path6732"
         style="font-style:normal;font-variant:normal;font-weight:bold;font-stretch:normal;font-family:'Droid Sans';-inkscape-font-specification:'Droid Sans Bold';fill:#000000;fill-opacity:1"
         d="m 225.73594,368.19373 c -6.82826,0.31167 -13.70756,0.59892 -20.53378,0.82577 0.0327,0.72894 0.0714,-36.43893 0.0316,-35.7046 6.83598,0.12664 13.71437,0.28476 20.55096,0.45642 -0.12255,1.8963 -0.16097,3.89374 -0.16894,5.87612 -4.31837,-0.0344 -8.64271,-0.0648 -12.95629,-0.0894 0.004,2.24313 0.0565,5.52926 0.0785,7.79675 3.99879,-0.002 8.01567,-0.007 12.02111,-0.0119 0.0153,2.13745 0.0202,4.02251 0.0112,6.15427 -4.00585,0.0231 -8.01766,0.0409 -12.01669,0.0511 0.10382,-19.27312 -0.19297,28.44511 -0.0934,9.12343 4.30981,-0.0644 8.63445,-0.14564 12.94926,-0.23744 -2.2e-4,1.95465 0.0245,3.91811 0.12638,5.75951 z" />
      <path
         inkscape:connector-curvature="0"
         inkscape:original-d="m 251.83589,333.65167 7.6416,0 -11.13281,35.69336 -8.25195,0 -11.1084,-35.69336 7.6416,0 6.05469,21.48438 q 0.12207,0.41504 0.31738,1.3916 0.21973,0.97656 0.43945,2.14844 0.24414,1.17187 0.46387,2.34375 0.21973,1.17187 0.3418,1.97754 0.12207,-0.80567 0.3418,-1.97754 0.21972,-1.17188 0.46386,-2.31934 0.24414,-1.17187 0.46387,-2.14844 0.24414,-0.97656 0.36621,-1.41601 l 5.95703,-21.48438 z"
         id="path6734"
         style="font-style:normal;font-variant:normal;font-weight:bold;font-stretch:normal;font-family:'Droid Sans';-inkscape-font-specification:'Droid Sans Bold';fill:#000000;fill-opacity:1"
         d="m 251.61136,334.46101 c 2.55104,0.0695 5.09039,0.13844 7.64159,0.20673 -1.25209,2.70162 -10.36576,29.94858 -11.19287,32.4473 -2.73409,0.13527 -5.51462,0.27313 -8.24806,0.40737 -1.53467,-3.43233 -9.82559,-29.1831 -11.0494,-33.67544 2.54496,0.0654 5.09513,0.13259 7.64022,0.20068 0.67612,2.72123 4.93777,17.26109 5.87743,20.52675 0.0803,0.26707 0.18344,0.71228 0.31033,1.33528 0.14339,0.62375 0.28491,1.3002 0.4278,2.03597 0.15901,0.73473 0.30974,1.45809 0.45501,2.17493 0.14466,0.71383 0.26017,1.31137 0.34336,1.78919 0.0794,-0.48528 0.19163,-1.08137 0.33939,-1.80331 0.14729,-0.71963 0.30504,-1.44328 0.47073,-2.16339 0.16556,-0.73446 0.32437,-1.41988 0.47311,-2.04095 0.1659,-0.62489 0.2887,-1.07658 0.37145,-1.36067 1.72352,-5.92741 4.12828,-15.15359 6.13991,-20.08044 z" />
      <path
         inkscape:connector-curvature="0"
         inkscape:original-d="m 284.50191,369.34503 -20.55664,0 0,-35.69336 20.55664,0 0,6.20117 -12.98828,0 0,7.83692 12.08496,0 0,6.20117 -12.08496,0 0,9.2041 12.98828,0 0,6.25 z"
         id="path6736"
         style="font-style:normal;font-variant:normal;font-weight:bold;font-stretch:normal;font-family:'Droid Sans';-inkscape-font-specification:'Droid Sans Bold';fill:#000000;fill-opacity:1"
         d="m 284.2241,365.45838 c -6.88454,0.27048 -13.68482,0.57309 -20.56528,0.89789 -0.18009,-2.9073 -0.1979,-27.78059 0.0621,-31.56997 6.87839,0.18071 13.6802,0.35029 20.55968,0.50311 -0.09,1.48578 -0.13292,3.16524 -0.15532,4.91476 -4.34688,-0.0384 -8.66648,-0.0791 -13.01036,-0.12145 -0.0285,2.17774 -0.0243,4.82195 -0.0218,7.17421 4.04289,-0.008 8.05419,-0.015 12.10119,-0.0217 7.4e-4,2.26142 0.001,3.51283 -0.001,5.75655 -4.04714,0.0345 -8.05713,0.0709 -12.09995,0.10861 -0.004,2.57684 -0.0178,5.94066 0.001,8.1783 4.3443,-0.11039 8.6626,-0.21565 13.01052,-0.31416 0.0143,1.64341 0.0454,3.18405 0.11891,4.4939 z" />
      <path
         inkscape:connector-curvature="0"
         inkscape:original-d="m 299.54097,349.4964 2.05078,0 q 3.14942,0 4.5166,-1.24512 1.36719,-1.26953 1.36719,-3.71094 0,-2.53906 -1.46484,-3.61328 -1.46485,-1.07422 -4.54102,-1.07422 l -1.92871,0 0,9.64356 z m 0,6.15234 0,13.69629 -7.56836,0 0,-35.69336 9.76563,0 q 6.86035,0 10.13183,2.66114 3.27149,2.63671 3.27149,8.03222 0,1.83106 -0.48829,3.32031 -0.48828,1.48926 -1.31835,2.66114 -0.80567,1.14746 -1.87989,2.02636 -1.0498,0.8545 -2.22168,1.44043 2.70996,4.34571 4.8584,7.76368 0.92774,1.46484 1.78223,2.85644 0.8789,1.3916 1.5625,2.49024 0.68359,1.09863 1.12304,1.75781 l 0.41504,0.68359 -8.39843,0 -7.73926,-13.69629 -3.2959,0 z"
         id="path6738"
         style="font-style:normal;font-variant:normal;font-weight:bold;font-stretch:normal;font-family:'Droid Sans';-inkscape-font-specification:'Droid Sans Bold';fill:#000000;fill-opacity:1"
         d="m 299.17491,348.86298 c 0.68559,-0.002 1.37115,-0.004 2.05683,-0.006 2.10623,-0.006 3.61612,-0.38848 4.53099,-1.14351 0.91494,-0.76984 1.37181,-1.88996 1.37446,-3.33074 0.003,-1.49523 -0.48185,-2.51671 -1.45689,-3.12205 -0.97223,-0.60359 -2.49276,-0.90707 -4.54629,-0.92138 -0.64469,-0.005 -1.2893,-0.009 -1.93395,-0.0137 -0.0273,2.46789 -0.0249,5.78909 -0.0251,8.53707 z m -0.003,5.57913 c -0.003,3.86843 -0.0129,7.97543 0.10463,10.48668 -2.52638,0.0777 -5.04992,0.16131 -7.57586,0.25045 -0.15124,-2.9063 -0.17186,-25.70877 0.0524,-29.73151 3.25786,0.0655 6.51056,0.12615 9.7686,0.18139 4.54683,0.0771 7.95218,0.7109 10.08174,2.02301 2.15582,1.31612 3.23231,3.40811 3.2267,6.57102 -0.002,1.06938 -0.16568,2.05861 -0.4928,2.9522 -0.32731,0.89413 -0.76794,1.69739 -1.32376,2.40613 -0.53948,0.69398 -1.16797,1.30609 -1.88713,1.83708 -0.70268,0.51618 -1.44573,0.95022 -2.23001,1.30382 1.84895,2.63523 3.39753,4.72745 4.87824,6.53752 0.62416,0.75722 1.2219,1.45962 1.8,2.11253 0.59418,0.65237 1.12183,1.19738 1.58712,1.65728 0.46229,0.45694 0.84939,0.80227 1.1469,1.04893 0.14181,0.12907 0.28378,0.25532 0.42591,0.37865 -2.80442,0.0487 -5.6057,0.10601 -8.40977,0.17163 -2.66846,-2.51192 -5.2702,-6.21104 -7.84695,-10.21385 -1.10219,0.009 -2.20395,0.0177 -3.30593,0.027 z" />
      <path
         inkscape:connector-curvature="0"
         inkscape:original-d="m 336.96773,349.30109 14.16015,0 0,18.50586 q -1.41601,0.46386 -2.85644,0.85449 -1.44043,0.36621 -3.00293,0.63476 -1.53809,0.24414 -3.24707,0.39063 -1.68457,0.14648 -3.58887,0.14648 -4.0039,0 -7.10449,-1.17187 -3.07617,-1.19629 -5.2002,-3.51563 -2.09961,-2.34375 -3.19824,-5.76172 -1.09863,-3.44238 -1.09863,-7.93457 0,-4.19921 1.2207,-7.59277 1.22071,-3.39355 3.58887,-5.76172 2.39258,-2.39258 5.85937,-3.66211 3.49122,-1.29394 7.9834,-1.29394 2.85645,0 5.59082,0.61035 2.73438,0.61035 5.00489,1.58691 l -2.51465,6.05469 q -1.66016,-0.83008 -3.75977,-1.3916 -2.07519,-0.56152 -4.37012,-0.56152 -2.49023,0 -4.49218,0.8789 -1.97754,0.85449 -3.39356,2.44141 -1.41601,1.58691 -2.17285,3.83301 -0.75684,2.24609 -0.75684,5.00488 0,2.63672 0.5127,4.83398 0.53711,2.17285 1.66016,3.75977 1.12304,1.58691 2.88086,2.46582 1.78222,0.8789 4.24804,0.8789 1.61133,0 2.70996,-0.14648 1.12305,-0.14648 2.09961,-0.3418 l 0,-7.44629 -6.76269,0 0,-6.29882 z"
         id="path6740"
         style="font-style:normal;font-variant:normal;font-weight:bold;font-stretch:normal;font-family:'Droid Sans';-inkscape-font-specification:'Droid Sans Bold';fill:#000000;fill-opacity:1"
         d="m 336.7401,348.63122 c 4.74624,-3.7e-4 9.47338,0.002 14.21948,0.006 -1.2e-4,4.73522 0.006,11.92346 -0.0151,14.78672 -0.94742,0.17703 -1.90319,0.33523 -2.86605,0.4767 -0.96253,0.1323 -1.96678,0.24388 -3.00994,0.33711 -1.02656,0.0845 -2.11202,0.15122 -3.25205,0.20185 -1.12274,0.0506 -2.32381,0.0769 -3.59313,0.0802 -2.65269,0.007 -5.06483,-0.1761 -7.12178,-0.597 -2.05825,-0.43377 -3.8086,-1.11309 -5.23466,-2.1521 -1.41407,-1.05337 -2.48457,-2.45854 -3.22338,-4.31981 -0.73654,-1.86881 -1.10274,-4.17712 -1.10206,-6.8767 6.3e-4,-2.52196 0.40905,-4.80814 1.22923,-6.76447 0.82288,-1.96274 2.02532,-3.51476 3.62108,-4.71975 1.60893,-1.21494 3.57753,-2.05214 5.89727,-2.60673 2.31982,-0.56142 5.01707,-0.81629 7.99448,-0.81194 1.89693,0.003 3.77469,0.12907 5.59221,0.3883 1.82361,0.2601 3.49814,0.6052 5.0163,1.05171 -0.83149,1.40241 -1.66646,2.96475 -2.50788,4.635 -1.11125,-0.45656 -2.36954,-0.83161 -3.7742,-1.13133 -1.38602,-0.29923 -2.85234,-0.44699 -4.38505,-0.44818 -1.66241,-0.001 -3.17187,0.22686 -4.50894,0.69694 -1.32399,0.45811 -2.46088,1.12252 -3.40987,2.0181 -0.94977,0.89632 -1.67647,2.00161 -2.1844,3.33123 -0.50717,1.32765 -0.76066,2.83085 -0.76098,4.47899 -3e-4,1.57473 0.17092,2.99766 0.51397,4.25283 0.35982,1.24263 0.91489,2.27279 1.66768,3.11411 0.75213,0.84057 1.71767,1.45979 2.89458,1.89114 1.18932,0.42987 2.61943,0.63533 4.26541,0.63338 1.07794,-0.001 1.98553,-0.0366 2.72036,-0.10706 0.75152,-0.0705 1.45425,-0.15274 2.10781,-0.24729 3.9e-4,-1.72917 3.9e-4,-3.95092 4.3e-4,-6.01181 -2.26454,-0.002 -4.52701,-0.001 -6.79149,6.3e-4 6e-5,-0.68444 5.7e-4,-4.8393 6.7e-4,-5.58696 z" />
      <path
         inkscape:connector-curvature="0"
         inkscape:original-d="m 367.21675,349.4964 2.05078,0 q 3.14942,0 4.5166,-1.24512 1.36719,-1.26953 1.36719,-3.71094 0,-2.53906 -1.46484,-3.61328 -1.46485,-1.07422 -4.54102,-1.07422 l -1.92871,0 0,9.64356 z m 0,6.15234 0,13.69629 -7.56836,0 0,-35.69336 9.76563,0 q 6.86035,0 10.13183,2.66114 3.27149,2.63671 3.27149,8.03222 0,1.83106 -0.48828,3.32031 -0.48829,1.48926 -1.31836,2.66114 -0.80567,1.14746 -1.87989,2.02636 -1.0498,0.8545 -2.22168,1.44043 2.70996,4.34571 4.8584,7.76368 0.92774,1.46484 1.78223,2.85644 0.87891,1.3916 1.5625,2.49024 0.68359,1.09863 1.12305,1.75781 l 0.41503,0.68359 -8.39843,0 -7.73926,-13.69629 -3.2959,0 z"
         id="path6742"
         style="font-style:normal;font-variant:normal;font-weight:bold;font-stretch:normal;font-family:'Droid Sans';-inkscape-font-specification:'Droid Sans Bold';fill:#000000;fill-opacity:1"
         d="m 367.11269,348.83775 c 0.68619,0.001 1.3723,0.003 2.05844,0.004 2.10829,0.005 3.61729,-0.36705 4.53283,-1.11682 0.91433,-0.76346 1.37222,-1.8824 1.37017,-3.31953 -0.002,-1.49227 -0.49664,-2.50674 -1.48002,-3.09892 -0.98126,-0.59091 -2.50622,-0.87166 -4.56133,-0.86277 -0.64496,0.003 -1.28989,0.005 -1.93488,0.008 0.0159,2.40939 0.0147,5.67121 0.0148,8.38549 z m 0.001,5.49811 c 0.001,3.81882 0.005,7.80984 -0.0646,10.17732 -2.52698,-0.0495 -5.05195,-0.0919 -7.57915,-0.12723 0.0569,-2.70605 0.0677,-24.51493 -0.015,-28.44334 3.25798,-0.0226 6.51135,-0.0521 9.7692,-0.0881 4.55497,-0.0503 7.99674,0.46983 10.19681,1.75877 2.2201,1.28868 3.33828,3.40447 3.34381,6.60999 0.002,1.08185 -0.16141,2.08322 -0.48781,2.98463 -0.3267,0.90227 -0.76723,1.71129 -1.32249,2.4222 -0.53904,0.69624 -1.16696,1.30775 -1.88553,1.83507 -0.70215,0.51261 -1.44457,0.94049 -2.22849,1.28594 1.863,2.67743 3.39262,4.7843 4.87178,6.68165 0.61931,0.78847 1.2068,1.52385 1.77192,2.21792 0.57952,0.69205 1.09144,1.28218 1.53576,1.7835 0.44235,0.49908 0.80866,0.88446 1.08902,1.16257 0.13291,0.14491 0.26538,0.28755 0.39739,0.42789 -2.80349,-0.0915 -5.60384,-0.17566 -8.40781,-0.25212 -2.52422,-2.75143 -5.04862,-6.34695 -7.67651,-10.4168 -1.10279,-0.007 -2.20539,-0.0136 -3.30833,-0.0199 z" />
      <path
         inkscape:connector-curvature="0"
         inkscape:original-d="m 411.65034,369.34503 -20.55664,0 0,-35.69336 20.55664,0 0,6.20117 -12.98828,0 0,7.83692 12.08496,0 0,6.20117 -12.08496,0 0,9.2041 12.98828,0 0,6.25 z"
         id="path6744"
         style="font-style:normal;font-variant:normal;font-weight:bold;font-stretch:normal;font-family:'Droid Sans';-inkscape-font-specification:'Droid Sans Bold';fill:#000000;fill-opacity:1"
         d="m 411.52433,366.0071 c -6.87726,-0.30863 -13.68901,-0.58903 -20.5701,-0.83147 0.1464,-2.87589 0.16756,-25.71196 -0.0441,-29.65274 6.87578,-0.1325 13.6846,-0.2877 20.55924,-0.46055 0.10223,1.5477 0.14851,3.27722 0.17121,5.06561 -4.34454,0.0428 -8.66385,0.0833 -13.01138,0.12076 0.0258,2.11602 0.0244,4.68893 0.0234,7.00772 4.04955,0.007 8.05813,0.014 12.10362,0.0212 -0.002,2.17074 -0.004,3.6728 -5.7e-4,5.82943 -4.04325,-0.0372 -8.05501,-0.0732 -12.10254,-0.10758 0.003,2.57026 0.0117,5.78453 -0.007,7.97383 4.34843,0.0987 8.66732,0.20399 13.01216,0.31426 -0.0146,1.70169 -0.0488,3.31777 -0.13382,4.71951 z" />
      <path
         inkscape:connector-curvature="0"
         inkscape:original-d="m 439.67769,369.34503 -20.55664,0 0,-35.69336 20.55664,0 0,6.20117 -12.98828,0 0,7.83692 12.08496,0 0,6.20117 -12.08496,0 0,9.2041 12.98828,0 0,6.25 z"
         id="path6746"
         style="font-style:normal;font-variant:normal;font-weight:bold;font-stretch:normal;font-family:'Droid Sans';-inkscape-font-specification:'Droid Sans Bold';fill:#000000;fill-opacity:1"
         d="m 439.55018,367.3552 c -6.94689,-0.34322 -13.6021,-0.67573 -20.55322,-1.0037 0.18029,-2.89685 0.19794,-27.76637 -0.0568,-31.4828 6.92629,-0.18446 13.62922,-0.37528 20.55431,-0.57238 0.12275,1.74801 0.17006,3.63416 0.18793,5.53925 -4.24293,0.0443 -8.74129,0.0924 -12.98832,0.13741 0.026,2.2233 0.0146,4.95865 0.009,7.33255 4.02404,0.007 8.0513,0.0133 12.06969,0.0192 -0.009,2.13242 -0.0116,3.91466 -0.006,6.03819 -4.00948,-0.0339 -8.05159,-0.0704 -12.06698,-0.10743 0.005,2.54653 0.027,6.1609 0.0106,8.42601 4.30323,0.11444 8.68648,0.23116 12.985,0.34158 -0.009,1.85412 -0.0426,3.67479 -0.14499,5.33207 z" />
      <path
         inkscape:connector-curvature="0"
         inkscape:original-d="m 477.29976,369.34503 -9.59473,0 -14.03808,-27.00195 -0.21973,0 q 0.14648,1.87988 0.24414,3.73535 0.0977,1.58691 0.14648,3.34473 0.0732,1.7334 0.0732,3.125 l 0,16.79687 -6.7627,0 0,-35.69336 9.5459,0 14.01367,26.7334 0.14649,0 q -0.0732,-1.85547 -0.1709,-3.66211 -0.0244,-0.78125 -0.0732,-1.58691 -0.0244,-0.83008 -0.0488,-1.63574 -0.0244,-0.83008 -0.0488,-1.58692 0,-0.75683 0,-1.36719 l 0,-16.89453 6.78711,0 0,35.69336 z"
         id="path6748"
         style="font-style:normal;font-variant:normal;font-weight:bold;font-stretch:normal;font-family:'Droid Sans';-inkscape-font-specification:'Droid Sans Bold';fill:#000000;fill-opacity:1"
         d="m 477.13777,369.00574 c -3.19281,-0.10722 -6.39026,-0.22725 -9.58341,-0.3564 0.99807,2.0559 -14.88608,-28.41223 -13.89713,-26.55093 -1.9e-4,10e-6 -0.21901,0.001 -0.2192,0.001 0.0922,1.21147 0.16363,2.44151 0.21897,3.65478 0.0569,1.04133 0.0977,2.14473 0.12517,3.30427 0.0437,1.14195 0.0671,2.17767 0.0685,3.09226 0.007,4.6565 0.15662,11.87047 -0.0766,15.89291 -2.25083,-0.10531 -4.50632,-0.21325 -6.75753,-0.32243 0.13812,-2.29775 0.13855,-30.86158 -0.0531,-33.63679 3.17589,-0.0894 6.36747,-0.17816 9.54317,-0.26366 2.68729,4.1567 11.56105,21.4175 14.12402,26.18673 -4e-5,0 0.14582,0.001 0.14578,0.001 -0.0634,-1.21114 -0.13922,-2.45055 -0.21692,-3.63608 -0.0222,-0.5183 -0.0519,-1.04553 -0.0888,-1.58096 -0.021,-0.55385 -0.0406,-1.0936 -0.0593,-1.63187 -0.0188,-0.55562 -0.0359,-1.07748 -0.0523,-1.58471 -1.4e-4,-0.50298 7.9e-4,-0.96032 0.002,-1.36586 0.0162,-4.66284 0.23089,-12.21829 -0.041,-16.73767 2.26089,-0.0525 4.52367,-0.10239 6.78454,-0.14878 -0.0366,-0.65087 0.003,36.33612 0.0331,35.68283 0,0 -5e-5,0 -5e-5,0 z" />
    </g>
  </g>
  <g
     inkscape:groupmode="layer"
     id="layer2"
     inkscape:label="logo"
     style="display:inline"
     transform="translate(-156.58569,-325.52803)"
     sodipodi:insensitive="true">
    <g
       style="font-style:normal;font-variant:normal;font-weight:normal;font-stretch:normal;font-size:51.70339966px;line-height:257.99999237%;font-family:'Droid Sans';-inkscape-font-specification:'Droid Sans';letter-spacing:0px;word-spacing:0px;fill:#000000;fill-opacity:1;stroke:none;stroke-width:0.73400003;stroke-linecap:butt;stroke-linejoin:miter;stroke-miterlimit:4;stroke-dasharray:none;stroke-opacity:1"
       id="text5030"
       transform="matrix(1.0824068,0,0,1.0824068,-21.695801,-33.875865)">
      <path
         d="m 238.23316,419.07569 0.75737,-1.94393 q 2.24688,0.98459 4.92294,0.98459 3.2567,0 5.93276,-2.17114 1.56524,-1.23705 2.62556,-2.77704 1.08557,-1.53999 2.29737,-4.1908 l 0.20197,-0.40394 q -2.09541,-1.33802 -3.10524,-3.63539 -0.98458,-2.32262 -0.98458,-5.75604 0,-2.37311 0.73212,-5.09966 0.73213,-2.75179 2.01967,-5.12489 1.08557,-2.12065 2.34786,-3.3072 1.26229,-1.2118 2.3731,-1.2118 1.51475,0 2.32262,1.8177 0.80786,1.81769 0.80786,5.17539 0,2.54982 -0.58065,5.6803 -0.55541,3.10523 -1.59049,6.23571 -1.03507,3.13048 -2.17113,5.22588 0.73212,0.27771 1.53999,0.27771 0.80786,0 1.69147,-0.27771 l -0.22721,0.68164 q -0.6564,0.20197 -1.61574,0.20197 -0.98458,0 -1.81769,-0.20197 -2.04491,3.48392 -4.44326,5.75604 -2.37311,2.24688 -5.20064,3.33245 -2.80228,1.08557 -6.15997,1.08557 -1.61574,0 -2.67606,-0.35344 z m 17.11665,-11.31012 q 0.95934,-2.17114 1.86819,-5.70555 0.95934,-3.61015 1.61573,-7.39702 0.65639,-3.81212 0.65639,-5.83178 0,-1.71672 -0.40393,-2.65081 -0.40393,-0.9341 -1.2118,-0.9341 -1.1613,0 -2.3731,2.29737 -1.18655,2.27212 -1.96917,5.85703 -0.75738,3.5849 -0.75738,6.99308 0,5.57933 2.57507,7.37178 z"
         style="font-style:normal;font-variant:normal;font-weight:normal;font-stretch:normal;font-family:'Savoye LET';-inkscape-font-specification:'Savoye LET';fill:#000000;stroke:none;stroke-width:0.73400003;stroke-linejoin:miter;stroke-miterlimit:4;stroke-dasharray:none"
         id="path5000"
         inkscape:connector-curvature="0" />
      <path
         d="m 261.53503,418.72225 2.67606,-13.98618 2.39835,-1.03508 -2.17114,9.26521 q 2.0954,-4.41801 4.16556,-6.71538 2.07015,-2.29737 3.96359,-2.29737 0.93409,0 1.51475,0.63115 0.58065,0.6059 0.58065,1.64097 0,0.58066 -0.2777,1.64098 l -0.25246,1.06032 -0.75738,3.07999 -0.25245,0.98459 q -0.37869,1.51475 -0.37869,2.32261 0,0.80787 0.2777,1.31278 0.27771,0.47967 0.73213,0.47967 0.78262,0 2.49934,-1.86818 l 0.40393,0.35344 -0.25246,0.2777 q -1.43901,1.69147 -2.12065,2.29737 -0.68163,0.58065 -1.26229,0.58065 -0.78262,0 -1.33802,-0.78262 -0.53017,-0.80786 -0.53017,-1.99442 0,-0.80786 0.30295,-2.39835 l 0.98459,-5.35211 q 0.20197,-1.26229 0.20197,-1.7672 0,-0.53017 -0.27771,-0.80787 -0.2777,-0.2777 -0.75737,-0.2777 -1.74196,0 -4.29179,3.73638 -1.23704,1.79245 -2.04491,3.55965 -0.80786,1.74196 -1.8177,4.8472 l -0.22721,0.68163 -1.69147,0.53017 z"
         style="font-style:normal;font-variant:normal;font-weight:normal;font-stretch:normal;font-family:'Savoye LET';-inkscape-font-specification:'Savoye LET';fill:#000000;stroke:none;stroke-width:0.73400003;stroke-linejoin:miter;stroke-miterlimit:4;stroke-dasharray:none"
         id="path5002"
         inkscape:connector-curvature="0" />
      <path
         d="m 296.37424,382.89845 -6.69014,29.10841 q -0.53016,2.32262 -0.53016,3.23147 0,0.80786 0.2777,1.31278 0.30295,0.50491 0.80787,0.50491 0.65639,0 1.59049,-0.98458 l 0.73212,-0.73213 q 0.0253,-0.0253 0.0505,-0.0505 0.0252,-0.0252 0.0757,-0.0505 l 0.37869,0.35344 -0.20197,0.22721 q -0.95934,1.06032 -0.98458,1.08557 l -0.83311,0.83311 q -0.63115,0.63114 -0.9341,0.78262 -0.2777,0.17672 -0.63114,0.17672 -0.83312,0 -1.38852,-0.85836 -0.55541,-0.85835 -0.55541,-1.96917 0,-0.65639 0.35344,-2.39835 l 0.2777,-1.43901 q -0.65639,1.59048 -2.07015,3.45867 -2.54983,3.28196 -4.94818,3.28196 -1.43901,0 -2.27212,-1.03508 -0.83311,-1.06032 -0.83311,-2.85278 0,-2.49933 1.31278,-5.04916 1.31278,-2.57507 3.33245,-4.24129 2.04491,-1.66622 4.06457,-1.66622 1.4895,0 2.77704,0.8836 l 4.11506,-20.62582 2.72655,-1.28754 z m -7.06882,23.17565 q -0.22722,-0.68164 -0.9341,-1.08557 -0.70688,-0.42918 -1.51475,-0.42918 -1.18655,0 -2.44884,1.06033 -1.23704,1.06032 -2.34786,3.00425 -0.80787,1.43901 -1.33803,3.15572 -0.50491,1.69147 -0.50491,3.07999 0,1.2118 0.50491,1.94392 0.53016,0.73213 1.43901,0.73213 1.06033,0 2.27213,-1.08557 1.23704,-1.08557 2.47408,-3.13048 0.83312,-1.38851 1.31279,-2.87802 0.58065,-1.91868 0.83311,-3.07998 l 0.25246,-1.28754 z"
         style="font-style:normal;font-variant:normal;font-weight:normal;font-stretch:normal;font-family:'Savoye LET';-inkscape-font-specification:'Savoye LET';fill:#000000;stroke:none;stroke-width:0.73400003;stroke-linejoin:miter;stroke-miterlimit:4;stroke-dasharray:none"
         id="path5004"
         inkscape:connector-curvature="0" />
      <path
         d="m 300.28734,393.80464 q 0.65639,0 1.06032,0.40393 0.40394,0.40394 0.40394,1.06033 0,0.63114 -0.42918,1.06032 -0.42918,0.42918 -1.03508,0.42918 -0.58065,0 -1.03508,-0.45443 -0.45442,-0.45442 -0.45442,-1.03507 0,-0.6059 0.42918,-1.03508 0.42917,-0.42918 1.06032,-0.42918 z m -0.73213,9.89635 -2.22163,8.30587 q -0.55541,2.04491 -0.55541,3.28196 0,0.80786 0.27771,1.31278 0.2777,0.50491 0.73212,0.50491 0.78262,0 2.49934,-1.86818 l 0.40393,0.35344 -0.25246,0.2777 q -1.43901,1.69147 -2.12064,2.29737 -0.68164,0.58065 -1.26229,0.58065 -0.78262,0 -1.33803,-0.78262 -0.53016,-0.80786 -0.53016,-1.99442 0,-0.75737 0.30295,-2.39835 l 1.59048,-8.83603 2.47409,-1.03508 z"
         style="font-style:normal;font-variant:normal;font-weight:normal;font-stretch:normal;font-family:'Savoye LET';-inkscape-font-specification:'Savoye LET';fill:#000000;stroke:none;stroke-width:0.73400003;stroke-linejoin:miter;stroke-miterlimit:4;stroke-dasharray:none"
         id="path5006"
         inkscape:connector-curvature="0" />
      <path
         d="m 316.21744,403.54952 -2.37311,9.23996 q -0.37868,1.51475 -0.37868,2.37311 0,0.75737 0.32819,1.31278 0.3282,0.55541 0.80787,0.55541 0.73212,0 2.42359,-1.79245 l 0.35344,0.35344 -0.2777,0.32819 q -1.33803,1.54 -2.07016,2.17114 -0.70688,0.6059 -1.23704,0.6059 -0.80787,0 -1.41376,-0.83311 -0.58066,-0.85836 -0.58066,-1.96917 0,-0.80787 0.6059,-3.66065 l 0.20197,-0.95934 q -0.9341,2.17114 -2.49934,4.16556 -2.62556,3.33245 -5.02391,3.33245 -1.43901,0 -2.27212,-1.03508 -0.83311,-1.03508 -0.83311,-2.77704 0,-2.3731 1.33802,-4.97342 1.36328,-2.60032 3.35769,-4.26654 2.01967,-1.69147 3.9131,-1.69147 1.99442,0 2.97901,1.46426 l 0.2777,-0.95934 2.37311,-0.98459 z m -2.90327,3.23146 q -0.30295,-0.95934 -1.03508,-1.4895 -0.70688,-0.55541 -1.64097,-0.55541 -1.11082,0 -2.34786,1.03508 -1.23705,1.00983 -2.27213,2.82753 -0.80786,1.43901 -1.36327,3.18097 -0.53016,1.74196 -0.53016,2.87802 0,1.28754 0.47967,2.01967 0.50492,0.73212 1.41376,0.73212 1.16131,0 2.4236,-1.08557 1.26229,-1.08556 2.49933,-3.10523 0.75738,-1.16131 1.18656,-2.32261 0.42918,-1.16131 0.95934,-3.23147 l 0.22721,-0.8836 z"
         style="font-style:normal;font-variant:normal;font-weight:normal;font-stretch:normal;font-family:'Savoye LET';-inkscape-font-specification:'Savoye LET';fill:#000000;stroke:none;stroke-width:0.73400003;stroke-linejoin:miter;stroke-miterlimit:4;stroke-dasharray:none"
         id="path5008"
         inkscape:connector-curvature="0" />
      <path
         d="m 319.09546,418.72225 2.67605,-13.98618 2.39835,-1.03508 -2.17114,9.26521 q 2.09541,-4.41801 4.16556,-6.71538 2.07016,-2.29737 3.96359,-2.29737 0.9341,0 1.51475,0.63115 0.58065,0.6059 0.58065,1.64097 0,0.58066 -0.2777,1.64098 l -0.25246,1.06032 -0.75737,3.07999 -0.25246,0.98459 q -0.37869,1.51475 -0.37869,2.32261 0,0.80787 0.27771,1.31278 0.2777,0.47967 0.73212,0.47967 0.78262,0 2.49934,-1.86818 l 0.40393,0.35344 -0.25246,0.2777 q -1.43901,1.69147 -2.12064,2.29737 -0.68164,0.58065 -1.26229,0.58065 -0.78262,0 -1.33803,-0.78262 -0.53016,-0.80786 -0.53016,-1.99442 0,-0.80786 0.30295,-2.39835 l 0.98458,-5.35211 q 0.20197,-1.26229 0.20197,-1.7672 0,-0.53017 -0.2777,-0.80787 -0.27771,-0.2777 -0.75738,-0.2777 -1.74196,0 -4.29178,3.73638 -1.23705,1.79245 -2.04491,3.55965 -0.80787,1.74196 -1.8177,4.8472 l -0.22721,0.68163 -1.69147,0.53017 z"
         style="font-style:normal;font-variant:normal;font-weight:normal;font-stretch:normal;font-family:'Savoye LET';-inkscape-font-specification:'Savoye LET';fill:#000000;stroke:none;stroke-width:0.73400003;stroke-linejoin:miter;stroke-miterlimit:4;stroke-dasharray:none"
         id="path5010"
         inkscape:connector-curvature="0" />
      <path
         d="m 359.84218,398.60134 -0.70688,-1.91868 q 2.34786,-0.68163 4.44326,-2.0954 2.0954,-1.41376 3.28195,-3.13048 1.2118,-1.71671 1.2118,-3.38294 0,-1.23704 -0.80787,-1.94392 -0.78262,-0.70689 -2.12064,-0.70689 -1.59049,0 -3.48392,0.83312 -1.89344,0.83311 -3.76163,2.32261 -1.84294,1.4895 -3.53441,3.5849 -1.84294,2.29737 -3.07999,4.79671 -1.23704,2.49933 -1.86819,5.09965 -0.63114,2.57507 -0.63114,5.35211 0,4.72096 2.17114,7.498 2.17114,2.75179 5.93276,2.75179 2.4236,0 4.69572,-1.08557 2.29737,-1.08557 5.25113,-3.63539 l 0.40393,-0.3282 0.30295,0.55541 q -3.00425,2.979 -6.03375,4.46851 -3.02949,1.4895 -6.10948,1.4895 -2.77704,0 -4.94818,-1.31278 -2.14589,-1.33803 -3.33244,-3.71114 -1.16131,-2.39835 -1.16131,-5.60456 0,-2.32262 0.68164,-4.8472 0.68163,-2.52458 2.01966,-5.09965 1.36327,-2.60032 3.20622,-5.02391 1.94392,-2.57508 4.31703,-4.59474 2.3731,-2.04491 4.74621,-3.15572 2.39835,-1.11082 4.29178,-1.11082 1.79246,0 2.85278,1.03508 1.08557,1.00983 1.08557,2.75179 0,1.94393 -1.28754,4.06457 -1.28753,2.09541 -3.43342,3.76163 -2.1459,1.64098 -4.59474,2.32261 z"
         style="font-style:normal;font-variant:normal;font-weight:normal;font-stretch:normal;font-family:'Savoye LET';-inkscape-font-specification:'Savoye LET';fill:#000000;stroke:none;stroke-width:0.73400003;stroke-linejoin:miter;stroke-miterlimit:4;stroke-dasharray:none"
         id="path5012"
         inkscape:connector-curvature="0" />
      <path
         d="m 374.66146,403.70099 -2.44884,9.77013 q -0.3282,1.31278 -0.3282,2.22163 0,0.8836 0.55541,1.41376 0.55541,0.53017 1.43901,0.53017 2.14589,0 4.46851,-3.50917 l 0.10098,-0.15147 q 0.0505,-0.25246 0.0757,-0.40394 l 1.59048,-8.83603 2.47409,-1.03508 -2.22163,8.30587 q -0.55541,2.04491 -0.55541,3.28196 0,0.80786 0.27771,1.31278 0.2777,0.50491 0.73213,0.50491 0.78262,0 2.49933,-1.86818 l 0.40393,0.35344 -0.25245,0.2777 q -1.43901,1.69147 -2.12065,2.29737 -0.68164,0.58065 -1.26229,0.58065 -0.78262,0 -1.33803,-0.78262 -0.53016,-0.80786 -0.53016,-1.99442 0,-0.37868 0.0253,-0.70688 -2.62557,3.48392 -5.20064,3.48392 -1.28754,0 -2.07016,-0.73213 -0.75737,-0.75737 -0.75737,-1.99442 0,-0.95934 0.2777,-2.34785 l 1.71672,-8.93702 2.44884,-1.03508 z"
         style="font-style:normal;font-variant:normal;font-weight:normal;font-stretch:normal;font-family:'Savoye LET';-inkscape-font-specification:'Savoye LET';fill:#000000;stroke:none;stroke-width:0.73400003;stroke-linejoin:miter;stroke-miterlimit:4;stroke-dasharray:none"
         id="path5014"
         inkscape:connector-curvature="0" />
      <path
         d="m 390.86927,393.80464 q 0.6564,0 1.06033,0.40393 0.40393,0.40394 0.40393,1.06033 0,0.63114 -0.42918,1.06032 -0.42918,0.42918 -1.03508,0.42918 -0.58065,0 -1.03507,-0.45443 -0.45443,-0.45442 -0.45443,-1.03507 0,-0.6059 0.42918,-1.03508 0.42918,-0.42918 1.06032,-0.42918 z m -0.73212,9.89635 -2.22163,8.30587 q -0.55541,2.04491 -0.55541,3.28196 0,0.80786 0.2777,1.31278 0.27771,0.50491 0.73213,0.50491 0.78262,0 2.49933,-1.86818 l 0.40394,0.35344 -0.25246,0.2777 q -1.43901,1.69147 -2.12065,2.29737 -0.68163,0.58065 -1.26229,0.58065 -0.78262,0 -1.33803,-0.78262 -0.53016,-0.80786 -0.53016,-1.99442 0,-0.75737 0.30295,-2.39835 l 1.59049,-8.83603 2.47409,-1.03508 z"
         style="font-style:normal;font-variant:normal;font-weight:normal;font-stretch:normal;font-family:'Savoye LET';-inkscape-font-specification:'Savoye LET';fill:#000000;stroke:none;stroke-width:0.73400003;stroke-linejoin:miter;stroke-miterlimit:4;stroke-dasharray:none"
         id="path5016"
         inkscape:connector-curvature="0" />
      <path
         d="m 391.17221,416.85406 1.41377,-1.66623 q 1.11082,2.62557 3.53441,2.62557 1.26229,0 2.14589,-0.80787 0.90885,-0.83311 0.90885,-1.91868 0,-0.78262 -0.42917,-1.33803 -0.42918,-0.5554 -2.04491,-1.86819 -1.48951,-1.21179 -2.01967,-1.89343 -0.50491,-0.70688 -0.50491,-1.61573 0,-1.18656 0.68163,-2.19639 0.70688,-1.00983 1.86819,-1.61573 1.16131,-0.63114 2.44884,-0.63114 1.13606,0 1.89344,0.58065 0.78262,0.55541 0.78262,1.43901 0,1.16131 -0.98459,1.59049 -0.15147,-1.18656 -0.90885,-1.84295 -0.73212,-0.68163 -1.89343,-0.68163 -1.03508,0 -1.8177,0.68163 -0.75737,0.65639 -0.75737,1.51475 0,1.06032 1.31278,2.0954 l 1.46425,1.18655 q 2.1459,1.69147 2.1459,3.45868 0,1.31278 -0.75738,2.47409 -0.73212,1.13606 -2.01966,1.8177 -1.26229,0.68163 -2.67605,0.68163 -2.24688,0 -3.78688,-2.07015 z"
         style="font-style:normal;font-variant:normal;font-weight:normal;font-stretch:normal;font-family:'Savoye LET';-inkscape-font-specification:'Savoye LET';fill:#000000;stroke:none;stroke-width:0.73400003;stroke-linejoin:miter;stroke-miterlimit:4;stroke-dasharray:none"
         id="path5018"
         inkscape:connector-curvature="0" />
      <path
         d="m 409.34919,393.80464 q 0.65639,0 1.06033,0.40393 0.40393,0.40394 0.40393,1.06033 0,0.63114 -0.42918,1.06032 -0.42918,0.42918 -1.03508,0.42918 -0.58065,0 -1.03507,-0.45443 -0.45443,-0.45442 -0.45443,-1.03507 0,-0.6059 0.42918,-1.03508 0.42918,-0.42918 1.06032,-0.42918 z m -0.73212,9.89635 -2.22163,8.30587 q -0.55541,2.04491 -0.55541,3.28196 0,0.80786 0.2777,1.31278 0.27771,0.50491 0.73213,0.50491 0.78262,0 2.49933,-1.86818 l 0.40394,0.35344 -0.25246,0.2777 q -1.43901,1.69147 -2.12065,2.29737 -0.68164,0.58065 -1.26229,0.58065 -0.78262,0 -1.33803,-0.78262 -0.53016,-0.80786 -0.53016,-1.99442 0,-0.75737 0.30295,-2.39835 l 1.59049,-8.83603 2.47409,-1.03508 z"
         style="font-style:normal;font-variant:normal;font-weight:normal;font-stretch:normal;font-family:'Savoye LET';-inkscape-font-specification:'Savoye LET';fill:#000000;stroke:none;stroke-width:0.73400003;stroke-linejoin:miter;stroke-miterlimit:4;stroke-dasharray:none"
         id="path5020"
         inkscape:connector-curvature="0" />
      <path
         d="m 411.29313,418.72225 2.67605,-13.98618 2.39835,-1.03508 -2.17114,9.26521 q 2.09541,-4.41801 4.16556,-6.71538 2.07016,-2.29737 3.96359,-2.29737 0.9341,0 1.51475,0.63115 0.58065,0.6059 0.58065,1.64097 0,0.58066 -0.2777,1.64098 l -0.25246,1.06032 -0.75737,3.07999 -0.25246,0.98459 q -0.37869,1.51475 -0.37869,2.32261 0,0.80787 0.27771,1.31278 0.2777,0.47967 0.73212,0.47967 0.78262,0 2.49934,-1.86818 l 0.40393,0.35344 -0.25246,0.2777 q -1.43901,1.69147 -2.12064,2.29737 -0.68164,0.58065 -1.26229,0.58065 -0.78262,0 -1.33803,-0.78262 -0.53016,-0.80786 -0.53016,-1.99442 0,-0.80786 0.30295,-2.39835 l 0.98458,-5.35211 q 0.20197,-1.26229 0.20197,-1.7672 0,-0.53017 -0.2777,-0.80787 -0.27771,-0.2777 -0.75738,-0.2777 -1.74196,0 -4.29178,3.73638 -1.23705,1.79245 -2.04491,3.55965 -0.80787,1.74196 -1.8177,4.8472 l -0.22721,0.68163 -1.69147,0.53017 z"
         style="font-style:normal;font-variant:normal;font-weight:normal;font-stretch:normal;font-family:'Savoye LET';-inkscape-font-specification:'Savoye LET';fill:#000000;stroke:none;stroke-width:0.73400003;stroke-linejoin:miter;stroke-miterlimit:4;stroke-dasharray:none"
         id="path5022"
         inkscape:connector-curvature="0" />
      <path
         d="m 438.12942,414.55669 0.45442,0.37869 q -1.56524,2.07015 -3.05474,3.00425 -1.4895,0.90884 -3.20622,0.90884 -2.04491,0 -3.28195,-1.36327 -1.23705,-1.36327 -1.23705,-3.61015 0,-2.27212 1.18656,-4.59473 1.21179,-2.34786 3.00425,-3.86261 1.81769,-1.54 3.5849,-1.54 1.03508,0 1.69147,0.6059 0.68163,0.6059 0.68163,1.56524 0,1.94393 -2.12064,3.88786 -2.12065,1.94392 -5.78129,3.3072 -0.0253,0.20196 -0.0253,0.45442 0,1.74196 0.95934,2.85278 0.95934,1.08557 2.47409,1.08557 1.18655,0 2.29737,-0.73213 1.11082,-0.75738 2.37311,-2.34786 z m -8.07866,-1.91868 q 2.72655,-1.2118 4.1908,-2.7013 0.98459,-1.00984 1.59049,-2.17114 0.6059,-1.16131 0.6059,-2.0954 0,-1.18656 -1.08557,-1.18656 -1.64098,0 -3.33245,2.60032 -1.66622,2.57507 -1.96917,5.55408 z"
         style="font-style:normal;font-variant:normal;font-weight:normal;font-stretch:normal;font-family:'Savoye LET';-inkscape-font-specification:'Savoye LET';fill:#000000;stroke:none;stroke-width:0.73400003;stroke-linejoin:miter;stroke-miterlimit:4;stroke-dasharray:none"
         id="path5024"
         inkscape:connector-curvature="0" />
    </g>
    <g
       style="font-style:normal;font-variant:normal;font-weight:normal;font-stretch:normal;font-size:50px;line-height:257.99999237%;font-family:'Droid Sans';-inkscape-font-specification:'Droid Sans';letter-spacing:0px;word-spacing:0px;fill:#1a7759;fill-opacity:1;stroke:none;stroke-width:1px;stroke-linecap:butt;stroke-linejoin:miter;stroke-opacity:1"
       id="text6583"
       inkscape:path-effect="#path-effect6612">
      <path
         d="m 225.73594,368.19373 c -6.82826,0.31167 -13.70756,0.59892 -20.53378,0.82577 0.0327,0.72894 0.0714,-36.43893 0.0316,-35.7046 6.83598,0.12664 13.71437,0.28476 20.55096,0.45642 -0.12255,1.8963 -0.16097,3.89374 -0.16894,5.87612 -4.31837,-0.0344 -8.64271,-0.0648 -12.95629,-0.0894 0.004,2.24313 0.0565,5.52926 0.0785,7.79675 3.99879,-0.002 8.01567,-0.007 12.02111,-0.0119 0.0153,2.13745 0.0202,4.02251 0.0112,6.15427 -4.00585,0.0231 -8.01766,0.0409 -12.01669,0.0511 0.10382,-19.27312 -0.19297,28.44511 -0.0934,9.12343 4.30981,-0.0644 8.63445,-0.14564 12.94926,-0.23744 -2.2e-4,1.95465 0.0245,3.91811 0.12638,5.75951 z"
         style="font-style:normal;font-variant:normal;font-weight:bold;font-stretch:normal;font-family:'Droid Sans';-inkscape-font-specification:'Droid Sans Bold';fill:#1a7759;fill-opacity:1"
         id="path6588"
         inkscape:original-d="m 226.00581,369.34503 -20.55664,0 0,-35.69336 20.55664,0 0,6.20117 -12.98828,0 0,7.83692 12.08496,0 0,6.20117 -12.08496,0 0,9.2041 12.98828,0 0,6.25 z"
         inkscape:connector-curvature="0" />
      <path
         d="m 251.61136,334.46101 c 2.55104,0.0695 5.09039,0.13844 7.64159,0.20673 -1.25209,2.70162 -10.36576,29.94858 -11.19287,32.4473 -2.73409,0.13527 -5.51462,0.27313 -8.24806,0.40737 -1.53467,-3.43233 -9.82559,-29.1831 -11.0494,-33.67544 2.54496,0.0654 5.09513,0.13259 7.64022,0.20068 0.67612,2.72123 4.93777,17.26109 5.87743,20.52675 0.0803,0.26707 0.18344,0.71228 0.31033,1.33528 0.14339,0.62375 0.28491,1.3002 0.4278,2.03597 0.15901,0.73473 0.30974,1.45809 0.45501,2.17493 0.14466,0.71383 0.26017,1.31137 0.34336,1.78919 0.0794,-0.48528 0.19163,-1.08137 0.33939,-1.80331 0.14729,-0.71963 0.30504,-1.44328 0.47073,-2.16339 0.16556,-0.73446 0.32437,-1.41988 0.47311,-2.04095 0.1659,-0.62489 0.2887,-1.07658 0.37145,-1.36067 1.72352,-5.92741 4.12828,-15.15359 6.13991,-20.08044 z"
         style="font-style:normal;font-variant:normal;font-weight:bold;font-stretch:normal;font-family:'Droid Sans';-inkscape-font-specification:'Droid Sans Bold';fill:#1a7759;fill-opacity:1"
         id="path6590"
         inkscape:original-d="m 251.83589,333.65167 7.6416,0 -11.13281,35.69336 -8.25195,0 -11.1084,-35.69336 7.6416,0 6.05469,21.48438 q 0.12207,0.41504 0.31738,1.3916 0.21973,0.97656 0.43945,2.14844 0.24414,1.17187 0.46387,2.34375 0.21973,1.17187 0.3418,1.97754 0.12207,-0.80567 0.3418,-1.97754 0.21972,-1.17188 0.46386,-2.31934 0.24414,-1.17187 0.46387,-2.14844 0.24414,-0.97656 0.36621,-1.41601 l 5.95703,-21.48438 z"
         inkscape:connector-curvature="0" />
      <path
         d="m 284.2241,365.45838 c -6.88454,0.27048 -13.68482,0.57309 -20.56528,0.89789 -0.18009,-2.9073 -0.1979,-27.78059 0.0621,-31.56997 6.87839,0.18071 13.6802,0.35029 20.55968,0.50311 -0.09,1.48578 -0.13292,3.16524 -0.15532,4.91476 -4.34688,-0.0384 -8.66648,-0.0791 -13.01036,-0.12145 -0.0285,2.17774 -0.0243,4.82195 -0.0218,7.17421 4.04289,-0.008 8.05419,-0.015 12.10119,-0.0217 7.4e-4,2.26142 0.001,3.51283 -10e-4,5.75655 -4.04714,0.0345 -8.05713,0.0709 -12.09995,0.10861 -0.004,2.57684 -0.0178,5.94066 10e-4,8.1783 4.3443,-0.11039 8.6626,-0.21565 13.01052,-0.31416 0.0143,1.64341 0.0454,3.18405 0.11891,4.4939 z"
         style="font-style:normal;font-variant:normal;font-weight:bold;font-stretch:normal;font-family:'Droid Sans';-inkscape-font-specification:'Droid Sans Bold';fill:#1a7759;fill-opacity:1"
         id="path6592"
         inkscape:original-d="m 284.50191,369.34503 -20.55664,0 0,-35.69336 20.55664,0 0,6.20117 -12.98828,0 0,7.83692 12.08496,0 0,6.20117 -12.08496,0 0,9.2041 12.98828,0 0,6.25 z"
         inkscape:connector-curvature="0" />
      <path
         d="m 299.17491,348.86298 c 0.68559,-0.002 1.37115,-0.004 2.05683,-0.006 2.10623,-0.006 3.61612,-0.38848 4.53099,-1.14351 0.91494,-0.76984 1.37181,-1.88996 1.37446,-3.33074 0.003,-1.49523 -0.48185,-2.51671 -1.45689,-3.12205 -0.97223,-0.60359 -2.49276,-0.90707 -4.54629,-0.92138 -0.64469,-0.005 -1.2893,-0.009 -1.93395,-0.0137 -0.0273,2.46789 -0.0249,5.78909 -0.0251,8.53707 z m -0.003,5.57913 c -0.003,3.86843 -0.0129,7.97543 0.10463,10.48668 -2.52638,0.0777 -5.04992,0.16131 -7.57586,0.25045 -0.15124,-2.9063 -0.17186,-25.70877 0.0524,-29.73151 3.25786,0.0655 6.51056,0.12615 9.7686,0.18139 4.54683,0.0771 7.95218,0.7109 10.08174,2.02301 2.15582,1.31612 3.23231,3.40811 3.2267,6.57102 -0.002,1.06938 -0.16568,2.05861 -0.4928,2.9522 -0.32731,0.89413 -0.76794,1.69739 -1.32376,2.40613 -0.53948,0.69398 -1.16797,1.30609 -1.88713,1.83708 -0.70268,0.51618 -1.44573,0.95022 -2.23001,1.30382 1.84895,2.63523 3.39753,4.72745 4.87824,6.53752 0.62416,0.75722 1.2219,1.45962 1.8,2.11253 0.59418,0.65237 1.12183,1.19738 1.58712,1.65728 0.46229,0.45694 0.84939,0.80227 1.1469,1.04893 0.14181,0.12907 0.28378,0.25532 0.42591,0.37865 -2.80442,0.0487 -5.6057,0.10601 -8.40977,0.17163 -2.66846,-2.51192 -5.2702,-6.21104 -7.84695,-10.21385 -1.10219,0.009 -2.20395,0.0177 -3.30593,0.027 z"
         style="font-style:normal;font-variant:normal;font-weight:bold;font-stretch:normal;font-family:'Droid Sans';-inkscape-font-specification:'Droid Sans Bold';fill:#1a7759;fill-opacity:1"
         id="path6594"
         inkscape:original-d="m 299.54097,349.4964 2.05078,0 q 3.14942,0 4.5166,-1.24512 1.36719,-1.26953 1.36719,-3.71094 0,-2.53906 -1.46484,-3.61328 -1.46485,-1.07422 -4.54102,-1.07422 l -1.92871,0 0,9.64356 z m 0,6.15234 0,13.69629 -7.56836,0 0,-35.69336 9.76563,0 q 6.86035,0 10.13183,2.66114 3.27149,2.63671 3.27149,8.03222 0,1.83106 -0.48829,3.32031 -0.48828,1.48926 -1.31835,2.66114 -0.80567,1.14746 -1.87989,2.02636 -1.0498,0.8545 -2.22168,1.44043 2.70996,4.34571 4.8584,7.76368 0.92774,1.46484 1.78223,2.85644 0.8789,1.3916 1.5625,2.49024 0.68359,1.09863 1.12304,1.75781 l 0.41504,0.68359 -8.39843,0 -7.73926,-13.69629 -3.2959,0 z"
         inkscape:connector-curvature="0" />
      <path
         d="m 336.7401,348.63122 c 4.74624,-3.7e-4 9.47338,0.002 14.21948,0.006 -1.2e-4,4.73522 0.006,11.92346 -0.0151,14.78672 -0.94742,0.17703 -1.90319,0.33523 -2.86605,0.4767 -0.96253,0.1323 -1.96678,0.24388 -3.00994,0.33711 -1.02656,0.0845 -2.11202,0.15122 -3.25205,0.20185 -1.12274,0.0506 -2.32381,0.0769 -3.59313,0.0802 -2.65269,0.007 -5.06483,-0.1761 -7.12178,-0.597 -2.05825,-0.43377 -3.8086,-1.11309 -5.23466,-2.1521 -1.41407,-1.05337 -2.48457,-2.45854 -3.22338,-4.31981 -0.73654,-1.86881 -1.10274,-4.17712 -1.10206,-6.8767 6.3e-4,-2.52196 0.40905,-4.80814 1.22923,-6.76447 0.82288,-1.96274 2.02532,-3.51476 3.62108,-4.71975 1.60893,-1.21494 3.57753,-2.05214 5.89727,-2.60673 2.31982,-0.56142 5.01707,-0.81629 7.99448,-0.81194 1.89693,0.003 3.77469,0.12907 5.59221,0.3883 1.82361,0.2601 3.49814,0.6052 5.0163,1.05171 -0.83149,1.40241 -1.66646,2.96475 -2.50788,4.635 -1.11125,-0.45656 -2.36954,-0.83161 -3.7742,-1.13133 -1.38602,-0.29923 -2.85234,-0.44699 -4.38505,-0.44818 -1.66241,-0.001 -3.17187,0.22686 -4.50894,0.69694 -1.32399,0.45811 -2.46088,1.12252 -3.40987,2.0181 -0.94977,0.89632 -1.67647,2.00161 -2.1844,3.33123 -0.50717,1.32765 -0.76066,2.83085 -0.76098,4.47899 -3e-4,1.57473 0.17092,2.99766 0.51397,4.25283 0.35982,1.24263 0.91489,2.27279 1.66768,3.11411 0.75213,0.84057 1.71767,1.45979 2.89458,1.89114 1.18932,0.42987 2.61943,0.63533 4.26541,0.63338 1.07794,-0.001 1.98553,-0.0366 2.72036,-0.10706 0.75152,-0.0705 1.45425,-0.15274 2.10781,-0.24729 3.9e-4,-1.72917 3.9e-4,-3.95092 4.3e-4,-6.01181 -2.26454,-0.002 -4.52701,-10e-4 -6.79149,6.3e-4 6e-5,-0.68444 5.7e-4,-4.8393 6.7e-4,-5.58696 z"
         style="font-style:normal;font-variant:normal;font-weight:bold;font-stretch:normal;font-family:'Droid Sans';-inkscape-font-specification:'Droid Sans Bold';fill:#1a7759;fill-opacity:1"
         id="path6596"
         inkscape:original-d="m 336.96773,349.30109 14.16015,0 0,18.50586 q -1.41601,0.46386 -2.85644,0.85449 -1.44043,0.36621 -3.00293,0.63476 -1.53809,0.24414 -3.24707,0.39063 -1.68457,0.14648 -3.58887,0.14648 -4.0039,0 -7.10449,-1.17187 -3.07617,-1.19629 -5.2002,-3.51563 -2.09961,-2.34375 -3.19824,-5.76172 -1.09863,-3.44238 -1.09863,-7.93457 0,-4.19921 1.2207,-7.59277 1.22071,-3.39355 3.58887,-5.76172 2.39258,-2.39258 5.85937,-3.66211 3.49122,-1.29394 7.9834,-1.29394 2.85645,0 5.59082,0.61035 2.73438,0.61035 5.00489,1.58691 l -2.51465,6.05469 q -1.66016,-0.83008 -3.75977,-1.3916 -2.07519,-0.56152 -4.37012,-0.56152 -2.49023,0 -4.49218,0.8789 -1.97754,0.85449 -3.39356,2.44141 -1.41601,1.58691 -2.17285,3.83301 -0.75684,2.24609 -0.75684,5.00488 0,2.63672 0.5127,4.83398 0.53711,2.17285 1.66016,3.75977 1.12304,1.58691 2.88086,2.46582 1.78222,0.8789 4.24804,0.8789 1.61133,0 2.70996,-0.14648 1.12305,-0.14648 2.09961,-0.3418 l 0,-7.44629 -6.76269,0 0,-6.29882 z"
         inkscape:connector-curvature="0" />
      <path
         d="m 367.11269,348.83775 c 0.68619,10e-4 1.3723,0.003 2.05844,0.004 2.10829,0.005 3.61729,-0.36705 4.53283,-1.11682 0.91433,-0.76346 1.37222,-1.8824 1.37017,-3.31953 -0.002,-1.49227 -0.49664,-2.50674 -1.48002,-3.09892 -0.98126,-0.59091 -2.50622,-0.87166 -4.56133,-0.86277 -0.64496,0.003 -1.28989,0.005 -1.93488,0.008 0.0159,2.40939 0.0147,5.67121 0.0148,8.38549 z m 0.001,5.49811 c 10e-4,3.81882 0.005,7.80984 -0.0646,10.17732 -2.52698,-0.0495 -5.05195,-0.0919 -7.57915,-0.12723 0.0569,-2.70605 0.0677,-24.51493 -0.015,-28.44334 3.25798,-0.0226 6.51135,-0.0521 9.7692,-0.0881 4.55497,-0.0503 7.99674,0.46983 10.19681,1.75877 2.2201,1.28868 3.33828,3.40447 3.34381,6.60999 0.002,1.08185 -0.16141,2.08322 -0.48781,2.98463 -0.3267,0.90227 -0.76723,1.71129 -1.32249,2.4222 -0.53904,0.69624 -1.16696,1.30775 -1.88553,1.83507 -0.70215,0.51261 -1.44457,0.94049 -2.22849,1.28594 1.863,2.67743 3.39262,4.7843 4.87178,6.68165 0.61931,0.78847 1.2068,1.52385 1.77192,2.21792 0.57952,0.69205 1.09144,1.28218 1.53576,1.7835 0.44235,0.49908 0.80866,0.88446 1.08902,1.16257 0.13291,0.14491 0.26538,0.28755 0.39739,0.42789 -2.80349,-0.0915 -5.60384,-0.17566 -8.40781,-0.25212 -2.52422,-2.75143 -5.04862,-6.34695 -7.67651,-10.4168 -1.10279,-0.007 -2.20539,-0.0136 -3.30833,-0.0199 z"
         style="font-style:normal;font-variant:normal;font-weight:bold;font-stretch:normal;font-family:'Droid Sans';-inkscape-font-specification:'Droid Sans Bold';fill:#1a7759;fill-opacity:1"
         id="path6598"
         inkscape:original-d="m 367.21675,349.4964 2.05078,0 q 3.14942,0 4.5166,-1.24512 1.36719,-1.26953 1.36719,-3.71094 0,-2.53906 -1.46484,-3.61328 -1.46485,-1.07422 -4.54102,-1.07422 l -1.92871,0 0,9.64356 z m 0,6.15234 0,13.69629 -7.56836,0 0,-35.69336 9.76563,0 q 6.86035,0 10.13183,2.66114 3.27149,2.63671 3.27149,8.03222 0,1.83106 -0.48828,3.32031 -0.48829,1.48926 -1.31836,2.66114 -0.80567,1.14746 -1.87989,2.02636 -1.0498,0.8545 -2.22168,1.44043 2.70996,4.34571 4.8584,7.76368 0.92774,1.46484 1.78223,2.85644 0.87891,1.3916 1.5625,2.49024 0.68359,1.09863 1.12305,1.75781 l 0.41503,0.68359 -8.39843,0 -7.73926,-13.69629 -3.2959,0 z"
         inkscape:connector-curvature="0" />
      <path
         d="m 411.52433,366.0071 c -6.87726,-0.30863 -13.68901,-0.58903 -20.5701,-0.83147 0.1464,-2.87589 0.16756,-25.71196 -0.0441,-29.65274 6.87578,-0.1325 13.6846,-0.2877 20.55924,-0.46055 0.10223,1.5477 0.14851,3.27722 0.17121,5.06561 -4.34454,0.0428 -8.66385,0.0833 -13.01138,0.12076 0.0258,2.11602 0.0244,4.68893 0.0234,7.00772 4.04955,0.007 8.05813,0.014 12.10362,0.0212 -0.002,2.17074 -0.004,3.6728 -5.7e-4,5.82943 -4.04325,-0.0372 -8.05501,-0.0732 -12.10254,-0.10758 0.003,2.57026 0.0117,5.78453 -0.007,7.97383 4.34843,0.0987 8.66732,0.20399 13.01216,0.31426 -0.0146,1.70169 -0.0488,3.31777 -0.13382,4.71951 z"
         style="font-style:normal;font-variant:normal;font-weight:bold;font-stretch:normal;font-family:'Droid Sans';-inkscape-font-specification:'Droid Sans Bold';fill:#1a7759;fill-opacity:1"
         id="path6600"
         inkscape:original-d="m 411.65034,369.34503 -20.55664,0 0,-35.69336 20.55664,0 0,6.20117 -12.98828,0 0,7.83692 12.08496,0 0,6.20117 -12.08496,0 0,9.2041 12.98828,0 0,6.25 z"
         inkscape:connector-curvature="0" />
      <path
         d="m 439.55018,367.3552 c -6.94689,-0.34322 -13.6021,-0.67573 -20.55322,-1.0037 0.18029,-2.89685 0.19794,-27.76637 -0.0568,-31.4828 6.92629,-0.18446 13.62922,-0.37528 20.55431,-0.57238 0.12275,1.74801 0.17006,3.63416 0.18793,5.53925 -4.24293,0.0443 -8.74129,0.0924 -12.98832,0.13741 0.026,2.2233 0.0146,4.95865 0.009,7.33255 4.02404,0.007 8.0513,0.0133 12.06969,0.0192 -0.009,2.13242 -0.0116,3.91466 -0.006,6.03819 -4.00948,-0.0339 -8.05159,-0.0704 -12.06698,-0.10743 0.005,2.54653 0.027,6.1609 0.0106,8.42601 4.30323,0.11444 8.68648,0.23116 12.985,0.34158 -0.009,1.85412 -0.0426,3.67479 -0.14499,5.33207 z"
         style="font-style:normal;font-variant:normal;font-weight:bold;font-stretch:normal;font-family:'Droid Sans';-inkscape-font-specification:'Droid Sans Bold';fill:#1a7759;fill-opacity:1"
         id="path6602"
         inkscape:original-d="m 439.67769,369.34503 -20.55664,0 0,-35.69336 20.55664,0 0,6.20117 -12.98828,0 0,7.83692 12.08496,0 0,6.20117 -12.08496,0 0,9.2041 12.98828,0 0,6.25 z"
         inkscape:connector-curvature="0" />
      <path
         d="m 477.13777,369.00574 c -3.19281,-0.10722 -6.39026,-0.22725 -9.58341,-0.3564 0.99807,2.0559 -14.88608,-28.41223 -13.89713,-26.55093 -1.9e-4,10e-6 -0.21901,10e-4 -0.2192,10e-4 0.0922,1.21147 0.16363,2.44151 0.21897,3.65478 0.0569,1.04133 0.0977,2.14473 0.12517,3.30427 0.0437,1.14195 0.0671,2.17767 0.0685,3.09226 0.007,4.6565 0.15662,11.87047 -0.0766,15.89291 -2.25083,-0.10531 -4.50632,-0.21325 -6.75753,-0.32243 0.13812,-2.29775 0.13855,-30.86158 -0.0531,-33.63679 3.17589,-0.0894 6.36747,-0.17816 9.54317,-0.26366 2.68729,4.1567 11.56105,21.4175 14.12402,26.18673 -4e-5,0 0.14582,0.001 0.14578,0.001 -0.0634,-1.21114 -0.13922,-2.45055 -0.21692,-3.63608 -0.0222,-0.5183 -0.0519,-1.04553 -0.0888,-1.58096 -0.021,-0.55385 -0.0406,-1.0936 -0.0593,-1.63187 -0.0188,-0.55562 -0.0359,-1.07748 -0.0523,-1.58471 -1.4e-4,-0.50298 7.9e-4,-0.96032 0.002,-1.36586 0.0162,-4.66284 0.23089,-12.21829 -0.041,-16.73767 2.26089,-0.0525 4.52367,-0.10239 6.78454,-0.14878 -0.0366,-0.65087 0.003,36.33612 0.0331,35.68283 0,0 -5e-5,0 -5e-5,0 z"
         style="font-style:normal;font-variant:normal;font-weight:bold;font-stretch:normal;font-family:'Droid Sans';-inkscape-font-specification:'Droid Sans Bold';fill:#1a7759;fill-opacity:1"
         id="path6604"
         inkscape:original-d="m 477.29976,369.34503 -9.59473,0 -14.03808,-27.00195 -0.21973,0 q 0.14648,1.87988 0.24414,3.73535 0.0977,1.58691 0.14648,3.34473 0.0732,1.7334 0.0732,3.125 l 0,16.79687 -6.7627,0 0,-35.69336 9.5459,0 14.01367,26.7334 0.14649,0 q -0.0732,-1.85547 -0.1709,-3.66211 -0.0244,-0.78125 -0.0732,-1.58691 -0.0244,-0.83008 -0.0488,-1.63574 -0.0244,-0.83008 -0.0488,-1.58692 0,-0.75683 0,-1.36719 l 0,-16.89453 6.78711,0 0,35.69336 z"
         inkscape:connector-curvature="0" />
    </g>
    <g
       transform="matrix(1.0824068,0,0,1.0824068,-21.695801,-33.875865)"
       id="g6614"
       style="font-style:normal;font-variant:normal;font-weight:normal;font-stretch:normal;font-size:51.70339966px;line-height:257.99999237%;font-family:'Droid Sans';-inkscape-font-specification:'Droid Sans';letter-spacing:0px;word-spacing:0px;fill:#000000;fill-opacity:1;stroke:none;stroke-width:0.73400003;stroke-linecap:butt;stroke-linejoin:miter;stroke-miterlimit:4;stroke-dasharray:none;stroke-opacity:1">
      <path
         inkscape:connector-curvature="0"
         id="path6616"
         style="font-style:normal;font-variant:normal;font-weight:normal;font-stretch:normal;font-family:'Savoye LET';-inkscape-font-specification:'Savoye LET';fill:#000000;stroke:none;stroke-width:0.73400003;stroke-linejoin:miter;stroke-miterlimit:4;stroke-dasharray:none"
         d="m 238.23316,419.07569 0.75737,-1.94393 q 2.24688,0.98459 4.92294,0.98459 3.2567,0 5.93276,-2.17114 1.56524,-1.23705 2.62556,-2.77704 1.08557,-1.53999 2.29737,-4.1908 l 0.20197,-0.40394 q -2.09541,-1.33802 -3.10524,-3.63539 -0.98458,-2.32262 -0.98458,-5.75604 0,-2.37311 0.73212,-5.09966 0.73213,-2.75179 2.01967,-5.12489 1.08557,-2.12065 2.34786,-3.3072 1.26229,-1.2118 2.3731,-1.2118 1.51475,0 2.32262,1.8177 0.80786,1.81769 0.80786,5.17539 0,2.54982 -0.58065,5.6803 -0.55541,3.10523 -1.59049,6.23571 -1.03507,3.13048 -2.17113,5.22588 0.73212,0.27771 1.53999,0.27771 0.80786,0 1.69147,-0.27771 l -0.22721,0.68164 q -0.6564,0.20197 -1.61574,0.20197 -0.98458,0 -1.81769,-0.20197 -2.04491,3.48392 -4.44326,5.75604 -2.37311,2.24688 -5.20064,3.33245 -2.80228,1.08557 -6.15997,1.08557 -1.61574,0 -2.67606,-0.35344 z m 17.11665,-11.31012 q 0.95934,-2.17114 1.86819,-5.70555 0.95934,-3.61015 1.61573,-7.39702 0.65639,-3.81212 0.65639,-5.83178 0,-1.71672 -0.40393,-2.65081 -0.40393,-0.9341 -1.2118,-0.9341 -1.1613,0 -2.3731,2.29737 -1.18655,2.27212 -1.96917,5.85703 -0.75738,3.5849 -0.75738,6.99308 0,5.57933 2.57507,7.37178 z" />
      <path
         inkscape:connector-curvature="0"
         id="path6618"
         style="font-style:normal;font-variant:normal;font-weight:normal;font-stretch:normal;font-family:'Savoye LET';-inkscape-font-specification:'Savoye LET';fill:#000000;stroke:none;stroke-width:0.73400003;stroke-linejoin:miter;stroke-miterlimit:4;stroke-dasharray:none"
         d="m 261.53503,418.72225 2.67606,-13.98618 2.39835,-1.03508 -2.17114,9.26521 q 2.0954,-4.41801 4.16556,-6.71538 2.07015,-2.29737 3.96359,-2.29737 0.93409,0 1.51475,0.63115 0.58065,0.6059 0.58065,1.64097 0,0.58066 -0.2777,1.64098 l -0.25246,1.06032 -0.75738,3.07999 -0.25245,0.98459 q -0.37869,1.51475 -0.37869,2.32261 0,0.80787 0.2777,1.31278 0.27771,0.47967 0.73213,0.47967 0.78262,0 2.49934,-1.86818 l 0.40393,0.35344 -0.25246,0.2777 q -1.43901,1.69147 -2.12065,2.29737 -0.68163,0.58065 -1.26229,0.58065 -0.78262,0 -1.33802,-0.78262 -0.53017,-0.80786 -0.53017,-1.99442 0,-0.80786 0.30295,-2.39835 l 0.98459,-5.35211 q 0.20197,-1.26229 0.20197,-1.7672 0,-0.53017 -0.27771,-0.80787 -0.2777,-0.2777 -0.75737,-0.2777 -1.74196,0 -4.29179,3.73638 -1.23704,1.79245 -2.04491,3.55965 -0.80786,1.74196 -1.8177,4.8472 l -0.22721,0.68163 -1.69147,0.53017 z" />
      <path
         inkscape:connector-curvature="0"
         id="path6620"
         style="font-style:normal;font-variant:normal;font-weight:normal;font-stretch:normal;font-family:'Savoye LET';-inkscape-font-specification:'Savoye LET';fill:#000000;stroke:none;stroke-width:0.73400003;stroke-linejoin:miter;stroke-miterlimit:4;stroke-dasharray:none"
         d="m 296.37424,382.89845 -6.69014,29.10841 q -0.53016,2.32262 -0.53016,3.23147 0,0.80786 0.2777,1.31278 0.30295,0.50491 0.80787,0.50491 0.65639,0 1.59049,-0.98458 l 0.73212,-0.73213 q 0.0253,-0.0253 0.0505,-0.0505 0.0252,-0.0252 0.0757,-0.0505 l 0.37869,0.35344 -0.20197,0.22721 q -0.95934,1.06032 -0.98458,1.08557 l -0.83311,0.83311 q -0.63115,0.63114 -0.9341,0.78262 -0.2777,0.17672 -0.63114,0.17672 -0.83312,0 -1.38852,-0.85836 -0.55541,-0.85835 -0.55541,-1.96917 0,-0.65639 0.35344,-2.39835 l 0.2777,-1.43901 q -0.65639,1.59048 -2.07015,3.45867 -2.54983,3.28196 -4.94818,3.28196 -1.43901,0 -2.27212,-1.03508 -0.83311,-1.06032 -0.83311,-2.85278 0,-2.49933 1.31278,-5.04916 1.31278,-2.57507 3.33245,-4.24129 2.04491,-1.66622 4.06457,-1.66622 1.4895,0 2.77704,0.8836 l 4.11506,-20.62582 2.72655,-1.28754 z m -7.06882,23.17565 q -0.22722,-0.68164 -0.9341,-1.08557 -0.70688,-0.42918 -1.51475,-0.42918 -1.18655,0 -2.44884,1.06033 -1.23704,1.06032 -2.34786,3.00425 -0.80787,1.43901 -1.33803,3.15572 -0.50491,1.69147 -0.50491,3.07999 0,1.2118 0.50491,1.94392 0.53016,0.73213 1.43901,0.73213 1.06033,0 2.27213,-1.08557 1.23704,-1.08557 2.47408,-3.13048 0.83312,-1.38851 1.31279,-2.87802 0.58065,-1.91868 0.83311,-3.07998 l 0.25246,-1.28754 z" />
      <path
         inkscape:connector-curvature="0"
         id="path6622"
         style="font-style:normal;font-variant:normal;font-weight:normal;font-stretch:normal;font-family:'Savoye LET';-inkscape-font-specification:'Savoye LET';fill:#000000;stroke:none;stroke-width:0.73400003;stroke-linejoin:miter;stroke-miterlimit:4;stroke-dasharray:none"
         d="m 300.28734,393.80464 q 0.65639,0 1.06032,0.40393 0.40394,0.40394 0.40394,1.06033 0,0.63114 -0.42918,1.06032 -0.42918,0.42918 -1.03508,0.42918 -0.58065,0 -1.03508,-0.45443 -0.45442,-0.45442 -0.45442,-1.03507 0,-0.6059 0.42918,-1.03508 0.42917,-0.42918 1.06032,-0.42918 z m -0.73213,9.89635 -2.22163,8.30587 q -0.55541,2.04491 -0.55541,3.28196 0,0.80786 0.27771,1.31278 0.2777,0.50491 0.73212,0.50491 0.78262,0 2.49934,-1.86818 l 0.40393,0.35344 -0.25246,0.2777 q -1.43901,1.69147 -2.12064,2.29737 -0.68164,0.58065 -1.26229,0.58065 -0.78262,0 -1.33803,-0.78262 -0.53016,-0.80786 -0.53016,-1.99442 0,-0.75737 0.30295,-2.39835 l 1.59048,-8.83603 2.47409,-1.03508 z" />
      <path
         inkscape:connector-curvature="0"
         id="path6624"
         style="font-style:normal;font-variant:normal;font-weight:normal;font-stretch:normal;font-family:'Savoye LET';-inkscape-font-specification:'Savoye LET';fill:#000000;stroke:none;stroke-width:0.73400003;stroke-linejoin:miter;stroke-miterlimit:4;stroke-dasharray:none"
         d="m 316.21744,403.54952 -2.37311,9.23996 q -0.37868,1.51475 -0.37868,2.37311 0,0.75737 0.32819,1.31278 0.3282,0.55541 0.80787,0.55541 0.73212,0 2.42359,-1.79245 l 0.35344,0.35344 -0.2777,0.32819 q -1.33803,1.54 -2.07016,2.17114 -0.70688,0.6059 -1.23704,0.6059 -0.80787,0 -1.41376,-0.83311 -0.58066,-0.85836 -0.58066,-1.96917 0,-0.80787 0.6059,-3.66065 l 0.20197,-0.95934 q -0.9341,2.17114 -2.49934,4.16556 -2.62556,3.33245 -5.02391,3.33245 -1.43901,0 -2.27212,-1.03508 -0.83311,-1.03508 -0.83311,-2.77704 0,-2.3731 1.33802,-4.97342 1.36328,-2.60032 3.35769,-4.26654 2.01967,-1.69147 3.9131,-1.69147 1.99442,0 2.97901,1.46426 l 0.2777,-0.95934 2.37311,-0.98459 z m -2.90327,3.23146 q -0.30295,-0.95934 -1.03508,-1.4895 -0.70688,-0.55541 -1.64097,-0.55541 -1.11082,0 -2.34786,1.03508 -1.23705,1.00983 -2.27213,2.82753 -0.80786,1.43901 -1.36327,3.18097 -0.53016,1.74196 -0.53016,2.87802 0,1.28754 0.47967,2.01967 0.50492,0.73212 1.41376,0.73212 1.16131,0 2.4236,-1.08557 1.26229,-1.08556 2.49933,-3.10523 0.75738,-1.16131 1.18656,-2.32261 0.42918,-1.16131 0.95934,-3.23147 l 0.22721,-0.8836 z" />
      <path
         inkscape:connector-curvature="0"
         id="path6626"
         style="font-style:normal;font-variant:normal;font-weight:normal;font-stretch:normal;font-family:'Savoye LET';-inkscape-font-specification:'Savoye LET';fill:#000000;stroke:none;stroke-width:0.73400003;stroke-linejoin:miter;stroke-miterlimit:4;stroke-dasharray:none"
         d="m 319.09546,418.72225 2.67605,-13.98618 2.39835,-1.03508 -2.17114,9.26521 q 2.09541,-4.41801 4.16556,-6.71538 2.07016,-2.29737 3.96359,-2.29737 0.9341,0 1.51475,0.63115 0.58065,0.6059 0.58065,1.64097 0,0.58066 -0.2777,1.64098 l -0.25246,1.06032 -0.75737,3.07999 -0.25246,0.98459 q -0.37869,1.51475 -0.37869,2.32261 0,0.80787 0.27771,1.31278 0.2777,0.47967 0.73212,0.47967 0.78262,0 2.49934,-1.86818 l 0.40393,0.35344 -0.25246,0.2777 q -1.43901,1.69147 -2.12064,2.29737 -0.68164,0.58065 -1.26229,0.58065 -0.78262,0 -1.33803,-0.78262 -0.53016,-0.80786 -0.53016,-1.99442 0,-0.80786 0.30295,-2.39835 l 0.98458,-5.35211 q 0.20197,-1.26229 0.20197,-1.7672 0,-0.53017 -0.2777,-0.80787 -0.27771,-0.2777 -0.75738,-0.2777 -1.74196,0 -4.29178,3.73638 -1.23705,1.79245 -2.04491,3.55965 -0.80787,1.74196 -1.8177,4.8472 l -0.22721,0.68163 -1.69147,0.53017 z" />
      <path
         inkscape:connector-curvature="0"
         id="path6628"
         style="font-style:normal;font-variant:normal;font-weight:normal;font-stretch:normal;font-family:'Savoye LET';-inkscape-font-specification:'Savoye LET';fill:#000000;stroke:none;stroke-width:0.73400003;stroke-linejoin:miter;stroke-miterlimit:4;stroke-dasharray:none"
         d="m 359.84218,398.60134 -0.70688,-1.91868 q 2.34786,-0.68163 4.44326,-2.0954 2.0954,-1.41376 3.28195,-3.13048 1.2118,-1.71671 1.2118,-3.38294 0,-1.23704 -0.80787,-1.94392 -0.78262,-0.70689 -2.12064,-0.70689 -1.59049,0 -3.48392,0.83312 -1.89344,0.83311 -3.76163,2.32261 -1.84294,1.4895 -3.53441,3.5849 -1.84294,2.29737 -3.07999,4.79671 -1.23704,2.49933 -1.86819,5.09965 -0.63114,2.57507 -0.63114,5.35211 0,4.72096 2.17114,7.498 2.17114,2.75179 5.93276,2.75179 2.4236,0 4.69572,-1.08557 2.29737,-1.08557 5.25113,-3.63539 l 0.40393,-0.3282 0.30295,0.55541 q -3.00425,2.979 -6.03375,4.46851 -3.02949,1.4895 -6.10948,1.4895 -2.77704,0 -4.94818,-1.31278 -2.14589,-1.33803 -3.33244,-3.71114 -1.16131,-2.39835 -1.16131,-5.60456 0,-2.32262 0.68164,-4.8472 0.68163,-2.52458 2.01966,-5.09965 1.36327,-2.60032 3.20622,-5.02391 1.94392,-2.57508 4.31703,-4.59474 2.3731,-2.04491 4.74621,-3.15572 2.39835,-1.11082 4.29178,-1.11082 1.79246,0 2.85278,1.03508 1.08557,1.00983 1.08557,2.75179 0,1.94393 -1.28754,4.06457 -1.28753,2.09541 -3.43342,3.76163 -2.1459,1.64098 -4.59474,2.32261 z" />
      <path
         inkscape:connector-curvature="0"
         id="path6630"
         style="font-style:normal;font-variant:normal;font-weight:normal;font-stretch:normal;font-family:'Savoye LET';-inkscape-font-specification:'Savoye LET';fill:#000000;stroke:none;stroke-width:0.73400003;stroke-linejoin:miter;stroke-miterlimit:4;stroke-dasharray:none"
         d="m 374.66146,403.70099 -2.44884,9.77013 q -0.3282,1.31278 -0.3282,2.22163 0,0.8836 0.55541,1.41376 0.55541,0.53017 1.43901,0.53017 2.14589,0 4.46851,-3.50917 l 0.10098,-0.15147 q 0.0505,-0.25246 0.0757,-0.40394 l 1.59048,-8.83603 2.47409,-1.03508 -2.22163,8.30587 q -0.55541,2.04491 -0.55541,3.28196 0,0.80786 0.27771,1.31278 0.2777,0.50491 0.73213,0.50491 0.78262,0 2.49933,-1.86818 l 0.40393,0.35344 -0.25245,0.2777 q -1.43901,1.69147 -2.12065,2.29737 -0.68164,0.58065 -1.26229,0.58065 -0.78262,0 -1.33803,-0.78262 -0.53016,-0.80786 -0.53016,-1.99442 0,-0.37868 0.0253,-0.70688 -2.62557,3.48392 -5.20064,3.48392 -1.28754,0 -2.07016,-0.73213 -0.75737,-0.75737 -0.75737,-1.99442 0,-0.95934 0.2777,-2.34785 l 1.71672,-8.93702 2.44884,-1.03508 z" />
      <path
         inkscape:connector-curvature="0"
         id="path6632"
         style="font-style:normal;font-variant:normal;font-weight:normal;font-stretch:normal;font-family:'Savoye LET';-inkscape-font-specification:'Savoye LET';fill:#000000;stroke:none;stroke-width:0.73400003;stroke-linejoin:miter;stroke-miterlimit:4;stroke-dasharray:none"
         d="m 390.86927,393.80464 q 0.6564,0 1.06033,0.40393 0.40393,0.40394 0.40393,1.06033 0,0.63114 -0.42918,1.06032 -0.42918,0.42918 -1.03508,0.42918 -0.58065,0 -1.03507,-0.45443 -0.45443,-0.45442 -0.45443,-1.03507 0,-0.6059 0.42918,-1.03508 0.42918,-0.42918 1.06032,-0.42918 z m -0.73212,9.89635 -2.22163,8.30587 q -0.55541,2.04491 -0.55541,3.28196 0,0.80786 0.2777,1.31278 0.27771,0.50491 0.73213,0.50491 0.78262,0 2.49933,-1.86818 l 0.40394,0.35344 -0.25246,0.2777 q -1.43901,1.69147 -2.12065,2.29737 -0.68163,0.58065 -1.26229,0.58065 -0.78262,0 -1.33803,-0.78262 -0.53016,-0.80786 -0.53016,-1.99442 0,-0.75737 0.30295,-2.39835 l 1.59049,-8.83603 2.47409,-1.03508 z" />
      <path
         inkscape:connector-curvature="0"
         id="path6634"
         style="font-style:normal;font-variant:normal;font-weight:normal;font-stretch:normal;font-family:'Savoye LET';-inkscape-font-specification:'Savoye LET';fill:#000000;stroke:none;stroke-width:0.73400003;stroke-linejoin:miter;stroke-miterlimit:4;stroke-dasharray:none"
         d="m 391.17221,416.85406 1.41377,-1.66623 q 1.11082,2.62557 3.53441,2.62557 1.26229,0 2.14589,-0.80787 0.90885,-0.83311 0.90885,-1.91868 0,-0.78262 -0.42917,-1.33803 -0.42918,-0.5554 -2.04491,-1.86819 -1.48951,-1.21179 -2.01967,-1.89343 -0.50491,-0.70688 -0.50491,-1.61573 0,-1.18656 0.68163,-2.19639 0.70688,-1.00983 1.86819,-1.61573 1.16131,-0.63114 2.44884,-0.63114 1.13606,0 1.89344,0.58065 0.78262,0.55541 0.78262,1.43901 0,1.16131 -0.98459,1.59049 -0.15147,-1.18656 -0.90885,-1.84295 -0.73212,-0.68163 -1.89343,-0.68163 -1.03508,0 -1.8177,0.68163 -0.75737,0.65639 -0.75737,1.51475 0,1.06032 1.31278,2.0954 l 1.46425,1.18655 q 2.1459,1.69147 2.1459,3.45868 0,1.31278 -0.75738,2.47409 -0.73212,1.13606 -2.01966,1.8177 -1.26229,0.68163 -2.67605,0.68163 -2.24688,0 -3.78688,-2.07015 z" />
      <path
         inkscape:connector-curvature="0"
         id="path6636"
         style="font-style:normal;font-variant:normal;font-weight:normal;font-stretch:normal;font-family:'Savoye LET';-inkscape-font-specification:'Savoye LET';fill:#000000;stroke:none;stroke-width:0.73400003;stroke-linejoin:miter;stroke-miterlimit:4;stroke-dasharray:none"
         d="m 409.34919,393.80464 q 0.65639,0 1.06033,0.40393 0.40393,0.40394 0.40393,1.06033 0,0.63114 -0.42918,1.06032 -0.42918,0.42918 -1.03508,0.42918 -0.58065,0 -1.03507,-0.45443 -0.45443,-0.45442 -0.45443,-1.03507 0,-0.6059 0.42918,-1.03508 0.42918,-0.42918 1.06032,-0.42918 z m -0.73212,9.89635 -2.22163,8.30587 q -0.55541,2.04491 -0.55541,3.28196 0,0.80786 0.2777,1.31278 0.27771,0.50491 0.73213,0.50491 0.78262,0 2.49933,-1.86818 l 0.40394,0.35344 -0.25246,0.2777 q -1.43901,1.69147 -2.12065,2.29737 -0.68164,0.58065 -1.26229,0.58065 -0.78262,0 -1.33803,-0.78262 -0.53016,-0.80786 -0.53016,-1.99442 0,-0.75737 0.30295,-2.39835 l 1.59049,-8.83603 2.47409,-1.03508 z" />
      <path
         inkscape:connector-curvature="0"
         id="path6638"
         style="font-style:normal;font-variant:normal;font-weight:normal;font-stretch:normal;font-family:'Savoye LET';-inkscape-font-specification:'Savoye LET';fill:#000000;stroke:none;stroke-width:0.73400003;stroke-linejoin:miter;stroke-miterlimit:4;stroke-dasharray:none"
         d="m 411.29313,418.72225 2.67605,-13.98618 2.39835,-1.03508 -2.17114,9.26521 q 2.09541,-4.41801 4.16556,-6.71538 2.07016,-2.29737 3.96359,-2.29737 0.9341,0 1.51475,0.63115 0.58065,0.6059 0.58065,1.64097 0,0.58066 -0.2777,1.64098 l -0.25246,1.06032 -0.75737,3.07999 -0.25246,0.98459 q -0.37869,1.51475 -0.37869,2.32261 0,0.80787 0.27771,1.31278 0.2777,0.47967 0.73212,0.47967 0.78262,0 2.49934,-1.86818 l 0.40393,0.35344 -0.25246,0.2777 q -1.43901,1.69147 -2.12064,2.29737 -0.68164,0.58065 -1.26229,0.58065 -0.78262,0 -1.33803,-0.78262 -0.53016,-0.80786 -0.53016,-1.99442 0,-0.80786 0.30295,-2.39835 l 0.98458,-5.35211 q 0.20197,-1.26229 0.20197,-1.7672 0,-0.53017 -0.2777,-0.80787 -0.27771,-0.2777 -0.75738,-0.2777 -1.74196,0 -4.29178,3.73638 -1.23705,1.79245 -2.04491,3.55965 -0.80787,1.74196 -1.8177,4.8472 l -0.22721,0.68163 -1.69147,0.53017 z" />
      <path
         inkscape:connector-curvature="0"
         id="path6640"
         style="font-style:normal;font-variant:normal;font-weight:normal;font-stretch:normal;font-family:'Savoye LET';-inkscape-font-specification:'Savoye LET';fill:#000000;stroke:none;stroke-width:0.73400003;stroke-linejoin:miter;stroke-miterlimit:4;stroke-dasharray:none"
         d="m 438.12942,414.55669 0.45442,0.37869 q -1.56524,2.07015 -3.05474,3.00425 -1.4895,0.90884 -3.20622,0.90884 -2.04491,0 -3.28195,-1.36327 -1.23705,-1.36327 -1.23705,-3.61015 0,-2.27212 1.18656,-4.59473 1.21179,-2.34786 3.00425,-3.86261 1.81769,-1.54 3.5849,-1.54 1.03508,0 1.69147,0.6059 0.68163,0.6059 0.68163,1.56524 0,1.94393 -2.12064,3.88786 -2.12065,1.94392 -5.78129,3.3072 -0.0253,0.20196 -0.0253,0.45442 0,1.74196 0.95934,2.85278 0.95934,1.08557 2.47409,1.08557 1.18655,0 2.29737,-0.73213 1.11082,-0.75738 2.37311,-2.34786 z m -8.07866,-1.91868 q 2.72655,-1.2118 4.1908,-2.7013 0.98459,-1.00984 1.59049,-2.17114 0.6059,-1.16131 0.6059,-2.0954 0,-1.18656 -1.08557,-1.18656 -1.64098,0 -3.33245,2.60032 -1.66622,2.57507 -1.96917,5.55408 z" />
    </g>
  </g>
  <g
     inkscape:groupmode="layer"
     id="layer7"
     inkscape:label="yellow part"
     style="display:inline"
     transform="translate(-156.58569,-325.52803)" />
  <g
     inkscape:groupmode="layer"
     id="layer3"
     inkscape:label="plant"
     style="display:inline"
     transform="translate(-156.58569,-325.52803)" />
  <g
     inkscape:groupmode="layer"
     id="layer4"
     inkscape:label="plant inner"
     style="display:inline"
     transform="translate(-156.58569,-325.52803)" />
  <g
     inkscape:groupmode="layer"
     id="layer5"
     inkscape:label="red part"
     style="display:inline"
     transform="translate(-156.58569,-325.52803)">
    <g
       id="g4908"
       transform="matrix(0.82000212,0,0,0.82000212,-24.31613,-123.41973)">
      <path
         sodipodi:nodetypes="cssssssssc"
         inkscape:connector-curvature="0"
         id="path4902"
         d="m 641.55782,571.97575 c 0,0 1.41721,2.68782 2.24799,-0.58643 0.83078,-3.27425 3.71408,-13.24361 4.49599,-14.26987 0.78191,-1.02626 1.41721,-1.7593 0.34208,-2.98104 -1.07512,-1.22173 -1.61269,-1.36834 -2.59007,-0.97739 -0.97739,0.39096 -8.40555,4.05617 -8.7965,4.34938 -0.39096,0.29322 -2.73669,0.24435 -2.59008,2.29687 0.14661,2.05251 1.2706,3.61633 1.7593,3.76294 0.48869,0.14661 3.27425,3.27425 3.27425,5.2779 0,2.00365 1.85704,3.12764 1.85704,3.12764 z"
         style="display:inline;fill:#e5e6bd;fill-opacity:1;fill-rule:evenodd;stroke:#e5e6bd;stroke-width:1px;stroke-linecap:butt;stroke-linejoin:miter;stroke-opacity:1" />
      <path
         sodipodi:nodetypes="csscscsscccccccccsccsccccsscc"
         inkscape:connector-curvature="0"
         id="path4832"
         d="m 640.80465,582.07806 c 0.55404,-1.99107 -8.84631,-2.76447 -11.61079,-1.10579 -2.76447,1.65868 -8.09702,6.0862 -8.29341,10.50499 -0.0691,1.55502 -0.72567,11.23067 -0.72567,11.23067 0,0 0.17277,5.90906 1.27856,8.67353 1.10579,2.76448 1.10579,5.52895 1.10579,5.52895 0,0 1.10579,-6.08184 6.08184,-8.29342 4.97605,-2.21158 11.61078,-5.52894 12.16368,-7.74052 0.55289,-2.21158 1.65868,-1.10579 1.65868,-1.10579 l 1.10579,4.83783 c -2.4897,1.28567 -1.46875,1.2882 -5.18339,3.04092 -2.52258,1.03668 11.19612,-2.21158 11.26523,-3.45559 0.22708,-1.69193 -1.52424,-4.13726 -3.87027,-0.10367 -0.3514,1.87164 -2.21157,-5.97817 -2.21157,-5.97817 l 3.31737,-7.74052 c 1.10579,-3.17914 -2.48803,-6.22007 -2.48803,-6.22007 -0.15972,-3.50117 6.75158,-6.50488 8.09937,-2.56204 0.82047,3.77336 0.85056,7.41537 4.17593,7.91779 3.65946,0.55289 10.23288,1.33768 12.44445,4.10215 4.81383,7.38421 0.75384,-12.4373 2.09563,-17.61309 1.65868,-5.52894 0.0865,-9.80369 -6.08184,-9.39921 -8.43164,0.5529 -19.76597,11.47256 -19.76597,11.47256 0,0 -1.5861,-4.88813 7.8131,-12.9051 2.06164,-3.36255 7.85987,-6.50863 5.45636,-7.96666 -12.53396,-9.81929 -10.49101,4.59435 -16.58683,16.44861 -1.80817,-2.19912 -6.70341,-14.71076 -8.57969,-12.61189 -1.40587,1.57265 -7.26116,1.05761 -8.14537,6.11538 -0.16853,0.964 -0.19884,7.20678 6.97683,7.70699 10.42552,-1.72332 12.50434,6.34343 8.50422,7.22116 z"
         style="display:inline;fill:#419a82;fill-opacity:1;fill-rule:evenodd;stroke:#419a82;stroke-width:1px;stroke-linecap:butt;stroke-linejoin:miter;stroke-opacity:1" />
      <path
         sodipodi:nodetypes="cscssssccscsscssssssc"
         inkscape:connector-curvature="0"
         id="path4860"
         d="m 628.77919,602.94982 c 0,0 4.00849,-11.88723 8.29342,-16.17216 4.28493,-4.28493 5.94361,-4.6996 5.66717,-5.52894 -0.27645,-0.82934 0.69112,-2.9027 -3.04092,-5.66717 -3.73204,-2.76447 -6.49651,-3.17914 -4.97605,-4.28493 1.52046,-1.10579 3.87026,-0.69112 5.94361,-1.65869 2.07336,-0.96756 10.96318,-9.01671 13.61037,-10.27766 10.91871,-5.201 1.7969,2.21158 1.24401,3.17915 -0.5529,0.96756 -10.01655,11.38345 -10.15477,11.93634 -0.13823,0.55289 -2.34981,1.93513 -1.65869,3.17914 0.69112,1.24402 1.65869,2.07336 1.65869,2.07336 0,0 5.11427,-5.94362 7.46407,-5.94362 2.3498,0 6.77296,-3.73204 11.19611,1.79691 4.42316,5.52894 7.06618,8.26682 7.06618,8.26682 l 0.29321,7.71969 c 0.005,0.13812 -3.48913,-4.7904 -7.22116,-8.24599 -3.73204,-3.45559 -7.32585,-6.63473 -10.78144,-5.66717 -3.45559,0.96757 -6.49651,1.79691 -8.84632,4.42316 -2.3498,2.62625 -6.49651,6.35828 -8.56986,10.09032 -2.07335,3.73204 -5.11427,11.61078 -6.22006,11.19611 -1.10579,-0.41467 -0.96757,-0.41467 -0.96757,-0.41467 z"
         style="display:inline;fill:#274944;fill-opacity:1;fill-rule:evenodd;stroke:#274944;stroke-width:1px;stroke-linecap:butt;stroke-linejoin:miter;stroke-opacity:1" />
      <path
         sodipodi:nodetypes="cccccssscscscsssscsssc"
         inkscape:connector-curvature="0"
         d="m 644.12201,560.6534 -2.62624,-0.69112 c -1.10579,1.93513 0.41467,3.04092 0.41467,3.04092 2.21157,-0.96756 2.21157,-2.3498 2.21157,-2.3498 z m 11.47256,1.52046 c 0,0 -2.62625,-0.96757 -4.00848,-2.07336 -1.38224,-1.10578 -3.17914,-2.48802 -4.42316,-1.93513 -1.24401,0.5529 -3.04092,-0.69111 -1.38223,-2.07335 1.65868,-1.38224 2.62625,-2.62625 2.62625,-2.62625 0,0 -3.31737,1.24401 -3.31737,0.27645 0,-0.96757 -0.82934,-4.42316 -0.82934,-4.42316 0,0 -0.69112,-3.31736 -2.21158,0.5529 -1.52046,3.87026 -1.93513,6.77295 -1.93513,6.77295 0,0 -3.59381,1.65869 -3.59381,2.76448 0,1.10579 3.31736,-1.52046 2.90269,0 -0.41467,1.52046 -0.27645,3.17914 -1.93513,3.87026 -1.65868,0.69112 -3.17914,2.76447 -4.00848,4.97605 -0.82935,2.21158 -2.07336,3.31736 -2.07336,3.31736 0,0 1.79691,-0.69111 4.83783,-1.93513 3.04092,-1.24401 1.24401,-3.45559 4.42315,-4.00848 3.17915,-0.5529 3.73204,-1.93513 4.56138,-0.5529 0.82934,1.38224 10.36677,-2.90269 10.36677,-2.90269 z"
         style="fill:#b84e52;fill-opacity:1;fill-rule:evenodd;stroke:#b84e52;stroke-width:1px;stroke-linecap:butt;stroke-linejoin:miter;stroke-opacity:1"
         id="path4865" />
    </g>
    <g
       transform="matrix(0.77727936,0,0,0.77727936,-325.07434,-93.05979)"
       id="g4914">
      <path
         style="display:inline;fill:#e5e6bd;fill-opacity:1;fill-rule:evenodd;stroke:#e5e6bd;stroke-width:1px;stroke-linecap:butt;stroke-linejoin:miter;stroke-opacity:1"
         d="m 641.55782,571.97575 c 0,0 1.41721,2.68782 2.24799,-0.58643 0.83078,-3.27425 3.71408,-13.24361 4.49599,-14.26987 0.78191,-1.02626 1.41721,-1.7593 0.34208,-2.98104 -1.07512,-1.22173 -1.61269,-1.36834 -2.59007,-0.97739 -0.97739,0.39096 -8.40555,4.05617 -8.7965,4.34938 -0.39096,0.29322 -2.73669,0.24435 -2.59008,2.29687 0.14661,2.05251 1.2706,3.61633 1.7593,3.76294 0.48869,0.14661 3.27425,3.27425 3.27425,5.2779 0,2.00365 1.85704,3.12764 1.85704,3.12764 z"
         id="path4916"
         inkscape:connector-curvature="0"
         sodipodi:nodetypes="cssssssssc" />
      <path
         style="display:inline;fill:#419a82;fill-opacity:1;fill-rule:evenodd;stroke:#419a82;stroke-width:1px;stroke-linecap:butt;stroke-linejoin:miter;stroke-opacity:1"
         d="m 640.80465,582.07806 c 0.55404,-1.99107 -8.84631,-2.76447 -11.61079,-1.10579 -2.76447,1.65868 -8.09702,6.0862 -8.29341,10.50499 -0.0691,1.55502 -0.72567,11.23067 -0.72567,11.23067 0,0 0.17277,5.90906 1.27856,8.67353 1.10579,2.76448 1.10579,5.52895 1.10579,5.52895 0,0 1.10579,-6.08184 6.08184,-8.29342 4.97605,-2.21158 11.61078,-5.52894 12.16368,-7.74052 0.55289,-2.21158 1.65868,-1.10579 1.65868,-1.10579 l 1.10579,4.83783 c -2.4897,1.28567 -1.46875,1.2882 -5.18339,3.04092 -2.52258,1.03668 11.19612,-2.21158 11.26523,-3.45559 0.22708,-1.69193 -1.52424,-4.13726 -3.87027,-0.10367 -0.3514,1.87164 -2.21157,-5.97817 -2.21157,-5.97817 l 3.31737,-7.74052 c 1.10579,-3.17914 -2.48803,-6.22007 -2.48803,-6.22007 -0.15972,-3.50117 6.75158,-6.50488 8.09937,-2.56204 0.82047,3.77336 0.85056,7.41537 4.17593,7.91779 3.65946,0.55289 10.23288,1.33768 12.44445,4.10215 4.81383,7.38421 0.75384,-12.4373 2.09563,-17.61309 1.65868,-5.52894 0.0865,-9.80369 -6.08184,-9.39921 -8.43164,0.5529 -19.76597,11.47256 -19.76597,11.47256 0,0 -1.5861,-4.88813 7.8131,-12.9051 2.06164,-3.36255 7.85987,-6.50863 5.45636,-7.96666 -12.53396,-9.81929 -10.49101,4.59435 -16.58683,16.44861 -1.80817,-2.19912 -6.70341,-14.71076 -8.57969,-12.61189 -1.40587,1.57265 -7.26116,1.05761 -8.14537,6.11538 -0.16853,0.964 -0.19884,7.20678 6.97683,7.70699 10.42552,-1.72332 12.50434,6.34343 8.50422,7.22116 z"
         id="path4918"
         inkscape:connector-curvature="0"
         sodipodi:nodetypes="csscscsscccccccccsccsccccsscc" />
      <path
         style="display:inline;fill:#274944;fill-opacity:1;fill-rule:evenodd;stroke:#274944;stroke-width:1px;stroke-linecap:butt;stroke-linejoin:miter;stroke-opacity:1"
         d="m 628.77919,602.94982 c 0,0 4.00849,-11.88723 8.29342,-16.17216 4.28493,-4.28493 5.94361,-4.6996 5.66717,-5.52894 -0.27645,-0.82934 0.69112,-2.9027 -3.04092,-5.66717 -3.73204,-2.76447 -6.49651,-3.17914 -4.97605,-4.28493 1.52046,-1.10579 3.87026,-0.69112 5.94361,-1.65869 2.07336,-0.96756 10.96318,-9.01671 13.61037,-10.27766 10.91871,-5.201 1.7969,2.21158 1.24401,3.17915 -0.5529,0.96756 -10.01655,11.38345 -10.15477,11.93634 -0.13823,0.55289 -2.34981,1.93513 -1.65869,3.17914 0.69112,1.24402 1.65869,2.07336 1.65869,2.07336 0,0 5.11427,-5.94362 7.46407,-5.94362 2.3498,0 6.77296,-3.73204 11.19611,1.79691 4.42316,5.52894 7.06618,8.26682 7.06618,8.26682 l 0.29321,7.71969 c 0.005,0.13812 -3.48913,-4.7904 -7.22116,-8.24599 -3.73204,-3.45559 -7.32585,-6.63473 -10.78144,-5.66717 -3.45559,0.96757 -6.49651,1.79691 -8.84632,4.42316 -2.3498,2.62625 -6.49651,6.35828 -8.56986,10.09032 -2.07335,3.73204 -5.11427,11.61078 -6.22006,11.19611 -1.10579,-0.41467 -0.96757,-0.41467 -0.96757,-0.41467 z"
         id="path4920"
         inkscape:connector-curvature="0"
         sodipodi:nodetypes="cscssssccscsscssssssc" />
      <path
         id="path4922"
         style="fill:#b84e52;fill-opacity:1;fill-rule:evenodd;stroke:#b84e52;stroke-width:1px;stroke-linecap:butt;stroke-linejoin:miter;stroke-opacity:1"
         d="m 644.12201,560.6534 -2.62624,-0.69112 c -1.10579,1.93513 0.41467,3.04092 0.41467,3.04092 2.21157,-0.96756 2.21157,-2.3498 2.21157,-2.3498 z m 11.47256,1.52046 c 0,0 -2.62625,-0.96757 -4.00848,-2.07336 -1.38224,-1.10578 -3.17914,-2.48802 -4.42316,-1.93513 -1.24401,0.5529 -3.04092,-0.69111 -1.38223,-2.07335 1.65868,-1.38224 2.62625,-2.62625 2.62625,-2.62625 0,0 -3.31737,1.24401 -3.31737,0.27645 0,-0.96757 -0.82934,-4.42316 -0.82934,-4.42316 0,0 -0.69112,-3.31736 -2.21158,0.5529 -1.52046,3.87026 -1.93513,6.77295 -1.93513,6.77295 0,0 -3.59381,1.65869 -3.59381,2.76448 0,1.10579 3.31736,-1.52046 2.90269,0 -0.41467,1.52046 -0.27645,3.17914 -1.93513,3.87026 -1.65868,0.69112 -3.17914,2.76447 -4.00848,4.97605 -0.82935,2.21158 -2.07336,3.31736 -2.07336,3.31736 0,0 1.79691,-0.69111 4.83783,-1.93513 3.04092,-1.24401 1.24401,-3.45559 4.42315,-4.00848 3.17915,-0.5529 3.73204,-1.93513 4.56138,-0.5529 0.82934,1.38224 10.36677,-2.90269 10.36677,-2.90269 z"
         inkscape:connector-curvature="0"
         sodipodi:nodetypes="cccccssscscscsssscsssc" />
    </g>
  </g>
</svg>
