<?xml version="1.0" encoding="UTF-8" standalone="no"?>
<!-- Created with Inkscape (http://www.inkscape.org/) -->

<svg
   xmlns:dc="http://purl.org/dc/elements/1.1/"
   xmlns:cc="http://creativecommons.org/ns#"
   xmlns:rdf="http://www.w3.org/1999/02/22-rdf-syntax-ns#"
   xmlns:svg="http://www.w3.org/2000/svg"
   xmlns="http://www.w3.org/2000/svg"
   xmlns:sodipodi="http://sodipodi.sourceforge.net/DTD/sodipodi-0.dtd"
   xmlns:inkscape="http://www.inkscape.org/namespaces/inkscape"
   width="148.04974"
   height="61.175999"
   id="svg2"
   version="1.1"
   inkscape:version="0.91 r13725"
   sodipodi:docname="logo.svg">
  <defs
     id="defs4">
    <filter
       inkscape:collect="always"
       id="filter5588"
       style="color-interpolation-filters:sRGB">
      <feGaussianBlur
         inkscape:collect="always"
         stdDeviation="0.18931269"
         id="feGaussianBlur5590" />
    </filter>
    <filter
       inkscape:collect="always"
       id="filter5592"
       style="color-interpolation-filters:sRGB">
      <feGaussianBlur
         inkscape:collect="always"
         stdDeviation="0.18931269"
         id="feGaussianBlur5594" />
    </filter>
    <filter
       inkscape:collect="always"
       id="filter5596"
       style="color-interpolation-filters:sRGB">
      <feGaussianBlur
         inkscape:collect="always"
         stdDeviation="0.18931269"
         id="feGaussianBlur5598" />
    </filter>
    <filter
       inkscape:collect="always"
       id="filter5600"
       style="color-interpolation-filters:sRGB">
      <feGaussianBlur
         inkscape:collect="always"
         stdDeviation="0.18931269"
         id="feGaussianBlur5602" />
    </filter>
    <filter
       inkscape:collect="always"
       id="filter5604"
       style="color-interpolation-filters:sRGB">
      <feGaussianBlur
         inkscape:collect="always"
         stdDeviation="0.18931269"
         id="feGaussianBlur5606" />
    </filter>
  </defs>
  <sodipodi:namedview
     id="base"
     pagecolor="#ffffff"
     bordercolor="#666666"
     borderopacity="1.0"
     inkscape:pageopacity="0.0"
     inkscape:pageshadow="2"
     inkscape:zoom="2.0173603"
     inkscape:cx="177.1988"
     inkscape:cy="23.109094"
     inkscape:document-units="px"
     inkscape:current-layer="g5613"
     showgrid="false"
     inkscape:window-width="1680"
     inkscape:window-height="1001"
     inkscape:window-x="0"
     inkscape:window-y="0"
     inkscape:window-maximized="1"
     showguides="true"
     inkscape:guide-bbox="true"
     fit-margin-top="0"
     fit-margin-left="0"
     fit-margin-right="0"
     fit-margin-bottom="0" />
  <metadata
     id="metadata7">
    <rdf:RDF>
      <cc:Work
         rdf:about="">
        <dc:format>image/svg+xml</dc:format>
        <dc:type
           rdf:resource="http://purl.org/dc/dcmitype/StillImage" />
        <dc:title></dc:title>
      </cc:Work>
    </rdf:RDF>
  </metadata>
  <g
     inkscape:groupmode="layer"
     id="layer9"
     inkscape:label="kimhoa"
     style="display:inline"
     transform="translate(614.3533,-381.46005)">
    <path
       style="fill:#000000;stroke:#000000;stroke-width:0.16786335px;stroke-linecap:butt;stroke-linejoin:miter;stroke-opacity:1"
       d="m -597.61403,418.39271 0.94578,1.32408 5.29633,-2.45901 c 0,0 2.26985,4.16141 0.18916,11.91675 -1.13493,0.47289 -4.82345,-2.17528 -4.82345,-2.17528 l -2.26987,2.9319 4.6343,4.63429 -1.32409,2.17528 c 0,0 -8.98484,4.63429 -15.98357,-6.52584 -0.8512,0.66204 -3.31021,3.40479 -3.31021,3.40479 0,0 5.10718,17.49681 22.32027,2.74274 6.52583,4.53971 10.69168,11.25471 20.90604,0.0946 0.002,-2.50715 -1.0448,-6.05294 -1.0448,-6.05294 l -5.20175,3.97225 0.66204,3.94639 c 0,0 -9.45774,-4.42376 -11.7276,-6.59905 0,0 13.90288,-6.7105 18.44259,-19.19472 -2.74274,1.2295 -5.8638,3.02648 -5.8638,3.02648 0,0 -8.60654,13.71372 -11.82216,12.95709 -0.66205,-0.37831 3.12623,-3.4196 3.83038,-11.38474 -1.09291,-5.58095 -2.97919,-6.91598 -13.85559,1.26497 z"
       id="path5611"
       inkscape:connector-curvature="0"
       sodipodi:nodetypes="ccccccccccccccccccccc" />
    <circle
       style="fill:#000000;fill-opacity:0.91764706;stroke:#000000;stroke-width:2.29999995;stroke-linejoin:miter;stroke-miterlimit:4;stroke-dasharray:none;stroke-opacity:1"
       id="path5617"
       transform="matrix(0.17607452,0,0,0.17607452,-655.86246,391.40148)"
       cx="513.13574"
       cy="139.23552"
       r="15.139098" />
    <path
       style="fill:#000000;stroke:#000000;stroke-width:0.16786335px;stroke-linecap:butt;stroke-linejoin:miter;stroke-opacity:1"
       d="m -569.60834,422.67093 -0.4668,2.1238 2.33932,0.15 c 0.4256,3.12104 0.13377,10.03144 0.13377,10.03144 l 5.48385,-0.80252 c -0.47289,-1.46595 -0.53502,-13.77652 -0.53502,-13.77652 0,0 -3.83408,2.36837 -6.95512,2.2738 z"
       id="path5619"
       inkscape:connector-curvature="0"
       sodipodi:nodetypes="ccccccc" />
    <path
       style="fill:#000000;stroke:#000000;stroke-width:0.16786335px;stroke-linecap:butt;stroke-linejoin:miter;stroke-opacity:1"
       d="m -559.02646,421.79749 5.05989,-1.18221 0.11757,2.55673 c 2.32677,-2.12379 1.80882,-2.39269 2.5936,-2.45772 1.27488,-0.10564 3.88904,1.06915 4.524,2.59644 l 2.36444,-2.60088 c 0,0 7.32974,-0.8039 5.91108,7.04601 0,0 -0.3447,4.1034 -0.20283,5.23833 l -5.0935,3.32093 c 0,0 1.6551,-11.49115 -1.70239,-12.01133 l -0.89849,1.89155 0.0473,7.9445 -4.82345,1.04035 c 0,0 0.18916,-10.45079 -1.6551,-10.73453 l -1.07707,1.6047 0.27316,8.29849 -5.81651,0.5949 z"
       id="path5621"
       inkscape:connector-curvature="0"
       sodipodi:nodetypes="cccscccccccccccccc" />
    <path
       style="fill:#000000;stroke:#000000;stroke-width:0.16786335px;stroke-linecap:butt;stroke-linejoin:miter;stroke-opacity:1"
       d="m -535.66584,414.6569 c 0,0 0.0946,13.85558 -0.47289,20.23956 l 5.62736,-0.70932 -0.0473,-8.65383 1.70239,-1.84427 c 2.55359,4.35056 0.70932,13.8083 0.70932,13.8083 l 5.15448,-3.83038 c -0.42561,-4.35056 3.21563,-11.485 -4.82345,-13.09281 l -2.64817,2.73658 0.0946,-10.21436 c 0,0 -3.26292,1.32409 -5.29633,1.56053 z"
       id="path5661"
       inkscape:connector-curvature="0"
       sodipodi:nodetypes="ccccccccccc" />
    <path
       id="path5665"
       style="fill:#000000;stroke:#000000;stroke-width:0.16786335px;stroke-linecap:butt;stroke-linejoin:miter;stroke-opacity:1"
       d="m -514.57509,423.4053 c -1.9152,3.80675 -0.55564,7.5662 3.32794,7.85584 1.42233,-4.94743 -0.72479,-7.56458 -3.32794,-7.85584 z m -0.0946,-2.97917 c 1.60782,0.37831 6.715,0.28372 6.715,0.28372 l -0.70932,1.37138 c 2.08069,0.37831 6.00566,7.61348 -3.54666,12.81523 -9.50503,-0.75662 -11.7276,-8.03908 -2.45902,-14.47033 z"
       inkscape:connector-curvature="0" />
    <path
       id="path5671"
       style="fill:#000000;stroke:#000000;stroke-width:0.16786335px;stroke-linecap:butt;stroke-linejoin:miter;stroke-opacity:1"
       d="m -499.63186,424.39837 0.23644,6.38868 3.16834,-4.59171 c 0,0 -0.99306,-1.70239 -3.40478,-1.79697 z m 0.16921,-3.9829 c 9.31789,1.82862 8.46468,1.18222 8.4174,13.57185 l -5.22911,1.19287 0.3783,-5.76922 -5.24904,5.58007 -2.83732,-0.94577 c -0.18915,-3.64123 -2.19247,-9.57275 4.51977,-13.6298 z"
       inkscape:connector-curvature="0" />
    <path
       style="fill:#000000;stroke:#000000;stroke-width:0.16786335px;stroke-linecap:butt;stroke-linejoin:miter;stroke-opacity:1"
       d="m -488.04614,413.77253 4.77617,0.0473 0,4.11411 -0.8512,4.11412 -3.26293,0 -0.70932,-4.35057 z"
       id="path5674"
       inkscape:connector-curvature="0" />
    <path
       style="fill:#000000;stroke:#000000;stroke-width:0.16786335px;stroke-linecap:butt;stroke-linejoin:miter;stroke-opacity:1"
       d="m -467.85387,420.33154 c 0,0 -0.61475,1.84426 -0.8039,3.92496 -5.48549,-1.13492 -7.47161,-0.80391 -7.47161,-0.80391 1.46595,4.58701 9.81104,-0.25248 9.74147,4.39785 0.0424,4.4412 -4.06682,8.32281 -13.90287,5.39091 l 0.8039,-2.41172 c 1.79697,1.08765 7.79475,1.49312 8.46468,-0.0946 -0.6182,-1.27604 -7.08492,0.0243 -8.72144,-1.77867 -1.63652,-1.80308 -2.03676,-6.37863 3.89798,-8.57755 z"
       id="path5676"
       inkscape:connector-curvature="0"
       sodipodi:nodetypes="cccccccscc" />
  </g>
  <g
     inkscape:groupmode="layer"
     id="layer2"
     inkscape:label="steam"
     transform="translate(614.3533,-381.46005)"
     style="display:inline">
    <path
       id="path4655"
       style="fill:none;stroke:#000000;stroke-width:0.18022196px;stroke-linecap:butt;stroke-linejoin:miter;stroke-opacity:1"
       d="m -507.87665,393.28637 c 0,0 2.10701,4.36452 -2.408,5.41802 m 0,-9.18053 c 0,0 1.50501,4.36451 -2.408,5.26752 m -5.41803,-1.20401 c 0,0 0.602,4.66552 5.56852,4.66552 m -2.107,-10.98654 c 0,0 1.6555,3.612 -2.408,5.26752 m -6.02003,-1.35451 c 0,0 0,6.47153 5.11701,6.77253 m -7.97652,-13.99655 c 0,0 -3.76251,6.02001 1.6555,7.07353 m 9.18054,-7.82603 c 0,0 0.4515,4.21401 -3.76252,4.81601 m 0.1505,2.709 c -5.41802,-1.05349 -4.96652,-11.43802 2.55851,-8.72901"
       inkscape:connector-curvature="0" />
  </g>
  <g
     inkscape:groupmode="layer"
     id="layer3"
     inkscape:label="chopsticks"
     transform="translate(614.3533,-381.46005)"
     style="display:inline">
    <path
       id="path4660"
       style="fill:none;stroke:#000000;stroke-width:0.18022196px;stroke-linecap:butt;stroke-linejoin:miter;stroke-opacity:1"
       d="m -538.27774,389.97535 14.89955,10.23404 m -13.69555,-11.13703 13.84605,11.19647"
       inkscape:connector-curvature="0" />
  </g>
  <g
     inkscape:groupmode="layer"
     id="layer4"
     inkscape:label="bowl"
     transform="translate(614.3533,-381.46005)"
     style="display:inline">
    <path
       id="path4686"
       style="fill:none;stroke:#000000;stroke-width:0.18022196px;stroke-linecap:butt;stroke-linejoin:miter;stroke-opacity:1"
       d="m -523.22769,409.99192 0,1.65551 10.23403,0 0,-1.505 m 10.86519,-9.93304 -15.74188,0 -15.74187,0 c 8.02858,4.46237 0.72061,10.23404 15.74187,10.23404 15.02127,0 7.40346,-5.60756 15.74188,-10.23404 z"
       inkscape:connector-curvature="0" />
  </g>
  <g
     inkscape:groupmode="layer"
     id="layer6"
     inkscape:label="plate"
     style="display:inline"
     transform="translate(614.3533,-381.46005)">
    <path
       style="fill:#ffffff;stroke:#000000;stroke-width:0.19616492px;stroke-linecap:butt;stroke-linejoin:miter;stroke-opacity:1"
       d="m -536.61427,411.64915 59.73275,0 0,2.6753 -59.73275,0 z"
       id="path5462"
       inkscape:connector-curvature="0" />
  </g>
  <g
     inkscape:groupmode="layer"
     id="layer8"
     inkscape:label="cup"
     transform="translate(614.3533,-381.46005)"
     style="display:inline">
    <path
       style="fill:none;stroke:#000000;stroke-width:0.48499531;stroke-linecap:butt;stroke-linejoin:miter;stroke-miterlimit:4;stroke-dasharray:none;stroke-opacity:1"
       d="m -488.28996,397.97944 -8.57559,0 0,0.99613 0.70189,0.0311 0,3.89112 -2.07163,0 7e-5,1.24516 0.76415,0 0,7.01699 c 0,0 -1.99251,0.26318 -2.88092,-0.42868 -1.52519,-1.18777 -1.02727,0.51503 2.45917,0.63954 3.48645,0.12449 11.2687,0 11.2687,0 0,0 2.72363,-0.33293 2.33468,-1.00205 -0.28015,-0.28016 -0.73712,1.02725 -3.88114,0.84048 -0.0458,-1.25054 -0.0192,-1.27258 0.39469,-1.49419 3.06313,-2.8603 3.32576,-5.60327 0.15062,-5.32311 l 0,-1.4942 -1.45802,6e-5 0,-3.8912 0.7622,0 z"
       id="path5468"
       inkscape:connector-curvature="0"
       sodipodi:nodetypes="cccccccccsscccccccccc" />
    <path
       style="fill:none;stroke:#000000;stroke-width:1.34955215;stroke-linecap:butt;stroke-linejoin:miter;stroke-miterlimit:4;stroke-dasharray:none;stroke-opacity:1"
       d="m -496.8033,398.53976 8.65385,0.0311"
       id="path5470"
       inkscape:connector-curvature="0" />
    <path
       style="fill:none;stroke:#000000;stroke-width:1px;stroke-linecap:butt;stroke-linejoin:miter;stroke-opacity:1;filter:url(#filter5600)"
       d="m 78.026049,207.36586 -8.562157,4.72395"
       id="path5472"
       inkscape:connector-curvature="0"
       transform="matrix(0.21086752,0,0,0.21086752,-510.0331,356.494)" />
    <path
       style="fill:none;stroke:#000000;stroke-width:0.99193394px;stroke-linecap:butt;stroke-linejoin:miter;stroke-opacity:1;filter:url(#filter5604)"
       d="m 90.802033,207.22397 -11.027066,7.38925"
       id="path5474"
       inkscape:connector-curvature="0"
       transform="matrix(0.21086752,0,0,0.21086752,-510.0331,356.494)" />
    <path
       style="fill:none;stroke:#000000;stroke-width:1px;stroke-linecap:butt;stroke-linejoin:miter;stroke-opacity:1;filter:url(#filter5596)"
       d="m 77.059413,232.16659 -11.957495,8.56216"
       id="path5476"
       inkscape:connector-curvature="0"
       transform="matrix(0.21086752,0,0,0.21086752,-510.0331,356.494)" />
    <path
       style="fill:none;stroke:#000000;stroke-width:1px;stroke-linecap:butt;stroke-linejoin:miter;stroke-opacity:1;filter:url(#filter5592)"
       d="M 94.840948,230.62363 66.792503,252.91477"
       id="path5478"
       inkscape:connector-curvature="0"
       transform="matrix(0.21086752,0,0,0.21086752,-510.0331,356.494)" />
    <path
       style="fill:none;stroke:#000000;stroke-width:1px;stroke-linecap:butt;stroke-linejoin:miter;stroke-opacity:1;filter:url(#filter5588)"
       d="m 97.136195,240.72875 -10.481262,8.85741"
       id="path5480"
       inkscape:connector-curvature="0"
       transform="matrix(0.21086752,0,0,0.21086752,-510.0331,356.494)" />
    <circle
       style="fill:#ffffff;fill-opacity:0.91764706;stroke:#000000;stroke-width:1.34955215;stroke-linejoin:miter;stroke-miterlimit:4;stroke-dasharray:none;stroke-opacity:1"
       id="path5482"
       cx="-492.78763"
       cy="399.18146"
       r="0.18677388" />
    <path
       style="fill:none;stroke:#000000;stroke-width:1.65414214;stroke-linecap:butt;stroke-linejoin:miter;stroke-miterlimit:4;stroke-dasharray:none;stroke-opacity:1"
       d="m -498.15576,403.52609 10.39224,0"
       id="path5484"
       inkscape:connector-curvature="0"
       sodipodi:nodetypes="cc" />
    <path
       style="fill:none;stroke:#000000;stroke-width:0.59042907;stroke-linecap:butt;stroke-linejoin:miter;stroke-miterlimit:4;stroke-dasharray:none;stroke-opacity:1"
       d="m -488.11343,404.24792 0,6.96512"
       id="path5486"
       inkscape:connector-curvature="0"
       sodipodi:nodetypes="cc" />
  </g>
  <g
     style="display:inline"
     inkscape:label="cup logo"
     id="g5613"
     inkscape:groupmode="layer"
     transform="translate(614.3533,-381.46005)">
    <path
       sodipodi:nodetypes="ccccccccccccccccccccc"
       inkscape:connector-curvature="0"
       id="path5615"
       d="m -520.63921,403.3237 0.17483,0.24477 0.97906,-0.45456 c 0,0 0.41961,0.76926 0.035,2.20289 -0.2098,0.0874 -0.89165,-0.40212 -0.89165,-0.40212 l -0.4196,0.54199 0.85668,0.85668 -0.24476,0.40212 c 0,0 -1.66092,0.85668 -2.95468,-1.20636 -0.15735,0.12239 -0.61192,0.6294 -0.61192,0.6294 0,0 0.9441,3.23442 4.12606,0.50702 1.20635,0.83919 1.97644,2.08051 3.86463,0.0175 4.4e-4,-0.46346 -0.19314,-1.11893 -0.19314,-1.11893 l -0.96158,0.7343 0.12239,0.72952 c 0,0 -1.74834,-0.81776 -2.16793,-1.21988 0,0 2.57005,-1.24048 3.40925,-3.54828 -0.50702,0.22728 -1.08397,0.55946 -1.08397,0.55946 0,0 -1.59098,2.53509 -2.18542,2.39522 -0.12238,-0.0699 0.57791,-0.63214 0.70808,-2.10456 -0.20204,-1.03168 -0.55073,-1.27847 -2.56131,0.23384 z"
       style="fill:#000000;stroke:#000000;stroke-width:0.03103073px;stroke-linecap:butt;stroke-linejoin:miter;stroke-opacity:1" />
  </g>
</svg>
