<?xml version="1.0" encoding="UTF-8" standalone="no"?>
<!-- Created with Inkscape (http://www.inkscape.org/) -->

<svg
   xmlns:dc="http://purl.org/dc/elements/1.1/"
   xmlns:cc="http://creativecommons.org/ns#"
   xmlns:rdf="http://www.w3.org/1999/02/22-rdf-syntax-ns#"
   xmlns:svg="http://www.w3.org/2000/svg"
   xmlns="http://www.w3.org/2000/svg"
   xmlns:xlink="http://www.w3.org/1999/xlink"
   xmlns:sodipodi="http://sodipodi.sourceforge.net/DTD/sodipodi-0.dtd"
   xmlns:inkscape="http://www.inkscape.org/namespaces/inkscape"
   width="1111.0764mm"
   height="340.00537mm"
   viewBox="0 0 3936.8849 1204.7434"
   id="svg2"
   version="1.1"
   inkscape:version="0.91 r13725"
   sodipodi:docname="logo.svg">
  <defs
     id="defs4">
    <linearGradient
       inkscape:collect="always"
       id="linearGradient4324">
      <stop
         style="stop-color:#9d1b19;stop-opacity:1;"
         offset="0"
         id="stop4326" />
      <stop
         style="stop-color:#c08634;stop-opacity:1"
         offset="1"
         id="stop4328" />
    </linearGradient>
    <linearGradient
       inkscape:collect="always"
       xlink:href="#linearGradient4324"
       id="linearGradient4346"
       x1="537.90607"
       y1="1507.5846"
       x2="38.227791"
       y2="92.719269"
       gradientUnits="userSpaceOnUse" />
  </defs>
  <sodipodi:namedview
     id="base"
     pagecolor="#ffffff"
     bordercolor="#666666"
     borderopacity="1.0"
     inkscape:pageopacity="0.0"
     inkscape:pageshadow="2"
     inkscape:zoom="0.13773351"
     inkscape:cx="1822.5241"
     inkscape:cy="-359.43306"
     inkscape:document-units="px"
     inkscape:current-layer="layer2"
     showgrid="false"
     inkscape:window-width="1680"
     inkscape:window-height="1001"
     inkscape:window-x="0"
     inkscape:window-y="0"
     inkscape:window-maximized="1"
     fit-margin-top="0"
     fit-margin-left="0"
     fit-margin-right="0"
     fit-margin-bottom="0" />
  <metadata
     id="metadata7">
    <rdf:RDF>
      <cc:Work
         rdf:about="">
        <dc:format>image/svg+xml</dc:format>
        <dc:type
           rdf:resource="http://purl.org/dc/dcmitype/StillImage" />
        <dc:title />
      </cc:Work>
    </rdf:RDF>
  </metadata>
  <g
     inkscape:groupmode="layer"
     id="layer2"
     inkscape:label="lg"
     style="display:inline"
     sodipodi:insensitive="true"
     transform="translate(1346.2113,-450.18086)">
    <path
       id="path4273"
       style="fill:url(#linearGradient4346);fill-opacity:1;fill-rule:evenodd;stroke:none;stroke-width:1px;stroke-linecap:butt;stroke-linejoin:miter;stroke-opacity:1"
       d="m -483.02725,884.83573 c -15.55286,8.44298 -35.10502,17.33033 -35.10502,17.33033 -16.93391,17.87916 31.84233,4.59461 48.43603,-5.77678 40.25165,-20.95728 1.7904,-19.39304 -13.33101,-11.55355 z M 1796.0537,846.23708 c 0,0 -62.843,71.64105 -86.7234,81.69593 -23.8803,10.05489 -51.5313,-7.54116 -37.7058,-21.36663 13.8255,-13.82546 30.1646,-25.13721 30.1646,-25.13721 0,0 2.5138,3.77059 12.5686,-6.2843 10.0549,-10.05488 7.5412,-13.82546 17.5961,-11.31174 10.0549,2.51372 23.8803,3.77058 30.1646,-2.51372 6.2843,-6.28431 6.2843,-15.08233 12.5686,-15.08233 6.2844,0 21.3667,0 21.3667,0 z m 386.6785,-120.92921 c -28.9816,-14.42935 -39.3646,-15.14803 -68.877,19.1078 0,0 -102.2045,45.32546 -123.5341,84.42978 -21.3296,39.10433 -16.8859,63.9889 3.9993,82.20795 23.9607,20.90192 158.224,8.96637 174.192,7.99862 43.9924,-2.66621 -22.6627,23.55147 -79.5417,41.32616 -196.9728,61.89812 46.6544,15.14143 91.0953,-2.66621 0,0 78.0898,-29.7834 83.0966,-29.32824 34.2163,3.11057 6.1641,-27.65913 38.2156,-21.10745 61.6496,12.60186 138.1982,4.66586 153.3067,2.88839 30.217,-3.55495 39.5488,6.66551 8.8874,15.99722 -74.1723,27.58612 -198.8522,62.47431 -135.0877,59.54522 91.2625,-18.80668 158.754,-33.7695 234.626,-66.65509 0,0 53.7684,-22.66273 11.1092,-42.65927 -26.6408,-12.48787 -171.0815,1.77747 -194.1886,1.77747 -23.1071,0 -73.3359,-17.31505 -47.5473,-43.10362 29.7727,-29.77261 68.877,-47.5473 81.3193,-47.5473 12.4422,0 22.6627,10.22044 22.6627,10.22044 0,0 7.5542,39.10433 23.5514,39.10433 15.9972,0 79.5418,9.77608 68.4326,-44.8811 -9.6308,-47.38353 -54.2127,-94.65024 -95.9833,-80.43049 -29.7563,15.72837 7.5974,19.93218 -106.2037,68.43257 -77.32,57.76775 -34.2164,101.76011 -62.2115,101.31575 0,0 -58.2121,-4.88804 -111.5362,-1.33311 -53.3241,3.55494 -126.2003,8.88735 -124.4229,-21.32963 1.7775,-30.21697 68.0602,-53.19979 82.6523,-57.76775 51.1023,-15.99722 24.707,35.66279 52.8798,39.54869 38.6599,5.33241 70.9092,9.19786 67.5438,-35.99375 -3.1106,-41.77052 -48.436,-79.09738 -48.436,-79.09738 z m -829.6338,66.65509 c 0,0 12.4423,15.55286 0,31.10572 -16.5069,20.63366 -31.9944,43.99237 -31.9944,43.99237 -11.5536,25.32893 24.8845,4.88803 42.2148,-16.4416 12.7798,-15.72898 40.3983,-52.79697 91.0954,-45.32547 27.4782,7.91885 9.6245,27.4438 -46.6586,103.98196 -3.5549,12.44228 -3.3509,40.29675 23.9959,54.21281 43.5479,22.1604 116.4242,-30.21698 116.4242,-30.21698 L 1587.28,908.3872 c 0,0 -22.2184,60.43395 45.3254,63.98889 67.5438,3.55494 101.3158,-16.88596 131.0884,-45.76983 l 60.8784,-75.98681 c 0,0 -0.8133,51.19869 73.7649,74.65371 52.8469,16.62046 93.7615,19.10779 93.7615,19.10779 31.1057,-2.66621 -3.1106,-7.55424 -3.9993,-25.7733 -25.329,-17.77469 -53.9205,-9.13548 -68.4326,-63.10016 -12.4863,-35.45734 29.3388,-62.64535 -5.3324,-78.65301 -10.6648,-12.44228 4.8881,-27.99514 -11.1092,-30.66135 -17.88,-2.98001 -19.5522,7.10989 -29.7726,-3.11056 0,0 3.555,-20.4409 -5.3324,-20.4409 -8.8873,0 -30.217,-29.32824 -49.7691,-29.32824 -38.7093,-3.43174 -32.8483,15.79481 -62.2114,7.10988 -15.5529,-4.88804 -10.2204,37.32685 -33.3275,63.54452 -10.0415,11.39323 -84.8742,87.54035 -81.7637,71.9875 -0.1206,-12.15663 -8.0299,-15.99722 -14.2197,-8.44298 0,0 -53.7685,68.43257 -76.8756,73.76497 -107.7216,34.63831 26.1608,-63.2043 12.8867,-93.31713 -20.7932,-27.29142 -62.7549,-30.18204 -100.427,-31.99444 0,0 -15.1711,-25.97026 -35.105,-27.55078 -50.4403,-3.99932 -40.8819,13.33103 -40.8819,13.33103 -23.0373,7.26634 -35.8677,4.75115 -33.3275,30.21696 z m -193.2998,71.98751 c 10.9057,-37.61525 -131.5012,60.7947 -86.6515,64.43326 47.1029,-0.44437 63.2395,-12.98705 72.4318,-17.7747 21.3296,-11.10917 14.2197,-46.65856 14.2197,-46.65856 z M 387.48828,965.26621 c 7.92753,15.42524 26.04729,20.4096 30.77014,8.30309 5.36718,-13.7582 17.73391,-21.24863 27.44197,-32.29892 7.90751,-21.882 -21.3988,-26.9158 -37.61677,-20.04188 -13.19695,5.59348 -27.70443,19.20068 -20.59534,44.03771 z m 66.65509,-140.42006 c 0,0 -7.22096,-9.77608 -22.21836,-14.66412 -14.99739,-4.88804 -34.66064,-3.11057 -39.10432,0.44437 -8.88734,7.10988 -18.21906,22.21836 -1.77747,39.10432 9.99714,10.26733 29.66152,-2.99948 37.54904,-10.887 9.59578,-9.59579 33.54973,-1.11092 25.55111,-13.99757 z m 474.58428,111.98056 c -8.88735,5.33241 -44.52294,63.63109 -97.7608,53.76844 -27.47925,-5.09071 -6.22114,-46.65857 -15.10849,-69.76567 -8.9558,-23.28507 -51.54661,-15.99722 -60.43395,-15.99722 -8.88735,0 -121.95773,46.69068 -138.19823,48.88041 -39.5487,5.33241 -11.55356,-59.98959 -36.88249,-49.32478 -104.17792,20.15629 -89.76363,3.51808 -123.53411,99.98261 -12.44228,17.7747 -63.98889,17.7747 -94.20587,17.7747 -30.21697,0 -44.09052,-39.72581 -42.46211,-62.92915 -21.63209,10.84966 -24.63193,22.88221 -47.88385,24.13908 l -18.07966,48.09017 c -12.34371,36.3227 -17.58717,18.7911 -26.66203,44.2304 -22.77743,63.8514 -43.32008,-82.2685 -53.4319,-102.66193 -20.91684,-42.1849 -30.83649,-2.81432 -117.762753,26.66204 -44.740751,15.17139 -64.2458748,-19.82883 -89.788356,-65.04861 -19.168948,-33.93622 -54.562437,56.05344 -88.685561,58.25294 -12.41652,0.80035 -44.726,4.59262 -97.73306,-51.65442 -27.12161,-28.77938 -41.77485,-40.89855 -92.94901,-27.50611 -7.59449,1.9875 -25.51141,10.81571 -5.40164,13.95787 31.42151,10.05488 56.34757,-19.00382 32.153,12.41769 -6.39841,7.88418 -25.07596,23.59693 -40.52909,26.45565 -18.84923,3.48698 -5.41556,9.80224 -21.75475,17.02919 -57.05578,29.23829 -106.48193,50.04469 -181.31876,57.22869 -107.39979,10.3099 -111.09182,-30.217 -111.09182,-30.217 -0.88873,-36.4381 12.44228,-83.54108 12.44228,-83.54108 -26.66204,-5.33241 -26.66203,-21.32962 -26.66203,-21.32962 l 34.66064,2.6662 c 44.04295,-61.01271 114.4436,-135.81028 155.52856,-149.30741 0,0 52.95915,27.10759 64.87762,58.65648 15.10849,39.99306 -20.44089,76.43118 -34.66064,90.65093 -22.46238,15.75795 -92.08525,32.50769 -116.52281,23.58304 -6.91274,0.94265 -40.32577,24.92924 -16.41001,46.98587 34.24945,19.79556 163.03272,-15.57518 163.03272,-15.57518 24.50878,-51.8455 61.32268,-77.98376 120.09624,-97.65299 33.73239,-12.19079 90.9661,-41.46036 125.1406,-9.6236 20.40548,11.80461 28.61815,18.87748 32.70295,41.18676 32.364154,0.31421 74.49038,-11.69678 127.5927374,-14.52472 0,0 53.8541276,3.69243 73.6124886,27.39829 10.989762,13.18539 8.652055,29.34459 22.460169,27.90965 16.540955,-1.71894 55.715865,-37.30064 63.399995,-36.06849 21.04274,3.3742 29.35061,-25.76074 77.14639,-13.59283 9.32662,2.37438 34.36335,-12.54243 35.72802,27.22732 l -1.35925,37.18361 32.36256,-17.33032 c 0,0 64.87764,-45.76984 54.21282,-56.43465 -10.66481,-10.66482 -20.9469,-35.34178 -18.66343,-53.32407 7.10988,-55.99029 81.74445,-83.71619 104.87069,-82.20796 40.88179,2.6662 41.77052,24.88458 41.77052,24.88458 -2.37432,24.28771 13.74202,27.72533 19.65998,62.7636 4.94031,29.24988 -2.77402,54.54936 3.89149,61.21487 36.98123,-0.51756 100.15674,4.31336 55.10154,-36.88248 -34.66065,-26.21768 -19.10779,-30.66135 -19.10779,-30.66135 0,0 13.30983,-5.00379 33.32755,-11.22027 10.23287,-3.17781 21.53032,-19.26647 46.65857,-16.77487 53.05401,5.26059 2.67089,110.76406 19.99652,101.76011 17.07912,-8.87584 115.98977,-91.78341 208.85263,-55.99028 75.56809,29.12702 29.32824,72.43187 24.88457,101.31574 -7.99861,20.4409 75.09807,-42.65925 75.09807,-42.65925 24.68411,-17.56071 28.80997,-40.44324 50.21348,-60.43395 105.3307,-81.49462 161.3739,-153.85021 258.6218,-122.64538 47.1029,11.10918 81.3192,21.32963 83.5411,36.43812 2.599,17.67325 -14.2198,22.21836 -14.2198,22.21836 0,0 -68.4325,32.43882 -72.8762,47.5473 -2.5574,8.69507 -47.9918,67.9882 -47.9918,67.9882 -6.2211,8.88734 12.4424,295.05992 12.4424,295.05992 0,0 39.993,343.4959 39.993,364.8256 0,21.3296 6.9288,35.9245 8.8874,78.2086 1.0531,22.7346 -34.6607,22.6627 -70.2101,24.4402 -124.2544,-14.3909 -84.3112,-48.246 -47.9916,-90.651 5.7212,-22.8701 -2.4092,-76.789 12.4423,-75.5424 5.7768,8.443 1.1109,-15.775 -9.1096,-38.4377 -0.8887,-20.4409 20.6631,-4.2216 22.8849,-11.3315 -4.888,-30.6613 5.7768,-20.8852 10.6649,-17.3303 26.5076,-11.7373 -31.334,-5.8067 -8.2209,-26.2176 40.2573,19.8693 20.5057,-26.8571 19.33,-42.2149 -28.868,-144.5825 -19.5521,-435.47999 -50.2135,-420.81587 -67.1492,36.51293 -80.4529,41.68066 -157.75035,43.548 -27.10641,-3.99931 -40.8818,-37.32685 -40.8818,-37.32685 -5.96676,-16.67714 -14.67725,-8.34865 -25.7733,-1.77747 z M -1233.5636,542.22855 c 0,0 -49.7692,-63.98889 -3.555,-74.65371 49.7003,-15.41291 89.9133,-35.57772 158.1948,14.21976 18.6634,26.66204 15.044,45.60151 -55.9902,107.53688 -44.5169,38.81472 -37.8032,147.166 -51.5467,175.08072 -15.2897,31.05521 -2.6662,98.64954 -2.6662,98.64954 0,0 10.4295,70.64755 26.6621,79.09737 64.8775,33.77191 28.4395,63.98889 28.4395,63.98889 l 167.08206,23.1071 174.19198,10.6648 c 44.69532,-0.087 73.50652,3.5611 117.31297,10.6648 l 44.43673,-7.9986 26.66204,6.2212 35.54938,0 c 0,0 19.55216,1.7774 12.44228,7.1098 -7.10987,5.3325 -33.77191,14.2198 -33.77191,14.2198 l 15.99722,8.8873 c 0,0 -80.87485,13.331 -87.98472,20.4409 -7.10988,7.1099 -160.86096,32.8832 -215.96251,32.8832 -55.10154,0 -287.95002,-23.1071 -287.95002,-23.1071 0,0 -113.758,-1.7775 -122.6454,1.7775 -8.8873,3.5549 -37.3268,-31.9945 -35.5493,-44.4367 1.7774,-12.4423 -26.6621,-55.1016 -21.3297,-63.9889 5.3324,-8.88738 7.1099,-15.99726 33.7719,-14.21979 26.6621,1.77747 47.9917,3.55494 47.9917,3.55494 0,0 31.9945,-101.31574 35.5494,-110.20309 3.5549,-8.88734 -10.6648,-271.95278 -5.3324,-302.16976 5.3324,-30.21698 0,-37.32685 0,-37.32685 z"
       inkscape:connector-curvature="0" />
  </g>
  <g
     inkscape:groupmode="layer"
     id="layer3"
     inkscape:label="nh"
     transform="translate(1346.2113,-450.18086)">
    <g
       id="g4373" />
    <g
       id="g4377"
       transform="translate(132,-2)" />
    <g
       transform="translate(1069.9526,-24.234966)"
       id="g4390">
      <path
         id="path4394"
         style="fill:#ab9e95;fill-opacity:1;fill-rule:evenodd;stroke:#ab9e95;stroke-width:1px;stroke-linecap:butt;stroke-linejoin:miter;stroke-opacity:1"
         d="m 559.52428,1254.0862 c 0,0 -25.21877,46.9293 -26.32115,83.1271 -1.53166,50.2937 42.57252,42.6358 65.80399,-43.1153 16.24789,-59.9736 -0.7194,-56.009 -14.93915,-47.1217 -14.21976,8.8874 -24.54369,7.1099 -24.54369,7.1099 z m 9.34112,-32.1073 c -8.16795,-1.8151 -26.20827,-0.1904 -44.43673,48.9744 -20.71628,55.8748 -25.45123,94.2435 1.21081,103.1308 26.66204,8.8874 51.67639,11.2611 64.48029,-5.3324 22.83211,-29.5897 42.69023,-93.4204 35.54938,-118.6742 -5.63566,-19.9307 -16.08252,-31.6622 -26.66203,-25.3008 -24.97508,15.0175 -30.14172,-2.7978 -30.14172,-2.7978 z m 354.6147,51.2877 c 0,0 30.8567,-62.6209 34.4869,-48.1001 3.6302,14.5208 2.2689,48.1001 -11.7981,49.9152 -14.067,1.8151 -22.6888,-1.8151 -22.6888,-1.8151 z m 4.3806,12.7677 c 0,0 58.6565,5.3324 55.1016,-35.5494 -3.555,-40.8818 -15.9972,-47.9917 -23.1071,-42.6593 -7.1099,5.3324 -24.8846,-5.3324 -37.3269,14.2198 -12.4423,19.5521 -19.5521,51.5466 -19.5521,51.5466 l -7.1099,0 1.7775,8.8873 -12.4423,56.879 c 0,0 10.6648,31.9945 33.7719,28.4396 23.1071,-3.555 58.6565,-47.9917 58.6565,-47.9917 0,0 15.9972,-26.6621 -15.9972,0 -31.9945,26.662 -62.7782,58.88 -51.5467,-3.555 5.4325,-30.1991 17.7747,-30.2169 17.7747,-30.2169 z m -965.9294,10.6437 c 0,0 30.8567,-62.6209 34.4869,-48.1001 3.6302,14.5208 2.2689,48.1001 -11.7981,49.9152 -14.067,1.8151 -22.6888,-1.8151 -22.6888,-1.8151 z m 4.3806,12.7677 c 0,0 58.6565,5.3324 55.1016,-35.5494 -3.555,-40.8818 -15.9972,-47.9917 -23.1071,-42.6593 -7.1099,5.3324 -24.8846,-5.3324 -37.3269,14.2198 -12.4423,19.5521 -19.5521,51.5466 -19.5521,51.5466 l -7.1099,0 1.7775,8.8873 -12.44232,56.879 c 0,0 10.66482,31.9945 33.77192,28.4396 23.1071,-3.555 58.6565,-47.9917 58.6565,-47.9917 0,0 15.9972,-26.6621 -15.9972,0 -31.9945,26.662 -62.3244,57.0649 -51.5467,-3.555 5.3711,-30.2101 17.7747,-30.2169 17.7747,-30.2169 z m -191.78955,-43.1706 c -31.76424,32.218 -55.36053,81.6794 -56.26808,96.2002 -0.90755,14.5208 0.45377,24.0501 14.97457,9.5293 17.92554,-17.9255 55.27288,-67.1668 65.34357,-86.671 25.6931,-33.7947 -21.56763,-28.1334 -24.05006,-19.0585 z m -152.95067,10.0461 c 0,0 -25.21877,46.9293 -26.32115,83.1271 -1.53166,50.2937 42.57252,42.6358 65.80399,-43.1153 16.24789,-59.9736 -0.7194,-56.009 -14.93915,-47.1217 -14.21976,8.8874 -24.54369,7.1099 -24.54369,7.1099 z m 9.34112,-32.1073 c -8.16795,-1.8151 -26.20827,-0.1904 -44.43673,48.9744 -20.71628,55.8748 -25.45123,94.2435 1.21081,103.1308 26.66204,8.8874 51.67639,11.2611 64.48029,-5.3324 22.83211,-29.5897 42.69023,-93.4204 35.54938,-118.6742 -5.63566,-19.9307 -16.08252,-31.6622 -26.66203,-25.3008 -24.97508,15.0175 -30.14172,-2.7978 -30.14172,-2.7978 z m 135.4416,-2.8964 c -25.41139,23.5962 -81.3369,99.2156 -72.1502,141.5777 39.49081,66.5219 110.12285,-104.1323 101.54385,-56.8957 -2.59569,50.1032 -25.99161,62.4582 14.82923,69.2938 11.34436,-42.6549 21.70814,-56.4629 21.70814,-56.4629 9.0755,-24.9577 -13.90137,12.4203 -13.34984,1.815 5.61978,-108.0607 70.76232,-238.6487 84.56152,-235.6463 42.775,9.3069 18.9854,-7.9798 18.9854,-7.9798 0,0 -24.70183,-28.6498 -38.5376,-13.8413 -19.98834,20.9378 -33.56743,47.9033 -42.81196,71.3675 -7.68383,19.6743 -15.70946,44.7783 -24.17824,77.6219 -2.1172,8.2109 -4.26209,16.9055 -6.43626,26.12 0,0 -28.28192,-33.7596 -44.16404,-16.9699 z m 1085.1372,-26.0777 c 0,0 -41.4836,8.945 -44.4367,23.1071 -7.3629,35.3097 34.2257,76.7721 22.1619,102.8276 -6.4244,13.8753 -43.4916,10.9304 -50.6014,14.4854 -7.1099,3.5549 -20.4075,13.1829 30.2546,15.9972 25.1387,1.3965 15.345,-10.978 25.2881,-16.2096 13.0797,-6.8819 19.0733,-16.5419 19.0733,-16.5419 0,0 7.0324,-19.7425 -11.8756,-59.0726 -12.7016,-26.4202 -13.3875,-37.4021 -2.7603,-48.5583 10.5464,-11.0712 16.9801,0.301 12.8961,-16.0349 z m 22.6533,37.3645 c 3.9892,-12.8005 10.627,-34.2636 2.6851,-42.2055 -5.3324,-5.3324 -17.6995,6.5432 -17.6995,6.5432 0,0 -0.757,13.8811 -4.084,37.4398 7.1099,1.7774 15.922,1.8527 19.0984,-1.7771 z m -222.675,16.0725 11.9509,-16.5639 c 0,0 7.8633,-31.0512 16.4886,-27.5696 10.3932,4.1952 33.6568,-8.8851 9.1529,27.8706 0,0 -14.4494,45.9352 -17.5113,68.9074 -7.6764,57.594 10.1318,40.0472 44.5497,-18.908 35.4735,-60.7634 42.6564,-88.514 52.3789,-82.7111 10.6014,6.3277 25.4135,1.4766 4.5399,30.5181 0,0 -11.5549,32.4594 -16.1499,53.3639 -12.6681,57.6316 7.9798,-8.3562 8.8873,19.778 -1.9899,12.6225 -11.5347,26.3986 -13.8036,43.9452 -0.9118,7.0512 -23.1071,4.3497 -23.1071,-9.8701 0,-14.2197 8.8874,-60.4339 8.8874,-60.4339 0,0 -46.2142,74.6537 -58.6565,74.6537 -12.4423,0 -30.217,0 -30.217,-23.1071 0,-23.1071 8.7368,-64.8234 8.7368,-64.8234 7.7142,-12.252 -9.3035,-11.8734 -6.127,-15.0498 z M 270.1463,1220.798 c 0,0 -5.471,4.5309 -15.8844,-37.5526 -6.6067,-26.6997 78.7694,-29.6129 105.5879,-44.5119 11.5025,-6.3902 8.4809,-12.5219 16.1832,-16.7271 6.0343,-3.2944 19.456,6.6885 13.3166,27.0885 -13.1296,43.6273 -39.1043,114.1366 -39.1043,114.1366 0,0 93.1855,3.7054 99.5383,-3.555 0,0 17.5489,-80.4045 40.8817,-119.0904 10.4669,-17.3541 20.1145,-30.569 37.3269,-24.8846 32.7493,10.8154 24.6494,22.6018 3.8958,18.2285 -10.8788,-2.2925 -39.0795,62.04 -55.2919,122.61 -6.9907,26.1172 -18.3639,82.6333 -8.5464,63.8738 6.9387,-13.2585 19.5898,-21.2168 5.7485,15.7315 -12.4241,33.1652 -8.3734,46.2976 -18.3413,43.0755 -11.459,-3.7041 -20.3272,0.2797 -19.8555,-27.0782 0.4538,-26.3189 6.6937,-61.1911 6.6937,-61.1911 10.8906,-19.0585 -36.5387,-5.4075 -98.2522,-7.2227 -4.9915,9.5293 -23.5079,69.7687 -44.0582,98.2522 -13.2761,18.4011 -32.9396,-6.3904 -32.9396,-6.3904 11.1832,-17.9622 12.1014,-28.8181 12.1014,-35.928 0,-7.1098 4.312,-23.2952 17.3962,-2.6098 5.1168,8.0896 17.2081,-37.8181 17.2081,-37.8181 0,0 -19.0538,-25.5456 -7.5637,-30.1418 17.3477,-6.9395 26.6997,-9.454 26.6997,-9.454 l 30.6707,-97.6479 c 8.6217,-14.9746 -45.7905,11.2931 -64.3298,19.8554 -48.4949,22.397 -1.4011,43.9431 -29.0814,38.9516 z M -7.5175,1097.0193 c 0,0 -24.7018,-28.6498 -38.5376,-13.8413 -26.8878,28.7782 -56.00165,70.5188 -93.82734,273.0486 -7.44568,39.8664 22.72859,35.4365 22.72859,35.4365 2.26887,-20.8737 21.70814,-56.4629 21.70814,-56.4629 5.89908,-24.5039 -16.17024,16.0505 -15.61871,5.4452 5.61978,-108.0607 70.76232,-238.6487 84.56152,-235.6463 42.775,9.3069 18.9854,-7.9798 18.9854,-7.9798 z m -502.91082,181.3019 c 0,0 -25.21877,46.9293 -26.32115,83.1271 -1.53166,50.2937 42.57252,42.6358 65.80399,-43.1153 16.24789,-59.9736 -0.7194,-56.009 -14.93915,-47.1217 -14.21976,8.8874 -24.54369,7.1099 -24.54369,7.1099 z m 9.34112,-32.1073 c -8.16795,-1.8151 -26.20827,-0.1904 -44.43673,48.9744 -20.71628,55.8748 -25.45123,94.2435 1.21081,103.1308 26.66204,8.8874 51.67639,11.2611 64.48029,-5.3324 22.83211,-29.5897 42.69023,-93.4204 35.54938,-118.6742 -5.63566,-19.9307 -16.08252,-31.6622 -26.66203,-25.3008 -24.97508,15.0175 -30.14172,-2.7978 -30.14172,-2.7978 z m -220.89759,-72.7259 c -4.53774,-7.7141 -23.05201,-33.7241 -38.68817,-18.6822 -25.67213,24.6964 -45.03408,43.1679 -23.97702,39.4829 24.89844,-4.3573 16.15704,-19.2833 45.76042,3.1764 18.08633,13.7218 9.91808,22.8096 -7.56365,78.2087 -10.33058,32.7373 -33.77191,87.0959 -33.77191,87.0959 l -26.66204,19.5522 c 0,0 -10.66482,10.6648 -5.33241,17.7747 5.33241,7.1099 24.88457,21.3296 30.21698,12.4423 5.33241,-8.8874 12.44228,-19.5522 24.88457,-23.1071 12.44228,-3.555 20.8006,-5.4077 10.13578,-19.6274 -10.66481,-14.2198 -10.86545,-12.6155 2.23124,-46.139 14.25738,-36.4945 27.53196,-76.6215 27.53196,-76.6215 5.89907,-45.8312 56.91885,85.852 84.52386,128.1681 8.95369,13.7253 -3.43984,21.4072 15.08967,34.1505 39.17983,-12.6598 5.4453,-24.5039 27.4567,-103.702 7.10988,-15.9972 16.40149,-96.6006 33.3934,-111.7503 23.52226,-20.9721 14.71116,-30.217 14.71116,-30.217 0,0 -12.9325,-25.9436 -26.35878,-4.4249 -15.89959,25.4829 -40.19181,28.9721 -34.56657,35.8526 22.53821,27.5674 7.24907,12.8267 -3.55494,89.894 -1.8251,13.0188 -9.75727,70.6051 -16.5639,41.5635 0,0 -60.80707,-111.3234 -78.51189,-126.5411 -7.51277,-6.4574 16.33847,-28.356 -11.30675,-41.4109 -9.12458,-4.3089 0.83008,21.6661 -9.07771,14.8616 z"
         inkscape:connector-curvature="0" />
    </g>
  </g>
</svg>
