<?xml version="1.0" encoding="UTF-8" standalone="no"?>
<!-- Created with Inkscape (http://www.inkscape.org/) -->

<svg
   xmlns:dc="http://purl.org/dc/elements/1.1/"
   xmlns:cc="http://creativecommons.org/ns#"
   xmlns:rdf="http://www.w3.org/1999/02/22-rdf-syntax-ns#"
   xmlns:svg="http://www.w3.org/2000/svg"
   xmlns="http://www.w3.org/2000/svg"
   xmlns:sodipodi="http://sodipodi.sourceforge.net/DTD/sodipodi-0.dtd"
   xmlns:inkscape="http://www.inkscape.org/namespaces/inkscape"
   width="129.08618mm"
   height="61.110359mm"
   viewBox="0 0 457.39199 216.53277"
   id="svg4242"
   version="1.1"
   inkscape:version="0.91 r13725"
   sodipodi:docname="logo.svg">
  <defs
     id="defs4244">
    <filter
       inkscape:collect="always"
       style="color-interpolation-filters:sRGB"
       id="filter4954"
       x="-0.0094316658"
       width="1.0188633"
       y="-0.01649053"
       height="1.0329812">
      <feGaussianBlur
         inkscape:collect="always"
         stdDeviation="0.63150537"
         id="feGaussianBlur4956" />
    </filter>
    <filter
       inkscape:collect="always"
       style="color-interpolation-filters:sRGB"
       id="filter4964"
       x="-0.0097378343"
       width="1.0194757"
       y="-0.015631245"
       height="1.0312625">
      <feGaussianBlur
         inkscape:collect="always"
         stdDeviation="0.61265889"
         id="feGaussianBlur4966" />
    </filter>
    <filter
       inkscape:collect="always"
       style="color-interpolation-filters:sRGB"
       id="filter4974"
       x="-0.00953105"
       width="1.019062"
       y="-0.016195267"
       height="1.0323905">
      <feGaussianBlur
         inkscape:collect="always"
         stdDeviation="1.3819764"
         id="feGaussianBlur4976" />
    </filter>
    <filter
       inkscape:collect="always"
       style="color-interpolation-filters:sRGB"
       id="filter4984"
       x="-0.009775429"
       width="1.0195509"
       y="-0.01553534"
       height="1.0310707">
      <feGaussianBlur
         inkscape:collect="always"
         stdDeviation="0.51752483"
         id="feGaussianBlur4986" />
    </filter>
  </defs>
  <sodipodi:namedview
     id="base"
     pagecolor="#ffffff"
     bordercolor="#666666"
     borderopacity="1.0"
     inkscape:pageopacity="0.0"
     inkscape:pageshadow="2"
     inkscape:zoom="6.8350526"
     inkscape:cx="165.06568"
     inkscape:cy="99.079759"
     inkscape:document-units="px"
     inkscape:current-layer="g4968"
     showgrid="false"
     inkscape:window-width="1680"
     inkscape:window-height="1001"
     inkscape:window-x="0"
     inkscape:window-y="0"
     inkscape:window-maximized="1"
     fit-margin-top="0"
     fit-margin-left="0"
     fit-margin-right="0"
     fit-margin-bottom="0" />
  <metadata
     id="metadata4247">
    <rdf:RDF>
      <cc:Work
         rdf:about="">
        <dc:format>image/svg+xml</dc:format>
        <dc:type
           rdf:resource="http://purl.org/dc/dcmitype/StillImage" />
        <dc:title />
      </cc:Work>
    </rdf:RDF>
  </metadata>
  <g
     transform="translate(-199.49248,-507.52615)"
     style="display:inline"
     inkscape:label="red chili yellow"
     id="g4968"
     inkscape:groupmode="layer"
     sodipodi:insensitive="true">
    <path
       style="fill:#fdf5b4;fill-opacity:1;fill-rule:evenodd;stroke:#fdf5b4;stroke-width:2.00000024;stroke-linecap:butt;stroke-linejoin:miter;stroke-miterlimit:4;stroke-dasharray:none;stroke-opacity:1;filter:url(#filter4974)"
       d="m 528.6875,515.96289 c -27.78612,0.53902 -54.57379,9.13956 -81.25607,16.05415 -65.99035,19.15722 -131.38792,44.89457 -186.74784,86.37554 -20.8346,16.52122 -42.34262,34.56873 -53.54492,59.31054 -6.25633,13.54577 -4.68846,28.87778 -1.79687,43.03907 15.42644,-28.02956 44.48273,-44.42651 72.37345,-57.79382 60.95622,-28.05918 127.22424,-41.59016 192.65462,-55.4588 18.6789,-4.8243 38.19275,-8.48889 55.18091,-18.01496 2.87594,-1.17031 6.53368,-7.49868 0.97656,-6.42578 -34.72301,0.28887 -68.78864,8.6032 -102.36167,16.72533 -51.90896,13.55793 -103.08363,30.07461 -153.11489,49.43482 -13.87853,5.83358 -27.58506,12.36288 -39.94726,21.0254 35.3986,-42.93786 85.61951,-70.92909 137.15519,-90.09979 47.71304,-18.7408 96.46603,-35.40735 146.22565,-47.46993 12.1061,-4.90782 24.21279,-9.81417 36.31837,-14.72325 -7.3109,-1.30967 -14.67931,-2.12912 -22.11523,-1.97852 z"
       id="path4970"
       inkscape:connector-curvature="0" />
  </g>
  <g
     inkscape:groupmode="layer"
     id="layer2"
     inkscape:label="red chili"
     style="display:inline"
     transform="translate(-199.49248,-507.52615)"
     sodipodi:insensitive="true">
    <path
       style="fill:#ca1c32;fill-opacity:1;fill-rule:evenodd;stroke:#550000;stroke-width:1px;stroke-linecap:butt;stroke-linejoin:miter;stroke-opacity:1"
       d="m 543.31289,518.81961 c 0,0 -16.99181,-2.97357 -42.47951,2.12397 -25.4877,5.09754 -172.14603,37.31095 -257.8506,114.69467 -43.75389,39.50593 -39.50595,61.17048 -36.53238,79.43667 36.38089,-61.46838 184.51436,-92.82064 234.06208,-103.2252 86.0359,-17.16371 86.65819,-26.76208 86.65819,-26.76208 0,0 -59.8961,-5.09754 -237.46044,59.04651 -69.45774,25.09119 -74.33913,45.45307 -74.33913,45.45307 0,0 30.77323,-62.17643 135.08483,-104.49958 103.64999,-42.05472 161.42212,-53.52418 161.42212,-53.52418 z"
       id="path4856"
       inkscape:connector-curvature="0"
       sodipodi:nodetypes="csscccscscc" />
  </g>
  <g
     transform="translate(-199.49248,-507.52615)"
     inkscape:label="green chili copy"
     id="g4978"
     inkscape:groupmode="layer"
     sodipodi:insensitive="true">
    <path
       style="fill:#fbf1b3;fill-opacity:1;fill-rule:evenodd;stroke:#fbf1b3;stroke-width:2.00000024;stroke-linecap:butt;stroke-linejoin:miter;stroke-miterlimit:4;stroke-dasharray:none;stroke-opacity:1;filter:url(#filter4984)"
       d="m 643.8418,508.7832 c -27.44247,1.46184 -54.81284,12.27461 -75.00391,30.89844 -7.8557,-8.88889 -15.51887,-18.82059 -19.57031,-30.33789 -4.77143,5.98176 -8.93404,15.7697 -2.45313,22.1582 3.27425,1.46909 -0.76873,4.58934 1.1836,7.13867 2.2805,4.28703 9.4718,4.8358 10.49609,9.23047 -2.99819,3.75993 0.19852,8.82148 4.79492,8.67969 -2.06288,9.15815 -9.04135,16.39365 -17.66621,19.1839 -5.32205,3.20804 -13.26072,3.64363 -16.89629,9.15009 -0.96287,3.59107 3.13939,4.83584 5.76758,2.97851 12.1552,-3.8885 25.42127,-9.09552 32.46094,-20.39844 2.44063,1.11073 4.91671,-1.17601 4.33203,-3.70312 3.3571,-1.40011 6.38931,-4.67118 6.01172,-8.30078 2.09388,-2.15976 1.06549,-6.99941 3.80273,-9.60938 10.11361,-11.93239 26.80851,-14.61644 41.05664,-18.88672 10.63385,-3.42334 22.96018,-4.13406 31.91602,-11.375 2.46816,-2.32657 2.10467,-5.97929 -1.67383,-6.17382 -2.79968,-0.64184 -5.70022,-0.68232 -8.55859,-0.63282 z"
       id="path4980"
       inkscape:connector-curvature="0" />
  </g>
  <g
     inkscape:groupmode="layer"
     id="layer3"
     inkscape:label="green chili"
     transform="translate(-199.49248,-507.52615)"
     sodipodi:insensitive="true">
    <path
       style="fill:#056b41;fill-opacity:1;fill-rule:evenodd;stroke:#005300;stroke-width:1;stroke-linecap:butt;stroke-linejoin:miter;stroke-miterlimit:4;stroke-dasharray:none;stroke-opacity:1"
       d="m 548.83522,513.72207 c 0,0 4.24795,11.89426 19.96537,28.88606 29.98525,-30.01696 77.90019,-34.64031 84.95901,-30.58524 -1.97833,12.70761 -76.81365,13.13589 -77.3127,41.62991 -3.90488,1.65207 2.95938,3.95359 -7.22152,8.9207 0.23349,3.78031 0.0286,3.4055 -3.39836,2.54877 0,0 -3.89604,13.14288 -34.73454,21.63878 -3.98384,-3.32457 15.70311,-7.72084 24.20849,-13.94094 10.52605,-7.69784 13.19924,-27.20823 7.47518,-18.44213 -7.62321,-1.50939 0.0346,-7.34153 -2.06801,-8.09247 -5.54733,-6.85888 -15.38503,-6.15952 -9.32415,-13.87246 0,0 -11.46947,-5.09754 -2.54877,-18.69098 z"
       id="path4859"
       inkscape:connector-curvature="0"
       sodipodi:nodetypes="cccccccscccc" />
  </g>
  <g
     transform="translate(-199.49248,-507.52615)"
     inkscape:label="thai copy"
     id="g4932"
     inkscape:groupmode="layer"
     sodipodi:insensitive="true">
    <path
       style="fill:#fcedb1;fill-opacity:1;fill-rule:evenodd;stroke:#faf1b2;stroke-width:2.00000024;stroke-linecap:butt;stroke-linejoin:miter;stroke-miterlimit:4;stroke-dasharray:none;stroke-opacity:1;filter:url(#filter4954)"
       d="m 311.12891,613.30469 c -5.22573,1.07262 -5.04398,8.30027 -7.80786,11.90525 -8.90003,18.71186 -13.20028,39.46291 -12.96363,60.12795 0.41625,3.62183 -2.56,7.81874 -1.31836,10.72461 1.92257,2.22428 6.33947,6.35486 8.64063,2.40234 5.46723,-11.87349 9.89338,-24.64025 18.05078,-35.05273 0.40663,11.4777 -3.0405,22.70709 -5.3418,33.85351 2.72558,2.37195 6.4009,3.01853 9.78711,3.88282 0.99232,-7.25386 4.61624,-14.37539 8.90039,-20.09375 2.98278,-2.32378 -1.17139,-5.64985 -3.74609,-4.26563 0.40749,-7.4527 2.22546,-17.53282 -4.62696,-22.66015 -7.38472,-2.8512 -13.18417,5.14154 -16.89648,10.39648 -1.23433,1.50107 -3.59865,7.016 -2.49687,2.36342 2.84097,-14.34626 4.37241,-29.981 12.7332,-42.40834 2.32716,-3.46059 7.28801,2.64647 9.06055,-2.16602 0.51238,-4.66922 -5.43896,-6.64179 -8.81641,-8.49023 -1.00539,-0.3649 -2.08335,-0.62026 -3.1582,-0.51953 z M 289.32812,627.625 c -5.54435,-0.29445 -7.27605,8.13997 -12.9746,6.2793 -1.69639,-4.08909 -9.89154,-4.90224 -9.67188,0.45117 -11.5048,1.59295 -24.52827,2.15196 -33.88281,9.8418 -6.65492,7.25737 -0.97007,17.8223 4.76367,23.74414 3.47798,3.88675 9.47154,2.84632 7.43945,-3.3086 -2.85302,-2.60927 -5.76635,-8.00054 -3.5332,-11.66797 6.18931,-4.65453 14.2352,-5.59028 21.61133,-6.875 -2.50525,11.32006 -4.13169,23.12125 -6.58594,34.24805 -3.47828,-1.66955 -6.18644,1.79237 -5.97461,5.13477 -0.12582,5.45627 -1.13523,11.92729 1.21289,16.65039 2.98808,3.40665 10.13006,4.93297 11.70508,-0.55664 1.11702,-19.73758 5.77239,-39.20418 10.73242,-58.33985 7.56117,-1.12129 15.12257,-2.24101 22.6836,-3.36328 2.12426,-5.66142 -0.7482,-12.51507 -7.5254,-12.23828 z m 92.77344,6.11133 c -1.51963,3.79592 -8.46339,6.81064 -6.49023,11.34179 5.19818,4.95973 14.69444,-0.38309 14.88086,-6.93359 -0.41406,-3.37975 -6.35225,-6.37338 -8.39063,-4.4082 z m -7.36133,18.06836 c -1.64354,3.3289 -7.07537,6.90311 -4.90234,10.92969 2.44931,2.59718 6.69174,-4.79585 5.3735,0.25612 -1.44662,10.27363 -3.80403,20.48049 -6.1235,30.64231 3.26659,3.25738 10.67488,3.85812 11.08984,-2.13086 1.34689,-5.52806 7.28204,-10.76589 5.43555,-16.76757 -4.0469,-2.28659 -0.50743,-7.13201 -0.68551,-11.34372 0.58471,-3.94701 1.70601,-10.03771 -3.71293,-10.94925 -1.96274,-0.26996 -5.26059,-2.82469 -6.47461,-0.63672 z m -26.16211,0.10156 c -11.30879,7.50206 -16.29739,21.35 -19.72265,33.89844 -1.77969,4.50956 -0.6159,10.42948 4.58789,11.87695 7.88194,1.72924 13.26568,-6.51656 17.20898,-12.00781 1.36993,-1.97761 2.88751,-4.7515 3.92383,-6.33399 -0.71286,4.7884 -1.59602,9.54947 -2.53125,14.29883 3.0918,0.7233 9.22918,6.2046 11.15625,1.01563 0.63663,-5.76888 2.51103,-11.32846 5.29492,-16.41797 -1.22776,-1.49309 -3.48707,-2.53647 -5.22265,-1.25195 1.0895,-6.81387 2.68669,-13.43722 4.32617,-20.14844 -3.27372,-0.0465 -5.85362,-2.29033 -8.5293,-3.86133 -0.7313,4.25048 -2.50818,2.93163 -4.93554,0.96484 -1.68039,-0.55067 -3.95853,-3.44808 -5.55665,-2.0332 z m 4.1504,9.59766 c 4.44792,-0.31827 -0.91349,4.76325 -1.37926,7.09499 -4.06701,7.05997 -7.82047,15.06918 -14.15395,20.19016 1.25532,-10.48876 8.43901,-19.92912 15.53321,-27.28515 z"
       id="path4934"
       inkscape:connector-curvature="0" />
  </g>
  <g
     inkscape:groupmode="layer"
     id="layer4"
     inkscape:label="thai"
     sodipodi:insensitive="true"
     transform="translate(-199.49248,-507.52615)">
    <path
       id="path4917"
       style="fill:#1f2522;fill-opacity:1;fill-rule:evenodd;stroke:#000000;stroke-width:1px;stroke-linecap:butt;stroke-linejoin:miter;stroke-opacity:1"
       d="m 376.3344,653.01231 c 0,0 -11.79687,15.3255 0.12441,4.10547 4.22987,-3.98105 -5.10073,35.58071 -5.10073,35.58071 0,0 5.34954,3.60783 6.59362,-0.49764 0.54921,-4.09686 7.88677,-14.58218 5.84718,-16.54627 l -3.98105,5.22514 c 0,0 5.10073,-24.01076 3.1102,-25.37925 -1.99053,-1.36848 -6.59363,-2.48816 -6.59363,-2.48816 z m 7.34008,-18.03917 c 0,0 -5.47396,6.96686 -6.46922,8.21094 -0.99527,1.24408 3.85665,2.36375 5.47395,1.6173 1.61731,-0.74645 11.69436,-6.84244 0.99527,-9.82824 z m -31.72406,24.38398 c 0,0 12.60542,2.40771 -2.36375,-5.72277 -12.56522,6.96685 -21.14938,35.82953 -19.15885,39.06414 1.99053,3.23461 9.53643,11.12316 25.37924,-20.0297 3.99127,-7.84831 -1.49289,19.78088 -1.49289,19.78088 11.75059,5.05236 3.05325,3.31062 11.69436,-13.68489 -1.98924,-1.91495 -4.72751,4.22988 -4.72751,4.22988 -2.11494,-0.62204 3.85665,-24.50839 3.85665,-24.50839 0,0 -1.36849,-0.12441 -5.22514,-2.61257 -28.84764,61.64653 -33.68528,28.77797 -7.96211,3.48342 z m -31.22643,-39.18854 c 0,0 -9.82823,-8.33534 -11.32113,-3.23461 -8.30333,17.41357 -14.56217,30.91206 -16.9195,58.09857 0.74645,13.31166 -1.99053,19.65648 -1.99053,19.65648 0,0 4.56321,5.0112 5.34955,2.98579 21.62908,-51.03465 27.55113,-46.64929 16.79509,-1.24408 1.49289,1.24408 5.84718,2.23934 5.84718,2.23934 0.40297,-4.43267 7.96211,-19.15884 9.3306,-19.28325 1.36849,-0.1244 -2.48816,-3.23461 -5.34954,3.35902 6.7943,-40.35691 -13.24572,-31.86427 -24.75721,-1.6173 -0.13546,-7.42917 8.52998,-67.424 20.90056,-59.21824 1.11967,0.74645 3.73224,0.62204 2.11493,-1.74172 z m -79.86997,42.67197 2.11493,2.48816 -0.12441,2.73698 -2.73697,-0.37323 c 0,0 -12.19199,-11.56995 -7.09126,-20.52733 5.10073,-8.95738 35.4563,-10.94791 35.4563,-10.94791 l 0.37322,-3.1102 c 0,0 3.35902,-1.99053 5.72277,1.74172 2.36375,3.73224 9.2062,-1.11968 9.2062,-1.11968 0,0 2.73698,-5.59836 7.96211,-3.73224 5.22514,1.86612 3.48343,8.08653 3.48343,8.08653 l -22.64227,3.35901 c 0,0 -11.19672,40.93026 -10.69909,58.22298 -1.4929,7.83771 -9.2062,0.62204 -9.2062,0.62204 0,0 -1.74171,-19.53207 1.86612,-18.28799 3.60784,1.24408 4.10547,-1.24408 4.10547,-1.24408 0,0 6.34481,-36.20275 7.09126,-36.82479 0.74645,-0.62204 -28.24063,2.9858 -27.12096,11.07232 1.11967,8.08653 2.23935,7.83771 2.23935,7.83771 z"
       inkscape:connector-curvature="0" />
  </g>
  <g
     inkscape:groupmode="layer"
     id="layer5"
     inkscape:label="chili yellow"
     style="display:inline"
     transform="translate(-199.49248,-507.52615)"
     sodipodi:insensitive="true">
    <path
       style="fill:#fbf3b7;fill-opacity:1;fill-rule:evenodd;stroke:#fbf3b7;stroke-width:2.00000024;stroke-linecap:butt;stroke-linejoin:miter;stroke-miterlimit:4;stroke-dasharray:none;stroke-opacity:1;filter:url(#filter4964)"
       d="m 546.53711,598.60742 c -4.41573,0.90834 -5.29094,6.58372 -7.73047,9.73633 -11.12312,22.04188 -10.30143,47.41498 -14.82226,71.07227 0.1547,3.04704 4.48645,5.58058 7.52148,6.75976 5.11378,0.28624 2.54323,-6.90206 5.09766,-9.69336 0.42432,-3.2458 5.99107,-8.82949 1.42187,-11.09765 -1.81934,-0.0489 -3.33473,2.55862 -2.23633,-1.30274 2.12057,-17.60774 3.82127,-36.19556 11.97461,-52.30664 1.12881,-3.02943 4.12134,-4.20874 6.60547,-2.2832 4.18648,1.46233 5.93616,-4.76152 2.05469,-6.35157 -2.90901,-2.07079 -6.12271,-4.63086 -9.88672,-4.5332 z m -63.61328,4.11524 c -5.22651,1.06974 -5.04393,8.29874 -7.80927,11.90265 -8.90732,18.7198 -13.20796,39.54186 -12.96222,60.13055 0.75464,4.34614 -4.30539,9.49115 0.29102,12.32617 2.0869,2.98847 7.36746,3.58775 7.81871,-1.04158 5.1973,-11.30087 9.51687,-23.34904 17.25941,-33.21037 0.39934,11.47609 -3.03845,22.70171 -5.33593,33.84765 2.71872,2.38304 6.40162,3.01896 9.78515,3.89258 1.06016,-7.39326 4.49406,-14.26478 8.89844,-20.09961 2.98541,-2.3246 -1.16882,-5.6449 -3.74414,-4.26562 0.40664,-7.45199 2.22571,-17.53314 -4.62891,-22.6582 -7.38356,-2.85225 -13.18144,5.14167 -16.89453,10.39453 -1.23872,1.50568 -3.60058,7.02245 -2.49794,2.36355 2.74389,-14.184 4.40704,-29.45772 12.32216,-41.93582 2.19326,-4.3926 6.71607,1.92894 9.19336,-2.02539 1.75098,-4.67363 -4.78336,-7.00101 -7.95312,-8.87305 -1.17721,-0.49059 -2.45511,-0.8634 -3.74219,-0.74804 z m -42.88867,16.35937 c -12.75618,2.62576 -19.37592,15.89166 -23.71232,26.94688 -3.94395,11.9754 -7.60841,25.74801 -2.59628,37.93203 3.75222,5.88972 11.4538,8.8561 18.27149,8.70508 11.42711,-1.17654 19.90849,-10.2243 27.49023,-17.98243 -1.48258,-3.67645 -0.97849,-10.43261 -5.72266,-11.54882 -4.51288,0.99931 -1.62223,7.70945 -6.20507,9 -6.15486,4.72106 -12.71833,12.10392 -21.14258,11.38867 -5.72158,-3.80575 -3.59146,-12.38193 -3.11133,-18.21485 2.53196,-13.00189 6.74185,-28.34678 19.14453,-35.24218 5.1114,-0.94439 3.766,5.8845 2.33399,8.68359 -1.11452,3.52876 -6.03384,8.83706 -0.81446,11.20508 3.11451,1.17153 8.29654,3.36261 8.69346,-1.48617 2.05441,-7.01942 6.38415,-14.31345 5.03701,-21.77946 -2.17785,-3.63653 -6.75057,-4.70038 -10.46094,-6.05273 1.18983,5.729 -5.68261,-2.5824 -7.20507,-1.55469 z m 113.86132,4.07227 c -1.52487,3.79845 -8.45437,6.80655 -6.49414,11.34375 5.2042,4.95141 14.68289,-0.37919 14.88672,-6.92774 -0.40899,-3.38576 -6.35064,-6.38057 -8.39258,-4.41601 z m -39.39257,2.23437 c -1.52025,3.79664 -8.46086,6.80835 -6.49024,11.33985 5.19693,4.96075 14.69764,-0.38257 14.88086,-6.9336 -0.41188,-3.38079 -6.35395,-6.37046 -8.39062,-4.40625 z m 32.0332,15.83008 c -1.65341,3.33482 -7.05127,6.88209 -4.92188,10.93359 2.06363,1.5292 4.23051,-0.9328 5.63477,-1.9414 -1.28463,11.08324 -3.9306,21.95569 -6.36523,32.82812 3.11078,3.06042 10.31943,4.02496 10.96289,-1.70898 1.3435,-5.74277 7.25052,-10.92286 5.63086,-17.07617 -4.11586,-2.35664 -0.61622,-7.15345 -0.75583,-11.44723 0.58273,-3.94457 1.7067,-10.0386 -3.71292,-10.94535 -1.95876,-0.27688 -5.25146,-2.81952 -6.47266,-0.64258 z m -39.39453,2.23828 c -1.64894,3.32687 -7.02997,6.86801 -4.92578,10.90235 2.38803,2.75471 6.74209,-4.89241 5.39186,0.32263 -1.45094,10.25359 -3.79952,20.45314 -6.11843,30.60119 3.25943,3.25045 10.66491,3.86684 11.08399,-2.11523 1.39708,-5.57141 7.27036,-10.79123 5.44531,-16.77735 -4.06581,-2.29257 -0.50119,-7.15626 -0.68852,-11.3475 0.58296,-3.9468 1.70547,-10.03851 -3.71382,-10.94937 -1.96009,-0.27415 -5.25876,-2.82301 -6.47461,-0.63672 z"
       id="path4928"
       inkscape:connector-curvature="0" />
  </g>
  <g
     transform="translate(-199.49248,-507.52615)"
     style="display:inline"
     inkscape:label="chili"
     id="g4958"
     inkscape:groupmode="layer"
     sodipodi:insensitive="true">
    <path
       sodipodi:nodetypes="ccccccccsccccsccssccsccccsccssccccccccscccccccccccccsc"
       inkscape:connector-curvature="0"
       d="m 556.13247,605.47025 c 0,0 -9.82823,-8.33534 -11.32113,-3.23461 -16.61672,23.25331 -14.9704,65.27485 -18.91003,77.75505 0,0 6.09184,5.83431 6.87818,3.8089 -0.82311,-6.11451 11.51613,-24.83023 0.57266,-11.96039 0.2173,-16.71852 8.29481,-72.83299 20.66539,-64.62723 1.11967,0.74645 3.73224,0.62204 2.11493,-1.74172 z m -47.3955,39.19341 c 0,0 -11.79687,15.3255 0.12441,4.10547 4.22987,-3.98105 -5.10073,35.58071 -5.10073,35.58071 0,0 5.34954,3.60783 6.59362,-0.49764 0.54921,-4.09686 7.88677,-14.58218 5.84718,-16.54627 l -3.98105,5.22514 c 0,0 5.10073,-24.01076 3.1102,-25.37925 -1.99053,-1.36848 -6.59363,-2.48816 -6.59363,-2.48816 z m 7.34008,-18.03917 c 0,0 -5.47396,6.96686 -6.46922,8.21094 -0.99527,1.24408 3.85665,2.36375 5.47395,1.6173 1.61731,-0.74645 11.69436,-6.84244 0.99527,-9.82824 z m 32.05145,15.80502 c 0,0 -11.79687,15.3255 0.12441,4.10547 4.22987,-3.98105 -5.10073,35.58071 -5.10073,35.58071 0,0 5.34954,3.60783 6.59362,-0.49764 0.54921,-4.09686 7.88677,-14.58218 5.84718,-16.54627 l -3.98105,5.22514 c 0,0 5.10073,-24.01076 3.1102,-25.37925 -1.99053,-1.36848 -6.59363,-2.48816 -6.59363,-2.48816 z m 7.34008,-18.03917 c 0,0 -5.47396,6.96686 -6.46922,8.21094 -0.99527,1.24408 3.85665,2.36375 5.47395,1.6173 1.61731,-0.74645 11.69436,-6.84244 0.99527,-9.82824 z m -62.95049,-14.80456 c 0,0 -9.82823,-8.33534 -11.32113,-3.23461 -8.30333,17.41357 -14.56217,30.91206 -16.9195,58.09857 0.74645,13.31166 -1.99053,19.65648 -1.99053,19.65648 0,0 4.56321,5.0112 5.34955,2.98579 21.62908,-51.03465 27.55113,-46.64929 16.79509,-1.24408 1.49289,1.24408 5.84718,2.23934 5.84718,2.23934 0.40297,-4.43267 7.96211,-19.15884 9.3306,-19.28325 1.36849,-0.1244 -2.48816,-3.23461 -5.34954,3.35902 6.7943,-40.35691 -13.24572,-31.86427 -24.75721,-1.6173 -0.13546,-7.42917 8.52998,-67.424 20.90056,-59.21824 1.11967,0.74645 3.73224,0.62204 2.11493,-1.74172 z M 449.181,623.40611 c 0,0 0.35276,4.58588 -8.819,-2.35173 -21.22753,3.14287 -34.39499,55.73882 -22.57664,64.79024 9.63045,6.31164 19.18267,9.95923 39.50912,-11.75866 -4.01616,-17.70482 -4.93864,-3.64519 -4.93864,-3.64519 -38.14866,36.12138 -34.02421,-0.43495 -27.51528,-19.51938 7.50012,-20.92138 17.87317,-23.04699 17.87317,-23.04699 9.68997,0.34506 3.99643,12.38464 0.70552,18.46111 -0.23517,2.46932 6.70244,3.17484 6.70244,3.17484 0,0 7.45387,-18.76391 5.76175,-21.98871 -1.23953,-2.36225 -6.70244,-4.11553 -6.70244,-4.11553 z"
       style="fill:#ca1c32;fill-opacity:1;fill-rule:evenodd;stroke:#550000;stroke-width:1px;stroke-linecap:butt;stroke-linejoin:miter;stroke-opacity:1"
       id="path4960" />
  </g>
</svg>
